<?xml version="1.0" encoding="UTF-8"?><svg xmlns="http://www.w3.org/2000/svg" xmlns:xlink="http://www.w3.org/1999/xlink" viewBox="0 0 203.15 507.88"><defs><style>.e{isolation:isolate;}.f{clip-path:url(#b);}.g{clip-path:url(#d);}.h{fill:none;}.i{fill:url(#c);mix-blend-mode:screen;}.j{fill:#f4f2d2;}</style><clipPath id="b"><rect class="h" x="0" y=".41" width="203.15" height="505.84"/></clipPath><radialGradient id="c" cx="104.76" cy="193.43" fx="104.76" fy="193.43" r="227.98" gradientTransform="matrix(1, 0, 0, 1, 0, 0)" gradientUnits="userSpaceOnUse"><stop offset=".33" stop-color="#fff"/><stop offset=".34" stop-color="#fff" stop-opacity=".8"/><stop offset=".36" stop-color="#fff" stop-opacity=".61"/><stop offset=".37" stop-color="#fff" stop-opacity=".45"/><stop offset=".39" stop-color="#fff" stop-opacity=".31"/><stop offset=".4" stop-color="#fff" stop-opacity=".2"/><stop offset=".42" stop-color="#fff" stop-opacity=".11"/><stop offset=".44" stop-color="#fff" stop-opacity=".05"/><stop offset=".46" stop-color="#fff" stop-opacity=".01"/><stop offset=".49" stop-color="#fff" stop-opacity="0"/></radialGradient><clipPath id="d"><rect class="h" x="-245.76" y=".41" width="203.15" height="506.94"/></clipPath></defs><g class="e"><g id="a"><g class="f"><circle class="i" cx="104.76" cy="193.43" r="144.15"/></g><g class="g"><g><path class="j" d="M2.66,49.59c0-.88,1.54-.88,1.54,0s-1.54,.88-1.54,0Z"/><path class="j" d="M2.24,79.2c.29,0,.25-.4-.04-.4s-.25,.4,.04,.4Z"/><path class="j" d="M3.93,16.03c.44,0,.38-.6-.06-.6s-.38,.6,.06,.6Z"/><path class="j" d="M6.91,72.98c.35,0,.3-.47-.04-.47s-.3,.47,.04,.47Z"/></g></g></g></g></svg>