<?xml version="1.0" encoding="UTF-8"?><svg xmlns="http://www.w3.org/2000/svg" xmlns:xlink="http://www.w3.org/1999/xlink" viewBox="0 0 500 500"><defs><style>.d{isolation:isolate;}.e{clip-path:url(#b);}.f{clip-path:url(#c);}.g{mix-blend-mode:screen;}.h{fill:none;}.i{fill:#f4f2d2;}</style><clipPath id="b"><rect class="h" y="0" width="500" height="500"/></clipPath><clipPath id="c"><rect class="h" x="-2.76" y="-516.31" width="500" height="500"/></clipPath></defs><g class="d"><g id="a"><g class="e"><path d="M393.06,362.37c-9.98,.21-29.17-4.18-39.16-4.29-2.25-.03-4.49,.38-6.73,.57-3.55,.29-7.11,.56-10.64,.93-.31,.03-.62,.07-.93,.11,.05,0,.09,0,.14,0-.92,.11-1.81,.25-2.69,.41,.04-.01,.09-.03,.13-.04-.54,.1-1.08,.21-1.61,.33-.24,.05-.49,.12-.73,.18-.54,.13-1.09,.27-1.62,.43-.23,.06-.45,.13-.68,.2-.71,.22-1.43,.45-2.15,.71-3.12,1.12-6.09,2.42-9.23,3.51-3.27,1.13-6.52,1.89-10.19,2.23-1.05,.1-2.12,.18-3.18,.25-.46,.03-.92,.07-1.38,.1-.44,.03-.89,.07-1.33,.1-.59,.05-1.18,.1-1.77,.16-.31,.03-.61,.06-.92,.09-.88,.1-1.75,.21-2.6,.36-3.33,.58-6.47,1.51-9.59,2.47-2.84,.87-5.71,1.78-8.74,2.35-.72,.14-1.44,.24-2.17,.33-.16,.02-.33,.04-.49,.06-.66,.07-1.31,.13-1.97,.17-.23,.01-.46,.03-.7,.04-1.53,.07-3.07,.07-4.63,0-.73-.03-1.46-.09-2.19-.14-.35-.03-.7-.06-1.05-.09-.55-.05-1.09-.11-1.63-.17-.32-.04-.63-.07-.95-.11-.6-.08-1.21-.17-1.8-.27-.25-.04-.5-.08-.75-.12-.85-.15-1.69-.31-2.52-.5-3.36-.75-6.54-1.69-10.03-2.17-.38-.05-.75-.1-1.13-.14,.04,0,.07,.02,.11,.03-2.98-.36-5.99-.53-9.01-.64-1.03-.04-2.05-.06-3.07-.1h0c-.58-.02-1.16-.05-1.74-.08h0c-.55-.03-1.1-.07-1.64-.13-.09,0-.17-.02-.26-.03-.43-.04-.86-.1-1.29-.16-.14-.02-.28-.04-.42-.06-.51-.08-1.03-.17-1.54-.29-.78-.18-1.55-.39-2.32-.61-.05-.01-.1-.03-.15-.05-.74-.22-1.48-.46-2.21-.7-3.55-1.18-7.07-2.53-10.93-2.95h-.03s-.06,0-.1-.01c-.76-.08-1.54-.13-2.33-.12-3.57,0-7.11,.82-10.69,.61-3.38-.2-6.65-1.32-9.66-2.29-6.82-2.21-13.31-4.95-20.53-6.57-.45-.1-.9-.19-1.34-.26-.11-.02-.23-.03-.34-.05-.33-.05-.67-.1-1-.13-.15-.02-.3-.03-.45-.04-.29-.03-.58-.05-.88-.07-.18,0-.35-.01-.53-.02-.26,0-.52-.02-.79-.02-.2,0-.4,0-.6,0-.24,0-.47,0-.71,.02-.22,0-.43,.02-.65,.04-.21,.01-.42,.03-.63,.05-.24,.02-.47,.04-.71,.07-.18,.02-.37,.04-.55,.07-.26,.03-.52,.07-.78,.11-.07,.01-.13,.02-.2,.03h0c-.07,.01-.14,.03-.22,.04-.33,.05-.66,.11-.99,.18-.15,.03-.29,.06-.44,.09-.3,.06-.6,.13-.9,.2-.16,.04-.33,.08-.49,.12-.28,.07-.55,.14-.83,.22-.18,.05-.35,.1-.53,.15-.26,.08-.51,.16-.77,.24-.18,.06-.37,.12-.55,.18-.24,.08-.48,.16-.72,.25-.19,.07-.38,.13-.58,.2-.23,.08-.45,.17-.68,.26-.19,.07-.39,.15-.58,.22-.23,.09-.46,.19-.69,.29-.17,.07-.35,.15-.53,.22-.4,.17-.79,.35-1.18,.53-.33,.15-.65,.31-.98,.46,0,0-16.42,4.41-22.05,4.71-8.85,.47-26.4-14.73-35.27-14.69-10.72,.04-32.29,7.44-42.98,6.61-15.28-1.19-58.78-6.98-58.78-6.98l-2.57,77.51,.37,81.5v34.22l161.27-1.65,209.43,1.47,154.61-3.15v-17.24l-1.47-168.24s-6.24,3.67-14.33,6.24c-4.12,1.31-15.93,4.11-20.2,4.78-5.46,.85-14.38,.11-19.84-.73-21.31-3.31-7.35-2.94-26.08-5.51-11.33-1.56-26.35,3.49-34.9,3.67Zm-235.58-6.35h0Z"/><g><path d="M373.92,168.02c-.52,.27-6.81,2.13-5.77,.24,.19-.35,.39-.7,.58-1.06,2.73-3.06,4.52-6.85,5.89-10.68,.26-.74,3.4-11.04,3.94-10.66-.83-.57-.52-1.33-.36-2.09,.12-.6,.62-1.27-.2-1.83-.63,1.08-1.48,1.96-1.79,3.15-.32,.06-.46,.26-.42,.58-1.01,.59-1.69,3.39-2.18,4.39-.94,1.9-1.98,3.74-3.08,5.55-2.34,3.85-3.72,8.19-7.65,10.65-3.82,2.39-5.25,7.61-9.21,9.75-.6,.32-1.26,.58-1.71,1.09-.24,.28-.43,.64-.79,.75-1.25,.39-.69-5.64-.37-6.38,1.31-3.06,.54-6.03,.08-9.19-.22-1.51-.47-3.1-1.4-4.32-.79-1.03-1.99-1.66-3.13-2.29-.22-.12-.46-.26-.57-.49-.08-.16-.08-.35-.09-.53-.13-5.13,.06-9.28,2.22-14.03,1.91-4.21,4.57-8.05,7.43-11.66,4.69-5.93,10.11-11.29,14.43-17.5,.28-.4,.54-.82,.81-1.23,4.37-1.91,8.24-4.51,11.74-7.89,.46-.45-.22-1.11-.7-.7-2.89,2.51-6.14,4.61-9.6,6.26,3.12-5.38,5.2-11.41,4.77-17.56-.04-.57-.34-1.32-.89-1.18-.31,.08-.46,.41-.58,.7-1.77,4.59-3.19,9.32-5.23,13.8-2.05,4.48-4.79,8.75-8.7,11.74-1.44-6.35,.3-13.14-1.36-19.44-.22-.83-.51-1.67-1.09-2.3-.58-.63-1.51-1-2.32-.7-.33,4.18-.45,8.38-.39,12.57-1.37-2.55-3.11-4.94-4.74-7.07-.4-.52-1.29-.03-.9,.53,2.53,3.58,3.97,7.55,5.79,11.41,.07,1.4,.14,2.81,.26,4.21,.1,1.25,.27,2.6,1.13,3.51,.24,.25,.53,.48,.63,.81,.18,.59-.33,1.14-.78,1.55-5.99,5.45-10.66,12.33-13.52,19.9-.4,1.05-1.31,2.36-2.31,1.86,.37-13.9,.73-27.81,1.1-41.71-2.02,11.88-3.66,23.82-4.92,35.8-1.04-.05-1.55-1.27-1.82-2.27-2.59-9.73-5.19-19.47-7.78-29.2,.27,1.01-.75,3.46-.73,4.7,.03,1.77,.4,3.49,.67,5.24,.3,1.93,.63,3.87,.99,5.82-1.61-1.64-3.71-2.74-5.47-4.21-3.32-2.78-5.63-6.24-7.21-10.25-.26-.66-1.33-.38-1.08,.3,1.65,4.49,4.13,8.46,7.82,11.56,2.41,2.03,4.96,3.44,6.42,6.4,.14,.28,.25,.57,.37,.86,1.58,8.48,3.18,17.06,3.18,25.53-.31,2.71,.1,5.27,.87,7.82,.32,1.07,1.03,4.17-.33,4.52-.61-1.31-.81-2.73-1.7-3.93-.77-1.04-1.87-1.8-2.67-2.82-.58-.74-.99-1.61-1.59-2.34-1.78-2.18-4.72-2.74-6.98-4.23-2.71-1.79-5.27-4.17-7.15-6.83-2.12-3-3.92-6.21-5.49-9.53,3.18-6.91,3.21-14.21,.22-21.22-.25-.58-1.27-.16-1.03,.43,2.5,6.16,2.41,12.74-.12,18.82-.69-1.55-1.33-3.12-1.93-4.71-1.91-5.13-2.35-11.5-6.38-15.49,.78,.77,.6,5.46,.77,6.73,.34,2.47,.77,4.94,1.42,7.35,1.24,4.63,3.31,9.05,5.59,13.25,1.51,2.78,3.3,5.42,5.41,7.78,1.48,1.66,6.03,4.24,5.89,6.44-2.52-1.08-5.24-1.04-7.89-1.35-1.04-.12-2.61-1.39-3.6-1.85-1.28-.59-2.61-1.1-3.89-1.69-2.53-1.15-5.49-1.78-7.84-3.29-3.28-2.1-4.73-6.06-6.32-9.62-1.53-3.44-3.38-6.74-5.52-9.84-1.13-1.65-2.35-3.25-3.33-5-.82-1.47-1.46-3.03-2.25-4.51-1.68-3.11-4.07-5.84-6.93-7.91-.52,.33-.27,1.13,.03,1.67,4.23,7.59,8.46,15.18,12.69,22.77,.53,.94,1.06,2.11,.51,3.05-1.52-1.74-3.47-2.99-5.18-4.52-1.85-1.66-3.37-3.63-5.04-5.47-2.83-3.11-6.37-5.42-10.52-6.27,2.17,2.87,5.48,4.68,7.81,7.42,1,1.18,1.81,2.51,2.79,3.71,1.18,1.44,2.6,2.66,4.01,3.88,.09,.08,.18,.15,.27,.23-1.58-.28-3.18-.5-4.81-.75-6.64-1.02-12.82-2.85-18.91-5.72-.54-.26-1.02,.55-.48,.81,4.64,2.27,9.42,4.2,14.44,5.45,4.24,1.05,8.45,1.57,12.58,2.65,2.66,2.29,5.31,4.58,7.97,6.87-.49,1.29-2.32,1.18-3.67,.92-1.88-.37-5.16-1.28-7.03-.7-2.82,.87,.07,2.1,1.45,2.52,4.5,1.35,9.14,2.26,13.81,2.74,.6,.06,1.2,.12,1.8,.04,.58-.07,1.15-.26,1.74-.28,1-.03,1.95,.43,2.84,.89,4.22,2.16,8.38,4.41,12.5,6.76,3.59,2.05,7.8,3.97,10.97,6.61,2.12,1.78,4.4,3.45,5.26,6.27,.86,2.86,2.43,5.36,3.8,7.98,1.42,2.7,3.15,5.02,3.94,8.03,.82,3.13,.93,6.41,1.03,9.63,.11,3.53,.22,7.06,.32,10.59,.06,1.84-.04,4-1.55,5.04-.73,.5-1.64,.63-2.52,.74-1.22,.15-2.34,.28-3.48,.25-2.84-3.94-8.06-6.73-9.26-11.62-.15-.62-1.09-.36-.95,.26,.96,4.51,4.53,7.42,7.34,10.82-.48-.16-.96-.25-1.46,.12-.41,.02-.82,.04-1.23,.06-.85-.84-1.66-1.7-2.43-2.62-.49-.59-1.32,.25-.84,.84,.52,.64,1.06,1.25,1.61,1.87-.26,.01-.53,.03-.79,.04l-1.08-.02c-.18-.01-.36-.02-.54-.03l-.52-.04c-.52-.41-1.06,.16-1.59-.03-.2-.39-.4-.61-.62-.04-1.4-1.07-2.79-2.13-4.19-3.2-.45-.89-1.01-1.64-2.07-1.83-.91,1.71,1.19,1.93,1.4,3.05,1.45,.81,2.02,2.64,3.67,3.22l.04,.04c.04,.33,.24,.48,.55,.52,.13,.63,.47,1,1.17,.94,1.85,.37,3.44,1.58,5.39,1.62,.18,.02,.36,.04,.54,.05,1.14,.73,2.41,.57,3.66,.55,.04,.02,.08,.05,.12,.07,.66,1.03,1.45,1.9,2.6,2.46,1.83,.89,3.59,1.9,5.39,2.86,.83,.64,.66,1.49,.63,2.4-.1,3.03-1.69,5.74-1.82,8.75-.14,3.14-1.58,6.05-1.78,9.14-.24,3.72-1.28,7.27-1.71,10.93-.01,.1-.03,.19-.04,.29-.82-.63-1.65-1.25-2.37-1.97-2.76-2.76-4.22-6.2-4.42-10.09-.03-.59-.93-.6-.93,0,0,3.48,.77,6.8,2.84,9.65,1.24,1.7,2.89,2.86,4.42,4.26,.07,.06,.12,.12,.18,.18-.56,4.19-1.24,8.35-1.48,12.58,0,.16-.03,.34-.17,.41-.08,.04-.17,.04-.26,.02-.28-.04-.56-.13-.81-.28-.42-.24-.76-.61-1.2-.8-.44-.19-1.07-.12-1.26,.33-.14,.34,.04,.73,.22,1.05,.71,1.28,1.29,2.96,2.21,4.08,.08,.09,.16,.18,.21,.29,.05,.12,.05,.25,.1,.38,.09,.26,.36,.41,.49,.65,.07,.14,.09,.3,.11,.45,.87,7.68,.81,15.49,3.26,22.91,.11,.33,0,.72,.08,1.07,.54,2.51,.25,5.28,1.69,7.51,2.2,3.38,2.2,6.89,1.22,10.56-.21,.78-.52,1.55-.35,2.36,.48,2.29,.48,4.62,.61,6.94,.29,5.19,1.3,10.29,1.75,15.45,.46,5.39,1.58,10.8,1.33,16.22-.01,.22-.04,.48-.22,.61-.27,.2-.64-.03-.89-.24-3.69-3.13-7.59-6.57-8.79-11.26-.27-1.04-.45-2.21-1.29-2.88-.22,4.21,1.85,8.19,4.2,11.68,2.72,4.03,5.35,7.83,7.24,12.33,.66,1.58,.95,3.23,1.18,4.92,.17,1.27-.09,3.18,.66,4.25,.24,.35,.6,.59,.96,.82,1.87,1.21,3.88,2.24,6.04,2.77,3.33,.81,7.66,.12,10.39-2.11,2.22-1.81,1.95-4.52,1.18-6.96-1.76-5.56-3.12-11.57-5.52-16.89-1.3-2.87-1.12-7.22-1.5-10.34-.45-3.75-1.12-7.63-1.18-11.41-.05-3.37,1.1-6.62,1.44-9.95,.25-1.86,.49-3.81,1.42-5.39,3.47-5.91,4.09-13.63,5.33-20.24,.15-.81,.3-1.63,.17-2.44-.05-.29-.14-.58-.13-.88,0-.24,.08-.48,.16-.71,1.2-3.57,4.56-6,6.18-9.44,2.53-5.38,5.14-10.68,6.7-16.51,.72-2.71,1.19-5.48,1.71-8.23,.26-1.37,.52-2.75,.84-4.11,.35-1.49,.62-3,.96-4.5,.17-.77,.33-1.56,.58-2.31,.2-.61,.54-1.19,.51-1.86-.04-.89-.29-1.79-.59-2.63,.41,1.18-1.48,5.61-1.8,7-1.6,6.86-2.88,13.95-5.97,20.34-2.4,4.95-4.34,10.13-7.38,14.77-.5,.76-2.35,.63-1.83-.48,.28-.59,.56-1.19,.83-1.78,.04-.08,.07-.16,.14-.21,.09-.08,.22-.1,.34-.14,1.28-.44,1.57-2.98,1.91-4.08,.53-1.7,.89-3.45,1.1-5.22,.58-4.8,1.05-9.62,1.54-14.43,.43-4.28,1.44-8.84,1.21-13.15-.17-4.46,.47-8.88,1.53-13.23,.32-1.32-.26-2.29-.97-3.19-.74-.94-1.75-.74-1.92,.42-.4,2.67-1.29,5.27-1.8,7.93-.59,3.08-1.35,6.14-2.73,8.97-1.19-4.11-2.38-8.21-3.58-12.32-.66-2.29-1.33-4.58-1.96-6.87-.19-.7-.38-1.41-.57-2.11,1.44-1.8,2.82-3.62,4.17-5.38,2.26-2.93,4.53-5.73,4.81-9.52,.05-.74-1.07-.72-1.14,0-.51,4.94-5.28,9.17-8.36,12.81-.6-2.48-1.1-4.98-1.33-7.51-.4-4.37-.03-8.79-.47-13.16-.19-1.93-.54-3.87-.38-5.81,.24-2.97,2.09-4.64,3.79-6.86,1.65-2.16,2.77-4.8,3.55-7.39,.73-1.73,1.77-3.36,1.7-5.34-.07-1.95,3.54-3.45,4.77-4.19,.28-.17,.62-.18,.94-.22,1.78-.17,3.46-.85,5.12-1.52,3.06-1.24,5.24-2.66,7.7-4.92,2.55-2.34,5.3-4.46,8.22-6.32,2.59-1.66,5.49-2.99,6.91-5.91,.02-.03,.03-.06,.05-.1-6.02,4.08-12.03,8.16-18.05,12.24-.8,.54-1.6,1.09-2.46,1.52Zm-24.84-30.98c-.01,.06,0,.11-.02,.17,0-.06,0-.12,0-.19l.03,.02Zm-41.2,14.57s0-.03,.02-.05c.01,.01,.02,.02,.03,.03-.01,0-.01,0-.02,.01,0,0-.02,0-.03,0Zm.05,0h0Zm32.35-12.93s-.03-.04-.03-.07c.01,.03,.03,.04,.05,.07h-.01Zm21.49,122.53h0s0,.02-.01,.01c0,0,.02,0,.02-.01Zm-11.49-99.9h0Zm4.3,103.98c-.17,3.28-.24,6.57-.28,9.86,0,.63-.04,1.24-.17,1.85-1.57,7.5-3.38,14.93-6.08,22.12-.37,.98-.26,2.14-1.3,3.2-1.66-11.87-3.24-23.52-2.18-35.36h0c.55-1.1,.52-2.28,.54-3.45,.56-1.2,.46-2.5,.55-3.77h0c.83-3.35,1.32-6.76,1.64-10.2,.66-2.86,1.4-5.71,1.59-8.66,.44-.54,.28-1.41,1.24-1.97,.44,2.79,1.24,5.4,1.79,8.04,.73,3.48,1.23,6.99,2.33,10.41,.81,2.5,.47,5.26,.33,7.93Z"/><path d="M552.14,253.2c-.14,0-.29,.02-.42,.07-.4,.18-.68,.56-.93,.92-1.99,2.87-3.89,5.82-6.82,7.84-1.31,.9-2.78,1.6-3.88,2.75-1.68,1.76-2.83,2.66-4.84,3.92-1.5,.94-2.74,2.27-4.03,3.47-5.33,4.91-11.81,8.63-16.91,13.68-.19-1.86-.62-3.7-1.36-5.43-2.56-6.05-2.32-10.32-.87-16.76,.26-1.17-1.51-1.67-1.8-.5-1.45,5.83-3.67,10.52-1.06,16.12,1.76,3.76,2.3,7.04,1.93,10.15-.13,.18-.28,.33-.41,.51-3.26,4.55-4.74,11.47-9.69,14.45-4.85,2.91-10.98,2.21-15.89,4.99-.71,.4-1.36,1.03-2.2,.53-1.46-.87,.03-1.39,0-2.57-.04-1.98-1.06-4.32-1.2-6.45-.79-11.92,.18-23.97-.21-35.92-.04-1.18-.12-2.55,.39-3.53,.33-.63,.59-1.28,.81-1.94,4.27-1.91,6.63-4.69,9.21-8.77,.58-.92-.82-1.7-1.44-.84-2.27,3.13-4.2,4.97-7.05,6.48,.26-1.92,.27-3.86,.28-5.75,.06-6.65,2.09-12.13,7.1-16.49,0-.09-.02-.23-.06-.4-.02-.08-.03-.16-.05-.22-.28-1.25-1.07-3.63-1.23-3.58-.39,.12-.86,.32-1.07,.64-.56,.84,.44,1.63,.22,2.5-1.44,1.9-2.87,3.8-4.31,5.69-.27,.36-1.55-5.9-1.39-6.76,.23-1.26,.65-2.73-.19-3.69-.71-.82-2.04-.85-2.78-1.65-.63-.69-.64-1.74-.49-2.66s.44-1.85,.27-2.77c-.16-.84-.68-1.56-1.08-2.32-.83-1.58-.42-3.3,.58-4.73,.92-1.33,2.25-2.31,3.48-3.35,4.19-3.53,5.6-9.47,8.29-14.14,2.73-4.73,5.82-9.25,8.75-13.85,6.94-4.75,16.6-6.76,23.33-11.84,6.93-5.22,12.35-11.94,16.44-19.54,.6-1.11-1.08-2.1-1.69-.99-7.38,13.47-18.44,21.09-32.67,26.18-.73,.26-1.48,.54-2.24,.84,4.94-9.25,6.71-18.78,7.34-29.42,.54-9.1,.26-18.24-.65-27.31-.68-6.85-1.46-14.71,3.3-19.68,.78-.81,1.68-1.51,2.4-2.38,.95-1.16,1.51-2.56,2.13-3.93,4.63-10.33,12.54-19.62,13.49-30.9-3.68,7.31-7.9,14.35-12.61,21.05-.35,.5-.89,1.06-1.47,.86-.39-.14-.58-.58-.71-.97-2.71-7.88-3.03-16.67-7.39-23.77-2.14,6.87,1.4,14.11,1.93,21.29,.55,7.4-2.12,14.6-3.95,21.79-.49,1.91-.91,3.83-1.29,5.76-2.06-10.44-6.55-20.51-11.84-29.53-.55-.94-2.01-.1-1.47,.86,7.3,12.8,9.83,25.75,11.59,39.89-1.21,10.3-1.62,20.73-2.58,31.07-.16,1.75-.36,3.55-1.19,5.1-2.29-2.99-1.66-7.22-2.54-10.89-1.22-5.1-5.29-8.92-8.51-13.06-1.32-1.69-2.49-3.48-3.58-5.32,4.41-8.46,2.51-20.61-.23-29.09-.3-.94-1.76-.56-1.49,.41,1.46,5.26,1.98,10.56,1.56,16-.24,3.17-1.06,6.19-1.73,9.23-2.84-5.67-4.85-11.81-6.5-17.96-3.45-12.86-5.59-26.07-6.37-39.36-.93,.02-1.86-.33-2.54-.95-.91,11.36-.86,22.94,1.4,34.07-.19-.19-.38-.39-.57-.58-3.72-3.8-8.3-7.25-8.99-12.9-.11-.9-1.52-.94-1.44,0,.36,4.28,2.57,7.64,5.39,10.76,1.76,1.95,3.73,3.71,5.44,5.71,.45,.52,.85,1.07,1.24,1.63,.35,1.3,.69,2.6,1.11,3.88,5.3,16.36,16.3,30.65,19.91,47.46,1.46,6.78,1.65,13.89,.07,20.65-2.7,11.56-10.67,22.03-18.1,31.03-.27-1.67-.68-3.31-1.31-4.91-3.79-9.63-8.07-17.36-9.14-27.96-.11-1.06-1.77-1.09-1.68,0,.7,8.52,2.72,16.48,5.97,24.39,2.03,4.93,2.37,9.54,2.63,14.2-2.26,5-2.87,10.37-3.55,15.84-.22,1.72-1.71,3.5-2.2,5.2-.49,1.7-.64,3.52-.93,5.26-.48,.54-1.36,.52-1.99,.17-.63-.35-1.07-.95-1.53-1.5-1.42-1.72-3.18-3.16-5.15-4.22-.96-.51-1.98-.95-2.76-1.7-1.75-1.69-2.75-4.89-3.9-7.03-1.54-2.89-2.98-5.84-4.3-8.84-3.85-8.74-8.64-19.27-6.38-29,.88-3.79,.41-7.81-1-11.49-2.16-5.66-2.52-11.52-3.66-17.27,3.01-4.8,8.17-8.37,10.17-13.98,2.62-7.35,1.46-15.62,.47-23.16-.17-1.29-2.21-1.33-2.06,0,1.2,10.69,1.52,21.36-6.21,29.77-1.07,1.16-2.25,2.27-3.32,3.41-.08-.28-.14-.57-.23-.85-1.09-3.48-2.7-6.77-3.88-10.21-3.71-10.82-3.36-22.64-2.25-33.87,.44-4.45,.06-9.49-5.66-11.92-.85,4.06-.87,8.02-1.69,11.88-.84,3.92-.24,8.15-.26,12.25-.77,1.05-.73,2.3-.48,3.41,.78,3.52,.41,6.99,.43,10.54,.02,3.47,.84,7.03,1.39,10.49,1.23,7.77,2.52,15.54,3.73,23.31,.19,1.21,.63,11.32,1.09,11.51-1.51-.63-1.35-.5-2.21-2.32-.67-1.42-1.45-2.78-2.33-4.08-1.77-2.59-3.95-4.89-6.45-6.78-2.16-1.63-4.58-2.95-6.56-4.82-2.22-2.09-3.99-4.36-6.51-6.18-.66-1.17-.8-2.63-1.94-3.55-.47-1.97-.08-3.74,.76-5.62,3.18-7.07,5.58-13.48,6.41-21.26,.57-5.36,.5-10.78-.21-16.12-.21-1.6-.34-6.93-1.6-7.99-1.6-1.36-2.25,.44-1.5,1.92,.13,.25,.36,.46,.55,.68,.57,8.69-.48,17.24-2.12,25.75-.78,4.07-1.08,8.22-4.04,11.54-.65,.73-1.1,1.77-1.01,2.88-.87,.73-1.5,1.63-1.82,2.73-.55-.13-1.19-.07-1.49-.75-1.98-4.44-4.76-8.71-5.76-13.37-1.51-7.04-4.63-13.77-8.78-19.64-2.08-2.93-4.45-5.63-7.1-8.06-.69-.63-4.53-3.79-4.58-4.74,.17,3.2,2.9,6.69,4.53,9.35,3.07,5,5.15,9.09,6.09,14.88,1.49,9.19,6.02,19.11,11.7,26.43,4.24,5.47,9.01,10.16,12.23,16.43,3.23,6.3,5.23,13.24,5.72,20.31-3.21,.74-6.48,.59-9.67-.15-2.52-5.12-1.63-11.05-4.17-16.26-2.49-5.12-7.57-8.34-12.26-11.21-1.03-.63-1.96,.97-.94,1.61,7.13,4.48,11.22,8.63,12.27,17.26,.32,2.62,.62,5.12,1.39,7.46-3.3-1.26-6.43-3.08-9.2-5.23-6.39-4.98-11.37-11.49-17.01-17.3-2.1-2.17-4.3-4.24-6.59-6.21-.94-.81-2.4-1.61-3.31-.76,1.49,3.11,3.89,5.69,6.24,8.21,3.18,3.41,6.36,6.81,9.57,10.2,3.12,3.3,6.29,6.59,9.97,9.26,5.78,4.2,12.6,6.68,19.32,9.11,1.08,.39,2.17,.78,3.25,1.18,1.28,.46,2.49,.94,3.64,1.45-1.47,.06-2.94,.12-4.41,.19-5.25,.26-13.54,2.39-18.56,.99-8.02-2.23-10.74-13.81-18.02-17.98-8.52-4.88-17.82-2.63-27.07-4.07-17.53-2.74-26.93-20.97-32.46-36.26-.41-1.13-2.21-.65-1.81,.5,3.77,10.83,9.03,21.72,17.04,30.11,5.7,5.97,11.67,7.72,18.59,8.46-5.57,1.18-11.12,2.65-16.61,3.96-.98,.23-.56,1.69,.41,1.49,7.64-1.53,15.5-2.79,23.01-4.95,.83,.05,1.68,.09,2.54,.14,6.99,.41,13.15,.98,18.78,6.1,3.67,3.34,4.03,7.56,6.89,11.35,1.68,2.23,2.16,2.89,4.38,3.84,4.36,1.86,11.48,.08,15.95-.15,5.45-.28,10.89-.61,16.33-.99,1.8,1.25,3.49,2.74,5.09,4.67,1.85,2.22,.98,5.63,1.89,8.2,1.37,3.85,4.17,7.65,6.13,11.24,4.46,8.17,8.46,16.92,13.55,24.71,1.55,2.37,3.88,4.12,5.72,6.25,1.94,2.26,3.06,4.92,4.36,7.59,3.24,6.48,6.31,13.05,9.51,19.56,4.98,10.13,3.44,21.55,.05,31.91-.41,1.26-.87,2.49-1.31,3.74-1.53-3.97-3.17-7.71-3.7-10.55-.21-1.15-1.93-.65-1.74,.48,.7,4.18,2.81,8.77,4.26,13.33-4.95,13.01-11.43,25.41-17.39,37.98-3.32,7-6.46,14.09-9.15,21.34-3.44,9.24-5.8,19.35-10.46,28.22-.94,1.79-1.57,4.2-3.12,5.57-2.07-2.08-3.5-5.4-5.05-7.92-5.21-8.46-5.69-21.21-4.99-30.97,.26-3.6,.85-7.16,1.4-10.73,1.01-1.62,1.97-3.29,3.22-4.8,1.89-2.28,4-4.36,5.88-6.65,3.08-3.75,5.4-7.73,5.46-12.68,.01-1.22-1.86-1.22-1.9,0-.18,6.67-5.16,10.96-9.36,15.55-.81,.88-1.7,1.83-2.56,2.83,.07-.68,.17-1.36,.21-2.04,.38-5.52-.09-11.07-.56-16.59-.48-5.72-1-11.57-3.29-16.84-3.32,7.18-1.36,15.53-.63,23.41,.67,7.27,.2,14.59-.82,21.8-.94,6.67-1.51,15.88-4.56,21.86-3.21-1.78-4.5-6.31-5.39-9.64-1.01-3.78-1.91-7.8-4.56-10.68-.8-.87-2.13-1.64-3.09-.96-2.03,1.42,1.07,8.22,1.57,9.94,.26,.92,.22,2.31-.73,2.36-.57,.03-.98-.51-1.28-1-3.03-4.88-6.05-9.76-9.08-14.64-.82-1.32-1.29-2.67-.27-4.01,1.61-2.1,1.66-4.4,1.6-6.82-.11-4.31,2.38-8.17,1.67-12.53-.02-.11-.05-.22-.07-.33,1.94-3.32,2.22-7.91,1.94-11.57-.07-.86-1.26-.86-1.34,0-.18,2.09-.47,4.28-.91,6.33-.15,.68-.34,1.36-.54,2.04-1.05-3.14-2.61-6.27-3.52-9.34,.51-1.71-.27-5.55-.29-7.46q-.01-1.32-2.07-1.36c.88,1.14-.17,7.62-.11,9.28,.17,5.26,.54,10.5,.9,15.75,.3,4.42,.94,9.28-1.52,13.25-.5,.81-3.8-6.91-3.92-7.29-.69-2.24-1.3-4.51-1.81-6.8-.46-2.05-.7-3.61-1.95-5.39,.29,1.34-.65,2.42-.86,3.68-.23,1.37,.09,2.57,.38,3.92,2.27,10.68,6.76,21.03,6.53,32.12-.05,2.72-.67,5.41-1.26,8.09-.31-.69-.65-1.38-1-2.06-3.66-6.96-8.34-13.46-12.39-20.21-.54-.9-1.94-.09-1.41,.83,2.58,4.53,5.07,9.11,7.56,13.68,3.1,5.68,6.79,10.73,5.78,17.54-.08,.56,.27,1.01,.7,1.15,1.23,5.65,6.07,7.74,9.43,12.15,1.97,2.58,12,2.2,14.59,5.09,3.87,4.32,6.68,19.62,10.43,24.05,3.54,4.18,7.35,7.69,7.29,13.51-.04,3.89,1.91,6.65,.6,10.71-.86,2.66-2.25,5.16-2.83,7.9-.51,2.4-.36,4.89-.21,7.34,.39,6.31,.49,15.72,2.44,21.78,2.48,7.72,5.43,9.25,12.59,11.74,4.57,1.59,9.57-1.2,14.3-2.38,4.96-1.24,5.5-4.57,4.3-9.04-3-11.22-4.15-22.92-3.42-34.51,.34-5.3,1.48-10.08,.43-15.29-1.16-5.75-2.51-11.98-1.69-17.86,1.19-8.49,6.7-15.54,10.4-23.2,2.52-.6,5.03-1.21,7.55-1.8,1.18-.28,.68-2.07-.5-1.81-2,.44-4,.86-6.01,1.27,.31-.75,.65-1.5,.91-2.27,3.9-11.44,6.77-23.11,8.93-35.02,2.27-12.52,8.52-25.12,14.94-36.01,2.2-3.73,3.74-7.97,4.84-12.27,1.88-1.81,4.26-2.79,6.69-3.4,6.39-1.62,14.25-2.69,19.63-6.73,3.45-2.59,5.69-6.35,7.42-10.23,1.55-3.47,2.29-8.1,5.67-10.33,1.22-.8,2.5-.78,2.89-2.51,.68-3.5,3.78-4.67,6.22-6.47,1.73-1.27,3.07-3.95,4.65-5.51,1.69-1.67,3.57-3.12,5.37-4.67,4.24-3.65,8.34-7.47,12.28-11.45,.84-.85,1.7-1.75,2.07-2.88,.29-.89,2.07-4.6,1.85-5.26-.09-.29-.39-.44-.69-.45Zm-39.87-173.03s0,.04,0,.06c-.11,.06-.23,.07-.37,.03,.15,0,.27-.03,.38-.09Zm-3.6,74.87c.09,.14,.07,.31-.03,.51,0-.17,0-.34,.03-.51Zm-20.75-16.14c-.03-.3-.03-.62,.03-.95v-.02c-.03,.33-.03,.65-.03,.97Zm4.74,41.23h0s.01,.06,.02,.09c-.05-.04-.11-.08-.16-.11l.14,.02Zm-73.95-54.06s-.03,.02-.04,.03c-.03-.02-.04-.04-.07-.06,.04-.02,.08-.04,.11-.06,0,.03,0,.06,0,.09Zm-40.32,279.13s-.02,.01-.03,.02c-3.53-8.04-.62-16.07-.01-24.41,2.72,2.9,3.62,6.95,7.14,8.66-.01,.23-.06,.45-.06,.68,1.74,5.32,2.17,10.99,4.43,16.18-4.06,.88-7.7-.78-11.47-1.13Zm138.28-113.6c.1-.18,.17-.34,.23-.49,.12,.1,.21,.18,.34,.28-.22,.05-.38,.14-.57,.22Z"/><path d="M351.38,233.31c1.06,.57,2.27,.77,3.3,1.42,1.28,.81,2,1.98,3.03,3.01,1.12,1.11,2.36,2.06,3.77,2.69,.79,1.16,1.6,2.3,2.46,3.41,.99,1.28,2.05,2.58,2.5,4.13-4.33-2.18-9.07-3.54-13.9-3.99-.14,.71,.84,1.04,1.56,1.11,.73,.08,1.46,.21,2.16,.4,2.42,.65,4.59,2,6.83,3.13,3.59,1.81,7.44,3.11,10.91,5.14,3.27,1.91,6.16,4.47,8.47,7.47,1.59,2.06,3.63,4.9,4.66,7.67-.09,0-.19,0-.28-.01-5.71-.23-10.81-1.2-16.02-3.56-.43-.2-.82,.44-.38,.65,2.61,1.26,5.28,2.3,8.06,3.02-2.4,.09-4.78,.12-7.2,0-.35-.02-.44,.55-.08,.62,3.13,.66,6.47,.67,9.57-.14,.21,.04,.41,.1,.62,.13,2.04,.34,4.09,.45,6.13,.6,.1,.4,.18,.81,.22,1.2,.32,3.31,.31,6.63,.42,9.94,.04,1.14,.86,8.37-.1,8.76-.31,.12-.65,0-.96-.11-2.22-.88-4.31-2.11-6.16-3.62-1.1-.9-2.14-1.92-3.43-2.52-1.29-.6-2.94-.7-4.04,.2,1.86,1.09,3.62,2.35,5.27,3.74-2.89,.87-5.81,1.62-8.76,2.25,3.01,.73,6.19,.09,9.24,.6,2.92,.49,5.65,2.06,7.53,4.35,.7,.85,1.3,1.83,1.46,2.92,.48,3.13-.49,6.89-.58,10.08-.09,3.19-.12,6.44-.05,9.69-1.16-1.17-2.49-2.62-2.29-3.99,.07-.51-.67-.75-.79-.22-.38,1.65,.5,2.86,1.54,4.08,.52,.62,1.05,1.29,1.6,1.96,.06,1.79,.15,3.58,.3,5.34,.29,3.45,.9,6.89,2.01,10.18,.71,2.11,1.87,3.97,2.39,6.13,.61,2.51,.92,5.08,1.05,7.66,.35,6.85-.75,13.64-.81,20.48-.02,2.03,.38,3.75,1.83,5.37,.98,1.1,2.2,1.47,3.33,2.14,2.63,1.55,5.26,1.15,7.86-.07,3.55-1.67,2.94-5.19,2.88-8.5-.11-6.1-.41-12.07,.37-18.04,1.34-1.07,2.82-1.93,4.35-2.72,.42-.21,.13-.88-.32-.75-1.24,.36-2.55,.96-3.78,1.73,.17-1.03,.38-2.06,.63-3.09,.15-.59,.29-1.2,.21-1.81-.18-1.3-1.26-2.1-2.02-3.06-.66-.84-1.13-2.92-2.46-2.82-1.18,.08-.8,2.46-1.82,1.87-.44-.25-.49-1.93-.53-2.4-.17-1.96-.24-3.94-.36-5.9,0-3.48-.45-7.01-.64-10.49-.12-2.2-.49-4.41-.27-6.62,.21-2.07,1.18-3.9,2.14-5.72,2.17-4.15,5.22-9.11,9.32-11.58,1.48-.89,2.25-2.24,2.54-3.74,.4-2.05,1.04-4.03,1.46-6.07,.28-1.36,.48-2.74,.65-4.12,1.2-.79,2.36-1.61,3.3-2.87,1.75-2.38,2.81-5.18,4.63-7.53,.35-.45-.28-1.08-.63-.63-1.64,2.09-2.7,4.52-4.23,6.68-.82,1.16-1.82,1.96-2.87,2.68,.37-3.32,.68-6.65,1.55-9.88,.21-.78,.5-1.53,.81-2.26,.26,.13,.61,.06,.69-.3,.1-.43,.09-.84,.05-1.23,1.52-2.87,3.62-5.44,5.36-8.19,.31-.49,.61-1.12,.29-1.6-.14-.22-.38-.33-.64-.36-.25-.03-.51,.03-.73,.15-.44,.25-.72,.7-.97,1.14-.25,.44-.5,.9-.91,1.2-.23,.17-.59,.26-.78,.05-.13-.14-.12-.35-.11-.54,.17-1.76,1.03-3.36,1.67-5,.19-.48,1.26-6.33-.32-5.3-.15,.1-.21,.3-.26,.47-.25,.96-.46,1.95-.79,2.9-.27,.79-1.17,1.99-1.17,2.81-.92,2.16-1.75,4.35-2.53,6.57-.41-3.64-.13-7.54,.11-11.17,.04-.55-.81-.54-.86,0-.3,3.46-.67,6.97-.53,10.45,.04,1.11,.09,2.15,.42,3.2-1.18,3.62-2.19,7.29-2.99,11.02-.07,.35-.18,.74-.5,.89-.65,.31-1.15-.64-1.26-1.35-1.08-7.51-2.02-15.24-2.02-22.85,0-.26-.05-.57-.28-.69-.42-.2-.72,.43-.75,.9-.47,7.45,.55,14.88,1.46,22.26,.65,5.24,2.39,13.2-3.15,16.58-3.14,1.92-5.68,4.51-7.5,7.75-.59,.23-.56,1.08-1.3,1.27-.43-.6-.28-1.31-.24-1.95,.29-5.55,.04-11.1,.04-16.65,0-.27,0-.54-.01-.81,1.09-1.75,2.08-3.55,2.97-5.29,.17-.34-.28-.59-.5-.29-.83,1.16-1.7,2.32-2.57,3.47-.02-.24-.03-.49-.06-.74-.56-4.27-.81-8.58-.73-12.88,.04-2.18,1.19-4.81,1.84-6.92,.47-1.53,1.11-3.04,1.73-4.52,1.4-3.33,3-6.58,4-10.06,.17-.6,.33-1.2,.37-1.82,.04-.77-.11-1.54-.18-2.31-.25-2.78-.04-7.16,1.69-9.47,2.23-2.97,4.41-5.89,6.09-9.22,2.3-4.55,5.92-8.15,7.96-12.94-3.93,3.57-7.32,7.69-10.54,11.91-2.97,3.89-6.03,7.42-7.29,12.28-.61,2.35-.85,4.8-1.6,7.12-.78,2.39-2.35,4.43-3.67,6.55,.35-.56,.07-2.52,.14-3.24,.28-3.15,.22-6.32-.06-9.47-.25-2.9-.34-7.75,.32-10.63,.65-2.85,.26-3.54,.94-6.39,.95-4.02,2.7-8.24,2.22-12.37-.35-3-1.39-5.91-1.53-8.92-.04-.77,0-1.54,.06-2.3,1.82-3.16,5.39-5.77,7.65-8.37,2.59-2.98,4.92-6.17,7.12-9.45,.26-.38-.36-.73-.61-.36-3.18,4.61-6.81,8.84-10.84,12.72-.97,.93-2.03,1.82-2.95,2.79,.59-3.19,1.58-6.34,1.81-9.58,.1-1.37,.05-2.74-.05-4.11,.22-.69,.44-1.38,.71-2.05,.78-1.92,1.7-3.75,2.82-5.5,.25-.39-.35-.72-.61-.36-1.1,1.56-2.28,3.36-3.18,5.27-.29-2.65-.62-5.3-.45-7.95,.12-1.81,.39-3.87-.84-5.2-1.43,2.77-.41,6.1-.05,9.19,.24,2.09,.17,4.16-.08,6.23-.42-2.26-1.28-4.45-2.55-6.11-1.39-1.82-3.5-2.75-5.33-4.03-4.39-3.05-6.41-7.2-8.42-12-.19-.46-.96-.26-.77,.21,1.62,3.99,3.32,8.14,6.57,11.09,1.8,1.64,4.46,2.53,6.02,4.36,2.82,3.31,3.79,8.54,3.24,12.71-.02,.12,.02,.22,.07,.3-.77,3.5-1.6,7.01-1.82,10.57-.28,4.45,.24,9.46-2.7,12.81-2.13-6.49-3.64-13.18-4.5-19.95-.26-2.08-.88-4.66-2.93-5.1-.3,3.82-.61,7.63-.91,11.45-.04-.08-.09-.15-.13-.23-2.69-5.02-4.2-10.55-4.55-16.22-.03-.53-.85-.54-.83,0,.17,3.9,.67,7.73,1.91,11.45,.76,2.27,2.25,4.59,3.44,6.94-.22,2.71-.43,5.43-.65,8.14-1.19-.86-2.2-1.9-3.16-3.01-.06-1.94-.65-3.81-1.76-5.53-2.44-3.8-2.23-8.84-3.68-13.13-.12-.37-.71-.21-.59,.16,.73,2.27,1.23,4.46,1.4,6.86,.1,1.38-.13,2.88,.36,4.21,.41,1.12,1.3,1.98,1.83,3.04,.41,.81,.67,1.63,.84,2.45-.76-.95-1.53-1.9-2.36-2.78-1.35-1.43-2.87-2.68-4.21-4.12-3.29-3.54-5.32-8.03-7.3-12.44,.89,6.04,3.54,11.81,7.54,16.42-1.21-.41-2.42-.82-3.63-1.24-.43-.15-.88-.29-1.33-.21-.44,.09-.86,.51-.77,.95,.07,.35,.4,.58,.72,.75,2.55,1.39,5.66,1.7,7.96,3.46,1.37,1.05,2.35,2.54,3.23,4.02,2.33,3.9,4.28,8.04,5.8,12.32-.03,5.63-.25,11.45-.46,17.13-1.07,.25-1.97-.78-2.59-1.69-2.06-3.03-4.03-6.11-6.01-9.2-.95-1.48-.88,.86-.75,1.44,.25,1.13,.82,2.2,1.41,3.18,1.11,1.86,2.52,3.6,4.07,5.11,.55,.53,1.13,1.05,1.66,1.59-.6-.53-1.2-1.08-1.8-1.61-2.51-2.22-5.97-3.66-7.13-6.99-.18-.52-1-.3-.83,.23,1.23,3.67,4.46,5.13,7.17,7.54,.96,.86,2.76,2.97,4.51,4.15,.23,1.31-.05,2.61-.16,3.95-.15,1.76-.02,3.54-.26,5.3-.08,.59-.12,1.17-.15,1.76-1.2-1.07-2.5-1.96-3.73-2.63-.44-.24-.83,.42-.39,.67,1.56,.9,2.93,2.04,4.1,3.38,.02,2.09,.22,4.19,.23,6.29,0,.36-.01,2.02-.17,2.33-.58,1.11-1.71-.81-2.29-1.24-1.01-.75-2.22-1.21-3.38-1.65-3.04-1.14-5.73-2.41-8.19-3.98-.5-2.74-1.18-5.39-1.25-8.26-.02-.61-.95-.61-.95,0,.02,2.25,.08,4.75,.51,7.1-2.16-1.59-4.14-3.46-6.02-5.83-2.99-3.76-5.37-7.96-7.71-12.15-.76-1.37-1.57-2.79-2.88-3.67,.19,2.36,1.21,4.57,2.31,6.66,.76,1.45,1.59,2.87,2.45,4.27-.54-.44-1.07-.9-1.57-1.43-1.25-1.32-2.03-2.04-3.7-2.84-2.42-1.15-4.54-1.94-6.42-3.94-1.82-1.94-3.13-4.28-4.42-6.57-.27-.47-.99-.05-.73,.42,2.21,4.06,4.56,8.11,8.76,10.35Zm54.44,4.07h0s.03,.02,.04,.03c-.03,.01-.05,.03-.06,.05,0-.02,.01-.03,.02-.07Zm-.54,7.8h.02v.04h-.04s.02,0,.03,0c0-.02,0-.03,0-.04Zm-5.66-43.22l.07,.03s-.07,.03-.07-.03Zm.07,.02s.02-.06,.03-.1c.01,0,.02,.02,.03,.02-.02,.03-.05,.06-.06,.07Zm-.76,17.24s.02-.03,.03-.04c.02,.01,.03,.03,.05,.05-.03,.03-.07,.05-.11,.06l.02-.07Zm-4.88-13.85s0,.01,0,.02c0,0-.02,.02-.02,.02,0,0-.02,0-.03,0l.06-.04Zm-25.98,43.71s-.03-.11-.04-.16l.1,.09s0,.04-.06,.07Zm.06-.07l-.1-.09h0c.08,.02,.11,.06,.1,.09Zm-.42-.39c.06,.06,.12,.11,.18,.17h0c-.06-.06-.13-.12-.19-.17h.01Z"/><path d="M207.07,233.36c-3.91,4.65-7.81,9.3-12.83,12.79-8.37,5.83-15.86,4.9-25.48,4.66-6.24-.16-12.5,.63-18.59,2.13,2.45-1.43,4.96-2.75,7.58-3.89,6.09-2.65,12.81-4.31,17.85-8.64,5.76-4.95,8.4-12.67,9.36-20.22,.01-.1,.02-.19,.04-.29-3.38,2.96-4.41,7.74-6.9,11.48-5.44,8.2-16.03,11.19-24.46,15.2-1.69,.8-3.74,1.59-5.32,.59,3.82-8.74,8.08-17.29,12.08-25.95,.49-1.05,.98-2.31,.41-3.32-1.74,1.52-3.42,3.09-5.06,4.71-.38,.37-.57-6.4-.48-6.93,.57-3.24,1.42-6.46,2.13-9.67,.19-.88,.03-2.21-.87-2.14-.35,.03-.63,.3-.86,.56-3.8,4.26-5.1,10.15-5.88,15.81-1.43,10.29-4.11,18.67-9.44,27.65-3,5.05-5.84,12.05-10.94,15.31-3.41,2.18-7.63,2.49-11.62,3.12-7.59,1.2-14.9,3.75-22.16,6.28-1.12-.85-.24-2.61,.68-3.67l16.22-18.55c-.11-.81-1.1-1.25-1.9-1.09-.8,.17-1.44,.75-2.04,1.31-3.15,2.94-6.3,5.89-9.45,8.83-2.05-2.33-.76-5.94,.61-8.73,2.01-4.07,4.01-8.13,6.02-12.2,.88-1.79,1.77-3.58,2.38-5.48,.37-1.14,.64-2.31,.91-3.48,.66-2.87,1.32-5.79,1.07-8.73,.28,3.18-5.16,10-6.81,12.87-2.92,5.07-6.07,10.03-9.11,15.04-.66,1.1-1.26,2.23-1.83,3.38,1.03-8.26,.93-16.74,.63-24.91-.04-1.05-1.65-1.06-1.65,0,.03,11.84-1.95,23.35-3.16,35.04-1.21,3.27-2.41,6.55-3.88,9.68-.52,1.1-1.26,2.2-1.09,3.54-3.42,7.76-12.86,20.6-16.21,23.55-.45-.72,.36-1.66-.4-2.32,.14-2.51-.08-5.1,.49-7.51,1.47-6.19,2.43-12.23,4.25-18.28,1.81-6.03,1.68-12.53,.56-18.67-1.44-7.89-4.38-15.38-6.35-23.14-1.13-4.44-2.73-9.61-2.3-14.24,.48-5.03,4.02-9.45,7.18-13.15,1.53-1.8,3.07-3.59,4.6-5.39,12.05-2.47,24.61-3.8,36.05-7.78,12.27-4.27,23.38-12.95,32.91-21.61,.74-.67-.24-1.99-1.08-1.4-12.96,9.03-24.54,18.22-40.47,21.58-7.17,1.51-15.09,1.82-22.49,3.41,8.52-10.11,16.76-20.45,23.38-31.88,2.63-4.53,4.98-9.28,6.97-14.16,10.69-7.32,18.78-20.3,23.67-31.25,.46-1.04-1.06-1.95-1.54-.9-3.49,7.54-8.06,14.32-13.75,20.4-1.9,2.03-3.97,3.84-6.1,5.58,3.37-10.15,5.01-20.79,3.93-31.4-.15-1.44-.69-3.25-2.14-3.38-2.08,13.49-5.32,26.8-9.66,39.74-1.62-1.13-2.05-3.3-2.28-5.26-.76-6.59-.58-13.33-2.28-19.75-2.07-7.82-6.83-14.8-8.34-22.75-1.04-5.49-.48-11.18-1.41-16.68-1.15-6.87-4.55-13.12-7.9-19.23-1.05,5.16,1.82,10.2,2.95,15.34,1.12,5.07,.54,10.34,.25,15.52-.22,3.92-.23,7.84-.12,11.76-1.51-1.34-3.14-2.6-4.72-3.86-5.28-4.19-7.85-8.47-9.52-14.98-.93-3.62-1.85-6.24-4.35-8.98-.61-.67-1.55,.31-.98,.98,4.92,5.87,3.02,14.31,7.95,20.3,3.39,4.11,8.29,6.78,11.74,10.52,.3,5.38,.89,10.75,1.81,16.06,1.27,7.38,3.12,14.96,1.4,22.24-1.16,4.89-3.84,9.25-6.49,13.52-6.4,10.31-12.79,20.62-19.19,30.93-.37-14.78-1.59-29.53-3.66-44.17-.25-1.75-.54-3.53-.91-5.29,1.4-6.52,2.13-13.36,3.3-19.57,.19-1.01-1.31-1.45-1.56-.43-1.09,4.42-2.52,9.04-3.79,13.72-.74-1.57-1.66-3.04-2.86-4.33-1.76-1.89-4.06-3.36-5.29-5.63-1-1.84-1.19-3.99-1.82-5.98-.63-1.99-1.97-4.03-4.03-4.38,.75,24.89,1.51,49.77,2.26,74.66,.11,3.58,.11,7.5-2.14,10.29-3.99-4.68-7.97-9.35-11.96-14.03-5.49-6.44-11.15-13.19-13.27-21.38-1.25-4.84-1.19-9.91-1.05-14.9,.24-8.39,.68-16.81,2.29-25.05,1.52-7.79,4.07-15.43,4.35-23.36,.23-6.72-1.19-13.38-2.61-19.96-.99-4.58-1.97-9.17-2.96-13.75-3.2,9.06,2.49,19.73-1.51,28.47-1.25-4.6-3.19-9.01-5.74-13.03-.99,3.62-.75,7.57,.67,11.05,1.86,4.56,5.71,8.49,5.85,13.41,.07,2.52-.87,4.94-1.69,7.33-2.85,8.28-4.44,17.01-4.68,25.77-.33-.56-.6-1.15-.91-1.72,.06-.36-.08-.74-.53-1-4.88-9.61-6.77-20.54-10.12-30.85-3.13-9.62-7.64-18.79-13.34-27.15-.61-.89-2.09-1.75-2.54-.76-.21,.47,.08,1.01,.36,1.44,6.05,9.55,8.69,20.69,11.02,31.61,1.68,7.91,3.64,15.63,5.85,23.33-1.28-.24-2.54-.53-3.76-1.02-4.1-1.62-5.56-6.29-7.27-10.02-2.85-6.23-5.44-12.33-11.42-16.13-1.05-.67-2.01,.99-.97,1.67,7.36,4.82,8.91,13.53,12.6,20.92,.98,1.97,2.25,4.9,4.2,6.09,1.28,.78,4.56,.57,6.29,.92,.38,.08,.75,.17,1.12,.26,.66,2.23,1.33,4.47,2.04,6.7,1.73,5.48,3.59,10.93,5.57,16.33,1.41,3.84,5.01,9.81,5.01,13.95,.02,1.11,.02,2.22,.05,3.33,.17,7.34,1.82,14.25,6.13,20.34,.05,.33,.11,.65,.16,.98,.02,1.75,.87,3.17,1.83,4.55,3.85,5.53,7.7,11.07,11.54,16.6,2.75,3.96,4.36,8.41,7.68,12.06,3.22,3.53,6.57,4.87,8.07,9.75,1.45,4.76,2.6,9.68,2.49,14.66-.11,5.19-1.55,10.16-2.76,15.18-2.12-4.59-4.19-9.19-5.45-13.99-.23-.87-1.51-.5-1.34,.37,1.2,6.17,3.54,11.94,5.92,17.69-1.18,6.24-1.34,12.85-.94,19.16,.13,2.09,.38,4.33-.54,6.61-.82-.78-1.42-1.35-2.02-1.92-.66-2.19-1.86-4.1-3.2-5.92-2.27-5.66-5.47-11-8.37-16.37-1.63-3.02-3.49-5.97-5.73-8.57-1.24-5.66-3.18-11.14-5.53-16.13-.34-.73-1.59-.21-1.31,.55,1.56,4.14,2.62,8.18,3.38,12.19-.88-.72-1.8-1.4-2.79-2-3.42-2.04-7.31-3.11-11.1-4.31-1.39-.44-2.82-.93-3.91-1.89-4.72-4.19-4.52-15.77-5.07-21.53-.8-8.37-1.29-16.88-3.97-24.92-1.5-4.51-3.67-8.77-5.9-12.97-7.34-13.76-15.55-27.04-23.77-40.3-2.28-3.69-4.54-6.58-7.4-9.78-1.66-2.89-4.34-5-6.08-7.76-1.65-2.61-3.9-4.06-6.7-4.93-.1-.48-.41-.73-.9-.78-.11-.44-.31-.81-.82-.88-.09-.53-.44-.72-.95-.71l.03-.09c-.14-.51-.48-.68-.98-.6-.53-.01-1.06-.03-1.59-.04-.54-.21-1.37-.27-1.44,.2-.08,.55,.71,.65,1.27,.64,.03,.53,.31,.81,.84,.85,.27,.36,.55,.73,.82,1.1,.05,.44,.11,.89,.16,1.33,1.59,3.86,4.43,6.9,6.71,10.31,2.17,4.91,5.65,8.84,9.39,12.58,1.96,2.68,3.75,5.47,5.49,8.28-2.43-1.54-5.04-2.9-8.09-4.1-12.54-4.94-22.5-14.04-32.14-23.2-.93-.88-2.33,.51-1.41,1.41,8.47,8.22,17.13,16.81,27.75,22.24,5.14,2.63,10.48,4.18,15.02,7.78,.99,.79,1.87,1.56,2.73,2.29,1.93,3.32,3.84,6.66,5.81,9.96,.43,1.47,.48,3.11,1.77,4.22-.04,.55,.25,.82,.74,.95,.08,.91,.28,1.77,.91,2.47,.77,.87,.64,2.6,1.05,3.66-.38-.29-.76-.58-1.11-.87-2.65-2.1-5.51-3.82-8.48-5.44-.71-.39-1.24,.6-.62,1.06,2.83,2.14,5.57,4.43,8.29,6.72,1.79,1.51,3.48,3.45,5.44,4.81,.17,1.48,.24,3.05,.49,4.24,.74,3.4,1.59,6.78,2.55,10.13,.73,2.52,1.53,5.15,1.03,7.73-.21,1.08-.64,2.13-.72,3.23-.08,1.1,.31,2.35,1.3,2.83-.87,1.38-.47,3.18-.04,4.75,.82,3.03,3,7.61,2.47,10.61-1.96-.46-11.48-4.66-11.48-6.96-.04-.05-.09-.08-.13-.13-1.64-4.5-3.54-8.93-4.94-13.52-.26-.84-1.49-.49-1.31,.36,.75,3.58,1.62,7.33,2.88,10.89-.35-.15-.7-.29-1.05-.42-5.61-2.08-9.12-8.22-12.45-12.99-4.03-5.77-7.59-11.87-10.61-18.23-3.78-7.97-6.88-16.54-13.01-22.88,.57,.59-.37,3.79,1.4,4.53,.41,1.45,.79,2.92,1.66,4.19-.01,1.21-.12,2.45,.9,3.39,.32,1.1,.64,2.2,.96,3.3-.53,1.1,.49,2.62-.93,3.48-1.54-1.15-2.64-3.07-4.96-2.85-.06-.66-.14-1.46-1.05-1.18-.6,.18-.45,.85-.14,1.3,.28,.42,.66,.77,1,1.16,1.18,2.36,2.18,4.84,4.4,6.5l.05,.07c.22,.86,.64,1.55,1.51,1.88,.86,1.26,1.92,2.44,3.24,3.07,2.94,1.39,4.89,3.75,6.8,6.2,.7,1.83,1.57,3.56,2.5,5.25-2.31-1.22-4.75-2.28-7.1-3.39-9.67-4.56-18.75-10.04-27.15-16.67-.85-.67-2.07,.51-1.21,1.21,6.47,5.32,13.23,10.27,20.56,14.35,6.62,3.69,13.12,6.43,18.94,10.87,1.08,1.51,2.18,3.01,3.31,4.48,1.27,1.67,2.6,3.45,4.49,4.42,3.3,1.7,5.92,4.24,8.8,6.48,7.97,8.03,15.17,16.56,22.32,25.29,7.19,8.78,15.12,16.97,21.78,26.18,1.33,1.83,2.66,3.93,2.38,6.18-5.43-.67-10.09-4.23-15.42-5.47-6.55-1.53-13.44,.55-20.12-.27-8.75-1.07-16.04-6.9-23.18-12.05-.67-.48-1.54-.98-2.26-.58,2.28,5.52,6.3,10.3,11.34,13.51-8.63,1.23-18.22,2.24-25.35-2.77-1.63-1.15-3.06-2.57-4.79-3.55-1.88-1.06-3.6-1.26-5.56-.47,4.69,1.32,7.27,6.39,11.51,8.8,2.78,1.58,6.07,1.9,9.25,2.13,12.1,.85,24.27,.71,36.35-.42,5.46-.51,9.49-.73,14.78,1,5.27,1.73,10.28,4.16,15.26,6.58,2,.97,4.11,2.04,5.25,3.95,.76,1.27,1.04,2.85,2.06,3.92,.85,.88,2.07,1.28,3.12,1.91,3.54,2.09,4.94,6.52,5.28,10.62,.66,7.75,2.31,15.69,2.29,23.47,0,2.79,.04,5.55,.13,8.31-2.26-2.86-4.78-5.47-7.46-7.76-.87-.75-2.14,.49-1.27,1.27,3.67,3.31,6.56,6.84,8.88,10.61,.21,4.04,.56,8.06,1.1,12.1,1.23,9.14,1.97,18.46,.54,27.63-.25,1.61-.56,3.24-.49,4.87-2.08-3.36-4.49-6.48-6.68-9.15-.57-.7-1.83,.25-1.27,.98,2.63,3.47,4.9,7.23,6.86,11.12,.74,1.47,1.33,3.02,1.91,4.57-.05,1.41-.2,2.82-.36,4.21-1.07,9.07-2.14,18.13-3.21,27.2-2.07,17.59-5.25,37.22,.05,54.54,1.99,6.51,5.67,10.9,13.07,10.92,.98,0,2,.48,2.93,.33,2.4-.4,4.52,1.56,7.03,.56,2.34-.94,4.84-1.47,7.26-2.22,2.69-.84,5.42-1.6,7.77-3.25,2.49-1.75,2.87-2.66,1.33-5.18-.66-1.08-.72-2.09-.84-3.16-1.27-12.04,.66-23.6-3.22-35.26,1.6-2.94,3.36-5.83,5.34-8.67,.53-.76-.7-1.45-1.24-.72-1.71,2.3-3.36,4.69-4.94,7.14-2.48-6.58-5.77-12.83-8.77-19.2-1.03-2.18-2.03-4.42-2.33-6.82-.31-2.52,.19-5.06,.69-7.55,1.53-7.68,3.98-15.65,5.11-23.27,2.24-4.34,3.47-9.09,5.07-13.66,1.54-4.41,2.76-9.16,.03-13.86-2.08,2.51-2.59,5.45-3.48,8.23-.8,2.51-1.14,5.3-3.92,7.48-.13-.2-.24-.41-.33-.62,.36-6.06-.49-11.44-1.75-16.76-.32-1.35-.73-2.67-.5-4.14,.14-.91-.12-1.97-.98-2.65l-.03-.24c2.07-12.49,3.58-24.96,3.13-37.67-.17-4.79,.74-7.27,2.99-11.24,2.63-4.64,4.01-10.34,5.71-15.38,3.74-11.08,12.03-19.22,21.91-24.99,9.88-5.78,21.37-6.79,31.38-12.16,4.32-2.32,8.42-5.03,12.53-7.72,7.5-1.73,14.83-4.2,22.61-4.54,6.67-.29,13.42,1.5,20,.04,10.44-2.32,17.78-11.08,24.27-18.94,.85-1.03-.61-2.53-1.49-1.49Zm-107.57,26h0Zm-3.51-144.46s-.02,0-.03,0c-.09-.06-.16-.15-.24-.21,.09,.07,.18,.15,.27,.22Zm-.63-.54h0l-.03-.02s.03,.01,.04,.02Zm-.98-.9s.04,.03,.08,.05v-.09l.11-.06s.01,.16,.02,.28l-.12-.12h0l.12,.13c-.1-.05-.22-.09-.36-.09,0,0,.08-.05,.16-.09Zm-22.15,84.89s.02-.06,.02-.09c.01,0,.03,0,.04,.01l-.06,.08ZM12.4,148.3h-.07c.11-.06,.11-.07,.07,0Zm25.65,68.42c-.69-4.49-4.47-7.73-7.35-11.24-4.71-5.72-8.73-14.19-10.15-21.65-.09-.46-.17-.92-.23-1.38,8.13,6.15,16.16,15.87,19.69,25.49,1.98,5.4,2.63,11.19,4.08,16.75-1.2-3.15-3.32-5.95-6.03-7.97Zm16.76-80.11c.24,.36,.4,.8,.54,1.26-.29,0-.64,.12-1.11,.34-.13-.5-.11-1.02,.57-1.6Zm-4.46,149.84s-.02,.04-.02,.06c-.03-.06-.07-.11-.1-.16v-.04c.03,.06,.1,.08,.13,.14Zm10.19-121.18h-.05s.03-.04,.05-.05v.04h0Z"/><path d="M137.03,288.39s-.08,0-.12,.02c-.12,.05-.19,.16-.26,.26-.57,.82-1.11,1.66-1.94,2.23-.37,.26-.79,.46-1.1,.78-.48,.5-.81,.76-1.38,1.12-.43,.27-.78,.65-1.15,.99-1.51,1.4-3.36,2.46-4.81,3.89-.05-.53-.18-1.05-.39-1.55-.73-1.72-.66-2.94-.25-4.77,.07-.33-.43-.47-.51-.14-.41,1.66-1.04,2.99-.3,4.59,.5,1.07,.66,2,.55,2.89-.04,.05-.08,.09-.12,.15-.93,1.29-1.35,3.26-2.76,4.11-1.38,.83-3.12,.63-4.52,1.42-.2,.11-.39,.29-.63,.15-.41-.25,0-.4,0-.73-.01-.56-.3-1.23-.34-1.83-.22-3.39,.05-6.82-.06-10.22-.01-.34-.03-.73,.11-1.01,.1-.18,.17-.37,.23-.55,1.22-.54,1.89-1.33,2.62-2.5,.17-.26-.23-.48-.41-.24-.64,.89-1.2,1.42-2,1.84,.07-.55,.08-1.1,.08-1.63,.02-1.89,.6-3.45,2.02-4.69,0-.03,0-.07-.02-.11,0-.02,0-.04-.01-.06-.08-.35-.3-1.03-.35-1.02-.11,.03-.25,.09-.31,.18-.16,.24,.12,.46,.06,.71-.41,.54-.82,1.08-1.23,1.62-.08,.1-.44-1.68-.4-1.92,.07-.36,.19-.78-.05-1.05-.2-.23-.58-.24-.79-.47-.18-.2-.18-.49-.14-.76s.13-.53,.08-.79c-.04-.24-.19-.44-.31-.66-.24-.45-.12-.94,.16-1.34,.26-.38,.64-.66,.99-.95,1.19-1,1.59-2.7,2.36-4.02,.78-1.35,1.65-2.63,2.49-3.94,1.98-1.35,4.72-1.92,6.64-3.37,1.97-1.48,3.51-3.4,4.68-5.56,.17-.32-.31-.6-.48-.28-2.1,3.83-5.25,6-9.29,7.45-.21,.07-.42,.15-.64,.24,1.4-2.63,1.91-5.34,2.09-8.37,.15-2.59,.07-5.19-.18-7.77-.19-1.95-.42-4.19,.94-5.6,.22-.23,.48-.43,.68-.68,.27-.33,.43-.73,.6-1.12,1.32-2.94,3.57-5.58,3.84-8.79-1.05,2.08-2.25,4.08-3.59,5.99-.1,.14-.25,.3-.42,.24-.11-.04-.16-.16-.2-.28-.77-2.24-.86-4.74-2.1-6.76-.61,1.96,.4,4.01,.55,6.06,.16,2.1-.6,4.15-1.12,6.2-.14,.54-.26,1.09-.37,1.64-.59-2.97-1.86-5.84-3.37-8.4-.16-.27-.57-.03-.42,.24,2.08,3.64,2.8,7.33,3.3,11.35-.35,2.93-.46,5.9-.73,8.84-.05,.5-.1,1.01-.34,1.45-.65-.85-.47-2.05-.72-3.1-.35-1.45-1.5-2.54-2.42-3.71-.38-.48-.71-.99-1.02-1.51,1.26-2.41,.71-5.86-.06-8.28-.09-.27-.5-.16-.42,.12,.41,1.5,.56,3.01,.45,4.55-.07,.9-.3,1.76-.49,2.63-.81-1.61-1.38-3.36-1.85-5.11-.98-3.66-1.59-7.42-1.81-11.2-.26,0-.53-.09-.72-.27-.26,3.23-.24,6.53,.4,9.69l-.16-.17c-1.06-1.08-2.36-2.06-2.56-3.67-.03-.26-.43-.27-.41,0,.1,1.22,.73,2.17,1.53,3.06,.5,.55,1.06,1.06,1.55,1.63,.13,.15,.24,.3,.35,.46,.1,.37,.2,.74,.31,1.11,1.51,4.65,4.64,8.72,5.67,13.5,.41,1.93,.47,3.95,.02,5.87-.77,3.29-3.03,6.27-5.15,8.83-.08-.47-.19-.94-.37-1.4-1.08-2.74-2.3-4.94-2.6-7.95-.03-.3-.5-.31-.48,0,.2,2.42,.77,4.69,1.7,6.94,.58,1.4,.68,2.72,.75,4.04-.64,1.42-.82,2.95-1.01,4.51-.06,.49-.49,1-.63,1.48-.14,.48-.18,1-.26,1.5-.14,.15-.39,.15-.57,.05-.18-.1-.3-.27-.43-.43-.4-.49-.91-.9-1.46-1.2-.27-.15-.56-.27-.78-.48-.5-.48-.78-1.39-1.11-2-.44-.82-.85-1.66-1.22-2.51-1.1-2.49-2.46-5.48-1.82-8.25,.25-1.08,.12-2.22-.28-3.27-.61-1.61-.72-3.28-1.04-4.91,.86-1.36,2.33-2.38,2.89-3.98,.74-2.09,.41-4.44,.13-6.59-.05-.37-.63-.38-.59,0,.34,3.04,.43,6.08-1.77,8.47-.3,.33-.64,.65-.94,.97-.02-.08-.04-.16-.07-.24-.31-.99-.77-1.93-1.1-2.91-1.06-3.08-.96-6.44-.64-9.64,.13-1.27,.02-2.7-1.61-3.39-.24,1.16-.25,2.28-.48,3.38-.24,1.12-.07,2.32-.07,3.49-.22,.3-.21,.65-.14,.97,.22,1,.12,1.99,.12,3,0,.99,.24,2,.39,2.98,.35,2.21,.72,4.42,1.06,6.63,.05,.34,.18,3.22,.31,3.28-.43-.18-.38-.14-.63-.66-.19-.4-.41-.79-.66-1.16-.5-.74-1.12-1.39-1.84-1.93-.61-.46-1.3-.84-1.87-1.37-.63-.59-1.14-1.24-1.85-1.76-.19-.33-.23-.75-.55-1.01-.13-.56-.02-1.06,.22-1.6,.91-2.01,1.59-3.84,1.82-6.05,.16-1.52,.14-3.07-.06-4.59-.06-.46-.1-1.97-.45-2.27-.46-.39-.64,.13-.43,.55,.04,.07,.1,.13,.16,.19,.16,2.47-.14,4.9-.6,7.33-.22,1.16-.31,2.34-1.15,3.28-.19,.21-.31,.5-.29,.82-.25,.21-.43,.46-.52,.78-.16-.04-.34-.02-.42-.21-.56-1.26-1.35-2.48-1.64-3.8-.43-2-1.32-3.92-2.5-5.59-.59-.83-1.27-1.6-2.02-2.29-.2-.18-1.29-1.08-1.3-1.35,.05,.91,.82,1.9,1.29,2.66,.87,1.42,1.47,2.58,1.73,4.23,.42,2.61,1.71,5.44,3.33,7.52,1.21,1.55,2.56,2.89,3.48,4.67,.92,1.79,1.49,3.77,1.63,5.78-.91,.21-1.84,.17-2.75-.04-.72-1.46-.46-3.14-1.19-4.63-.71-1.46-2.15-2.37-3.49-3.19-.29-.18-.56,.28-.27,.46,2.03,1.27,3.19,2.45,3.49,4.91,.09,.74,.18,1.46,.4,2.12-.94-.36-1.83-.88-2.62-1.49-1.82-1.42-3.24-3.27-4.84-4.92-.6-.62-1.22-1.21-1.87-1.77-.27-.23-.68-.46-.94-.22,.42,.89,1.11,1.62,1.78,2.34,.91,.97,1.81,1.94,2.72,2.9,.89,.94,1.79,1.88,2.84,2.63,1.65,1.19,3.59,1.9,5.5,2.59l.92,.33c.37,.13,.71,.27,1.04,.41-.42,.02-.84,.03-1.25,.05-1.49,.07-3.85,.68-5.28,.28-2.28-.63-3.05-3.93-5.13-5.12-2.42-1.39-5.07-.75-7.7-1.16-4.99-.78-7.66-5.96-9.24-10.31-.12-.32-.63-.19-.52,.14,1.07,3.08,2.57,6.18,4.85,8.57,1.62,1.7,3.32,2.2,5.29,2.41-1.59,.34-3.16,.75-4.73,1.13-.28,.07-.16,.48,.12,.42,2.17-.43,4.41-.79,6.55-1.41,.24,.01,.48,.03,.72,.04,1.99,.12,3.74,.28,5.34,1.73,1.04,.95,1.15,2.15,1.96,3.23,.48,.63,.62,.82,1.24,1.09,1.24,.53,3.27,.02,4.54-.04,1.55-.08,3.1-.17,4.65-.28,.51,.35,.99,.78,1.45,1.33,.53,.63,.28,1.6,.54,2.33,.39,1.09,1.19,2.18,1.74,3.2,1.27,2.33,2.41,4.81,3.85,7.03,.44,.68,1.1,1.17,1.63,1.78,.55,.64,.87,1.4,1.24,2.16,.92,1.84,1.8,3.71,2.7,5.56,1.42,2.88,.98,6.13,.01,9.08-.12,.36-.25,.71-.37,1.06-.43-1.13-.9-2.19-1.05-3-.06-.33-.55-.19-.5,.14,.2,1.19,.8,2.5,1.21,3.79-1.41,3.7-3.25,7.23-4.95,10.81-.94,1.99-1.84,4.01-2.6,6.07-.98,2.63-1.65,5.51-2.98,8.03-.27,.51-.45,1.2-.89,1.59-.59-.59-1-1.54-1.44-2.25-1.48-2.41-1.62-6.04-1.42-8.81,.07-1.02,.24-2.04,.4-3.05,.29-.46,.56-.94,.92-1.36,.54-.65,1.14-1.24,1.67-1.89,.87-1.07,1.54-2.2,1.55-3.61,0-.35-.53-.35-.54,0-.05,1.9-1.47,3.12-2.66,4.42-.23,.25-.48,.52-.73,.8,.02-.19,.05-.39,.06-.58,.11-1.57-.03-3.15-.16-4.72-.14-1.63-.28-3.29-.94-4.79-.95,2.04-.39,4.42-.18,6.66,.19,2.07,.06,4.15-.23,6.2-.27,1.9-.43,4.52-1.3,6.22-.91-.51-1.28-1.8-1.53-2.74-.29-1.07-.54-2.22-1.3-3.04-.23-.25-.61-.47-.88-.27-.58,.4,.31,2.34,.45,2.83,.07,.26,.06,.66-.21,.67-.16,0-.28-.15-.36-.28-.86-1.39-1.72-2.78-2.58-4.17-.23-.37-.37-.76-.08-1.14,.46-.6,.47-1.25,.45-1.94-.03-1.23,.68-2.32,.48-3.57,0-.03-.01-.06-.02-.09,.55-.94,.63-2.25,.55-3.29-.02-.24-.36-.24-.38,0-.05,.6-.13,1.22-.26,1.8-.04,.19-.1,.39-.15,.58-.3-.89-.74-1.78-1-2.66,.15-.49-.08-1.58-.08-2.12q0-.38-.59-.39c.25,.32-.05,2.17-.03,2.64,.05,1.5,.15,2.99,.26,4.48,.09,1.26,.27,2.64-.43,3.77-.14,.23-1.08-1.97-1.11-2.07-.2-.64-.37-1.28-.51-1.94-.13-.58-.2-1.03-.56-1.53,.08,.38-.18,.69-.24,1.05-.07,.39,.03,.73,.11,1.12,.65,3.04,1.92,5.98,1.86,9.14-.02,.77-.19,1.54-.36,2.3-.09-.2-.18-.39-.28-.59-1.04-1.98-2.37-3.83-3.52-5.75-.15-.26-.55-.03-.4,.24,.73,1.29,1.44,2.59,2.15,3.89,.88,1.61,1.93,3.05,1.64,4.99-.02,.16,.08,.29,.2,.33,.35,1.61,1.73,2.2,2.68,3.46,.56,.73,3.41,.62,4.15,1.45,1.1,1.23,1.9,5.58,2.97,6.84,1.01,1.19,2.09,2.19,2.07,3.84-.01,1.11,.54,1.89,.17,3.05-.24,.76-.64,1.47-.8,2.25-.14,.68-.1,1.39-.06,2.09,.11,1.8,.14,4.47,.69,6.2,.71,2.2,1.55,2.63,3.58,3.34,1.3,.45,2.72-.34,4.07-.68,1.41-.35,1.56-1.3,1.22-2.57-.85-3.19-1.18-6.52-.97-9.82,.1-1.51,.42-2.87,.12-4.35-.33-1.64-.72-3.41-.48-5.08,.34-2.42,1.91-4.42,2.96-6.6,.72-.17,1.43-.34,2.15-.51,.34-.08,.19-.59-.14-.52-.57,.13-1.14,.24-1.71,.36,.09-.21,.18-.43,.26-.65,1.11-3.26,1.93-6.57,2.54-9.96,.65-3.56,2.42-7.15,4.25-10.25,.62-1.06,1.06-2.27,1.38-3.49,.54-.52,1.21-.79,1.9-.97,1.82-.46,4.05-.76,5.59-1.92,.98-.74,1.62-1.81,2.11-2.91,.44-.99,.65-2.3,1.61-2.94,.35-.23,.71-.22,.82-.71,.19-.99,1.07-1.33,1.77-1.84,.49-.36,.87-1.12,1.32-1.57,.48-.48,1.02-.89,1.53-1.33,1.21-1.04,2.37-2.13,3.49-3.26,.24-.24,.48-.5,.59-.82,.08-.25,.59-1.31,.53-1.5-.03-.08-.11-.12-.2-.13Zm-11.34-49.23v.02s-.07,.02-.11,0c.04,0,.08,0,.11-.03Zm-1.02,21.3s.02,.09,0,.15c0-.05,0-.1,0-.15Zm-5.9-4.59c0-.09,0-.18,0-.27h0c-.01,.09-.01,.18-.01,.27Zm1.35,11.73h0v.03l-.04-.03h.04Zm-21.04-15.37h-.01s-.01,0-.02,0l.03-.02v.03Zm-11.47,79.41h0c-1-2.28-.18-4.57,0-6.94,.77,.83,1.03,1.98,2.03,2.46,0,.07-.02,.13-.02,.19,.49,1.51,.62,3.13,1.26,4.6-1.16,.25-2.19-.22-3.26-.32Zm39.34-32.32s.05-.1,.07-.14l.1,.08c-.06,.01-.11,.04-.16,.06Z"/><path d="M259.79,220.08c-12.15,6.44-26.58,5.43-39.18,10.14,5.26-5.28,11.14-9.88,16.47-15.09,8.26-8.08,15.29-18.47,15.49-30.03-.72,2.45-1.45,4.91-2.28,7.33-1.31,3.83-2.87,7.55-4.98,11-1.37,2.24-3.01,4.34-4.88,6.2,.12-.16,.27-.31,.38-.48,3.39-4.77,2.92-11.01,4.58-16.41,.15-.49-.59-.68-.76-.21-1.71,4.86-1.8,10.84-4.58,15.26-1.56,2.47-3.82,4.6-6.23,6.6-1.09,.54-2.22,1.01-3.4,1.35,4.56-6.47,6.03-14.62,6.43-22.53,.31-6.16,.05-12.36,.41-18.51,.08-.02,.16-.05,.23-.1,.95-.77,1.6-1.98,2.41-2.9,.9-1.02,1.9-1.92,2.97-2.74,.38-.29,.02-.96-.39-.67-1.16,.82-2.27,1.71-3.31,2.68-.59,.55-1.25,1.16-1.79,1.84,.09-1.11,.2-2.21,.34-3.32,.7-5.31,1.93-11.39-1.52-15.48l-1.81,36.95c-.02,.31-.03,.63-.05,.94-.13-.56-.27-1.1-.43-1.63-.49-1.58-1.04-2.16-2.11-3.47-2.79-3.42-4.69-6.68-6.57-10.65-.18-.37-.72-.05-.55,.32,1.18,2.61,2.37,5.24,3.91,7.67,1.39,2.19,3.43,3.95,4.21,6.43,.77,2.45,.88,5.25,.87,8-.09,.51-.17,1.02-.29,1.52-2.64,11.19-12.37,19.1-18.31,28.95-.1-2.13-.2-4.26-.3-6.39,1.31-2.57,2.64-5.1,4.21-7.53,.3-.46-.41-.84-.72-.42-1.29,1.74-2.52,3.55-3.61,5.43-.08-1.7-.16-3.4-.24-5.09-3.2,5.13-1.84,11.78-3.05,17.7-.61,2.98-1.88,5.79-3.42,8.42-2.58,4.4-6.01,8.32-10.04,11.45,1.03-1.97,1.65-4.18,2.04-6.62,1.24-7.92,2.49-15.8,4.34-23.61,.13-.53-.68-.76-.82-.23-2.91,10.93-3.29,23.33-9.2,32.98-.67,.4-1.35,.8-2.04,1.16-7.34,3.81-15.82,4.96-23.29,8.6-2.92,1.43-5.68,3.18-8.22,5.21-.68,.54-2.54,2.82-3.46,2.63-1.16-.24-.8-2.59-.86-3.46-.1-1.49-.26-2.99-.27-4.48-.01-2.54,.82-5.03,.86-7.61,.05-2.81-.35-5.62-1.17-8.31-.31-.99-.67-2.05-.33-3.03,1.2-3.48,5.98-6.41,9.37-7.3,1.25-.33,2.55-.36,3.81-.62,3.87-.81,7.34-3.73,10.06-6.48,1.15-1.16,2.22-2.38,3.25-3.64,.35-.42,2.68-3.94,3.04-3.88,.17,.03,.27-.04,.29-.22,.05-.41,5.11-1.41,5.86-1.67,2.9-1.03,5.85-2.16,8.26-4.13,2.15-1.76,3.33-4.42,5.51-6.14,2.05-1.62,4.88-2.39,6.23-4.79-1.31-.41-2.69,.41-3.65,1.39-.49,.5-2.13,1.98-2.34,.47-.05-.39,.1-.77,.28-1.12,.64-1.24,1.6-2.29,2.38-3.45,.79-1.16,1.42-2.51,1.27-3.91-3.04,3.42-4.32,8-7.41,11.34-3,3.24-6.82,5.7-10.85,7.47-.77,.34-1.61,.78-2.44,.96-.62,.12-1.5,0-2.07-.22,.04-1.04,1.04-1.55,1.83-2.08,3.38-2.3,5.4-6.3,6.32-10.19,1.08-4.55,.29-9.07,2.26-13.49,.32-.71,.68-1.43,.68-2.21,0-.8-.4-1.56-.36-2.36,.07-1.64,1.79-2.61,3.24-3.39,3.64-1.95,6.93-4.66,9.2-8.11,2.27-3.45,7.72-31,7.46-31.31-.25-.31-.74-.46-1.06-.21-.14,.11-6.55,23.63-7.47,25.94-1.05,2.64-2.92,4.86-4.76,7.02-1.29,1.53-2.66,3.11-4.51,3.86-.36,.15-.83,.25-1.11-.02,.46-3.39,.92-6.78,1.38-10.17,.02-.17,.49-4.71,.69-5.95,.42-2.57,.65-5.17,.68-7.77-.02,1.2-1.22,3.02-1.69,4.13-.55,1.31-1.1,2.61-1.62,3.93-1.12,2.85-2.08,5.8-2.4,8.87-.18,1.73-.07,3.45-.44,5.15-.34,1.57-.85,3.13-1.41,4.67-1.06-2.23-2.4-4.24-2.9-6.9-.78-4.2-.5-8.74-.4-12.99,.01-.49-.74-.49-.76,0-.17,4.36-.56,8.89-.03,13.24,.31,2.5,2.3,5.82,3.23,8.95-.52,1.33-1.06,2.65-1.56,3.95-.72,1.85-1.48,3.7-2.03,5.61-.72,2.51-.71,5.14-1.53,7.66-.59,1.8-1.38,3.54-2.34,5.17-.68,1.15-2.27,3.4-2.83,.73-.48-2.34-.95-4.68-1.37-7.02-.4-2.24-1.55-4.23-2.02-6.45-.54-2.57-.01-5.18,.32-7.75,.41-3.14,.62-6.3,.99-9.45,.36-3.03,1.16-5.98,1.52-9.01,.31-2.63,.4-5.28,.95-7.89,.68-3.28,.95-6.8,.81-10.27,.22-.22,.43-.45,.63-.69,.72-.88,1.34-1.84,1.81-2.87,.93-2.05,1.29-4.33,1.28-6.56,0-.49-.75-.49-.76,0-.09,3.06-1.17,5.9-3.08,8.27-.14-1.61-.35-3.19-.67-4.72-.24-1.14-1.11-.69-1.14,.27-.06,2.24-.17,4.48-.33,6.72-.54,.61-.94,1.28-.98,2.2-.02,.45,.4,.64,.75,.56-.14,1.6-.31,3.2-.5,4.8-.29,2.32-.63,4.64-1.03,6.95-.15,.89-.33,4.8-1.52,5.02-.62,.09-.78-.5-.92-.92-.93-2.84-3.09-4.53-5.49-6.01-1.73-1.06-.68-4.87-.66-6.6,.02-2.63-.09-5.26-.3-7.89-.42-5.27-1.2-10.5-1.98-15.72-1.42,8.16,1.38,16.59,.16,24.79-.08,.56-.27,1.22-.81,1.39-1.68,.53-3.64-4.02-4.16-5.15-1.07-2.31-1.77-4.79-2.17-7.31-.36-2.27-.49-4.65-1.56-6.68-.93-1.77-2.49-3.13-4.04-4.39-.27-.22-.7-.42-.9-.14-.14,.19-.03,.46,.08,.67,.97,1.81,1.94,3.62,2.91,5.43,.12,.22,.24,.44,.28,.68,.08,.38-.03,.77-.08,1.15-.15,1.14,.18,2.29,.51,3.4,1.32,4.44,2.76,9.11,6.15,12.27,1.23,1.15,3.12,2.93,3.17,4.75,.03,1.14-.73,2.51-1.09,3.58-.5,1.49-.99,2.97-1.49,4.46-.69,2.08-1.41,4.19-2.66,5.99-.04,.06-.09,.11-.13,.17-.72-2.77-2.25-5.44-3.29-8.09-.16-.41-.82-.24-.67,.19,1.05,2.94,2.63,6.32,2.69,9.53-1.34,1.61-2.76,3.13-3.73,5.08-.93,1.87-2.18,3.57-2.99,5.49-.24,.35-.08,1.24-.97,.73-1.03-.61-.24-5.17-.3-6.19-.17-2.88-.79-5.73-1.83-8.42-.13-.33-.4-.73-.74-.63-.24,2.12-.48,4.24-.71,6.36-.98-.79-1.86-1.7-2.61-2.71-.82-1.11-1.45-2.29-1.98-3.53,.61-1.13,1.93-1.84,2.85-3.03,2.24-2.89,2.8-6.78,3.31-10.29,.08-.54-.74-.78-.83-.23-.47,2.71-.94,5.6-2.32,8.03-.82,1.43-2.54,2.38-3.74,3.54-1.24-3.73-1.78-7.74-3.25-11.34-.23-.56-.44-.99-1.22-.74-.8,.26-.61,.76-.56,1.33,.34,4.22,1.1,8.68,2.64,12.63,.35,.89,.81,1.72,1.31,2.52,.34,1.52,1.05,3.06,1.83,3.72,.22,.18,.5,.18,.71,.06,1.18,1.81,2.06,3.71,2.99,5.68-.22,5.01,.83,9.94,1.02,14.93,.1,2.7,.42,5.39,.63,8.09,.11,1.44,.2,2.88,.19,4.32-.01,2.35-1.5,.96-2.13-.26-.79-1.54-1.02-3.46-2.37-4.67-.38-.35-.82-.59-1.29-.79-.55-3.25-1.5-6.44-2.52-9.34-.15-.43-.84-.25-.7,.19,.97,2.94,1.44,5.8,1.71,8.67-1.07-.27-2.18-.49-3.11-1.04-1.76-1.04-2.65-3.08-3.15-5.06-.8-3.15-1.39-6.14-3.39-8.8-.99-1.32-2.72-2.59-2.69-4.43,.03-1.51,2.38-2.53,2.6-4.23,.32-2.59-.73-5.16-1.55-7.56-.85-2.53-1.52-5.11-2.12-7.71-.45-1.97-1.86-5.05-1-7,.23-.52,.6-.96,.89-1.45,.67-1.09,.96-2.37,1.23-3.62,1.14-5.3,2.01-10.66,2.8-16.02,.07-.49,.14-1.03-.11-1.46s-.95-.62-1.24-.21c.1,.58,.09,1.16,.05,1.75-.15,2.13-.76,4.2-1.36,6.25-.5,1.69-1,3.37-1.5,5.06-.62,2.08-1.23,4.16-1.85,6.24-.06,.2-.13,.42-.3,.55-.5,.38-1.1-.34-1.31-.93-2.25-6.12-4.5-12.27-5.94-18.63-.23-1.04-.45-2.14-1.28-2.88-.29,.73-.45,1.51-.47,2.29-.03,1.06,.2,2.11,.42,3.14,1.28,5.35,2.29,10.7,3.85,15.97,.33,1.12,.64,2.25,.94,3.38-1.17-.26-2.37-.43-3.25-.74-9.33-3.32-13.32-13.18-16.39-21.75-.17-.47-.91-.27-.75,.21,2.24,6.62,4.45,13.56,9.62,18.55,1.84,1.78,3.9,3.19,6.28,4.15,3.27,1.32,4.71,2.96,5.95,4.93,.46,1.6,.94,3.2,1.51,4.75,.51,1.38,1.1,2.91,1.27,4.38,.19,1.68-.16,3.37-.04,5.05,.06,.84,.23,1.67,.51,2.46,.22,.63,.52,1.29,.36,1.94-.58,2.43-3.34,.8-4.48-.18-1.94-1.66-4.28-1.69-6.43-1.67-2.49,.03-4.69-.82-7-1.33-2.1-.46-.57-4.2-.37-5.46,.43-2.8,.5-5.65,.2-8.47-.05-.5-.13-1.03-.47-1.41-.97,1.61-.65,3.63-.7,5.51-.04,1.97-.53,3.93-1.41,5.69-.57-.48-.96-1.13-1.34-1.77-.97-1.63-1.95-3.26-2.92-4.89-2.26-3.79-3.25-7.96-4.97-12-1.74-4.1-3.88-8.04-6.38-11.73-.24-.35-.73-.72-1-.4-.12,.14-.1,.35-.08,.54,.28,1.91,.97,3.72,1.67,5.52,1.89,4.87,3.82,9.74,5.78,14.58,.46,1.14,2.29,4.46,2.34,4.59,.23,.62,.65,1.16,.95,1.76,.36,.72,1.33,3.24-.4,2.22-1.44-.86-2.91-1.67-4.37-2.5-.57-.76-1.46-.97-2.27-1.26-4.43-1.58-8.82-3.27-13.08-5.29-2.49-3.73-4.85-7.53-6.57-11.69-.37-.9-.98-1.69-2.18-1.41-.17,.5,.04,.9,.28,1.33,1.78,3.23,3.5,6.5,5.31,9.72,.66,1.17,1.36,2.33,2.46,3.18,1.13,1.19,2.63,1.93,4.02,2.64,1.99,1.01,3.9,2.32,6.01,3.07,2.05,.73,3.73,1.35,5.43,2.8,1.54,1.31,2.9,2.83,4.49,4.08,.91,.71,1.89,1.33,2.86,1.96,.17,.11,.35,.24,.38,.44,.04,.22-.12,.42-.27,.58-2.8,3.09-5.77,5.77-9.09,8.31-1.44,1.11-2.84,2.49-3.18,4.34-.28,1.52,.16,3.11,.42,4.68-1.04-2.22-2.46-4.08-4.03-6.02-3.27-4.02-5-9.05-7.11-13.75-.26-.58-1.1-.08-.85,.5,2.42,5.53,4.49,10.6,8.07,15.42,1.44,1.94,2.99,4.89,3.93,7.99-.56,5.45-2.4,10.76-5.34,15.37-.78,1.22-1.68,2.44-2.96,3.12-1.96,1.05-4.18,.97-5.87,2.6-.61,.14-1.07,.48-1.34,1.05l-.04,.04c-.11,.15-.59,.27-.77,.34-.6-1.19-.15-3.61-.48-5.05-.43-1.87-1.16-3.66-2.04-5.36-1.66-3.22-3.62-6.89-5.95-9.65-.55-.65-1.07-1.31-1.61-1.96-.04-3.25-.29-6.51-.58-9.71-.04-.46-.75-.47-.72,0,.18,2.78,.18,5.54,.15,8.3-3.9-4.82-7.64-9.8-11.49-14.65-2.58-3.26-5.18-6.53-8.21-9.38,.53,.5,.41,1.89,.98,2.56,.75,1.85,2.22,3.51,3.29,5.2,1.32,2.09,2.65,4.19,3.97,6.28,1.17,1.84,2.31,3.7,3.47,5.55-5.18-3-10.47-5.87-15.57-8.96-.41-.25-.79,.39-.38,.64,5.65,3.47,11.35,7.18,17.24,10.39,1.42,2.28,2.86,4.55,4.27,6.83,.49,.8,.99,1.61,1.42,2.45,.34,.66,.63,1.33,.9,2.02,0,.02,.02,.05,.03,.07,.41,1.04,.78,2.11,1.13,3.17,.6,1.79,2.32,4.91,2.09,6.7-1.85-.38-3.51-2.25-4.26-3.91-.26-.57-.54-1.25-1.15-1.37-.3-.06-.63,.04-.92-.06-.31-.1-.5-.4-.68-.66-.97-1.44-2.26-2.68-3.74-3.58,.51,.56,.64,1.3,1.01,1.94,.45,.77,.93,1.53,1.45,2.26,1.03,1.46,2.18,2.84,3.44,4.11,1.26,1.27,2.62,2.44,4.08,3.48,.66,.48,1.39,.79,1.86,1.44,.49,.67,.63,1.64,.93,2.4-.15,1.11,.69,1.81,1.26,2.5,1.8,2.17,2.56,4.62,2.45,7.34-3.94-2.83-7.65-5.91-11.17-9.26-.37-.36-.94,.21-.57,.57,3.57,3.43,7.54,7.12,11.82,10.32,.63,2.44,3.83,4.49,5.49,6.02,1.55,1.43,3.12,2.84,4.79,4.12,1.51,1.16,3.09,2.21,4.72,3.18-9.63-1.6-19.06-3.36-28.52-6.31-.51-.16-.72,.63-.22,.79,3.36,1.11,6.79,2.16,10.25,3.13-3.24,.35-6.62,1.34-9.65,1.9-.41,.08-.32,.8,.1,.74,3.88-.51,8.59-.54,12.32-1.88,6.4,1.69,12.91,3,19.44,3.66,2.34,1.18,4.74,2.24,7.17,3.21,1.72,.69,3.51,1.37,5,2.51,1.56,1.2,2.79,2.97,4.18,4.38,4.37,4.44,11.46,3.53,17.15,3.33,4.21-.15,8.65-.21,12.34,1.82,2.98,1.63,5.18,4.5,8.29,5.87,.68,.3,1.54,.55,2.08,1.08,.78,.77,.51,1.46,.53,2.5,.07,6.45-.81,12.85-1.83,19.21-.48,3.04-.97,6.07-1.45,9.11-.35,.32-.4,.84-.44,1.31-.6,9.14-1.47,18.21-1.38,27.38,.02,1.93,.07,3.9,.66,5.74,.28,.89,.69,1.73,1.02,2.6,.89,2.35,1.1,4.89,.77,7.37-.18,1.31-.52,2.61-1.01,3.84-.45,1.13-1.35,2.49-.54,3.69,.2,.3,.49,.53,.67,.84,.18,.31,.23,.75-.04,.99-.19,.17-.48,.17-.7,.3-.57,.33-.39,1.2-.08,1.78,1.92,3.65,5.75,5.98,9.84,6.21,2.07,.12,4.1,.22,5.94-1.3,1.06-.88,2.56-1.36,4.06-.47,1.6,.96,4.33,1.24,5.87,.06,1.11-.86,1.7-2.26,1.85-3.66,.15-1.4-.09-2.8-.37-4.18-1.39-6.87-3.92-13.23-6.81-19.58-1-2.21-2.05-4.38-2.52-6.77-.46-2.39,.54-5.45,1.01-7.78,.54-2.66,.68-5.45,.73-8.17,.01-.69,.01-1.39-.11-2.08-.2-1.12-.73-2.15-1.22-3.18-3.05-6.42-5.21-13.54-4.59-20.72,.12-1.42,.41-2.85,.39-4.29-.09-6.29,3.04-12.5,6.42-17.65,.44-.66,.89-1.32,1.23-2.03,1.39-1.53,2.68-3.14,3.89-4.81,5.78-1.67,13.34-.91,19.63-.65,2.14,1.82,4.95,2.87,7.26,4.44,.49,.34,.94-.45,.46-.79-1.69-1.21-3.44-2.47-5.25-3.58,1.23,.01,2.39,0,3.44-.1,6.8-.59,10.91-4.15,15.41-9.01,.33-.35-.19-.88-.53-.53-4.95,5.15-9.74,7.85-16.99,8.08-4.88,.16-9.8-.05-14.68-.05-2.35,0-4.78-.05-7.09,.21,1.92-1.87,4.59-3.19,7.14-3.76,5.32-1.18,10.94-2.36,15.86-4.98,5.04-2.68,9.14-7.02,12.57-11.51,2.1-2.75,3.37-5.9,5.32-8.79,1.28-1.89,2.71-3.67,4.23-5.37,13.51-6.23,29.25-5.2,42.52-12.4,.52-.28,.06-1.07-.46-.79Zm-50.1-44.08s-.01,0-.02,.01v-.02h.02Zm-.04-.03s.02,.02,.03,.03c-.03,.01-.03,.02-.05,.03,.01-.02,.02-.04,.03-.06Zm-17.86,32.4s.02,.02,.03,.02c0,0,0-.02,0-.03,.05,0,.09,.04,.11,.14l-.1-.1h0l.07,.07c-.06-.03-.13-.05-.18-.08,.03-.02,.05-.01,.07-.02Zm-34.42,5.7s.03-.06,.04-.09c.52-1.16,1.24-2.22,1.7-3.4,1.03-2.59,.77-5.43,.56-8.14-.21-2.84-.23-5.62,.24-8.44,.41-2.49,2.59-4.71,3.98-6.74,1.6-2.34,3.21-4.69,4.36-7.28,.84-1.91,1.42-3.93,1.72-6,.2-1.37-.39-4.36,.9-5.18,2.6,2.96,4.37,7.19,5.6,10.9,.13,.39,.25,.82,.14,1.22-.1,.35-.37,.63-.58,.93-.52,.76-.66,1.71-.78,2.62-.51,3.73-1.01,7.5-.69,11.25,.24,2.81,.94,5.55,1.36,8.34,.29,1.95,.45,3.96,1.23,5.77,.41,.94,.98,1.8,1.34,2.76,1.01,2.64,.33,5.69-1.16,8.09-1.48,2.4-3.68,4.27-5.89,6.03-4.72,3.75-9.69,7.2-14.85,10.31-.12-4.54-.23-9.09-.35-13.63-.08-3.15-.14-6.42,1.13-9.3Zm19.15-29.69h0s0,.02-.01,.02v-.02Zm-42.34,16.06h0Zm16.47,56.78c-.13,3.26,.33,7.22-.75,10.31-.39,1.73-.3,3.49-.2,5.25,.17,2.87-1.54,1.29-3.02,.18-1.62-1.22-3.18-2.52-4.77-3.78-2.27-1.81-4.61-3.58-7.22-4.88-1.13-.56-2.25-1.08-3.34-1.62,1.66-3.86,2.93-7.86,3.92-11.95,.65,.06,1.31-.23,1.93-.42,.69-.22,1.33-.49,1.99-.78,.33-.14,.07-.57-.22-.53-.72,.1-1.41,.21-2.11,.39-.44,.11-.92,.19-1.34,.37,.81-3.51,1.41-7.08,1.86-10.65,.05-.38-.62-.48-.68-.09-1.12,8.11-3.48,15.59-6.44,23.08-1.2-.64-2.36-1.36-3.46-2.29-2.49-2.1-3.53-4.99-5.65-7.36-.83-.93-.79-2.32-1.16-3.44-.47-1.42-.9-2.58-.99-4.11-.18-2.81,.32-5.98-1.36-8.45-.49-.72-1.13-1.31-1.72-1.95-.18-.2-.33-.41-.5-.61,.36-.68,1.07-1.43,1.34-2.01,.44-.93,.79-1.91,1.02-2.92,.52-2.26,.5-4.63,.56-6.94,0-.37-.55-.37-.57,0-.19,3.03-.6,6.16-1.89,8.94-.24,.51-.81,1.17-1.25,1.86-.69-1.01-1.29-2.08-1.89-3.15-.76-1.34-2.14-3.04-2.38-4.57-.12-.77,.22-1.6-.57-2.1-2.37,2.15,1.54,7.45,4.38,11.56,.03,.08,.03,.16,.08,.24,.06,.09,.13,.15,.21,.19,1.15,1.67,2.07,3.13,2.22,4.03,.18,1.02,.09,2.05-.08,3.08-1.88-2.4-4.74-4.14-7-6.11-3.53-3.08-6.26-6.72-8.21-10.97-.18-.4-.76-.05-.59,.34,1.53,3.53,3.52,6.86,6.15,9.69,2.91,3.13,6.64,5.4,9.32,8.74-.14,.64-.27,1.28-.37,1.92-.35,2.23,2.84,8.78,3.9,9.7-.03-.02-1.63,.27-1.86,.25-.77-.08-1.53-.38-2.16-.82-1.27-.89-1.66-2.3-2.37-3.6-1.57-2.85-3.42-5.55-5.52-8.04-1.4-1.67-2.73-4.01-4.68-5.09-1.41-.78-1.67-.23-.79,1.05,1.18,1.72,2.75,3.28,4.09,4.88,1.29,1.54,2.79,3.13,3.83,4.85,1.18,1.93,1.97,4.23,2.93,6.29,.3,.65,.64,1.34,1.27,1.68,.61,.34,1.37,.27,2.04,.46,.44,.12,.84,.35,1.23,.59,2.84,1.69,5.48,3.66,7.94,5.86,1.01,.9,1.99,1.85,2.96,2.8,.02,.03,.05,.06,.08,.08,.3,.3,.61,.59,.9,.89,.48,.49,3.12,3.89,3.65,3.82-4.71,.63-8.89,.2-13.06,.19-2.7,0-5.22,0-7.39-1.85-1.47-1.25-2.59-2.86-3.99-4.18-3.6-3.38-8.59-3.6-12.32-6.54-2.4-1.89-4.02-4.39-6.27-6.42-2.33-2.11-4.98-3.85-7.17-6.11-.94-.97-1.81-2.06-2.2-3.35-.37-1.23-.3-2.61-.95-3.72-.49-.85-1.35-1.44-1.83-2.29-1.51-2.66,2.81-4.19,4.64-4.49,6.57-1.05,10.42-7.11,12.22-13.01,.95-3.1,1.45-6.35,1.52-9.58,.08-3.57-.84-7.55,1.57-10.6l.03-.03c2.48-3.08,7.73-5.13,8.63-9.4,.13,0,.25,.02,.39,0,1.07-.26,2.06-.04,3.04,.44,1.52,.75,3.1,1.38,4.74,1.86,5.07,1.49,8.28,5.41,10.93,9.75,3.26,5.33,6.7,10.11,10.88,14.79,2.12,2.38,4.51,4.65,6.3,7.29,.91,1.34,1.75,2.72,2.72,4.03,.51,.69,3.31,2.99,3.36,3.63,0,.04,0,.07,0,.11,.06,.57,.76,1.38,.96,1.94,.36,.97,.5,2.02,.59,3.05,.16,2-.03,4.01,.06,6.02,.07,1.75,.11,3.51,.11,5.26,0,3.04-.07,6.08-.2,9.11Z"/></g></g><g class="f"><g><g><path class="i" d="M325.78,2.86c0-.4-.55-.35-.55,.05s.55,.35,.55-.05Z"/><path class="i" d="M288.22,8.09c0-.57-.78-.49-.78,.08s.78,.5,.78-.08Z"/></g><g class="g"><path class="i" d="M168.38,2.86c0-.4,.55-.35,.55,.05s-.55,.35-.55-.05Z"/><path class="i" d="M205.94,8.09c0-.57,.79-.49,.79,.08s-.79,.5-.79-.08Z"/></g></g><g><g><path class="i" d="M134.99,9.91c0-.4-.55-.35-.55,.05s.55,.35,.55-.05Z"/><path class="i" d="M97.43,15.15c0-.57-.78-.49-.78,.08s.78,.5,.78-.08Z"/></g><g class="g"><path class="i" d="M15.14,15.15c0-.57,.79-.49,.79,.08s-.79,.5-.79-.08Z"/></g></g></g></g></g></svg>