<?xml version="1.0" encoding="UTF-8"?><svg xmlns="http://www.w3.org/2000/svg" xmlns:xlink="http://www.w3.org/1999/xlink" viewBox="0 0 203.15 507.88"><defs><style>.c{isolation:isolate;}.d{clip-path:url(#b);}.e{mix-blend-mode:screen;}.f{fill:none;}.g{fill:#f4f2d2;}</style><clipPath id="b"><rect class="f" y=".41" width="203.15" height="506.94"/></clipPath></defs><g class="c"><g id="a"><g class="d"><g><g><g><path class="g" d="M4.65,339.67c0,.88-1.54,.88-1.54,0s1.54-.88,1.54,0Z"/><path class="g" d="M32.31,300.97c-.47,.32-.13,1.06,.27,.6,.15-.17,.28-.97-.27-.6-.07,.05,.29-.2,0,0Z"/><path class="g" d="M5.08,310.06c-.29,0-.25,.4,.04,.4s.25-.4-.04-.4Z"/><path class="g" d="M22.22,315.96c-.33,0-.29,.46,.04,.46s.29-.46-.04-.46Z"/><path class="g" d="M46.88,313.64c-.45-.48-.7-.13-.86,.08-1.95,.82,2.46,1.62,.86-.08-.21-.22,.34,.36,0,0Z"/><path class="g" d="M23.33,340.02c-.58,0-.5,.78,.07,.78s.5-.78-.07-.78Z"/><path class="g" d="M37.14,335.08c-.33,0-.28,.45,.04,.45s.28-.45-.04-.45Z"/><path class="g" d="M16.26,350.39c-.36,0-.31,.49,.05,.49s.31-.49-.05-.49Z"/><path class="g" d="M16.23,367.91c-.75,0-.65,1.03,.1,1.03s.65-1.03-.1-1.03Z"/><path class="g" d="M3.39,373.23c-.44,0-.38,.6,.06,.6s.38-.6-.06-.6Z"/><path class="g" d="M22.59,379.17c-.43,0-.37,.59,.06,.59s.38-.59-.06-.59Z"/><path class="g" d="M41.42,365.8c-.47,0-.41,.64,.06,.64s.4-.64-.06-.64Z"/><path class="g" d="M48.66,295.98c-.88,0-.76,1.21,.11,1.21s.77-1.21-.11-1.21Z"/><path class="g" d="M73.49,301.04c-.46-.19-.78,0-.54,.44,.64,.36,.82,.22,.54-.44-.08-.03,.27,.12,0,0Z"/><path class="g" d="M71.62,307.2c-.38,0-.33,.52,.05,.52s.33-.52-.05-.52Z"/><path class="g" d="M94.43,296c-.37-.51-1.51,.24-1.47,.63,.1,1.08,2.21,.38,1.47-.63-.17-.24,.15,.2,0,0Z"/><path class="g" d="M86.53,311.6c-.46,0-.4,.62,.06,.62s.39-.62-.06-.62Z"/><path class="g" d="M103.76,323.85c.13-.28-1.35,.66-.21,.52,.2-.03,.8-.45,.21-.52Z"/><path class="g" d="M92.87,345.39c-.44,0-.38,.59,.05,.59s.38-.59-.05-.59Z"/><path class="g" d="M82.61,364.3c-.5,0-.43,.68,.06,.68s.43-.68-.06-.68Z"/><path class="g" d="M117.06,336.58c-.38-1.47-1.29-.29-1.39,.1-.23,.9,1.69,1.04,1.39-.1-.1-.38,.06,.22,0,0Z"/><path class="g" d="M115.8,350.29c-.17-.19-.89-.71-.94-.05-.08,1.17,1.49,.65,.94,.05-.05-.05,.21,.22,0,0Z"/><path class="g" d="M130.13,329.19c-.91,.06-1.21,1.38-.07,1.3,.82-.05,.99-1.37,.07-1.3-.14,0,.4-.03,0,0Z"/><path class="g" d="M115.23,312.32c-.6,0-.52,.82,.07,.82s.52-.82-.07-.82Z"/><path class="g" d="M125.76,306.49c-.29-.46-1.1-.14-.63,.21,.19,.14,.96,.31,.63-.21-.04-.06,.06,.1,0,0Z"/><path class="g" d="M134.7,314.9c-.16-.2-.9,.15-.59,.45,.27,.26,.71-.3,.59-.45-.12-.16,.12,.15,0,0Z"/><path class="g" d="M142.85,315.48c-.09-1.01-1.64-.58-1.67,.27-.04,.98,1.75,.59,1.67-.27-.04-.36,.02,.24,0,0Z"/><path class="g" d="M108.16,301.62c-.36,0-.31,.48,.05,.48s.31-.48-.05-.48Z"/><path class="g" d="M95.3,317.83c-.26,0-.23,.36,.03,.36s.23-.36-.03-.36Z"/><path class="g" d="M48.14,325.5c-.37,0-.32,.5,.05,.5s.31-.5-.05-.5Z"/><path class="g" d="M124,373.22c-.47,0-.4,.63,.06,.63s.4-.63-.06-.63Z"/><path class="g" d="M132.28,361.53c-.25-.53-1.04-.46-1.23,.03-.38,1.23,1.65,.89,1.23-.03-.22-.47,.05,.11,0,0Z"/><path class="g" d="M106.43,363.12c-.17,.05-.62,.17-.61,.38,.1,1.05,1.48-.63,.61-.38-.08,.02,.21-.06,0,0Z"/><path class="g" d="M107.03,376.97c-.51,0-.44,.7,.06,.7s.44-.7-.06-.7Z"/><path class="g" d="M13.47,392.6c-.31,0-.27,.42,.04,.42s.27-.42-.04-.42Z"/><path class="g" d="M122.7,381.8c-.44,0-.38,.6,.05,.6s.38-.6-.05-.6Z"/><path class="g" d="M105.54,391.33c-.48,0-.41,.66,.06,.66s.41-.66-.06-.66Z"/><path class="g" d="M129.49,389.57c-.22-.02-.92-.48-.94,.1-.05,1.01,1.91,0,.94-.1-.08,0,.36,.04,0,0Z"/><path class="g" d="M83.92,393.37c-.38,0-.33,.53,.05,.53s.33-.53-.05-.53Z"/><path class="g" d="M46.69,332.37c-.5-.64,.55,.69,0,0-.12-.15,.11,.13,0,0Z"/><path class="g" d="M22.58,306.88c-.79,0-.41,2.02,.66,1.17,.43-.53,.21-.92-.66-1.17-.27,0,.48,0,0,0Z"/><path class="g" d="M22.59,298.75c-.45,0-.38,.61,.06,.61s.39-.61-.06-.61Z"/><path class="g" d="M.41,316.29c-.35,0-.3,.47,.04,.47s.3-.47-.04-.47Z"/><path class="g" d="M108.16,312.46c.12,.08-1.62-.06-1.05,.63,.13,.99,2.01,.04,1.05-.63-.26-.18,.43,.3,0,0Z"/><path class="g" d="M71.73,316.02c-.27-1.23-1.87-.13-1.14,.34,.59,.37,.98,.26,1.14-.34-.04-.17,.05,.22,0,0Z"/><path class="g" d="M98.09,330.6c-.38,0-.33,.52,.05,.52s.33-.52-.05-.52Z"/></g><g><path class="g" d="M157.55,331.87c0,1.07-1.88,1.07-1.88,0s1.88-1.07,1.88,0Z"/><path class="g" d="M158.07,295.66c-.36,0-.31,.49,.04,.49s.31-.49-.04-.49Z"/><path class="g" d="M179.04,302.88c-.41,0-.35,.56,.05,.56s.35-.56-.05-.56Z"/><path class="g" d="M180.39,332.3c-.71,0-.61,.96,.09,.96s.61-.96-.09-.96Z"/><path class="g" d="M197.27,326.26c-.4,0-.35,.55,.05,.55s.35-.55-.05-.55Z"/><path class="g" d="M171.74,344.97c-.44,0-.38,.6,.06,.6s.38-.6-.06-.6Z"/><path class="g" d="M171.71,366.39c-.93,0-.8,1.26,.12,1.26s.8-1.26-.12-1.26Z"/><path class="g" d="M156.01,372.91c-.54,0-.47,.73,.07,.73s.46-.73-.07-.73Z"/><path class="g" d="M179.48,380.16c-.53,0-.46,.72,.07,.72s.46-.72-.07-.72Z"/><path class="g" d="M202.5,363.81c-.57,0-.49,.78,.08,.78s.5-.78-.08-.78Z"/><path class="g" d="M168.33,396.59c-.38,0-.33,.52,.05,.52s.33-.52-.05-.52Z"/><path class="g" d="M152.37,303.28c-.42,0-.36,.58,.05,.58s.37-.58-.05-.58Z"/></g></g><g><g class="e"><path class="g" d="M198.49,282.57c0,.88,1.54,.88,1.54,0s-1.54-.88-1.54,0Z"/><path class="g" d="M170.83,243.87c.47,.32,.13,1.06-.27,.6-.15-.17-.28-.97,.27-.6,.07,.05-.3-.2,0,0Z"/><path class="g" d="M198.07,252.96c.29,0,.25,.4-.04,.4s-.25-.4,.04-.4Z"/><path class="g" d="M180.92,258.86c.33,0,.29,.46-.04,.46s-.29-.46,.04-.46Z"/><path class="g" d="M156.27,256.54c.45-.48,.7-.13,.86,.08,1.95,.82-2.46,1.62-.86-.08,.21-.21-.34,.36,0,0Z"/><path class="g" d="M179.82,282.92c.58,0,.5,.79-.07,.79s-.5-.79,.07-.79Z"/><path class="g" d="M166.01,277.98c.33,0,.28,.45-.04,.45s-.28-.45,.04-.45Z"/><path class="g" d="M186.89,293.29c.36,0,.31,.49-.05,.49s-.31-.49,.05-.49Z"/><path class="g" d="M186.92,310.81c.75,0,.65,1.03-.1,1.03s-.65-1.03,.1-1.03Z"/><path class="g" d="M199.76,316.13c.44,0,.38,.6-.06,.6s-.38-.6,.06-.6Z"/><path class="g" d="M180.56,322.07c.43,0,.37,.59-.06,.59s-.38-.59,.06-.59Z"/><path class="g" d="M161.73,308.7c.47,0,.41,.64-.06,.64s-.4-.64,.06-.64Z"/><path class="g" d="M154.49,238.88c.88,0,.76,1.21-.11,1.21s-.77-1.21,.11-1.21Z"/><path class="g" d="M129.66,243.94c.46-.19,.78,0,.54,.44-.64,.36-.82,.22-.54-.44,.08-.03-.27,.12,0,0Z"/><path class="g" d="M131.53,250.1c.38,0,.33,.52-.05,.52s-.33-.52,.05-.52Z"/><path class="g" d="M108.72,238.9c.37-.51,1.51,.24,1.47,.63-.1,1.07-2.21,.38-1.47-.63,.17-.24-.15,.2,0,0Z"/><path class="g" d="M116.62,254.5c.46,0,.4,.62-.06,.62s-.39-.62,.06-.62Z"/><path class="g" d="M99.39,266.76c-.13-.28,1.35,.66,.21,.52-.2-.03-.8-.45-.21-.52Z"/><path class="g" d="M110.28,288.29c.44,0,.38,.6-.05,.6s-.38-.6,.05-.6Z"/><path class="g" d="M120.53,307.2c.5,0,.43,.68-.06,.68s-.43-.68,.06-.68Z"/><path class="g" d="M86.08,279.48c.38-1.46,1.29-.29,1.39,.1,.23,.91-1.69,1.04-1.39-.1,.1-.38-.06,.22,0,0Z"/><path class="g" d="M87.34,293.19c.17-.18,.89-.71,.94-.05,.08,1.17-1.49,.65-.94,.05,.05-.05-.21,.22,0,0Z"/><path class="g" d="M73.02,272.09c.91,.07,1.21,1.38,.07,1.3-.82-.05-.99-1.37-.07-1.3,.14,0-.4-.03,0,0Z"/><path class="g" d="M87.92,255.23c.6,0,.52,.82-.07,.82s-.52-.82,.07-.82Z"/><path class="g" d="M77.39,249.39c.29-.46,1.1-.14,.63,.2-.19,.14-.96,.32-.63-.2,.04-.07-.06,.1,0,0Z"/><path class="g" d="M68.45,257.8c.16-.2,.9,.15,.59,.45-.27,.26-.71-.3-.59-.45,.12-.16-.12,.14,0,0Z"/><path class="g" d="M60.29,258.38c.09-1.01,1.64-.59,1.67,.27,.04,.98-1.75,.59-1.67-.27,.04-.36-.02,.24,0,0Z"/><path class="g" d="M94.99,244.52c.36,0,.31,.48-.05,.48s-.31-.48,.05-.48Z"/><path class="g" d="M107.84,260.73c.26,0,.23,.36-.03,.36s-.23-.36,.03-.36Z"/><path class="g" d="M155.01,268.4c.37,0,.32,.49-.05,.49s-.31-.49,.05-.49Z"/><path class="g" d="M79.15,316.12c.47,0,.4,.63-.06,.63s-.4-.63,.06-.63Z"/><path class="g" d="M70.86,304.43c.25-.53,1.04-.46,1.23,.03,.38,1.23-1.65,.89-1.23-.03,.22-.47-.05,.11,0,0Z"/><path class="g" d="M96.72,306.02c.17,.05,.62,.17,.61,.38-.1,1.05-1.48-.63-.61-.38,.08,.02-.21-.06,0,0Z"/><path class="g" d="M96.11,319.88c.51,0,.44,.7-.06,.7s-.44-.7,.06-.7Z"/><path class="g" d="M189.68,335.5c.31,0,.27,.42-.04,.42s-.27-.42,.04-.42Z"/><path class="g" d="M80.45,324.7c.44,0,.38,.6-.05,.6s-.38-.6,.05-.6Z"/><path class="g" d="M97.6,334.23c.48,0,.41,.66-.06,.66s-.41-.66,.06-.66Z"/><path class="g" d="M73.66,332.47c.22-.02,.92-.48,.94,.1,.05,1.01-1.91,0-.94-.1,.08,0-.36,.04,0,0Z"/><path class="g" d="M119.22,336.28c.38,0,.33,.53-.05,.53s-.33-.53,.05-.53Z"/><path class="g" d="M156.45,275.27c.5-.63-.55,.7,0,0,.12-.15-.11,.13,0,0Z"/><path class="g" d="M180.57,249.78c.79,0,.41,2.02-.66,1.17-.43-.53-.21-.92,.66-1.17,.27,0-.48,0,0,0Z"/><path class="g" d="M180.56,241.65c.45,0,.38,.61-.06,.61s-.39-.61,.06-.61Z"/><path class="g" d="M202.73,259.19c.35,0,.3,.47-.04,.47s-.3-.47,.04-.47Z"/><path class="g" d="M94.99,255.36c-.12,.08,1.62-.06,1.05,.63-.13,.99-2.01,.04-1.05-.63,.26-.18-.43,.3,0,0Z"/><path class="g" d="M131.42,258.92c.27-1.23,1.87-.13,1.14,.34-.59,.37-.98,.26-1.14-.34,.04-.17-.05,.22,0,0Z"/><path class="g" d="M105.05,273.5c.38,0,.33,.52-.05,.52s-.33-.52,.05-.52Z"/></g><g class="e"><path class="g" d="M45.59,274.77c0,1.07,1.88,1.07,1.88,0s-1.88-1.07-1.88,0Z"/><path class="g" d="M45.07,238.57c.36,0,.31,.49-.04,.49s-.31-.49,.04-.49Z"/><path class="g" d="M24.11,245.79c.41,0,.35,.56-.05,.56s-.35-.56,.05-.56Z"/><path class="g" d="M22.76,275.2c.71,0,.61,.96-.09,.96s-.61-.96,.09-.96Z"/><path class="g" d="M5.88,269.16c.4,0,.35,.55-.05,.55s-.35-.55,.05-.55Z"/><path class="g" d="M31.4,287.87c.44,0,.38,.6-.06,.6s-.38-.6,.06-.6Z"/><path class="g" d="M31.44,309.3c.93,0,.8,1.26-.12,1.26s-.8-1.26,.12-1.26Z"/><path class="g" d="M47.14,315.81c.54,0,.47,.73-.07,.73s-.46-.73,.07-.73Z"/><path class="g" d="M23.66,323.06c.53,0,.46,.72-.07,.72s-.46-.72,.07-.72Z"/><path class="g" d="M.65,306.71c.57,0,.49,.79-.08,.79s-.5-.79,.08-.79Z"/><path class="g" d="M34.82,339.49c.38,0,.33,.52-.05,.52s-.33-.52,.05-.52Z"/><path class="g" d="M50.78,246.18c.42,0,.36,.58-.05,.58s-.37-.58,.05-.58Z"/></g></g><g><g><path class="g" d="M6.02,147.73c0,.88-1.54,.88-1.54,0s1.54-.88,1.54,0Z"/><path class="g" d="M33.67,109.02c-.47,.32-.13,1.06,.27,.6,.15-.17,.28-.97-.27-.6-.07,.05,.3-.2,0,0Z"/><path class="g" d="M6.44,118.12c-.29,0-.25,.4,.04,.4s.25-.4-.04-.4Z"/><path class="g" d="M23.58,124.02c-.33,0-.29,.46,.04,.46s.29-.46-.04-.46Z"/><path class="g" d="M48.24,121.7c-.45-.48-.7-.13-.86,.08-1.95,.82,2.46,1.62,.86-.08-.21-.22,.34,.36,0,0Z"/><path class="g" d="M24.69,148.08c-.58,0-.5,.78,.07,.78s.5-.78-.07-.78Z"/><path class="g" d="M38.5,143.14c-.33,0-.28,.45,.04,.45s.28-.45-.04-.45Z"/><path class="g" d="M17.62,158.44c-.36,0-.31,.49,.05,.49s.31-.49-.05-.49Z"/><path class="g" d="M17.59,175.97c-.75,0-.65,1.03,.1,1.03s.65-1.03-.1-1.03Z"/><path class="g" d="M4.75,181.29c-.44,0-.38,.6,.06,.6s.38-.6-.06-.6Z"/><path class="g" d="M23.95,187.23c-.43,0-.37,.59,.06,.59s.38-.59-.06-.59Z"/><path class="g" d="M42.78,173.86c-.47,0-.41,.64,.06,.64s.4-.64-.06-.64Z"/><path class="g" d="M50.02,104.04c-.88,0-.76,1.21,.11,1.21s.77-1.21-.11-1.21Z"/><path class="g" d="M74.85,109.1c-.46-.19-.78,0-.54,.44,.64,.36,.82,.22,.54-.44-.08-.03,.27,.12,0,0Z"/><path class="g" d="M72.98,115.26c-.38,0-.33,.52,.05,.52s.33-.52-.05-.52Z"/><path class="g" d="M95.79,104.06c-.37-.51-1.51,.24-1.47,.63,.1,1.08,2.21,.38,1.47-.63-.17-.24,.15,.2,0,0Z"/><path class="g" d="M87.89,119.66c-.46,0-.4,.62,.06,.62s.39-.62-.06-.62Z"/><path class="g" d="M105.12,131.91c.13-.28-1.35,.66-.21,.52,.2-.03,.8-.45,.21-.52Z"/><path class="g" d="M94.23,153.45c-.44,0-.38,.59,.05,.59s.38-.59-.05-.59Z"/><path class="g" d="M83.97,172.36c-.5,0-.43,.68,.06,.68s.43-.68-.06-.68Z"/><path class="g" d="M118.43,144.64c-.38-1.47-1.29-.29-1.39,.1-.23,.9,1.69,1.04,1.39-.1-.1-.38,.06,.22,0,0Z"/><path class="g" d="M117.17,158.35c-.17-.19-.89-.71-.94-.05-.08,1.17,1.49,.65,.94,.05-.05-.05,.21,.22,0,0Z"/><path class="g" d="M131.49,137.25c-.91,.06-1.21,1.38-.07,1.3,.82-.05,.99-1.37,.07-1.3-.14,0,.4-.03,0,0Z"/><path class="g" d="M116.59,120.38c-.6,0-.52,.82,.07,.82s.52-.82-.07-.82Z"/><path class="g" d="M127.12,114.55c-.29-.46-1.1-.14-.63,.21,.19,.14,.96,.31,.63-.21-.04-.06,.06,.1,0,0Z"/><path class="g" d="M136.06,122.96c-.16-.2-.9,.15-.59,.45,.27,.26,.71-.3,.59-.45-.12-.16,.12,.15,0,0Z"/><path class="g" d="M144.21,123.54c-.09-1.01-1.64-.58-1.67,.27-.04,.98,1.75,.59,1.67-.27-.04-.36,.02,.24,0,0Z"/><path class="g" d="M109.52,109.67c-.36,0-.31,.48,.05,.48s.31-.48-.05-.48Z"/><path class="g" d="M96.67,125.88c-.26,0-.23,.36,.03,.36s.23-.36-.03-.36Z"/><path class="g" d="M49.5,133.56c-.37,0-.32,.5,.05,.5s.31-.5-.05-.5Z"/><path class="g" d="M125.36,181.28c-.47,0-.4,.63,.06,.63s.4-.63-.06-.63Z"/><path class="g" d="M133.65,169.59c-.25-.53-1.04-.46-1.23,.03-.38,1.23,1.65,.89,1.23-.03-.22-.47,.05,.11,0,0Z"/><path class="g" d="M107.79,171.18c-.17,.05-.62,.17-.61,.38,.1,1.05,1.48-.63,.61-.38-.08,.02,.21-.06,0,0Z"/><path class="g" d="M108.39,185.03c-.51,0-.44,.7,.06,.7s.44-.7-.06-.7Z"/><path class="g" d="M14.83,200.66c-.31,0-.27,.42,.04,.42s.27-.42-.04-.42Z"/><path class="g" d="M124.06,189.86c-.44,0-.38,.6,.05,.6s.38-.6-.05-.6Z"/><path class="g" d="M106.9,199.39c-.48,0-.41,.66,.06,.66s.41-.66-.06-.66Z"/><path class="g" d="M130.85,197.63c-.22-.02-.92-.48-.94,.1-.05,1.01,1.91,0,.94-.1-.08,0,.36,.04,0,0Z"/><path class="g" d="M85.29,201.43c-.38,0-.33,.53,.05,.53s.33-.53-.05-.53Z"/><path class="g" d="M48.05,140.43c-.5-.64,.55,.69,0,0-.12-.15,.11,.13,0,0Z"/><path class="g" d="M23.94,114.94c-.79,0-.41,2.02,.66,1.17,.43-.53,.21-.92-.66-1.17-.27,0,.48,0,0,0Z"/><path class="g" d="M23.95,106.81c-.45,0-.38,.61,.06,.61s.39-.61-.06-.61Z"/><path class="g" d="M1.77,124.34c-.35,0-.3,.47,.04,.47s.3-.47-.04-.47Z"/><path class="g" d="M109.52,120.52c.12,.08-1.62-.06-1.05,.63,.13,.99,2.01,.04,1.05-.63-.26-.18,.43,.3,0,0Z"/><path class="g" d="M73.09,124.08c-.27-1.23-1.87-.13-1.14,.34,.59,.37,.98,.26,1.14-.34-.04-.17,.05,.22,0,0Z"/><path class="g" d="M99.45,138.66c-.38,0-.33,.52,.05,.52s.33-.52-.05-.52Z"/></g><g><path class="g" d="M158.92,139.93c0,1.07-1.88,1.07-1.88,0s1.88-1.07,1.88,0Z"/><path class="g" d="M159.43,103.72c-.36,0-.31,.49,.04,.49s.31-.49-.04-.49Z"/><path class="g" d="M180.4,110.94c-.41,0-.35,.56,.05,.56s.35-.56-.05-.56Z"/><path class="g" d="M181.75,140.36c-.71,0-.61,.96,.09,.96s.61-.96-.09-.96Z"/><path class="g" d="M198.63,134.32c-.4,0-.35,.55,.05,.55s.35-.55-.05-.55Z"/><path class="g" d="M173.1,153.03c-.44,0-.38,.6,.06,.6s.38-.6-.06-.6Z"/><path class="g" d="M173.07,174.45c-.93,0-.8,1.26,.12,1.26s.8-1.26-.12-1.26Z"/><path class="g" d="M157.37,180.96c-.54,0-.47,.73,.07,.73s.46-.73-.07-.73Z"/><path class="g" d="M180.85,188.22c-.53,0-.46,.72,.07,.72s.46-.72-.07-.72Z"/><path class="g" d="M169.69,204.64c-.38,0-.33,.52,.05,.52s.33-.52-.05-.52Z"/><path class="g" d="M153.73,111.33c-.42,0-.36,.58,.05,.58s.37-.58-.05-.58Z"/></g></g><g><g class="e"><path class="g" d="M6.02,218.25c0-.88-1.54-.88-1.54,0s1.54,.88,1.54,0Z"/><path class="g" d="M33.67,256.96c-.47-.32-.13-1.06,.27-.6,.15,.17,.28,.97-.27,.6-.07-.05,.3,.2,0,0Z"/><path class="g" d="M6.44,247.86c-.29,0-.25-.4,.04-.4s.25,.4-.04,.4Z"/><path class="g" d="M23.58,241.96c-.33,0-.29-.46,.04-.46s.29,.46-.04,.46Z"/><path class="g" d="M48.24,244.29c-.45,.48-.7,.13-.86-.08-1.95-.82,2.46-1.62,.86,.08-.21,.21,.34-.36,0,0Z"/><path class="g" d="M24.69,217.9c-.58,0-.5-.79,.07-.79s.5,.79-.07,.79Z"/><path class="g" d="M38.5,222.84c-.33,0-.28-.45,.04-.45s.28,.45-.04,.45Z"/><path class="g" d="M17.62,207.54c-.36,0-.31-.49,.05-.49s.31,.49-.05,.49Z"/><path class="g" d="M17.59,190.01c-.75,0-.65-1.03,.1-1.03s.65,1.03-.1,1.03Z"/><path class="g" d="M4.75,184.69c-.44,0-.38-.6,.06-.6s.38,.6-.06,.6Z"/><path class="g" d="M23.95,178.75c-.43,0-.37-.59,.06-.59s.38,.59-.06,.59Z"/><path class="g" d="M42.78,192.13c-.47,0-.41-.64,.06-.64s.4,.64-.06,.64Z"/><path class="g" d="M50.02,261.94c-.88,0-.76-1.21,.11-1.21s.77,1.21-.11,1.21Z"/><path class="g" d="M74.85,256.88c-.46,.19-.78,0-.54-.44,.64-.36,.82-.22,.54,.44-.08,.03,.27-.12,0,0Z"/><path class="g" d="M72.98,250.72c-.38,0-.33-.52,.05-.52s.33,.52-.05,.52Z"/><path class="g" d="M95.79,261.92c-.37,.51-1.51-.24-1.47-.63,.1-1.07,2.21-.38,1.47,.63-.17,.24,.15-.2,0,0Z"/><path class="g" d="M87.89,246.33c-.46,0-.4-.62,.06-.62s.39,.62-.06,.62Z"/><path class="g" d="M105.12,234.07c.13,.28-1.35-.66-.21-.52,.2,.03,.8,.45,.21,.52Z"/><path class="g" d="M94.23,212.54c-.44,0-.38-.6,.05-.6s.38,.6-.05,.6Z"/><path class="g" d="M83.97,193.62c-.5,0-.43-.68,.06-.68s.43,.68-.06,.68Z"/><path class="g" d="M118.43,221.35c-.38,1.46-1.29,.29-1.39-.1-.23-.91,1.69-1.04,1.39,.1-.1,.38,.06-.22,0,0Z"/><path class="g" d="M117.17,207.63c-.17,.18-.89,.71-.94,.05-.08-1.17,1.49-.65,.94-.05-.05,.05,.21-.22,0,0Z"/><path class="g" d="M131.49,228.74c-.91-.07-1.21-1.38-.07-1.3,.82,.05,.99,1.37,.07,1.3-.14,0,.4,.03,0,0Z"/><path class="g" d="M116.59,245.6c-.6,0-.52-.82,.07-.82s.52,.82-.07,.82Z"/><path class="g" d="M127.12,251.44c-.29,.46-1.1,.14-.63-.2,.19-.14,.96-.32,.63,.2-.04,.07,.06-.1,0,0Z"/><path class="g" d="M136.06,243.03c-.16,.2-.9-.15-.59-.45,.27-.26,.71,.3,.59,.45-.12,.16,.12-.14,0,0Z"/><path class="g" d="M144.21,242.44c-.09,1.01-1.64,.59-1.67-.27-.04-.98,1.75-.59,1.67,.27-.04,.36,.02-.24,0,0Z"/><path class="g" d="M109.52,256.31c-.36,0-.31-.48,.05-.48s.31,.48-.05,.48Z"/><path class="g" d="M96.67,240.1c-.26,0-.23-.36,.03-.36s.23,.36-.03,.36Z"/><path class="g" d="M49.5,232.42c-.37,0-.32-.49,.05-.49s.31,.49-.05,.49Z"/><path class="g" d="M125.36,184.71c-.47,0-.4-.63,.06-.63s.4,.63-.06,.63Z"/><path class="g" d="M133.65,196.39c-.25,.53-1.04,.46-1.23-.03-.38-1.23,1.65-.89,1.23,.03-.22,.47,.05-.11,0,0Z"/><path class="g" d="M107.79,194.8c-.17-.05-.62-.17-.61-.38,.1-1.05,1.48,.63,.61,.38-.08-.02,.21,.06,0,0Z"/><path class="g" d="M108.39,180.95c-.51,0-.44-.7,.06-.7s.44,.7-.06,.7Z"/><path class="g" d="M14.83,165.32c-.31,0-.27-.42,.04-.42s.27,.42-.04,.42Z"/><path class="g" d="M124.06,176.12c-.44,0-.38-.6,.05-.6s.38,.6-.05,.6Z"/><path class="g" d="M106.9,166.59c-.48,0-.41-.66,.06-.66s.41,.66-.06,.66Z"/><path class="g" d="M130.85,168.36c-.22,.02-.92,.48-.94-.1-.05-1.01,1.91,0,.94,.1-.08,0,.36-.04,0,0Z"/><path class="g" d="M85.29,164.55c-.38,0-.33-.53,.05-.53s.33,.53-.05,.53Z"/><path class="g" d="M48.05,225.55c-.5,.63,.55-.7,0,0-.12,.15,.11-.13,0,0Z"/><path class="g" d="M23.94,251.05c-.79,0-.41-2.02,.66-1.17,.43,.53,.21,.92-.66,1.17-.27,0,.48,0,0,0Z"/><path class="g" d="M23.95,259.18c-.45,0-.38-.61,.06-.61s.39,.61-.06,.61Z"/><path class="g" d="M1.77,241.64c-.35,0-.3-.47,.04-.47s.3,.47-.04,.47Z"/><path class="g" d="M109.52,245.46c.12-.08-1.62,.06-1.05-.63,.13-.99,2.01-.04,1.05,.63-.26,.18,.43-.3,0,0Z"/><path class="g" d="M73.09,241.9c-.27,1.23-1.87,.13-1.14-.34,.59-.37,.98-.26,1.14,.34-.04,.17,.05-.22,0,0Z"/><path class="g" d="M99.45,227.33c-.38,0-.33-.52,.05-.52s.33,.52-.05,.52Z"/></g><g class="e"><path class="g" d="M158.92,226.05c0-1.07-1.88-1.07-1.88,0s1.88,1.07,1.88,0Z"/><path class="g" d="M159.43,262.26c-.36,0-.31-.49,.04-.49s.31,.49-.04,.49Z"/><path class="g" d="M180.4,255.04c-.41,0-.35-.56,.05-.56s.35,.56-.05,.56Z"/><path class="g" d="M181.75,225.63c-.71,0-.61-.96,.09-.96s.61,.96-.09,.96Z"/><path class="g" d="M198.63,231.67c-.4,0-.35-.55,.05-.55s.35,.55-.05,.55Z"/><path class="g" d="M173.1,212.96c-.44,0-.38-.6,.06-.6s.38,.6-.06,.6Z"/><path class="g" d="M173.07,191.53c-.93,0-.8-1.26,.12-1.26s.8,1.26-.12,1.26Z"/><path class="g" d="M157.37,185.02c-.54,0-.47-.73,.07-.73s.46,.73-.07,.73Z"/><path class="g" d="M180.85,177.76c-.53,0-.46-.72,.07-.72s.46,.72-.07,.72Z"/><path class="g" d="M169.69,161.34c-.38,0-.33-.52,.05-.52s.33,.52-.05,.52Z"/><path class="g" d="M153.73,254.65c-.42,0-.36-.58,.05-.58s.37,.58-.05,.58Z"/></g></g><g><g><path class="g" d="M179.58,88.22c.46,.19,.78,0,.54-.44-.64-.36-.82-.22-.54,.44,.08,.03-.27-.12,0,0Z"/><path class="g" d="M181.45,82.06c.38,0,.33-.52-.05-.52s-.33,.52,.05,.52Z"/><path class="g" d="M158.65,93.26c.37,.51,1.51-.24,1.47-.63-.1-1.08-2.21-.38-1.47,.63,.17,.24-.15-.2,0,0Z"/><path class="g" d="M166.54,77.67c.46,0,.4-.62-.06-.62s-.39,.62,.06,.62Z"/><path class="g" d="M149.32,65.41c-.13,.28,1.35-.66,.21-.52-.2,.03-.8,.45-.21,.52Z"/><path class="g" d="M160.2,43.87c.44,0,.38-.59-.05-.59s-.38,.59,.05,.59Z"/><path class="g" d="M170.46,24.96c.5,0,.43-.68-.06-.68s-.43,.68,.06,.68Z"/><path class="g" d="M136.01,52.68c.38,1.47,1.29,.29,1.39-.1,.23-.9-1.69-1.04-1.39,.1,.1,.38-.06-.22,0,0Z"/><path class="g" d="M137.27,38.97c.17,.19,.89,.71,.94,.05,.08-1.17-1.49-.65-.94-.05,.05,.05-.21-.22,0,0Z"/><path class="g" d="M122.94,60.08c.91-.06,1.21-1.38,.07-1.3-.82,.05-.99,1.37-.07,1.3,.14,0-.4,.03,0,0Z"/><path class="g" d="M137.84,76.94c.6,0,.52-.82-.07-.82s-.52,.82,.07,.82Z"/><path class="g" d="M127.32,82.77c.29,.46,1.1,.14,.63-.21-.19-.14-.96-.31-.63,.21,.04,.06-.06-.1,0,0Z"/><path class="g" d="M118.37,74.36c.16,.2,.9-.15,.59-.45-.27-.26-.71,.3-.59,.45,.12,.16-.12-.15,0,0Z"/><path class="g" d="M110.22,73.78c.09,1.01,1.64,.58,1.67-.27,.04-.98-1.75-.59-1.67,.27,.04,.36-.02-.24,0,0Z"/><path class="g" d="M144.92,87.65c.36,0,.31-.48-.05-.48s-.31,.48,.05,.48Z"/><path class="g" d="M157.77,71.44c.26,0,.23-.36-.03-.36s-.23,.36,.03,.36Z"/><path class="g" d="M129.08,16.04c.47,0,.4-.63-.06-.63s-.4,.63,.06,.63Z"/><path class="g" d="M120.79,27.73c.25,.53,1.04,.46,1.23-.03,.38-1.23-1.65-.89-1.23,.03,.22,.47-.05-.11,0,0Z"/><path class="g" d="M146.65,26.14c.17-.05,.62-.17,.61-.38-.1-1.05-1.48,.63-.61,.38,.08-.02-.21,.06,0,0Z"/><path class="g" d="M146.04,12.29c.51,0,.44-.7-.06-.7s-.44,.7,.06,.7Z"/><path class="g" d="M130.38,7.46c.44,0,.38-.6-.05-.6s-.38,.6,.05,.6Z"/><path class="g" d="M144.92,76.8c-.12-.08,1.62,.06,1.05-.63-.13-.99-2.01-.04-1.05,.63,.26,.18-.43-.3,0,0Z"/><path class="g" d="M181.34,73.24c.27,1.23,1.87,.13,1.14-.34-.59-.37-.98-.26-1.14,.34,.04,.17-.05-.22,0,0Z"/><path class="g" d="M154.98,58.67c.38,0,.33-.52-.05-.52s-.33,.52,.05,.52Z"/></g><g><path class="g" d="M95.52,57.39c0-1.07,1.88-1.07,1.88,0s-1.88,1.07-1.88,0Z"/><path class="g" d="M95,93.6c.36,0,.31-.49-.04-.49s-.31,.49,.04,.49Z"/><path class="g" d="M74.04,86.38c.41,0,.35-.56-.05-.56s-.35,.56,.05,.56Z"/><path class="g" d="M72.69,56.96c.71,0,.61-.96-.09-.96s-.61,.96,.09,.96Z"/><path class="g" d="M55.8,63.01c.4,0,.35-.55-.05-.55s-.35,.55,.05,.55Z"/><path class="g" d="M81.33,44.29c.44,0,.38-.6-.06-.6s-.38,.6,.06,.6Z"/><path class="g" d="M81.36,22.87c.93,0,.8-1.26-.12-1.26s-.8,1.26,.12,1.26Z"/><path class="g" d="M97.06,16.36c.54,0,.47-.73-.07-.73s-.46,.73,.07,.73Z"/><path class="g" d="M73.59,9.1c.53,0,.46-.72-.07-.72s-.46,.72,.07,.72Z"/><path class="g" d="M50.57,25.45c.57,0,.49-.78-.08-.78s-.5,.78,.08,.78Z"/><path class="g" d="M100.7,85.99c.42,0,.36-.58-.05-.58s-.37,.58,.05,.58Z"/></g></g><g><g class="e"><path class="g" d="M37.65,6.01c.88,0,.88-1.54,0-1.54s-.88,1.54,0,1.54Z"/><path class="g" d="M8.04,6.43c0-.29,.4-.25,.4,.04s-.4,.25-.4-.04Z"/><path class="g" d="M13.94,23.58c0-.33,.46-.29,.46,.04s-.46,.29-.46-.04Z"/><path class="g" d="M11.62,48.23c-.48-.45-.13-.7,.08-.86,.82-1.95,1.62,2.46-.08,.86-.21-.21,.36,.34,0,0Z"/><path class="g" d="M38,24.68c0-.58,.79-.5,.79,.07s-.79,.5-.79-.07Z"/><path class="g" d="M33.06,38.49c0-.33,.45-.28,.45,.04s-.45,.28-.45-.04Z"/><path class="g" d="M48.36,17.61c0-.36,.49-.31,.49,.05s-.49,.31-.49-.05Z"/><path class="g" d="M65.89,17.58c0-.75,1.03-.65,1.03,.1s-1.03,.65-1.03-.1Z"/><path class="g" d="M71.21,4.74c0-.44,.6-.38,.6,.06s-.6,.38-.6-.06Z"/><path class="g" d="M77.15,23.94c0-.43,.59-.37,.59,.06s-.59,.38-.59-.06Z"/><path class="g" d="M63.78,42.77c0-.47,.64-.41,.64,.06s-.64,.4-.64-.06Z"/><path class="g" d="M5.18,72.97c0-.38,.52-.33,.52,.05s-.52,.33-.52-.05Z"/><path class="g" d="M9.58,87.88c0-.46,.62-.4,.62,.06s-.62,.39-.62-.06Z"/><path class="g" d="M21.83,105.11c-.28,.13,.66-1.35,.52-.21-.03,.2-.45,.8-.52,.21Z"/><path class="g" d="M43.37,94.22c0-.44,.6-.38,.6,.05s-.6,.38-.6-.05Z"/><path class="g" d="M62.28,83.97c0-.5,.68-.43,.68,.06s-.68,.43-.68-.06Z"/><path class="g" d="M34.55,118.42c-1.46-.38-.29-1.29,.1-1.39,.91-.23,1.04,1.69-.1,1.39-.38-.1,.22,.06,0,0Z"/><path class="g" d="M48.27,117.16c-.18-.17-.71-.89-.05-.94,1.17-.08,.65,1.49,.05,.94-.05-.05,.22,.21,0,0Z"/><path class="g" d="M27.16,131.48c.07-.91,1.38-1.21,1.3-.07-.05,.82-1.37,.99-1.3,.07,0-.14-.03,.4,0,0Z"/><path class="g" d="M10.3,116.58c0-.6,.82-.52,.82,.07s-.82,.52-.82-.07Z"/><path class="g" d="M4.47,127.11c-.46-.29-.14-1.1,.2-.63,.14,.19,.32,.96-.2,.63-.07-.04,.1,.06,0,0Z"/><path class="g" d="M12.88,136.05c-.2-.16,.15-.9,.45-.59,.26,.27-.3,.71-.45,.59-.16-.12,.14,.12,0,0Z"/><path class="g" d="M13.46,144.21c-1.01-.09-.59-1.64,.27-1.67,.98-.04,.59,1.75-.27,1.67-.36-.04,.24,.02,0,0Z"/><path class="g" d="M-.41,109.51c0-.36,.48-.31,.48,.05s-.48,.31-.48-.05Z"/><path class="g" d="M15.8,96.66c0-.26,.36-.23,.36,.03s-.36,.23-.36-.03Z"/><path class="g" d="M23.48,49.49c0-.37,.49-.32,.49,.05s-.49,.31-.49-.05Z"/><path class="g" d="M71.2,125.35c0-.47,.63-.4,.63,.06s-.63,.4-.63-.06Z"/><path class="g" d="M59.51,133.64c-.53-.25-.46-1.04,.03-1.23,1.23-.38,.89,1.65-.03,1.23-.47-.22,.11,.05,0,0Z"/><path class="g" d="M61.1,107.78c.05-.17,.17-.62,.38-.61,1.05,.1-.63,1.48-.38,.61,.02-.08-.06,.21,0,0Z"/><path class="g" d="M74.95,108.39c0-.51,.7-.44,.7,.06s-.7,.44-.7-.06Z"/><path class="g" d="M90.58,14.82c0-.31,.42-.27,.42,.04s-.42,.27-.42-.04Z"/><path class="g" d="M79.78,124.05c0-.44,.6-.38,.6,.05s-.6,.38-.6-.05Z"/><path class="g" d="M89.31,106.9c0-.48,.66-.41,.66,.06s-.66,.41-.66-.06Z"/><path class="g" d="M87.55,130.84c-.02-.22-.48-.92,.1-.94,1.01-.05,0,1.91-.1,.94,0-.08,.04,.36,0,0Z"/><path class="g" d="M91.35,85.28c0-.38,.53-.33,.53,.05s-.53,.33-.53-.05Z"/><path class="g" d="M30.35,48.05c-.63-.5,.7,.55,0,0-.15-.12,.13,.11,0,0Z"/><path class="g" d="M4.85,23.93c0-.79,2.02-.41,1.17,.66-.53,.43-.92,.21-1.17-.66,0-.27,0,.48,0,0Z"/><path class="g" d="M14.27,1.77c0-.35,.47-.3,.47,.04s-.47,.3-.47-.04Z"/><path class="g" d="M10.44,109.51c.08,.12-.06-1.62,.63-1.05,.99,.13,.04,2.01-.63,1.05-.18-.26,.3,.43,0,0Z"/><path class="g" d="M14,73.08c-1.23-.27-.13-1.87,.34-1.14,.37,.59,.26,.98-.34,1.14-.17-.04,.22,.05,0,0Z"/><path class="g" d="M28.58,99.45c0-.38,.52-.33,.52,.05s-.52,.33-.52-.05Z"/></g><g class="e"><path class="g" d="M29.85,158.91c1.07,0,1.07-1.88,0-1.88s-1.07,1.88,0,1.88Z"/><path class="g" d="M.86,180.39c0-.41,.56-.35,.56,.05s-.56,.35-.56-.05Z"/><path class="g" d="M30.27,181.74c0-.71,.96-.61,.96,.09s-.96,.61-.96-.09Z"/><path class="g" d="M24.24,198.62c0-.4,.55-.35,.55,.05s-.55,.35-.55-.05Z"/><path class="g" d="M42.95,173.1c0-.44,.6-.38,.6,.06s-.6,.38-.6-.06Z"/><path class="g" d="M64.37,173.06c0-.93,1.26-.8,1.26,.12s-1.26,.8-1.26-.12Z"/><path class="g" d="M70.88,157.36c0-.54,.73-.47,.73,.07s-.73,.46-.73-.07Z"/><path class="g" d="M78.14,180.84c0-.53,.72-.46,.72,.07s-.72,.46-.72-.07Z"/><path class="g" d="M61.79,203.85c0-.57,.79-.49,.79,.08s-.79,.5-.79-.08Z"/><path class="g" d="M94.56,169.68c0-.38,.52-.33,.52,.05s-.52,.33-.52-.05Z"/><path class="g" d="M1.25,153.72c0-.42,.58-.36,.58,.05s-.58,.37-.58-.05Z"/></g></g><g><g><path class="g" d="M166.7,330.49c-.88,0-.88-1.54,0-1.54s.88,1.54,0,1.54Z"/><path class="g" d="M196.31,330.92c0-.29-.4-.25-.4,.04s.4,.25,.4-.04Z"/><path class="g" d="M190.4,348.06c0-.33-.46-.29-.46,.04s.46,.29,.46-.04Z"/><path class="g" d="M192.73,372.72c.48-.45,.13-.7-.08-.86-.82-1.95-1.62,2.46,.08,.86,.22-.21-.36,.34,0,0Z"/><path class="g" d="M166.34,349.17c0-.58-.78-.5-.78,.07s.78,.5,.78-.07Z"/><path class="g" d="M171.29,362.98c0-.33-.45-.28-.45,.04s.45,.28,.45-.04Z"/><path class="g" d="M155.98,342.1c0-.36-.49-.31-.49,.05s.49,.31,.49-.05Z"/><path class="g" d="M138.46,342.07c0-.75-1.03-.65-1.03,.1s1.03,.65,1.03-.1Z"/><path class="g" d="M133.13,329.23c0-.44-.6-.38-.6,.06s.6,.38,.6-.06Z"/><path class="g" d="M127.2,348.43c0-.43-.59-.37-.59,.06s.59,.38,.59-.06Z"/><path class="g" d="M140.57,367.26c0-.47-.64-.41-.64,.06s.64,.4,.64-.06Z"/><path class="g" d="M199.17,397.46c0-.38-.52-.33-.52,.05s.52,.33,.52-.05Z"/><path class="g" d="M194.77,412.37c0-.46-.62-.4-.62,.06s.62,.39,.62-.06Z"/><path class="g" d="M182.51,429.6c.28,.13-.66-1.35-.52-.21,.03,.2,.45,.8,.52,.21Z"/><path class="g" d="M160.98,418.71c0-.44-.59-.38-.59,.05s.59,.38,.59-.05Z"/><path class="g" d="M142.07,408.45c0-.5-.68-.43-.68,.06s.68,.43,.68-.06Z"/><path class="g" d="M169.79,442.9c1.47-.38,.29-1.29-.1-1.39-.9-.23-1.04,1.69,.1,1.39,.38-.1-.22,.06,0,0Z"/><path class="g" d="M156.07,441.64c.19-.17,.71-.89,.05-.94-1.17-.08-.65,1.49-.05,.94,.05-.05-.22,.21,0,0Z"/><path class="g" d="M177.18,455.97c-.06-.91-1.38-1.21-1.3-.07,.05,.82,1.37,.99,1.3,.07,0-.14,.03,.4,0,0Z"/><path class="g" d="M194.04,441.07c0-.6-.82-.52-.82,.07s.82,.52,.82-.07Z"/><path class="g" d="M199.88,451.6c.46-.29,.14-1.1-.21-.63-.14,.19-.31,.96,.21,.63,.06-.04-.1,.06,0,0Z"/><path class="g" d="M191.47,460.54c.2-.16-.15-.9-.45-.59-.26,.27,.3,.71,.45,.59,.16-.12-.15,.12,0,0Z"/><path class="g" d="M190.89,468.69c1.01-.09,.58-1.64-.27-1.67-.98-.04-.59,1.75,.27,1.67,.36-.04-.24,.02,0,0Z"/><path class="g" d="M188.54,421.14c0-.26-.36-.23-.36,.03s.36,.23,.36-.03Z"/><path class="g" d="M180.87,373.98c0-.37-.5-.32-.5,.05s.5,.31,.5-.05Z"/><path class="g" d="M133.15,449.84c0-.47-.63-.4-.63,.06s.63,.4,.63-.06Z"/><path class="g" d="M144.83,458.13c.53-.25,.46-1.04-.03-1.23-1.23-.38-.89,1.65,.03,1.23,.47-.22-.11,.05,0,0Z"/><path class="g" d="M143.24,432.27c-.05-.17-.17-.62-.38-.61-1.05,.1,.63,1.48,.38,.61-.02-.08,.06,.21,0,0Z"/><path class="g" d="M129.39,432.87c0-.51-.7-.44-.7,.06s.7,.44,.7-.06Z"/><path class="g" d="M113.76,339.31c0-.31-.42-.27-.42,.04s.42,.27,.42-.04Z"/><path class="g" d="M124.57,448.54c0-.44-.6-.38-.6,.05s.6,.38,.6-.05Z"/><path class="g" d="M115.04,431.38c0-.48-.66-.41-.66,.06s.66,.41,.66-.06Z"/><path class="g" d="M116.8,455.33c.02-.22,.48-.92-.1-.94-1.01-.05,0,1.91,.1,.94,0-.08-.04,.36,0,0Z"/><path class="g" d="M112.99,409.76c0-.38-.53-.33-.53,.05s.53,.33,.53-.05Z"/><path class="g" d="M173.99,372.53c.64-.5-.69,.55,0,0,.15-.12-.13,.11,0,0Z"/><path class="g" d="M199.49,348.42c0-.79-2.02-.41-1.17,.66,.53,.43,.92,.21,1.17-.66,0-.27,0,.48,0,0Z"/><path class="g" d="M190.08,326.25c0-.35-.47-.3-.47,.04s.47,.3,.47-.04Z"/><path class="g" d="M193.91,434c-.08,.12,.06-1.62-.63-1.05-.99,.13-.04,2.01,.63,1.05,.18-.26-.3,.43,0,0Z"/><path class="g" d="M190.35,397.57c1.23-.27,.13-1.87-.34-1.14-.37,.59-.26,.98,.34,1.14,.17-.04-.22,.05,0,0Z"/><path class="g" d="M175.77,423.93c0-.38-.52-.33-.52,.05s.52,.33,.52-.05Z"/></g><g><path class="g" d="M174.49,483.39c-1.07,0-1.07-1.88,0-1.88s1.07,1.88,0,1.88Z"/><path class="g" d="M203.48,504.88c0-.41-.56-.35-.56,.05s.56,.35,.56-.05Z"/><path class="g" d="M174.07,506.23c0-.71-.96-.61-.96,.09s.96,.61,.96-.09Z"/><path class="g" d="M161.4,497.58c0-.44-.6-.38-.6,.06s.6,.38,.6-.06Z"/><path class="g" d="M139.97,497.55c0-.93-1.26-.8-1.26,.12s1.26,.8,1.26-.12Z"/><path class="g" d="M133.46,481.85c0-.54-.73-.47-.73,.07s.73,.46,.73-.07Z"/><path class="g" d="M126.2,505.33c0-.53-.72-.46-.72,.07s.72,.46,.72-.07Z"/><path class="g" d="M109.78,494.17c0-.38-.52-.33-.52,.05s.52,.33,.52-.05Z"/><path class="g" d="M203.09,478.21c0-.42-.58-.36-.58,.05s.58,.37,.58-.05Z"/></g></g><g><g class="e"><path class="g" d="M36.13,330.49c.88,0,.88-1.54,0-1.54s-.88,1.54,0,1.54Z"/><path class="g" d="M6.52,330.92c0-.29,.4-.25,.4,.04s-.4,.25-.4-.04Z"/><path class="g" d="M12.42,348.06c0-.33,.46-.29,.46,.04s-.46,.29-.46-.04Z"/><path class="g" d="M10.09,372.72c-.48-.45-.13-.7,.08-.86,.82-1.95,1.62,2.46-.08,.86-.21-.21,.36,.34,0,0Z"/><path class="g" d="M36.48,349.17c0-.58,.79-.5,.79,.07s-.79,.5-.79-.07Z"/><path class="g" d="M31.54,362.98c0-.33,.45-.28,.45,.04s-.45,.28-.45-.04Z"/><path class="g" d="M46.84,342.1c0-.36,.49-.31,.49,.05s-.49,.31-.49-.05Z"/><path class="g" d="M64.36,342.07c0-.75,1.03-.65,1.03,.1s-1.03,.65-1.03-.1Z"/><path class="g" d="M69.69,329.23c0-.44,.6-.38,.6,.06s-.6,.38-.6-.06Z"/><path class="g" d="M75.62,348.43c0-.43,.59-.37,.59,.06s-.59,.38-.59-.06Z"/><path class="g" d="M62.25,367.26c0-.47,.64-.41,.64,.06s-.64,.4-.64-.06Z"/><path class="g" d="M3.65,397.46c0-.38,.52-.33,.52,.05s-.52,.33-.52-.05Z"/><path class="g" d="M8.05,412.37c0-.46,.62-.4,.62,.06s-.62,.39-.62-.06Z"/><path class="g" d="M20.31,429.6c-.28,.13,.66-1.35,.52-.21-.03,.2-.45,.8-.52,.21Z"/><path class="g" d="M41.84,418.71c0-.44,.6-.38,.6,.05s-.6,.38-.6-.05Z"/><path class="g" d="M60.75,408.45c0-.5,.68-.43,.68,.06s-.68,.43-.68-.06Z"/><path class="g" d="M33.03,442.9c-1.46-.38-.29-1.29,.1-1.39,.91-.23,1.04,1.69-.1,1.39-.38-.1,.22,.06,0,0Z"/><path class="g" d="M46.74,441.64c-.18-.17-.71-.89-.05-.94,1.17-.08,.65,1.49,.05,.94-.05-.05,.22,.21,0,0Z"/><path class="g" d="M25.64,455.97c.07-.91,1.38-1.21,1.3-.07-.05,.82-1.37,.99-1.3,.07,0-.14-.03,.4,0,0Z"/><path class="g" d="M8.78,441.07c0-.6,.82-.52,.82,.07s-.82,.52-.82-.07Z"/><path class="g" d="M2.94,451.6c-.46-.29-.14-1.1,.2-.63,.14,.19,.32,.96-.2,.63-.07-.04,.1,.06,0,0Z"/><path class="g" d="M11.35,460.54c-.2-.16,.15-.9,.45-.59,.26,.27-.3,.71-.45,.59-.16-.12,.14,.12,0,0Z"/><path class="g" d="M11.93,468.69c-1.01-.09-.59-1.64,.27-1.67,.98-.04,.59,1.75-.27,1.67-.36-.04,.24,.02,0,0Z"/><path class="g" d="M14.28,421.14c0-.26,.36-.23,.36,.03s-.36,.23-.36-.03Z"/><path class="g" d="M21.96,373.98c0-.37,.49-.32,.49,.05s-.49,.31-.49-.05Z"/><path class="g" d="M69.67,449.84c0-.47,.63-.4,.63,.06s-.63,.4-.63-.06Z"/><path class="g" d="M57.99,458.13c-.53-.25-.46-1.04,.03-1.23,1.23-.38,.89,1.65-.03,1.23-.47-.22,.11,.05,0,0Z"/><path class="g" d="M59.58,432.27c.05-.17,.17-.62,.38-.61,1.05,.1-.63,1.48-.38,.61,.02-.08-.06,.21,0,0Z"/><path class="g" d="M73.43,432.87c0-.51,.7-.44,.7,.06s-.7,.44-.7-.06Z"/><path class="g" d="M89.06,339.31c0-.31,.42-.27,.42,.04s-.42,.27-.42-.04Z"/><path class="g" d="M78.25,448.54c0-.44,.6-.38,.6,.05s-.6,.38-.6-.05Z"/><path class="g" d="M87.78,431.38c0-.48,.66-.41,.66,.06s-.66,.41-.66-.06Z"/><path class="g" d="M86.02,455.33c-.02-.22-.48-.92,.1-.94,1.01-.05,0,1.91-.1,.94,0-.08,.04,.36,0,0Z"/><path class="g" d="M89.83,409.76c0-.38,.53-.33,.53,.05s-.53,.33-.53-.05Z"/><path class="g" d="M28.83,372.53c-.63-.5,.7,.55,0,0-.15-.12,.13,.11,0,0Z"/><path class="g" d="M3.33,348.42c0-.79,2.02-.41,1.17,.66-.53,.43-.92,.21-1.17-.66,0-.27,0,.48,0,0Z"/><path class="g" d="M12.74,326.25c0-.35,.47-.3,.47,.04s-.47,.3-.47-.04Z"/><path class="g" d="M8.91,434c.08,.12-.06-1.62,.63-1.05,.99,.13,.04,2.01-.63,1.05-.18-.26,.3,.43,0,0Z"/><path class="g" d="M12.48,397.57c-1.23-.27-.13-1.87,.34-1.14,.37,.59,.26,.98-.34,1.14-.17-.04,.22,.05,0,0Z"/><path class="g" d="M27.05,423.93c0-.38,.52-.33,.52,.05s-.52,.33-.52-.05Z"/></g><g class="e"><path class="g" d="M28.32,483.39c1.07,0,1.07-1.88,0-1.88s-1.07,1.88,0,1.88Z"/><path class="g" d="M28.75,506.23c0-.71,.96-.61,.96,.09s-.96,.61-.96-.09Z"/><path class="g" d="M41.42,497.58c0-.44,.6-.38,.6,.06s-.6,.38-.6-.06Z"/><path class="g" d="M62.85,497.55c0-.93,1.26-.8,1.26,.12s-1.26,.8-1.26-.12Z"/><path class="g" d="M69.36,481.85c0-.54,.73-.47,.73,.07s-.73,.46-.73-.07Z"/><path class="g" d="M76.62,505.33c0-.53,.72-.46,.72,.07s-.72,.46-.72-.07Z"/><path class="g" d="M93.04,494.17c0-.38,.52-.33,.52,.05s-.52,.33-.52-.05Z"/><path class="g" d="M-.27,478.21c0-.42,.58-.36,.58,.05s-.58,.37-.58-.05Z"/></g></g></g></g></g></g></svg>