<?xml version="1.0" encoding="UTF-8"?><svg id="a" xmlns="http://www.w3.org/2000/svg" xmlns:xlink="http://www.w3.org/1999/xlink" viewBox="0 0 203.15 507.88"><defs><style>.g{fill:url(#c);}.h{clip-path:url(#b);}.i{fill:url(#d);}.j{fill:url(#e);}.k{fill:none;}.l{clip-path:url(#f);}</style><clipPath id="b"><rect class="k" x="0" y="-.76" width="203.15" height="515.02"/></clipPath><radialGradient id="c" cx="106.21" cy="163.95" fx="106.21" fy="163.95" r="164.05" gradientTransform="matrix(1, 0, 0, 1, 0, 0)" gradientUnits="userSpaceOnUse"><stop offset=".03" stop-color="#ff6d1a"/><stop offset="1" stop-color="#a0220a"/></radialGradient><radialGradient id="d" cx="106.21" cy="163.95" fx="106.21" fy="163.95" r="164.05" xlink:href="#c"/><radialGradient id="e" cx="106.21" cy="163.95" fx="106.21" fy="163.95" r="164.05" xlink:href="#c"/><clipPath id="f"><rect class="k" x="-249.61" y="-514.8" width="203.15" height="506.94"/></clipPath></defs><g class="h"><g><path d="M205.48,337.11v-5.12c-2.24,.2-4.49,.38-6.73,.57-3.55,.29-7.11,.56-10.64,.93-.31,.03-.62,.07-.93,.11,.05,0,.09,0,.14,0-.92,.11-1.81,.25-2.69,.41,.04-.01,.09-.03,.13-.04-.54,.1-1.08,.21-1.61,.33-.24,.05-.49,.12-.73,.18-.54,.13-1.09,.27-1.62,.43-.23,.06-.45,.13-.68,.2-.71,.22-1.43,.45-2.15,.71-3.12,1.12-6.09,2.42-9.23,3.51-3.27,1.13-6.52,1.89-10.19,2.23-1.05,.1-2.12,.18-3.18,.25-.46,.03-.92,.07-1.38,.1-.44,.03-.89,.07-1.33,.1-.59,.05-1.18,.1-1.77,.16-.31,.03-.61,.06-.92,.09-.88,.1-1.75,.21-2.6,.36-3.33,.58-6.47,1.51-9.59,2.47-2.84,.87-5.71,1.78-8.74,2.35-.72,.14-1.44,.24-2.17,.33-.16,.02-.33,.04-.49,.06-.66,.07-1.31,.13-1.97,.17-.23,.01-.46,.03-.7,.04-1.53,.07-3.07,.07-4.63,0-.73-.03-1.46-.09-2.19-.14-.35-.03-.7-.06-1.05-.09-.55-.05-1.09-.11-1.63-.17-.32-.04-.63-.07-.95-.11-.6-.08-1.21-.17-1.8-.27-.25-.04-.5-.08-.75-.12-.85-.15-1.69-.31-2.52-.5-3.36-.75-6.54-1.69-10.03-2.17-.38-.05-.75-.1-1.13-.14,.04,0,.07,.02,.11,.03-2.98-.36-5.99-.53-9.01-.64-1.03-.04-2.05-.06-3.07-.1h0c-.58-.02-1.16-.05-1.74-.08h0c-.55-.03-1.1-.07-1.64-.13-.09,0-.17-.02-.26-.03-.43-.04-.86-.1-1.29-.16-.14-.02-.28-.04-.42-.06-.51-.08-1.03-.17-1.54-.29-.78-.18-1.55-.39-2.32-.61-.05-.01-.1-.03-.15-.05-.74-.22-1.48-.46-2.21-.7-3.55-1.18-7.07-2.53-10.93-2.95h-.03s-.06,0-.1-.01c-.76-.08-1.54-.13-2.33-.12-3.57,0-7.11,.82-10.69,.61-3.38-.2-6.65-1.32-9.66-2.29-6.82-2.21-13.31-4.95-20.53-6.57-.45-.1-.9-.19-1.34-.26-.11-.02-.23-.03-.34-.05-.33-.05-.67-.1-1-.13-.15-.02-.3-.03-.45-.04-.29-.03-.58-.05-.88-.07-.18,0-.35-.01-.53-.02-.26,0-.52-.02-.79-.02-.2,0-.4,0-.6,0-.24,0-.47,0-.71,.02-.22,0-.43,.02-.65,.04-.21,.01-.42,.03-.63,.05-.24,.02-.47,.04-.71,.07-.18,.02-.37,.04-.55,.07-.26,.03-.52,.07-.78,.11-.07,.01-.13,.02-.2,.03h0c-.07,.01-.14,.03-.22,.04-.33,.05-.66,.11-.99,.18-.15,.03-.29,.06-.44,.09-.3,.06-.6,.13-.9,.2-.16,.04-.33,.08-.49,.12-.28,.07-.55,.14-.83,.22-.18,.05-.35,.1-.53,.15-.26,.08-.51,.16-.77,.24-.18,.06-.37,.12-.55,.18-.24,.08-.48,.16-.72,.25-.19,.07-.38,.13-.58,.2-.23,.08-.45,.17-.68,.26-.19,.07-.39,.15-.58,.22-.23,.09-.46,.19-.69,.29-.17,.07-.35,.15-.53,.22-.4,.17-.79,.35-1.18,.53-.33,.15-.65,.31-.98,.46v180.85l209.43,1.47v-179.51c-.46,.15-.91,.34-1.36,.51Zm-196.42-7.18h0Z"/><g><path d="M143.08,314.71c-.07-.05-.39-.23-.66-.18-.05,.01-.13,.05-.21,.1,0-.72,0-1.52-.11-2.4-.06-.48-.15-.99-.26-1.51,0,0,.02,.01,.03,.02,.12,.04,.24,.05,.37,.04,.1,0,.2-.04,.3-.05,.07-.02,.14-.03,.21,0h.02s-.05-.15-.12-.29c-.07-.13-.18-.27-.31-.36-.13-.09-.56-.15-.6,.09h0c-.06-.22-.12-.44-.2-.66l-.48-18.47s.05,0,.07,0l4.37-4.01h0c.05-.02,.1-.04,.15-.06,.08-.03,.17-.06,.24-.09,.04-.01,.08-.03,.12-.04,.09-.04,.18-.07,.26-.1,.03,0,.06-.02,.09-.03,.1-.04,.19-.07,.28-.11,.01,0,.02-.01,.04-.01,.32-.12,.6-.24,.83-.33h0c.07-.03,.14-.06,.2-.09h.02c.05-.04,.11-.05,.15-.08h.02s.09-.04,.12-.06h.01s.06-.03,.08-.04h.03s.02-.02,.03-.03c.03,0,.04-.02,.04-.02-.19-.17-.37-.35-.56-.52,.01-.04,.03-.08,.03-.12,0-.02,0-.04,0-.06,0-.04,0-.08,0-.13,0-.02,0-.04,0-.07,0-.04-.02-.09-.03-.13,0-.02,0-.04-.01-.05,0,0,0-.01,0-.02h0c-.04-.12-.1-.24-.18-.35h0l-.02-.03s-.02-.03-.03-.04h0c-.12-.17-.28-.33-.43-.47-.02,0-.04-.02-.06-.03-.35-.16-.76-.28-1.2-.4,.02-.05,.05-.1,.05-.16h0s0-.06,0-.08c-.02-.13-.07-.24-.15-.36-.06-.09-.13-.17-.2-.25-.05-.06-.1-.12-.11-.19v-.02h-.01c-.04,.06-.16,.21-.23,.4-.35-.37-.69-.74-1.02-1.11-.06-.07-.12-.14-.18-.21-.38-.43-.75-.86-1.11-1.29-.07-.08-.13-.16-.2-.24-.35-.43-.7-.86-1.04-1.3-.07-.08-.13-.16-.19-.25-.33-.43-.66-.87-.97-1.3-.06-.08-.12-.16-.18-.25-.32-.44-.62-.87-.92-1.31-.05-.08-.1-.15-.16-.23-.3-.44-.6-.89-.88-1.33-.04-.06-.08-.13-.12-.19-.29-.46-.58-.91-.85-1.35-.03-.04-.05-.08-.07-.12-.28-.46-.55-.91-.81-1.36-.01-.02-.02-.04-.04-.06-.27-.46-.52-.91-.77-1.36-.02-.04-.04-.08-.06-.12-.24-.44-.47-.87-.7-1.29-.02-.04-.05-.09-.07-.13-.22-.42-.43-.83-.64-1.24-.02-.04-.04-.08-.06-.13-.21-.41-.4-.81-.59-1.19-.02-.03-.03-.07-.05-.1-.19-.4-.37-.78-.54-1.16,0-.02-.01-.03-.02-.05-.18-.39-.35-.76-.51-1.13h0c-.14-.32-.28-.63-.4-.92-.3-.71-.56-1.34-.78-1.9h0c-.22,.57-.48,1.2-.77,1.9-.44,1.03-.97,2.22-1.59,3.5,.04-.1,.07-.21,.1-.32l-.03-.03s-.03,.02-.08,.07c-.05,.05-.12,.12-.22,.21-.13,.13-.3,.3-.49,.52-.02-.17-.1-.38-.17-.47-.13-.15-.33-.25-.51-.31-.17-.06-.33-.08-.39-.08h-.01v.02c.06,.07,.06,.17,.06,.26,0,.13,0,.26,.02,.39,.03,.17,.08,.31,.18,.44,.02,.02,.05,.05,.08,.07h0c.11,.08,.24,.13,.37,.16-.28,.35-.58,.77-.88,1.28-.34,.58-.67,1.29-.88,2.09-.12,.4-.18,.83-.23,1.29,0,.07,0,.14-.01,.22-.07,.12-.14,.24-.21,.36-.09-.05-.18-.08-.24-.09-.2-.03-.41,.03-.59,.12-.18,.09-.31,.2-.36,.23h.02c.09,.03,.16,.1,.21,.18,.09,.09,.18,.2,.29,.29,.05,.04,.1,.07,.16,.1-2.42,3.93-5.5,8.11-9.3,11.8h0c-.52,.51-1.05,1.01-1.6,1.49,0,0,1.1,.5,2.86,1.13l4.61,3.51s.03,0,.09,.02v.03l-.27-.09s-.01,.04-.03,.12c-.01,.04-.01,.09-.02,.14,0,.06,0,.12,0,.2,0,.2,.05,.47,.15,.77-.02,0-.04-.02-.06-.03-.15-.07-.32-.11-.42-.1-.19,.02-.37,.15-.5,.3-.12,.14-.21,.31-.23,.37h0v.02h.02c.09,0,.18,.06,.26,.13,.12,.08,.24,.18,.37,.22,.17,.06,.33,.07,.47,.04,.03-.01,.06-.03,.09-.04h0s.07-.06,.1-.09l-.67,21.19s0-.1-.02-.15c-.09,.07-.18,.14-.26,.22h0s-.08,.08-.12,.12c0,0-.01,0-.02,.02-.04,.05-.07,.1-.1,.15-.03,.05-.05,.11-.07,.16h0s-.03,.07-.04,.1h0c-.04,.11-.07,.22-.1,.34,0,.03,0,.06,0,.09-.12-.15-.3-.27-.41-.3-.19-.04-.41,0-.59,.09-.17,.07-.31,.16-.36,.2h-.01l.02,.02c.09,.03,.15,.11,.2,.2,.08,.11,.15,.24,.25,.34,.12,.13,.25,.23,.39,.28,.03,0,.07,.01,.1,.01h0c.13,0,.26-.04,.38-.11-.02,.52-.02,1.13,.02,1.82,.04,.79,.13,1.68,.33,2.64,.06,.26,.12,.52,.2,.78l-.05,1.42c-.16,.06-.31,.19-.42,.33-.12,.15-.19,.3-.22,.36h0v.02h.02c.09-.01,.18,.03,.27,.09,.1,.05,.21,.11,.31,.16l-.35,11s-.03,.03-.04,.05h0c0-.38,.02-.73,.04-1.04,.01-.16,.02-.3,.03-.43,0-.4,.02-.8,.02-1.2-.08,.01-.16,.04-.24,.07h0c-.05,.02-.1,.04-.15,.08-.01,0-.02,.02-.03,.02-.04,.03-.08,.07-.11,.11-.01,.01-.02,.03-.03,.04-.03,.05-.06,.11-.07,.18-.01,.08-.03,.19-.07,.25-.01,.11-.03,.23-.04,.36-.11-.15-.29-.27-.4-.3-.19-.05-.41,0-.59,.06-.17,.06-.3,.15-.36,.18h0s-.01,0-.01,0h.02c.09,.04,.14,.12,.19,.21,.08,.11,.14,.23,.23,.34,.11,.13,.24,.23,.39,.28,.03,0,.07,0,.1,.01h0c.13,0,.26-.03,.38-.09-.06,1.08-.06,2.56,.21,4.29,.09,.55,.21,1.12,.36,1.71l-.02,.44c-.12-.05-.25-.07-.33-.06-.19,.03-.38,.15-.52,.29-.14,.13-.25,.28-.28,.32h.02c.09,0,.17,.05,.24,.12,.12,.07,.23,.16,.35,.22,.15,.08,.31,.11,.46,.11,0,0,.01,0,.02,0l-.62,19.73h2.41l14.41,.05h4.24l2.41,.02-.03-1.09c.04-.05,.07-.11,.09-.17,0-.02,.02-.04,.02-.06,.02-.06,.04-.12,.04-.18,0,0,0-.02,0-.03h0c.02-.17,.01-.34-.04-.51h0c-.03-.11-.08-.22-.14-.31l-.03-.03v-.02h0l-.35-13.5s0,.06,0,.09c.02,.2,.03,.33,.03,.4,.04-.02,.07-.05,.1-.08,.03-.02,.05-.05,.07-.09,0,0,.01-.01,.02-.02,.02-.03,.03-.06,.04-.08,.01-.02,.02-.03,.03-.05,0-.02,.02-.05,.03-.07,.01-.03,.02-.05,.03-.08h0c.07-.18,.1-.36,.13-.49h0s0-.03,0-.05c0,0,0-.01,0-.02h0c.03-.22,.05-.48,.03-.73,0-.03-.01-.06-.02-.09-.04-.15-.08-.3-.12-.46-.02-.08-.04-.16-.07-.25-.03-.08-.06-.16-.09-.25-.05-.13-.1-.28-.15-.42,.05-.01,.1-.03,.15-.05h0s.04-.03,.07-.05c.08-.1,.15-.23,.19-.37,.03-.12,.04-.24,.06-.35,0-.09,.02-.17,.07-.22v-.02c-.06,0-.46-.07-.7,.12l-.02,.02-.61-23.12c.03,.11,.06,.22,.09,.34h.01s.03-.15,.07-.42c.02-.14,.05-.31,.09-.51,.03-.2,.06-.44,.09-.7,.04-.37,.08-.8,.11-1.27,.05,.01,.1,.02,.16,.02h0s.05,0,.07,0c.11-.04,.21-.12,.31-.23,.08-.08,.13-.17,.2-.26,.04-.07,.09-.12,.16-.15h0Zm3.85-29.95c.24,.14,.41,.29,.5,.42,.03,.05,.06,.08,.08,.12-.2-.18-.39-.36-.58-.54Zm-19.4-16.75s0,.01,0,.02h0c-.2,.38-.41,.77-.62,1.16,.15-.35,.31-.67,.48-.96,.04-.08,.09-.14,.13-.21Zm-7.36,67.25c0-.17-.01-.33-.01-.48,0,0,0,.01,.02,.02h.01v.46Zm.66-21.38v.16s0-.04,0-.06c0-.04,0-.07,0-.1Z"/><path d="M124.15,281.71c-.12-.07-.62-.37-1.07-.29-.08,.02-.22,.08-.35,.16,.01-1.16,0-2.45-.18-3.86-.1-.78-.24-1.59-.43-2.42,.01,0,.03,.02,.04,.03,.18,.07,.38,.08,.59,.07,.17-.01,.32-.06,.48-.08,.12-.03,.23-.05,.33,0h.03c-.02-.05-.09-.25-.2-.46-.12-.21-.29-.44-.5-.58-.22-.14-.9-.24-.97,.14h-.01c-.09-.35-.2-.7-.31-1.05l-.78-29.72h.12l7.03-6.46h.02c.08-.04,.17-.07,.25-.09,.13-.05,.26-.1,.39-.14,.07-.02,.13-.05,.19-.07,.14-.05,.28-.1,.42-.16,.05-.02,.09-.04,.14-.05,.16-.06,.31-.12,.46-.17,.02,0,.04-.02,.06-.02,.52-.2,.97-.38,1.33-.53h0c.12-.05,.23-.1,.33-.14,.01,0,.02-.01,.04-.02,.09-.04,.17-.07,.25-.1,.01,0,.02,0,.03-.01,.07-.03,.14-.06,.2-.09,0,0,.02,0,.02,0,.05-.02,.09-.04,.13-.06,.02,0,.03-.01,.04-.02,.02,0,.04-.02,.05-.02,.04-.02,.06-.03,.06-.03-.31-.27-.6-.56-.9-.83,.02-.07,.04-.13,.05-.2,0-.03,0-.07,0-.1,0-.07,0-.14,0-.21,0-.04,0-.07-.01-.11-.01-.07-.03-.14-.05-.21,0-.03-.01-.06-.02-.09,0,0,0-.02,0-.02h0c-.07-.19-.17-.38-.29-.56h0v-.02s-.03-.02-.04-.04l-.05-.07h0c-.2-.27-.45-.53-.7-.76-.03-.01-.06-.03-.1-.04-.57-.25-1.22-.45-1.93-.63,.04-.08,.07-.16,.08-.25h0s.01-.09,.01-.13c-.03-.2-.12-.39-.24-.58-.1-.15-.22-.27-.32-.4-.09-.09-.16-.19-.17-.3v-.03h-.02c-.06,.09-.25,.34-.38,.64-.56-.59-1.11-1.19-1.65-1.79-.1-.11-.2-.22-.3-.33-.61-.69-1.2-1.38-1.78-2.08-.11-.12-.21-.25-.32-.38-.57-.69-1.12-1.39-1.67-2.08-.1-.13-.21-.27-.31-.4-.54-.7-1.06-1.39-1.57-2.09-.1-.13-.19-.27-.29-.4-.51-.7-1-1.41-1.49-2.11-.08-.12-.17-.25-.25-.37-.49-.71-.96-1.43-1.42-2.13-.07-.1-.13-.21-.2-.31-.47-.73-.93-1.46-1.37-2.18-.04-.07-.08-.13-.12-.19-.45-.73-.88-1.46-1.3-2.18-.02-.03-.04-.07-.06-.1-.43-.74-.84-1.47-1.24-2.19-.04-.06-.07-.13-.1-.19-.39-.71-.76-1.4-1.12-2.08-.04-.07-.08-.15-.11-.22-.36-.68-.7-1.34-1.03-1.99-.03-.07-.07-.13-.1-.2-.33-.66-.64-1.3-.94-1.92-.02-.05-.05-.11-.08-.16-.31-.64-.6-1.26-.88-1.87-.01-.03-.02-.05-.04-.08-.29-.62-.56-1.23-.81-1.81h0c-.23-.51-.44-1.01-.65-1.49-.48-1.14-.9-2.17-1.25-3.06,0,0,0,.01,0,.02h0c-.35,.89-.76,1.92-1.24,3.04-.71,1.66-1.56,3.57-2.56,5.64,.06-.17,.11-.34,.15-.51l-.04-.05s-.04,.04-.12,.11c-.08,.07-.2,.18-.35,.33-.2,.2-.47,.48-.78,.83-.03-.28-.16-.6-.28-.75-.2-.24-.53-.41-.83-.5-.28-.09-.53-.12-.63-.14h0s-.02,0-.02,0l.02,.03c.09,.12,.09,.27,.08,.42,0,.21,0,.42,.03,.63,.04,.27,.13,.51,.28,.71,.04,.04,.08,.07,.13,.11h0c.17,.14,.38,.21,.59,.25-.44,.56-.93,1.24-1.41,2.06-.55,.94-1.07,2.07-1.42,3.37-.18,.65-.29,1.34-.37,2.07,0,.11-.01,.23-.02,.35-.11,.19-.23,.39-.35,.58-.14-.08-.28-.13-.38-.15-.32-.05-.67,.05-.95,.19-.29,.14-.5,.31-.57,.37l.03,.02c.14,.03,.25,.14,.35,.27,.14,.16,.3,.33,.47,.46,.08,.06,.17,.11,.26,.16-3.9,6.32-8.85,13.04-14.96,18.99h0c-.84,.81-1.7,1.62-2.58,2.4,0,0,1.77,.8,4.6,1.81l7.42,5.64s.05,.01,.14,.03v.05l-.43-.14s-.02,.06-.05,.19c-.02,.06-.02,.14-.03,.24-.01,.09-.01,.2,0,.32,0,.33,.08,.76,.25,1.25-.03-.02-.06-.04-.09-.05-.23-.11-.52-.18-.67-.16-.3,.03-.59,.23-.81,.49-.2,.23-.33,.5-.37,.59h0s0,.02-.01,.03h.04c.14,0,.28,.09,.42,.2,.2,.12,.39,.28,.6,.36,.27,.09,.53,.12,.76,.07,.05-.02,.1-.04,.14-.07h0c.06-.04,.11-.09,.16-.14l-1.08,34.09c0-.08,0-.16-.03-.24-.14,.11-.29,.23-.42,.35h0c-.06,.06-.13,.12-.18,.19l-.02,.02c-.07,.08-.12,.16-.17,.24-.05,.08-.08,.17-.11,.26h0s-.05,.11-.07,.17h0c-.06,.18-.11,.36-.16,.54,0,.05,0,.1,0,.15-.19-.24-.48-.44-.66-.48-.3-.07-.66,.01-.95,.14-.27,.11-.49,.26-.58,.32h0s-.01,.01-.02,.01l.03,.02c.14,.04,.23,.17,.31,.32,.13,.18,.24,.38,.39,.55,.19,.21,.4,.37,.63,.46,.05,0,.11,.01,.16,.02h0c.21,0,.42-.07,.62-.18-.03,.84-.04,1.82,.02,2.93,.06,1.27,.21,2.71,.54,4.25,.09,.42,.19,.84,.31,1.26l-.07,2.29c-.26,.1-.5,.31-.67,.54-.18,.24-.3,.48-.35,.58h0s0,.02,0,.03h.04c.14-.02,.28,.06,.44,.15,.17,.08,.33,.18,.5,.26l-.56,17.71s-.05,.05-.07,.08h0c0-.62,.03-1.18,.06-1.67,.02-.25,.04-.48,.06-.69,0-.64,.04-1.29,.03-1.94-.13,.02-.26,.07-.39,.12h0c-.09,.03-.16,.07-.24,.12-.02,.01-.03,.03-.05,.04-.07,.05-.12,.11-.17,.17-.02,.02-.03,.04-.05,.07-.05,.08-.1,.18-.12,.28-.02,.13-.04,.3-.11,.41-.02,.18-.04,.37-.06,.58-.18-.24-.47-.44-.65-.49-.3-.08-.65,0-.95,.1-.27,.1-.49,.23-.57,.29h0s-.02,.01-.02,.02l.03,.02c.14,.04,.23,.17,.3,.32,.12,.18,.23,.38,.38,.54,.18,.21,.39,.37,.62,.46,.05,0,.11,.02,.16,.02h0c.21,.01,.42-.05,.61-.15-.09,1.73-.1,4.12,.35,6.91,.14,.88,.33,1.8,.58,2.74l-.02,.7c-.2-.07-.4-.1-.53-.09-.31,.05-.61,.24-.84,.46-.23,.21-.39,.45-.44,.51h.04c.14,0,.27,.08,.39,.19,.19,.12,.36,.26,.56,.36,.25,.12,.5,.19,.74,.18,.01,0,.02,0,.04,0l-1.01,31.73h3.87l23.19,.08h0l6.82,.02h3.88l-.05-1.74c.06-.08,.11-.18,.15-.28,.01-.03,.02-.06,.04-.1,.03-.09,.06-.19,.07-.28,0-.02,.01-.03,.01-.05h0c.04-.27,.02-.56-.05-.82h0c-.05-.18-.12-.36-.22-.5l-.05-.05v-.03h0l-.57-21.72s0,.09,0,.14c.02,.32,.04,.54,.05,.64,.06-.03,.11-.07,.16-.13,.04-.04,.08-.09,.11-.14,0-.01,.02-.02,.03-.04,.03-.04,.05-.09,.07-.13,.01-.03,.03-.05,.05-.08,.02-.04,.03-.07,.05-.11,.02-.04,.04-.09,.05-.13h0c.1-.29,.17-.58,.2-.79h0s0-.05,.01-.07v-.03h0c.05-.36,.08-.77,.05-1.18-.01-.05-.02-.09-.04-.14-.06-.23-.13-.48-.2-.74-.03-.13-.07-.26-.11-.39-.05-.13-.09-.27-.14-.4-.08-.22-.16-.45-.25-.68,.09-.01,.17-.04,.25-.08h0s.07-.05,.11-.07c.13-.16,.24-.37,.3-.6,.05-.19,.06-.38,.09-.57,.01-.14,.04-.27,.12-.36l.02-.03c-.12-.01-.75-.1-1.14,.2,0,0-.02,.02-.03,.03l-.98-37.19c.05,.18,.09,.36,.14,.54h.02s.04-.23,.11-.68c.04-.22,.08-.5,.14-.82,.04-.33,.09-.7,.14-1.12,.07-.59,.14-1.28,.18-2.05,.08,.02,.17,.04,.25,.04h0s.08,0,.12-.01c.18-.07,.34-.2,.49-.37,.12-.13,.21-.28,.32-.41,.07-.11,.15-.2,.25-.24h.03v-.02h-.01Zm6.19-48.15c.38,.23,.66,.47,.81,.68,.05,.07,.09,.14,.13,.2-.32-.29-.63-.58-.94-.87Zm-31.21-26.95s0,.02,0,.03h0c-.32,.61-.65,1.24-1,1.86,.23-.56,.5-1.08,.77-1.55,.07-.12,.14-.23,.21-.34Zm-11.84,108.2c0-.27-.02-.52-.02-.78,0,.01,.02,.02,.03,.03h.02l-.02,.75Zm1.09-34.39v.27s-.01-.07-.01-.1c0-.06,0-.11,.01-.16Z"/><path d="M93.48,304.58c-.08-.05-.45-.27-.77-.21-.06,.01-.16,.06-.25,.12,.01-.83,0-1.77-.13-2.78-.07-.56-.17-1.15-.31-1.75,.01,0,.02,.02,.03,.02,.13,.05,.27,.06,.42,.05,.12,0,.23-.04,.34-.06,.08-.02,.17-.03,.24,0h.02s-.06-.18-.14-.33c-.09-.15-.21-.32-.36-.42-.16-.1-.65-.17-.7,.1h0c-.07-.25-.14-.5-.22-.76l-.56-21.44s.06,0,.08,0l5.07-4.66h.01c.06-.03,.12-.05,.18-.07,.1-.03,.19-.07,.28-.1,.05-.02,.09-.03,.14-.05,.1-.04,.2-.08,.3-.11,.03-.01,.07-.03,.1-.04,.11-.04,.22-.09,.33-.13l.04-.02c.37-.14,.7-.28,.96-.38h0c.09-.04,.16-.07,.23-.1h.03c.06-.04,.12-.06,.18-.09h.02c.05-.03,.1-.05,.14-.07h.02s.07-.04,.09-.05c.01,0,.02,0,.03-.01,.01,0,.03-.01,.04-.02l.05-.02c-.22-.2-.43-.4-.65-.6,.02-.05,.03-.09,.04-.14,0-.03,0-.05,0-.07,0-.05,0-.1,0-.15,0-.03,0-.05,0-.08,0-.05-.02-.1-.03-.15,0-.02-.01-.04-.02-.06v-.02h0c-.05-.14-.12-.27-.21-.4h0s-.01-.03-.02-.04c-.01-.02-.02-.03-.04-.05h0c-.15-.2-.32-.38-.5-.55-.02,0-.04-.02-.07-.03-.41-.18-.88-.33-1.39-.46,.03-.06,.05-.12,.06-.18h0s0-.06,0-.1c-.03-.14-.09-.28-.17-.42-.07-.11-.16-.2-.23-.29-.06-.07-.11-.14-.12-.22v-.02h-.02c-.04,.07-.18,.24-.27,.46-.4-.42-.8-.86-1.19-1.29-.07-.08-.14-.16-.21-.24-.44-.5-.87-1-1.29-1.5-.08-.09-.15-.18-.23-.27-.41-.5-.81-1-1.2-1.5-.08-.1-.15-.19-.22-.29-.39-.5-.76-1-1.13-1.51-.07-.1-.14-.19-.21-.29-.37-.51-.72-1.02-1.07-1.52-.06-.09-.12-.18-.18-.27-.35-.51-.69-1.03-1.02-1.54-.05-.07-.09-.15-.14-.22-.34-.53-.67-1.05-.99-1.57-.03-.05-.05-.09-.08-.14-.32-.53-.64-1.05-.94-1.58-.01-.02-.03-.05-.04-.07-.31-.53-.61-1.06-.9-1.58-.02-.05-.05-.09-.07-.13-.28-.51-.55-1.01-.81-1.5-.03-.05-.05-.1-.09-.15-.25-.49-.5-.97-.74-1.44-.03-.05-.05-.1-.07-.14-.24-.47-.46-.94-.68-1.39-.02-.04-.04-.08-.05-.12-.22-.46-.43-.91-.63-1.35,0-.02-.02-.04-.03-.05-.21-.45-.4-.89-.59-1.31h0c-.16-.37-.32-.73-.47-1.08-.35-.82-.65-1.56-.9-2.21,0,0,0,0,0,.01h0c-.25,.64-.55,1.38-.9,2.19-.51,1.2-1.13,2.58-1.85,4.07,.04-.12,.08-.24,.11-.37l-.03-.03s-.03,.03-.09,.08c-.06,.05-.14,.13-.25,.24-.15,.15-.34,.35-.57,.6-.02-.2-.12-.44-.2-.54-.15-.17-.38-.29-.6-.36-.2-.07-.38-.09-.46-.1h-.02v.02c.07,.08,.08,.19,.07,.3,0,.15,0,.3,.02,.46,.03,.19,.1,.37,.2,.51,.03,.03,.06,.05,.09,.08h0c.12,.1,.28,.15,.43,.18-.32,.41-.67,.89-1.02,1.49-.4,.68-.77,1.49-1.02,2.43-.13,.47-.21,.97-.26,1.49,0,.08,0,.17-.01,.25-.08,.14-.16,.28-.25,.42-.1-.05-.2-.09-.27-.1-.23-.03-.48,.04-.69,.14-.21,.1-.36,.23-.41,.27h.02c.1,.03,.18,.11,.25,.21,.1,.11,.21,.24,.34,.33,.06,.04,.12,.08,.18,.11-2.81,4.56-6.38,9.41-10.79,13.7h0c-.6,.59-1.22,1.17-1.86,1.73,0,0,1.28,.58,3.32,1.31l5.36,4.07s.04,0,.1,.02v.04l-.31-.11s-.02,.04-.03,.14c-.01,.05-.01,.1-.02,.17,0,.07,0,.14,0,.23,0,.24,.06,.55,.18,.9-.02-.01-.04-.03-.07-.04-.17-.08-.37-.13-.49-.12-.22,.02-.43,.17-.58,.35-.14,.16-.24,.36-.27,.43h0v.02h.02c.1,0,.21,.07,.31,.15,.15,.09,.28,.2,.43,.26,.19,.07,.38,.08,.55,.05,.03-.01,.07-.03,.1-.05h0s.08-.07,.12-.11l-.78,24.59c0-.06,0-.12-.02-.18-.1,.08-.21,.16-.31,.25h0s-.09,.09-.13,.14c0,0-.01,.01-.02,.02-.05,.05-.09,.11-.12,.17-.03,.06-.05,.12-.08,.19h0s-.03,.08-.05,.12h0c-.05,.13-.08,.26-.11,.39,0,.04,0,.07,0,.11-.13-.17-.35-.32-.48-.35-.22-.05-.47,.01-.69,.1-.2,.08-.35,.19-.42,.23h0s0,0-.01,.01h.02c.1,.05,.17,.14,.23,.24,.09,.13,.17,.27,.28,.39,.13,.15,.29,.27,.46,.33,.04,0,.08,.01,.12,.01h0c.16,0,.3-.05,.44-.13-.02,.61-.03,1.31,.02,2.11,.05,.92,.15,1.95,.39,3.07,.06,.3,.14,.6,.23,.91l-.05,1.65c-.19,.07-.36,.22-.48,.39-.13,.17-.22,.35-.25,.42h0v.02h.02c.1-.01,.21,.04,.32,.11,.12,.06,.24,.13,.37,.18l-.41,12.77s-.04,.03-.05,.06h0c0-.44,.02-.85,.04-1.21,.01-.18,.02-.35,.04-.5,0-.46,.02-.93,.02-1.4-.1,.01-.19,.05-.28,.09h0c-.06,.02-.12,.05-.17,.09-.01,0-.02,.02-.03,.03-.05,.04-.09,.08-.12,.12-.01,.01-.02,.03-.03,.05-.04,.06-.07,.13-.08,.2-.01,.09-.03,.22-.08,.29-.01,.13-.03,.27-.04,.42-.13-.17-.34-.32-.47-.35-.22-.06-.47,0-.68,.08-.2,.07-.35,.17-.41,.21h-.02l.02,.03c.1,.03,.16,.13,.22,.23,.09,.13,.17,.27,.27,.39,.13,.15,.28,.26,.45,.33,.04,0,.08,.01,.11,.01h0c.16,0,.31-.04,.44-.11-.07,1.25-.07,2.97,.25,4.98,.1,.64,.24,1.3,.42,1.98l-.02,.51c-.14-.05-.29-.07-.39-.06-.22,.03-.44,.18-.6,.33-.17,.15-.28,.32-.32,.37h.03c.1,0,.19,.06,.28,.14,.13,.08,.26,.18,.4,.26,.18,.09,.36,.13,.54,.13,0,0,.02,0,.02,0l-.73,22.9h2.8l16.73,.05h4.92l2.8,.02-.03-1.26c.04-.06,.08-.13,.11-.2,.01-.02,.02-.05,.03-.07,.02-.07,.04-.13,.05-.21,0-.01,0-.02,0-.03h0c.03-.2,.01-.4-.04-.59h0c-.04-.13-.09-.26-.16-.36,0-.01-.02-.03-.04-.04v-.02h0l-.41-15.67s0,.07,0,.1c.02,.23,.03,.39,.04,.46,.04-.02,.08-.05,.12-.09,.03-.03,.05-.06,.08-.1,0,0,.02-.02,.02-.03,.02-.03,.04-.06,.05-.1,0-.02,.02-.04,.03-.06,.01-.03,.02-.05,.03-.08,.01-.03,.03-.06,.04-.09h0c.08-.21,.12-.42,.15-.57h0v-.05s.01-.01,.01-.02h0c.04-.26,.06-.55,.04-.85,0-.04-.02-.07-.03-.1-.05-.17-.09-.35-.14-.53-.03-.09-.05-.19-.08-.29-.03-.09-.07-.19-.1-.29-.06-.16-.12-.33-.18-.49,.06-.01,.12-.03,.18-.06h0s.05-.03,.08-.05c.09-.11,.18-.27,.22-.43,.03-.13,.04-.28,.07-.41,0-.1,.03-.2,.08-.26v-.02c-.08-.01-.53-.08-.81,.14l-.02,.02-.7-26.83c.03,.13,.07,.26,.1,.39h.01s.03-.17,.08-.49c.03-.16,.06-.36,.1-.59,.03-.24,.07-.5,.1-.81,.05-.43,.1-.93,.13-1.48,.06,.01,.12,.03,.18,.03h0s.06,0,.09-.01c.13-.05,.25-.14,.36-.26,.09-.09,.15-.2,.23-.3,.05-.08,.11-.15,.18-.17h.02v-.02h0Zm4.46-34.74c.28,.16,.47,.34,.59,.49,.04,.05,.07,.1,.09,.14-.23-.21-.46-.42-.68-.63Zm-22.52-19.44v.02h0c-.23,.44-.47,.89-.72,1.35,.17-.41,.36-.78,.56-1.12,.05-.09,.1-.17,.15-.25Zm-8.55,78.06c0-.19-.01-.38-.01-.56,0,0,.01,.01,.02,.02h.01l-.02,.54Zm.79-24.81v.19s0-.05,0-.08c0-.04,0-.08,0-.12Z"/><path class="g" d="M109.37,263.94c0-2.43-2.06-4.41-4.62-4.42-2.55,0-4.62,1.94-4.64,4.36h0l-.03,8.71,9.26,.03,.02-8.38c0-.1,.01-.2,.01-.29Z"/><path class="i" d="M83.91,285.68c0-2.08-1.76-3.77-3.95-3.77-2.18,0-3.95,1.66-3.97,3.72h0l-.02,7.44,7.91,.02,.02-7.16c0-.08,0-.17,0-.25Z"/><path class="j" d="M134.87,296.8c0-1.68-1.42-3.04-3.18-3.05-1.76,0-3.19,1.34-3.2,3.01h0l-.02,6,6.38,.02,.02-5.78c0-.07,0-.14,0-.2Z"/></g></g></g><g/><g class="l"><g/></g></svg>