<?xml version="1.0" encoding="UTF-8"?><svg xmlns="http://www.w3.org/2000/svg" xmlns:xlink="http://www.w3.org/1999/xlink" viewBox="0 0 500 500"><defs><style>.c{isolation:isolate;}.d{clip-path:url(#b);}.e{mix-blend-mode:screen;}.f{fill:none;}.g{fill:#f4f2d2;}</style><clipPath id="b"><rect class="f" y="0" width="500" height="500"/></clipPath></defs><g class="c"><g id="a"><g class="d"><g><g><g><path class="g" d="M153.08,335.73c0,.88-1.54,.88-1.54,0s1.54-.88,1.54,0Z"/><path class="g" d="M180.74,297.03c-.47,.32-.13,1.06,.27,.6,.15-.17,.28-.97-.27-.6-.07,.05,.29-.2,0,0Z"/><path class="g" d="M153.5,306.12c-.29,0-.25,.4,.04,.4s.25-.4-.04-.4Z"/><path class="g" d="M170.65,312.02c-.33,0-.29,.46,.04,.46s.29-.46-.04-.46Z"/><path class="g" d="M195.31,309.7c-.45-.48-.7-.13-.86,.08-1.95,.82,2.46,1.62,.86-.08-.21-.22,.34,.36,0,0Z"/><path class="g" d="M171.76,336.08c-.58,0-.5,.78,.07,.78s.5-.78-.07-.78Z"/><path class="g" d="M185.56,331.14c-.33,0-.28,.45,.04,.45s.28-.45-.04-.45Z"/><path class="g" d="M164.68,346.45c-.36,0-.31,.49,.05,.49s.31-.49-.05-.49Z"/><path class="g" d="M164.65,363.97c-.75,0-.65,1.03,.1,1.03s.65-1.03-.1-1.03Z"/><path class="g" d="M151.82,369.29c-.44,0-.38,.6,.06,.6s.38-.6-.06-.6Z"/><path class="g" d="M171.01,375.23c-.43,0-.37,.59,.06,.59s.38-.59-.06-.59Z"/><path class="g" d="M189.84,361.86c-.47,0-.41,.64,.06,.64s.4-.64-.06-.64Z"/><path class="g" d="M197.09,292.04c-.88,0-.76,1.21,.11,1.21s.77-1.21-.11-1.21Z"/><path class="g" d="M221.92,297.1c-.46-.19-.78,0-.54,.44,.64,.36,.82,.22,.54-.44-.08-.03,.27,.12,0,0Z"/><path class="g" d="M220.05,303.26c-.38,0-.33,.52,.05,.52s.33-.52-.05-.52Z"/><path class="g" d="M242.85,292.06c-.37-.51-1.51,.24-1.47,.63,.1,1.08,2.21,.38,1.47-.63-.17-.24,.15,.2,0,0Z"/><path class="g" d="M234.96,307.66c-.46,0-.4,.62,.06,.62s.39-.62-.06-.62Z"/><path class="g" d="M252.18,319.91c.13-.28-1.35,.66-.21,.52,.2-.03,.8-.45,.21-.52Z"/><path class="g" d="M241.3,341.45c-.44,0-.38,.59,.05,.59s.38-.59-.05-.59Z"/><path class="g" d="M231.04,360.36c-.5,0-.43,.68,.06,.68s.43-.68-.06-.68Z"/><path class="g" d="M265.49,332.64c-.38-1.47-1.29-.29-1.39,.1-.23,.9,1.69,1.04,1.39-.1-.1-.38,.06,.22,0,0Z"/><path class="g" d="M264.23,346.35c-.17-.19-.89-.71-.94-.05-.08,1.17,1.49,.65,.94,.05-.05-.05,.21,.22,0,0Z"/><path class="g" d="M278.56,325.25c-.91,.06-1.21,1.38-.07,1.3,.82-.05,.99-1.37,.07-1.3-.14,0,.4-.03,0,0Z"/><path class="g" d="M263.66,308.38c-.6,0-.52,.82,.07,.82s.52-.82-.07-.82Z"/><path class="g" d="M274.18,302.55c-.29-.46-1.1-.14-.63,.21,.19,.14,.96,.31,.63-.21-.04-.06,.06,.1,0,0Z"/><path class="g" d="M283.13,310.96c-.16-.2-.9,.15-.59,.45,.27,.26,.71-.3,.59-.45-.12-.16,.12,.15,0,0Z"/><path class="g" d="M291.28,311.54c-.09-1.01-1.64-.58-1.67,.27-.04,.98,1.75,.59,1.67-.27-.04-.36,.02,.24,0,0Z"/><path class="g" d="M256.58,297.68c-.36,0-.31,.48,.05,.48s.31-.48-.05-.48Z"/><path class="g" d="M243.73,313.89c-.26,0-.23,.36,.03,.36s.23-.36-.03-.36Z"/><path class="g" d="M196.56,321.56c-.37,0-.32,.5,.05,.5s.31-.5-.05-.5Z"/><path class="g" d="M272.42,369.28c-.47,0-.4,.63,.06,.63s.4-.63-.06-.63Z"/><path class="g" d="M280.71,357.59c-.25-.53-1.04-.46-1.23,.03-.38,1.23,1.65,.89,1.23-.03-.22-.47,.05,.11,0,0Z"/><path class="g" d="M254.85,359.18c-.17,.05-.62,.17-.61,.38,.1,1.05,1.48-.63,.61-.38-.08,.02,.21-.06,0,0Z"/><path class="g" d="M255.46,373.03c-.51,0-.44,.7,.06,.7s.44-.7-.06-.7Z"/><path class="g" d="M161.89,388.66c-.31,0-.27,.42,.04,.42s.27-.42-.04-.42Z"/><path class="g" d="M271.12,377.86c-.44,0-.38,.6,.05,.6s.38-.6-.05-.6Z"/><path class="g" d="M253.97,387.39c-.48,0-.41,.66,.06,.66s.41-.66-.06-.66Z"/><path class="g" d="M277.92,385.63c-.22-.02-.92-.48-.94,.1-.05,1.01,1.91,0,.94-.1-.08,0,.36,.04,0,0Z"/><path class="g" d="M232.35,389.43c-.38,0-.33,.53,.05,.53s.33-.53-.05-.53Z"/><path class="g" d="M195.12,328.43c-.5-.64,.55,.69,0,0-.12-.15,.11,.13,0,0Z"/><path class="g" d="M171.01,302.94c-.79,0-.41,2.02,.66,1.17,.43-.53,.21-.92-.66-1.17-.27,0,.48,0,0,0Z"/><path class="g" d="M171.01,294.81c-.45,0-.38,.61,.06,.61s.39-.61-.06-.61Z"/><path class="g" d="M148.84,312.35c-.35,0-.3,.47,.04,.47s.3-.47-.04-.47Z"/><path class="g" d="M256.58,308.52c.12,.08-1.62-.06-1.05,.63,.13,.99,2.01,.04,1.05-.63-.26-.18,.43,.3,0,0Z"/><path class="g" d="M220.16,312.08c-.27-1.23-1.87-.13-1.14,.34,.59,.37,.98,.26,1.14-.34-.04-.17,.05,.22,0,0Z"/><path class="g" d="M246.52,326.66c-.38,0-.33,.52,.05,.52s.33-.52-.05-.52Z"/></g><g><path class="g" d="M305.98,327.93c0,1.07-1.88,1.07-1.88,0s1.88-1.07,1.88,0Z"/><path class="g" d="M306.5,291.72c-.36,0-.31,.49,.04,.49s.31-.49-.04-.49Z"/><path class="g" d="M327.46,298.94c-.41,0-.35,.56,.05,.56s.35-.56-.05-.56Z"/><path class="g" d="M328.81,328.36c-.71,0-.61,.96,.09,.96s.61-.96-.09-.96Z"/><path class="g" d="M345.7,322.32c-.4,0-.35,.55,.05,.55s.35-.55-.05-.55Z"/><path class="g" d="M320.17,341.03c-.44,0-.38,.6,.06,.6s.38-.6-.06-.6Z"/><path class="g" d="M320.14,362.45c-.93,0-.8,1.26,.12,1.26s.8-1.26-.12-1.26Z"/><path class="g" d="M304.44,368.97c-.54,0-.47,.73,.07,.73s.46-.73-.07-.73Z"/><path class="g" d="M327.91,376.22c-.53,0-.46,.72,.07,.72s.46-.72-.07-.72Z"/><path class="g" d="M350.93,359.87c-.57,0-.49,.78,.08,.78s.5-.78-.08-.78Z"/><path class="g" d="M316.75,392.65c-.38,0-.33,.52,.05,.52s.33-.52-.05-.52Z"/><path class="g" d="M300.8,299.34c-.42,0-.36,.58,.05,.58s.37-.58-.05-.58Z"/></g></g><g><g class="e"><path class="g" d="M346.92,278.63c0,.88,1.54,.88,1.54,0s-1.54-.88-1.54,0Z"/><path class="g" d="M319.26,239.93c.47,.32,.13,1.06-.27,.6-.15-.17-.28-.97,.27-.6,.07,.05-.3-.2,0,0Z"/><path class="g" d="M346.5,249.02c.29,0,.25,.4-.04,.4s-.25-.4,.04-.4Z"/><path class="g" d="M329.35,254.92c.33,0,.29,.46-.04,.46s-.29-.46,.04-.46Z"/><path class="g" d="M304.69,252.6c.45-.48,.7-.13,.86,.08,1.95,.82-2.46,1.62-.86-.08,.21-.21-.34,.36,0,0Z"/><path class="g" d="M328.24,278.98c.58,0,.5,.79-.07,.79s-.5-.79,.07-.79Z"/><path class="g" d="M314.44,274.04c.33,0,.28,.45-.04,.45s-.28-.45,.04-.45Z"/><path class="g" d="M335.32,289.35c.36,0,.31,.49-.05,.49s-.31-.49,.05-.49Z"/><path class="g" d="M335.35,306.87c.75,0,.65,1.03-.1,1.03s-.65-1.03,.1-1.03Z"/><path class="g" d="M348.18,312.19c.44,0,.38,.6-.06,.6s-.38-.6,.06-.6Z"/><path class="g" d="M328.99,318.13c.43,0,.37,.59-.06,.59s-.38-.59,.06-.59Z"/><path class="g" d="M310.16,304.76c.47,0,.41,.64-.06,.64s-.4-.64,.06-.64Z"/><path class="g" d="M302.91,234.94c.88,0,.76,1.21-.11,1.21s-.77-1.21,.11-1.21Z"/><path class="g" d="M278.08,240c.46-.19,.78,0,.54,.44-.64,.36-.82,.22-.54-.44,.08-.03-.27,.12,0,0Z"/><path class="g" d="M279.95,246.16c.38,0,.33,.52-.05,.52s-.33-.52,.05-.52Z"/><path class="g" d="M257.15,234.96c.37-.51,1.51,.24,1.47,.63-.1,1.07-2.21,.38-1.47-.63,.17-.24-.15,.2,0,0Z"/><path class="g" d="M265.04,250.56c.46,0,.4,.62-.06,.62s-.39-.62,.06-.62Z"/><path class="g" d="M247.82,262.82c-.13-.28,1.35,.66,.21,.52-.2-.03-.8-.45-.21-.52Z"/><path class="g" d="M258.7,284.35c.44,0,.38,.6-.05,.6s-.38-.6,.05-.6Z"/><path class="g" d="M268.96,303.26c.5,0,.43,.68-.06,.68s-.43-.68,.06-.68Z"/><path class="g" d="M234.51,275.54c.38-1.46,1.29-.29,1.39,.1,.23,.91-1.69,1.04-1.39-.1,.1-.38-.06,.22,0,0Z"/><path class="g" d="M235.77,289.25c.17-.18,.89-.71,.94-.05,.08,1.17-1.49,.65-.94,.05,.05-.05-.21,.22,0,0Z"/><path class="g" d="M221.44,268.15c.91,.07,1.21,1.38,.07,1.3-.82-.05-.99-1.37-.07-1.3,.14,0-.4-.03,0,0Z"/><path class="g" d="M236.34,251.29c.6,0,.52,.82-.07,.82s-.52-.82,.07-.82Z"/><path class="g" d="M225.82,245.45c.29-.46,1.1-.14,.63,.2-.19,.14-.96,.32-.63-.2,.04-.07-.06,.1,0,0Z"/><path class="g" d="M216.87,253.86c.16-.2,.9,.15,.59,.45-.27,.26-.71-.3-.59-.45,.12-.16-.12,.14,0,0Z"/><path class="g" d="M208.72,254.44c.09-1.01,1.64-.59,1.67,.27,.04,.98-1.75,.59-1.67-.27,.04-.36-.02,.24,0,0Z"/><path class="g" d="M243.42,240.58c.36,0,.31,.48-.05,.48s-.31-.48,.05-.48Z"/><path class="g" d="M256.27,256.79c.26,0,.23,.36-.03,.36s-.23-.36,.03-.36Z"/><path class="g" d="M303.44,264.46c.37,0,.32,.49-.05,.49s-.31-.49,.05-.49Z"/><path class="g" d="M227.58,312.18c.47,0,.4,.63-.06,.63s-.4-.63,.06-.63Z"/><path class="g" d="M219.29,300.49c.25-.53,1.04-.46,1.23,.03,.38,1.23-1.65,.89-1.23-.03,.22-.47-.05,.11,0,0Z"/><path class="g" d="M245.15,302.08c.17,.05,.62,.17,.61,.38-.1,1.05-1.48-.63-.61-.38,.08,.02-.21-.06,0,0Z"/><path class="g" d="M244.54,315.94c.51,0,.44,.7-.06,.7s-.44-.7,.06-.7Z"/><path class="g" d="M338.11,331.56c.31,0,.27,.42-.04,.42s-.27-.42,.04-.42Z"/><path class="g" d="M228.88,320.76c.44,0,.38,.6-.05,.6s-.38-.6,.05-.6Z"/><path class="g" d="M246.03,330.29c.48,0,.41,.66-.06,.66s-.41-.66,.06-.66Z"/><path class="g" d="M222.08,328.53c.22-.02,.92-.48,.94,.1,.05,1.01-1.91,0-.94-.1,.08,0-.36,.04,0,0Z"/><path class="g" d="M267.65,332.34c.38,0,.33,.53-.05,.53s-.33-.53,.05-.53Z"/><path class="g" d="M304.88,271.33c.5-.63-.55,.7,0,0,.12-.15-.11,.13,0,0Z"/><path class="g" d="M328.99,245.84c.79,0,.41,2.02-.66,1.17-.43-.53-.21-.92,.66-1.17,.27,0-.48,0,0,0Z"/><path class="g" d="M328.99,237.71c.45,0,.38,.61-.06,.61s-.39-.61,.06-.61Z"/><path class="g" d="M351.16,255.25c.35,0,.3,.47-.04,.47s-.3-.47,.04-.47Z"/><path class="g" d="M243.42,251.42c-.12,.08,1.62-.06,1.05,.63-.13,.99-2.01,.04-1.05-.63,.26-.18-.43,.3,0,0Z"/><path class="g" d="M279.84,254.98c.27-1.23,1.87-.13,1.14,.34-.59,.37-.98,.26-1.14-.34,.04-.17-.05,.22,0,0Z"/><path class="g" d="M253.48,269.56c.38,0,.33,.52-.05,.52s-.33-.52,.05-.52Z"/></g><g class="e"><path class="g" d="M194.02,270.83c0,1.07,1.88,1.07,1.88,0s-1.88-1.07-1.88,0Z"/><path class="g" d="M193.5,234.63c.36,0,.31,.49-.04,.49s-.31-.49,.04-.49Z"/><path class="g" d="M172.54,241.85c.41,0,.35,.56-.05,.56s-.35-.56,.05-.56Z"/><path class="g" d="M171.19,271.26c.71,0,.61,.96-.09,.96s-.61-.96,.09-.96Z"/><path class="g" d="M154.3,265.22c.4,0,.35,.55-.05,.55s-.35-.55,.05-.55Z"/><path class="g" d="M179.83,283.93c.44,0,.38,.6-.06,.6s-.38-.6,.06-.6Z"/><path class="g" d="M179.86,305.36c.93,0,.8,1.26-.12,1.26s-.8-1.26,.12-1.26Z"/><path class="g" d="M195.56,311.87c.54,0,.47,.73-.07,.73s-.46-.73,.07-.73Z"/><path class="g" d="M172.09,319.12c.53,0,.46,.72-.07,.72s-.46-.72,.07-.72Z"/><path class="g" d="M149.07,302.77c.57,0,.49,.79-.08,.79s-.5-.79,.08-.79Z"/><path class="g" d="M183.25,335.55c.38,0,.33,.52-.05,.52s-.33-.52,.05-.52Z"/><path class="g" d="M199.2,242.24c.42,0,.36,.58-.05,.58s-.37-.58,.05-.58Z"/></g></g><g><g><path class="g" d="M154.44,143.79c0,.88-1.54,.88-1.54,0s1.54-.88,1.54,0Z"/><path class="g" d="M182.1,105.08c-.47,.32-.13,1.06,.27,.6,.15-.17,.28-.97-.27-.6-.07,.05,.3-.2,0,0Z"/><path class="g" d="M154.87,114.18c-.29,0-.25,.4,.04,.4s.25-.4-.04-.4Z"/><path class="g" d="M172.01,120.08c-.33,0-.29,.46,.04,.46s.29-.46-.04-.46Z"/><path class="g" d="M196.67,117.76c-.45-.48-.7-.13-.86,.08-1.95,.82,2.46,1.62,.86-.08-.21-.22,.34,.36,0,0Z"/><path class="g" d="M173.12,144.14c-.58,0-.5,.78,.07,.78s.5-.78-.07-.78Z"/><path class="g" d="M186.92,139.2c-.33,0-.28,.45,.04,.45s.28-.45-.04-.45Z"/><path class="g" d="M166.05,154.5c-.36,0-.31,.49,.05,.49s.31-.49-.05-.49Z"/><path class="g" d="M166.02,172.03c-.75,0-.65,1.03,.1,1.03s.65-1.03-.1-1.03Z"/><path class="g" d="M153.18,177.35c-.44,0-.38,.6,.06,.6s.38-.6-.06-.6Z"/><path class="g" d="M172.38,183.29c-.43,0-.37,.59,.06,.59s.38-.59-.06-.59Z"/><path class="g" d="M191.21,169.92c-.47,0-.41,.64,.06,.64s.4-.64-.06-.64Z"/><path class="g" d="M198.45,100.1c-.88,0-.76,1.21,.11,1.21s.77-1.21-.11-1.21Z"/><path class="g" d="M223.28,105.16c-.46-.19-.78,0-.54,.44,.64,.36,.82,.22,.54-.44-.08-.03,.27,.12,0,0Z"/><path class="g" d="M221.41,111.32c-.38,0-.33,.52,.05,.52s.33-.52-.05-.52Z"/><path class="g" d="M244.21,100.12c-.37-.51-1.51,.24-1.47,.63,.1,1.08,2.21,.38,1.47-.63-.17-.24,.15,.2,0,0Z"/><path class="g" d="M236.32,115.72c-.46,0-.4,.62,.06,.62s.39-.62-.06-.62Z"/><path class="g" d="M253.54,127.97c.13-.28-1.35,.66-.21,.52,.2-.03,.8-.45,.21-.52Z"/><path class="g" d="M242.66,149.51c-.44,0-.38,.59,.05,.59s.38-.59-.05-.59Z"/><path class="g" d="M232.4,168.42c-.5,0-.43,.68,.06,.68s.43-.68-.06-.68Z"/><path class="g" d="M266.85,140.7c-.38-1.47-1.29-.29-1.39,.1-.23,.9,1.69,1.04,1.39-.1-.1-.38,.06,.22,0,0Z"/><path class="g" d="M265.59,154.41c-.17-.19-.89-.71-.94-.05-.08,1.17,1.49,.65,.94,.05-.05-.05,.21,.22,0,0Z"/><path class="g" d="M279.92,133.31c-.91,.06-1.21,1.38-.07,1.3,.82-.05,.99-1.37,.07-1.3-.14,0,.4-.03,0,0Z"/><path class="g" d="M265.02,116.44c-.6,0-.52,.82,.07,.82s.52-.82-.07-.82Z"/><path class="g" d="M275.55,110.61c-.29-.46-1.1-.14-.63,.21,.19,.14,.96,.31,.63-.21-.04-.06,.06,.1,0,0Z"/><path class="g" d="M284.49,119.02c-.16-.2-.9,.15-.59,.45,.27,.26,.71-.3,.59-.45-.12-.16,.12,.15,0,0Z"/><path class="g" d="M292.64,119.6c-.09-1.01-1.64-.58-1.67,.27-.04,.98,1.75,.59,1.67-.27-.04-.36,.02,.24,0,0Z"/><path class="g" d="M257.95,105.73c-.36,0-.31,.48,.05,.48s.31-.48-.05-.48Z"/><path class="g" d="M245.09,121.94c-.26,0-.23,.36,.03,.36s.23-.36-.03-.36Z"/><path class="g" d="M197.92,129.62c-.37,0-.32,.5,.05,.5s.31-.5-.05-.5Z"/><path class="g" d="M273.79,177.34c-.47,0-.4,.63,.06,.63s.4-.63-.06-.63Z"/><path class="g" d="M282.07,165.65c-.25-.53-1.04-.46-1.23,.03-.38,1.23,1.65,.89,1.23-.03-.22-.47,.05,.11,0,0Z"/><path class="g" d="M256.21,167.24c-.17,.05-.62,.17-.61,.38,.1,1.05,1.48-.63,.61-.38-.08,.02,.21-.06,0,0Z"/><path class="g" d="M256.82,181.09c-.51,0-.44,.7,.06,.7s.44-.7-.06-.7Z"/><path class="g" d="M163.25,196.72c-.31,0-.27,.42,.04,.42s.27-.42-.04-.42Z"/><path class="g" d="M272.48,185.92c-.44,0-.38,.6,.05,.6s.38-.6-.05-.6Z"/><path class="g" d="M255.33,195.45c-.48,0-.41,.66,.06,.66s.41-.66-.06-.66Z"/><path class="g" d="M279.28,193.69c-.22-.02-.92-.48-.94,.1-.05,1.01,1.91,0,.94-.1-.08,0,.36,.04,0,0Z"/><path class="g" d="M233.71,197.49c-.38,0-.33,.53,.05,.53s.33-.53-.05-.53Z"/><path class="g" d="M196.48,136.49c-.5-.64,.55,.69,0,0-.12-.15,.11,.13,0,0Z"/><path class="g" d="M172.37,111c-.79,0-.41,2.02,.66,1.17,.43-.53,.21-.92-.66-1.17-.27,0,.48,0,0,0Z"/><path class="g" d="M172.38,102.87c-.45,0-.38,.61,.06,.61s.39-.61-.06-.61Z"/><path class="g" d="M150.2,120.4c-.35,0-.3,.47,.04,.47s.3-.47-.04-.47Z"/><path class="g" d="M257.95,116.58c.12,.08-1.62-.06-1.05,.63,.13,.99,2.01,.04,1.05-.63-.26-.18,.43,.3,0,0Z"/><path class="g" d="M221.52,120.14c-.27-1.23-1.87-.13-1.14,.34,.59,.37,.98,.26,1.14-.34-.04-.17,.05,.22,0,0Z"/><path class="g" d="M247.88,134.72c-.38,0-.33,.52,.05,.52s.33-.52-.05-.52Z"/></g><g><path class="g" d="M307.34,135.99c0,1.07-1.88,1.07-1.88,0s1.88-1.07,1.88,0Z"/><path class="g" d="M307.86,99.78c-.36,0-.31,.49,.04,.49s.31-.49-.04-.49Z"/><path class="g" d="M328.83,107c-.41,0-.35,.56,.05,.56s.35-.56-.05-.56Z"/><path class="g" d="M330.17,136.42c-.71,0-.61,.96,.09,.96s.61-.96-.09-.96Z"/><path class="g" d="M347.06,130.38c-.4,0-.35,.55,.05,.55s.35-.55-.05-.55Z"/><path class="g" d="M321.53,149.09c-.44,0-.38,.6,.06,.6s.38-.6-.06-.6Z"/><path class="g" d="M321.5,170.51c-.93,0-.8,1.26,.12,1.26s.8-1.26-.12-1.26Z"/><path class="g" d="M305.8,177.02c-.54,0-.47,.73,.07,.73s.46-.73-.07-.73Z"/><path class="g" d="M329.27,184.28c-.53,0-.46,.72,.07,.72s.46-.72-.07-.72Z"/><path class="g" d="M352.29,167.93c-.57,0-.49,.78,.08,.78s.5-.78-.08-.78Z"/><path class="g" d="M318.12,200.7c-.38,0-.33,.52,.05,.52s.33-.52-.05-.52Z"/><path class="g" d="M302.16,107.39c-.42,0-.36,.58,.05,.58s.37-.58-.05-.58Z"/></g></g><g><g class="e"><path class="g" d="M154.44,214.31c0-.88-1.54-.88-1.54,0s1.54,.88,1.54,0Z"/><path class="g" d="M182.1,253.02c-.47-.32-.13-1.06,.27-.6,.15,.17,.28,.97-.27,.6-.07-.05,.3,.2,0,0Z"/><path class="g" d="M154.87,243.92c-.29,0-.25-.4,.04-.4s.25,.4-.04,.4Z"/><path class="g" d="M172.01,238.02c-.33,0-.29-.46,.04-.46s.29,.46-.04,.46Z"/><path class="g" d="M196.67,240.35c-.45,.48-.7,.13-.86-.08-1.95-.82,2.46-1.62,.86,.08-.21,.21,.34-.36,0,0Z"/><path class="g" d="M173.12,213.96c-.58,0-.5-.79,.07-.79s.5,.79-.07,.79Z"/><path class="g" d="M186.92,218.9c-.33,0-.28-.45,.04-.45s.28,.45-.04,.45Z"/><path class="g" d="M166.05,203.6c-.36,0-.31-.49,.05-.49s.31,.49-.05,.49Z"/><path class="g" d="M166.02,186.07c-.75,0-.65-1.03,.1-1.03s.65,1.03-.1,1.03Z"/><path class="g" d="M153.18,180.75c-.44,0-.38-.6,.06-.6s.38,.6-.06,.6Z"/><path class="g" d="M172.38,174.81c-.43,0-.37-.59,.06-.59s.38,.59-.06,.59Z"/><path class="g" d="M191.21,188.19c-.47,0-.41-.64,.06-.64s.4,.64-.06,.64Z"/><path class="g" d="M198.45,258c-.88,0-.76-1.21,.11-1.21s.77,1.21-.11,1.21Z"/><path class="g" d="M223.28,252.94c-.46,.19-.78,0-.54-.44,.64-.36,.82-.22,.54,.44-.08,.03,.27-.12,0,0Z"/><path class="g" d="M221.41,246.78c-.38,0-.33-.52,.05-.52s.33,.52-.05,.52Z"/><path class="g" d="M244.21,257.98c-.37,.51-1.51-.24-1.47-.63,.1-1.07,2.21-.38,1.47,.63-.17,.24,.15-.2,0,0Z"/><path class="g" d="M236.32,242.39c-.46,0-.4-.62,.06-.62s.39,.62-.06,.62Z"/><path class="g" d="M253.54,230.13c.13,.28-1.35-.66-.21-.52,.2,.03,.8,.45,.21,.52Z"/><path class="g" d="M242.66,208.6c-.44,0-.38-.6,.05-.6s.38,.6-.05,.6Z"/><path class="g" d="M232.4,189.68c-.5,0-.43-.68,.06-.68s.43,.68-.06,.68Z"/><path class="g" d="M266.85,217.41c-.38,1.46-1.29,.29-1.39-.1-.23-.91,1.69-1.04,1.39,.1-.1,.38,.06-.22,0,0Z"/><path class="g" d="M265.59,203.69c-.17,.18-.89,.71-.94,.05-.08-1.17,1.49-.65,.94-.05-.05,.05,.21-.22,0,0Z"/><path class="g" d="M279.92,224.8c-.91-.07-1.21-1.38-.07-1.3,.82,.05,.99,1.37,.07,1.3-.14,0,.4,.03,0,0Z"/><path class="g" d="M265.02,241.66c-.6,0-.52-.82,.07-.82s.52,.82-.07,.82Z"/><path class="g" d="M275.55,247.5c-.29,.46-1.1,.14-.63-.2,.19-.14,.96-.32,.63,.2-.04,.07,.06-.1,0,0Z"/><path class="g" d="M284.49,239.09c-.16,.2-.9-.15-.59-.45,.27-.26,.71,.3,.59,.45-.12,.16,.12-.14,0,0Z"/><path class="g" d="M292.64,238.5c-.09,1.01-1.64,.59-1.67-.27-.04-.98,1.75-.59,1.67,.27-.04,.36,.02-.24,0,0Z"/><path class="g" d="M257.95,252.37c-.36,0-.31-.48,.05-.48s.31,.48-.05,.48Z"/><path class="g" d="M245.09,236.16c-.26,0-.23-.36,.03-.36s.23,.36-.03,.36Z"/><path class="g" d="M197.92,228.48c-.37,0-.32-.49,.05-.49s.31,.49-.05,.49Z"/><path class="g" d="M273.79,180.77c-.47,0-.4-.63,.06-.63s.4,.63-.06,.63Z"/><path class="g" d="M282.07,192.45c-.25,.53-1.04,.46-1.23-.03-.38-1.23,1.65-.89,1.23,.03-.22,.47,.05-.11,0,0Z"/><path class="g" d="M256.21,190.86c-.17-.05-.62-.17-.61-.38,.1-1.05,1.48,.63,.61,.38-.08-.02,.21,.06,0,0Z"/><path class="g" d="M256.82,177.01c-.51,0-.44-.7,.06-.7s.44,.7-.06,.7Z"/><path class="g" d="M163.25,161.38c-.31,0-.27-.42,.04-.42s.27,.42-.04,.42Z"/><path class="g" d="M272.48,172.18c-.44,0-.38-.6,.05-.6s.38,.6-.05,.6Z"/><path class="g" d="M255.33,162.65c-.48,0-.41-.66,.06-.66s.41,.66-.06,.66Z"/><path class="g" d="M279.28,164.42c-.22,.02-.92,.48-.94-.1-.05-1.01,1.91,0,.94,.1-.08,0,.36-.04,0,0Z"/><path class="g" d="M233.71,160.61c-.38,0-.33-.53,.05-.53s.33,.53-.05,.53Z"/><path class="g" d="M196.48,221.61c-.5,.63,.55-.7,0,0-.12,.15,.11-.13,0,0Z"/><path class="g" d="M172.37,247.11c-.79,0-.41-2.02,.66-1.17,.43,.53,.21,.92-.66,1.17-.27,0,.48,0,0,0Z"/><path class="g" d="M172.38,255.24c-.45,0-.38-.61,.06-.61s.39,.61-.06,.61Z"/><path class="g" d="M150.2,237.7c-.35,0-.3-.47,.04-.47s.3,.47-.04,.47Z"/><path class="g" d="M257.95,241.52c.12-.08-1.62,.06-1.05-.63,.13-.99,2.01-.04,1.05,.63-.26,.18,.43-.3,0,0Z"/><path class="g" d="M221.52,237.96c-.27,1.23-1.87,.13-1.14-.34,.59-.37,.98-.26,1.14,.34-.04,.17,.05-.22,0,0Z"/><path class="g" d="M247.88,223.39c-.38,0-.33-.52,.05-.52s.33,.52-.05,.52Z"/></g><g class="e"><path class="g" d="M307.34,222.11c0-1.07-1.88-1.07-1.88,0s1.88,1.07,1.88,0Z"/><path class="g" d="M307.86,258.32c-.36,0-.31-.49,.04-.49s.31,.49-.04,.49Z"/><path class="g" d="M328.83,251.1c-.41,0-.35-.56,.05-.56s.35,.56-.05,.56Z"/><path class="g" d="M330.17,221.69c-.71,0-.61-.96,.09-.96s.61,.96-.09,.96Z"/><path class="g" d="M347.06,227.73c-.4,0-.35-.55,.05-.55s.35,.55-.05,.55Z"/><path class="g" d="M321.53,209.02c-.44,0-.38-.6,.06-.6s.38,.6-.06,.6Z"/><path class="g" d="M321.5,187.59c-.93,0-.8-1.26,.12-1.26s.8,1.26-.12,1.26Z"/><path class="g" d="M305.8,181.08c-.54,0-.47-.73,.07-.73s.46,.73-.07,.73Z"/><path class="g" d="M329.27,173.82c-.53,0-.46-.72,.07-.72s.46,.72-.07,.72Z"/><path class="g" d="M352.29,190.17c-.57,0-.49-.79,.08-.79s.5,.79-.08,.79Z"/><path class="g" d="M318.12,157.4c-.38,0-.33-.52,.05-.52s.33,.52-.05,.52Z"/><path class="g" d="M302.16,250.71c-.42,0-.36-.58,.05-.58s.37,.58-.05,.58Z"/></g></g><g><g><path class="g" d="M396.85,45.65c0-.88,1.54-.88,1.54,0s-1.54,.88-1.54,0Z"/><path class="g" d="M369.19,84.36c.47-.32,.13-1.06-.27-.6-.15,.17-.28,.97,.27,.6,.07-.05-.3,.2,0,0Z"/><path class="g" d="M396.42,75.26c.29,0,.25-.4-.04-.4s-.25,.4,.04,.4Z"/><path class="g" d="M379.28,69.36c.33,0,.29-.46-.04-.46s-.29,.46,.04,.46Z"/><path class="g" d="M354.62,71.68c.45,.48,.7,.13,.86-.08,1.95-.82-2.46-1.62-.86,.08,.21,.22-.34-.36,0,0Z"/><path class="g" d="M378.17,45.3c.58,0,.5-.78-.07-.78s-.5,.78,.07,.78Z"/><path class="g" d="M364.36,50.24c.33,0,.28-.45-.04-.45s-.28,.45,.04,.45Z"/><path class="g" d="M385.24,34.94c.36,0,.31-.49-.05-.49s-.31,.49,.05,.49Z"/><path class="g" d="M385.27,17.41c.75,0,.65-1.03-.1-1.03s-.65,1.03,.1,1.03Z"/><path class="g" d="M398.11,12.09c.44,0,.38-.6-.06-.6s-.38,.6,.06,.6Z"/><path class="g" d="M378.91,6.15c.43,0,.37-.59-.06-.59s-.38,.59,.06,.59Z"/><path class="g" d="M360.08,19.53c.47,0,.41-.64-.06-.64s-.4,.64,.06,.64Z"/><path class="g" d="M352.84,89.34c.88,0,.76-1.21-.11-1.21s-.77,1.21,.11,1.21Z"/><path class="g" d="M328.01,84.28c.46,.19,.78,0,.54-.44-.64-.36-.82-.22-.54,.44,.08,.03-.27-.12,0,0Z"/><path class="g" d="M329.88,78.12c.38,0,.33-.52-.05-.52s-.33,.52,.05,.52Z"/><path class="g" d="M307.07,89.32c.37,.51,1.51-.24,1.47-.63-.1-1.08-2.21-.38-1.47,.63,.17,.24-.15-.2,0,0Z"/><path class="g" d="M314.97,73.73c.46,0,.4-.62-.06-.62s-.39,.62,.06,.62Z"/><path class="g" d="M297.74,61.47c-.13,.28,1.35-.66,.21-.52-.2,.03-.8,.45-.21,.52Z"/><path class="g" d="M308.63,39.93c.44,0,.38-.59-.05-.59s-.38,.59,.05,.59Z"/><path class="g" d="M318.89,21.02c.5,0,.43-.68-.06-.68s-.43,.68,.06,.68Z"/><path class="g" d="M284.44,48.74c.38,1.47,1.29,.29,1.39-.1,.23-.9-1.69-1.04-1.39,.1,.1,.38-.06-.22,0,0Z"/><path class="g" d="M285.7,35.03c.17,.19,.89,.71,.94,.05,.08-1.17-1.49-.65-.94-.05,.05,.05-.21-.22,0,0Z"/><path class="g" d="M271.37,56.14c.91-.06,1.21-1.38,.07-1.3-.82,.05-.99,1.37-.07,1.3,.14,0-.4,.03,0,0Z"/><path class="g" d="M286.27,73c.6,0,.52-.82-.07-.82s-.52,.82,.07,.82Z"/><path class="g" d="M275.74,78.83c.29,.46,1.1,.14,.63-.21-.19-.14-.96-.31-.63,.21,.04,.06-.06-.1,0,0Z"/><path class="g" d="M266.8,70.42c.16,.2,.9-.15,.59-.45-.27-.26-.71,.3-.59,.45,.12,.16-.12-.15,0,0Z"/><path class="g" d="M258.65,69.84c.09,1.01,1.64,.58,1.67-.27,.04-.98-1.75-.59-1.67,.27,.04,.36-.02-.24,0,0Z"/><path class="g" d="M293.34,83.71c.36,0,.31-.48-.05-.48s-.31,.48,.05,.48Z"/><path class="g" d="M306.2,67.5c.26,0,.23-.36-.03-.36s-.23,.36,.03,.36Z"/><path class="g" d="M353.36,59.82c.37,0,.32-.5-.05-.5s-.31,.5,.05,.5Z"/><path class="g" d="M277.5,12.1c.47,0,.4-.63-.06-.63s-.4,.63,.06,.63Z"/><path class="g" d="M269.22,23.79c.25,.53,1.04,.46,1.23-.03,.38-1.23-1.65-.89-1.23,.03,.22,.47-.05-.11,0,0Z"/><path class="g" d="M295.07,22.2c.17-.05,.62-.17,.61-.38-.1-1.05-1.48,.63-.61,.38,.08-.02-.21,.06,0,0Z"/><path class="g" d="M294.47,8.35c.51,0,.44-.7-.06-.7s-.44,.7,.06,.7Z"/><path class="g" d="M278.8,3.52c.44,0,.38-.6-.05-.6s-.38,.6,.05,.6Z"/><path class="g" d="M354.81,52.95c.5,.64-.55-.69,0,0,.12,.15-.11-.13,0,0Z"/><path class="g" d="M378.92,78.44c.79,0,.41-2.02-.66-1.17-.43,.53-.21,.92,.66,1.17,.27,0-.48,0,0,0Z"/><path class="g" d="M378.91,86.57c.45,0,.38-.61-.06-.61s-.39,.61,.06,.61Z"/><path class="g" d="M401.09,69.04c.35,0,.3-.47-.04-.47s-.3,.47,.04,.47Z"/><path class="g" d="M293.34,72.86c-.12-.08,1.62,.06,1.05-.63-.13-.99-2.01-.04-1.05,.63,.26,.18-.43-.3,0,0Z"/><path class="g" d="M329.77,69.3c.27,1.23,1.87,.13,1.14-.34-.59-.37-.98-.26-1.14,.34,.04,.17-.05-.22,0,0Z"/><path class="g" d="M303.41,54.73c.38,0,.33-.52-.05-.52s-.33,.52,.05,.52Z"/></g><g><path class="g" d="M243.95,53.45c0-1.07,1.88-1.07,1.88,0s-1.88,1.07-1.88,0Z"/><path class="g" d="M243.43,89.66c.36,0,.31-.49-.04-.49s-.31,.49,.04,.49Z"/><path class="g" d="M222.46,82.44c.41,0,.35-.56-.05-.56s-.35,.56,.05,.56Z"/><path class="g" d="M221.11,53.02c.71,0,.61-.96-.09-.96s-.61,.96,.09,.96Z"/><path class="g" d="M204.23,59.07c.4,0,.35-.55-.05-.55s-.35,.55,.05,.55Z"/><path class="g" d="M229.76,40.35c.44,0,.38-.6-.06-.6s-.38,.6,.06,.6Z"/><path class="g" d="M229.79,18.93c.93,0,.8-1.26-.12-1.26s-.8,1.26,.12,1.26Z"/><path class="g" d="M245.49,12.42c.54,0,.47-.73-.07-.73s-.46,.73,.07,.73Z"/><path class="g" d="M222.02,5.16c.53,0,.46-.72-.07-.72s-.46,.72,.07,.72Z"/><path class="g" d="M199,21.51c.57,0,.49-.78-.08-.78s-.5,.78,.08,.78Z"/><path class="g" d="M249.13,82.05c.42,0,.36-.58-.05-.58s-.37,.58,.05,.58Z"/></g></g><g><g class="e"><path class="g" d="M186.08,2.07c.88,0,.88-1.54,0-1.54s-.88,1.54,0,1.54Z"/><path class="g" d="M147.37,29.73c.32-.47,1.06-.13,.6,.27-.17,.15-.97,.28-.6-.27,.05-.07-.2,.3,0,0Z"/><path class="g" d="M156.47,2.49c0-.29,.4-.25,.4,.04s-.4,.25-.4-.04Z"/><path class="g" d="M162.37,19.64c0-.33,.46-.29,.46,.04s-.46,.29-.46-.04Z"/><path class="g" d="M160.04,44.29c-.48-.45-.13-.7,.08-.86,.82-1.95,1.62,2.46-.08,.86-.21-.21,.36,.34,0,0Z"/><path class="g" d="M186.43,20.74c0-.58,.79-.5,.79,.07s-.79,.5-.79-.07Z"/><path class="g" d="M181.49,34.55c0-.33,.45-.28,.45,.04s-.45,.28-.45-.04Z"/><path class="g" d="M196.79,13.67c0-.36,.49-.31,.49,.05s-.49,.31-.49-.05Z"/><path class="g" d="M214.31,13.64c0-.75,1.03-.65,1.03,.1s-1.03,.65-1.03-.1Z"/><path class="g" d="M219.64,.8c0-.44,.6-.38,.6,.06s-.6,.38-.6-.06Z"/><path class="g" d="M225.58,20c0-.43,.59-.37,.59,.06s-.59,.38-.59-.06Z"/><path class="g" d="M212.2,38.83c0-.47,.64-.41,.64,.06s-.64,.4-.64-.06Z"/><path class="g" d="M142.39,46.07c0-.88,1.21-.76,1.21,.11s-1.21,.77-1.21-.11Z"/><path class="g" d="M147.45,70.9c-.19-.46,0-.78,.44-.54,.36,.64,.22,.82-.44,.54-.03-.08,.12,.27,0,0Z"/><path class="g" d="M153.61,69.03c0-.38,.52-.33,.52,.05s-.52,.33-.52-.05Z"/><path class="g" d="M142.4,91.84c-.51-.37,.24-1.51,.63-1.47,1.07,.1,.38,2.21-.63,1.47-.24-.17,.2,.15,0,0Z"/><path class="g" d="M158,83.94c0-.46,.62-.4,.62,.06s-.62,.39-.62-.06Z"/><path class="g" d="M170.26,101.17c-.28,.13,.66-1.35,.52-.21-.03,.2-.45,.8-.52,.21Z"/><path class="g" d="M191.79,90.28c0-.44,.6-.38,.6,.05s-.6,.38-.6-.05Z"/><path class="g" d="M210.7,80.03c0-.5,.68-.43,.68,.06s-.68,.43-.68-.06Z"/><path class="g" d="M182.98,114.48c-1.46-.38-.29-1.29,.1-1.39,.91-.23,1.04,1.69-.1,1.39-.38-.1,.22,.06,0,0Z"/><path class="g" d="M196.7,113.22c-.18-.17-.71-.89-.05-.94,1.17-.08,.65,1.49,.05,.94-.05-.05,.22,.21,0,0Z"/><path class="g" d="M175.59,127.54c.07-.91,1.38-1.21,1.3-.07-.05,.82-1.37,.99-1.3,.07,0-.14-.03,.4,0,0Z"/><path class="g" d="M158.73,112.64c0-.6,.82-.52,.82,.07s-.82,.52-.82-.07Z"/><path class="g" d="M152.89,123.17c-.46-.29-.14-1.1,.2-.63,.14,.19,.32,.96-.2,.63-.07-.04,.1,.06,0,0Z"/><path class="g" d="M161.3,132.11c-.2-.16,.15-.9,.45-.59,.26,.27-.3,.71-.45,.59-.16-.12,.14,.12,0,0Z"/><path class="g" d="M161.89,140.27c-1.01-.09-.59-1.64,.27-1.67,.98-.04,.59,1.75-.27,1.67-.36-.04,.24,.02,0,0Z"/><path class="g" d="M148.02,105.57c0-.36,.48-.31,.48,.05s-.48,.31-.48-.05Z"/><path class="g" d="M164.23,92.72c0-.26,.36-.23,.36,.03s-.36,.23-.36-.03Z"/><path class="g" d="M171.91,45.55c0-.37,.49-.32,.49,.05s-.49,.31-.49-.05Z"/><path class="g" d="M219.62,121.41c0-.47,.63-.4,.63,.06s-.63,.4-.63-.06Z"/><path class="g" d="M207.94,129.7c-.53-.25-.46-1.04,.03-1.23,1.23-.38,.89,1.65-.03,1.23-.47-.22,.11,.05,0,0Z"/><path class="g" d="M209.53,103.84c.05-.17,.17-.62,.38-.61,1.05,.1-.63,1.48-.38,.61,.02-.08-.06,.21,0,0Z"/><path class="g" d="M223.38,104.45c0-.51,.7-.44,.7,.06s-.7,.44-.7-.06Z"/><path class="g" d="M239.01,10.88c0-.31,.42-.27,.42,.04s-.42,.27-.42-.04Z"/><path class="g" d="M228.2,120.11c0-.44,.6-.38,.6,.05s-.6,.38-.6-.05Z"/><path class="g" d="M237.73,102.96c0-.48,.66-.41,.66,.06s-.66,.41-.66-.06Z"/><path class="g" d="M235.97,126.9c-.02-.22-.48-.92,.1-.94,1.01-.05,0,1.91-.1,.94,0-.08,.04,.36,0,0Z"/><path class="g" d="M239.78,81.34c0-.38,.53-.33,.53,.05s-.53,.33-.53-.05Z"/><path class="g" d="M178.78,44.11c-.63-.5,.7,.55,0,0-.15-.12,.13,.11,0,0Z"/><path class="g" d="M153.28,19.99c0-.79,2.02-.41,1.17,.66-.53,.43-.92,.21-1.17-.66,0-.27,0,.48,0,0Z"/><path class="g" d="M145.15,20c0-.45,.61-.38,.61,.06s-.61,.39-.61-.06Z"/><path class="g" d="M158.87,105.57c.08,.12-.06-1.62,.63-1.05,.99,.13,.04,2.01-.63,1.05-.18-.26,.3,.43,0,0Z"/><path class="g" d="M162.43,69.14c-1.23-.27-.13-1.87,.34-1.14,.37,.59,.26,.98-.34,1.14-.17-.04,.22,.05,0,0Z"/><path class="g" d="M177,95.51c0-.38,.52-.33,.52,.05s-.52,.33-.52-.05Z"/></g><g class="e"><path class="g" d="M178.28,154.97c1.07,0,1.07-1.88,0-1.88s-1.07,1.88,0,1.88Z"/><path class="g" d="M142.07,155.49c0-.36,.49-.31,.49,.04s-.49,.31-.49-.04Z"/><path class="g" d="M149.29,176.45c0-.41,.56-.35,.56,.05s-.56,.35-.56-.05Z"/><path class="g" d="M178.7,177.8c0-.71,.96-.61,.96,.09s-.96,.61-.96-.09Z"/><path class="g" d="M172.66,194.68c0-.4,.55-.35,.55,.05s-.55,.35-.55-.05Z"/><path class="g" d="M191.37,169.16c0-.44,.6-.38,.6,.06s-.6,.38-.6-.06Z"/><path class="g" d="M212.8,169.12c0-.93,1.26-.8,1.26,.12s-1.26,.8-1.26-.12Z"/><path class="g" d="M219.31,153.42c0-.54,.73-.47,.73,.07s-.73,.46-.73-.07Z"/><path class="g" d="M226.57,176.9c0-.53,.72-.46,.72,.07s-.72,.46-.72-.07Z"/><path class="g" d="M210.22,199.91c0-.57,.79-.49,.79,.08s-.79,.5-.79-.08Z"/><path class="g" d="M242.99,165.74c0-.38,.52-.33,.52,.05s-.52,.33-.52-.05Z"/><path class="g" d="M149.68,149.78c0-.42,.58-.36,.58,.05s-.58,.37-.58-.05Z"/></g></g><g><g><path class="g" d="M315.12,326.55c-.88,0-.88-1.54,0-1.54s.88,1.54,0,1.54Z"/><path class="g" d="M353.83,354.21c-.32-.47-1.06-.13-.6,.27,.17,.15,.97,.28,.6-.27-.05-.07,.2,.3,0,0Z"/><path class="g" d="M344.73,326.98c0-.29-.4-.25-.4,.04s.4,.25,.4-.04Z"/><path class="g" d="M338.83,344.12c0-.33-.46-.29-.46,.04s.46,.29,.46-.04Z"/><path class="g" d="M341.15,368.78c.48-.45,.13-.7-.08-.86-.82-1.95-1.62,2.46,.08,.86,.22-.21-.36,.34,0,0Z"/><path class="g" d="M314.77,345.23c0-.58-.78-.5-.78,.07s.78,.5,.78-.07Z"/><path class="g" d="M319.71,359.04c0-.33-.45-.28-.45,.04s.45,.28,.45-.04Z"/><path class="g" d="M304.41,338.16c0-.36-.49-.31-.49,.05s.49,.31,.49-.05Z"/><path class="g" d="M286.88,338.13c0-.75-1.03-.65-1.03,.1s1.03,.65,1.03-.1Z"/><path class="g" d="M281.56,325.29c0-.44-.6-.38-.6,.06s.6,.38,.6-.06Z"/><path class="g" d="M275.62,344.49c0-.43-.59-.37-.59,.06s.59,.38,.59-.06Z"/><path class="g" d="M289,363.32c0-.47-.64-.41-.64,.06s.64,.4,.64-.06Z"/><path class="g" d="M358.81,370.56c0-.88-1.21-.76-1.21,.11s1.21,.77,1.21-.11Z"/><path class="g" d="M353.75,395.39c.19-.46,0-.78-.44-.54-.36,.64-.22,.82,.44,.54,.03-.08-.12,.27,0,0Z"/><path class="g" d="M347.59,393.52c0-.38-.52-.33-.52,.05s.52,.33,.52-.05Z"/><path class="g" d="M358.79,416.33c.51-.37-.24-1.51-.63-1.47-1.08,.1-.38,2.21,.63,1.47,.24-.17-.2,.15,0,0Z"/><path class="g" d="M343.2,408.43c0-.46-.62-.4-.62,.06s.62,.39,.62-.06Z"/><path class="g" d="M330.94,425.66c.28,.13-.66-1.35-.52-.21,.03,.2,.45,.8,.52,.21Z"/><path class="g" d="M309.4,414.77c0-.44-.59-.38-.59,.05s.59,.38,.59-.05Z"/><path class="g" d="M290.49,404.51c0-.5-.68-.43-.68,.06s.68,.43,.68-.06Z"/><path class="g" d="M318.22,438.96c1.47-.38,.29-1.29-.1-1.39-.9-.23-1.04,1.69,.1,1.39,.38-.1-.22,.06,0,0Z"/><path class="g" d="M304.5,437.7c.19-.17,.71-.89,.05-.94-1.17-.08-.65,1.49-.05,.94,.05-.05-.22,.21,0,0Z"/><path class="g" d="M325.61,452.03c-.06-.91-1.38-1.21-1.3-.07,.05,.82,1.37,.99,1.3,.07,0-.14,.03,.4,0,0Z"/><path class="g" d="M342.47,437.13c0-.6-.82-.52-.82,.07s.82,.52,.82-.07Z"/><path class="g" d="M348.31,447.66c.46-.29,.14-1.1-.21-.63-.14,.19-.31,.96,.21,.63,.06-.04-.1,.06,0,0Z"/><path class="g" d="M339.9,456.6c.2-.16-.15-.9-.45-.59-.26,.27,.3,.71,.45,.59,.16-.12-.15,.12,0,0Z"/><path class="g" d="M339.32,464.75c1.01-.09,.58-1.64-.27-1.67-.98-.04-.59,1.75,.27,1.67,.36-.04-.24,.02,0,0Z"/><path class="g" d="M353.18,430.06c0-.36-.48-.31-.48,.05s.48,.31,.48-.05Z"/><path class="g" d="M336.97,417.2c0-.26-.36-.23-.36,.03s.36,.23,.36-.03Z"/><path class="g" d="M329.29,370.04c0-.37-.5-.32-.5,.05s.5,.31,.5-.05Z"/><path class="g" d="M281.58,445.9c0-.47-.63-.4-.63,.06s.63,.4,.63-.06Z"/><path class="g" d="M293.26,454.19c.53-.25,.46-1.04-.03-1.23-1.23-.38-.89,1.65,.03,1.23,.47-.22-.11,.05,0,0Z"/><path class="g" d="M291.67,428.33c-.05-.17-.17-.62-.38-.61-1.05,.1,.63,1.48,.38,.61-.02-.08,.06,.21,0,0Z"/><path class="g" d="M277.82,428.93c0-.51-.7-.44-.7,.06s.7,.44,.7-.06Z"/><path class="g" d="M262.19,335.37c0-.31-.42-.27-.42,.04s.42,.27,.42-.04Z"/><path class="g" d="M272.99,444.6c0-.44-.6-.38-.6,.05s.6,.38,.6-.05Z"/><path class="g" d="M263.47,427.44c0-.48-.66-.41-.66,.06s.66,.41,.66-.06Z"/><path class="g" d="M265.23,451.39c.02-.22,.48-.92-.1-.94-1.01-.05,0,1.91,.1,.94,0-.08-.04,.36,0,0Z"/><path class="g" d="M261.42,405.82c0-.38-.53-.33-.53,.05s.53,.33,.53-.05Z"/><path class="g" d="M322.42,368.59c.64-.5-.69,.55,0,0,.15-.12-.13,.11,0,0Z"/><path class="g" d="M347.92,344.48c0-.79-2.02-.41-1.17,.66,.53,.43,.92,.21,1.17-.66,0-.27,0,.48,0,0Z"/><path class="g" d="M356.05,344.49c0-.45-.61-.38-.61,.06s.61,.39,.61-.06Z"/><path class="g" d="M338.51,322.31c0-.35-.47-.3-.47,.04s.47,.3,.47-.04Z"/><path class="g" d="M342.33,430.06c-.08,.12,.06-1.62-.63-1.05-.99,.13-.04,2.01,.63,1.05,.18-.26-.3,.43,0,0Z"/><path class="g" d="M338.77,393.63c1.23-.27,.13-1.87-.34-1.14-.37,.59-.26,.98,.34,1.14,.17-.04-.22,.05,0,0Z"/><path class="g" d="M324.2,419.99c0-.38-.52-.33-.52,.05s.52,.33,.52-.05Z"/></g><g><path class="g" d="M322.92,479.45c-1.07,0-1.07-1.88,0-1.88s1.07,1.88,0,1.88Z"/><path class="g" d="M359.13,479.97c0-.36-.49-.31-.49,.04s.49,.31,.49-.04Z"/><path class="g" d="M309.83,493.64c0-.44-.6-.38-.6,.06s.6,.38,.6-.06Z"/><path class="g" d="M288.4,493.61c0-.93-1.26-.8-1.26,.12s1.26,.8,1.26-.12Z"/><path class="g" d="M281.89,477.91c0-.54-.73-.47-.73,.07s.73,.46,.73-.07Z"/><path class="g" d="M258.21,490.23c0-.38-.52-.33-.52,.05s.52,.33,.52-.05Z"/><path class="g" d="M351.52,474.27c0-.42-.58-.36-.58,.05s.58,.37,.58-.05Z"/></g></g><g><g class="e"><path class="g" d="M184.55,326.55c.88,0,.88-1.54,0-1.54s-.88,1.54,0,1.54Z"/><path class="g" d="M145.85,354.21c.32-.47,1.06-.13,.6,.27-.17,.15-.97,.28-.6-.27,.05-.07-.2,.3,0,0Z"/><path class="g" d="M154.94,326.98c0-.29,.4-.25,.4,.04s-.4,.25-.4-.04Z"/><path class="g" d="M160.84,344.12c0-.33,.46-.29,.46,.04s-.46,.29-.46-.04Z"/><path class="g" d="M158.52,368.78c-.48-.45-.13-.7,.08-.86,.82-1.95,1.62,2.46-.08,.86-.21-.21,.36,.34,0,0Z"/><path class="g" d="M184.9,345.23c0-.58,.79-.5,.79,.07s-.79,.5-.79-.07Z"/><path class="g" d="M179.96,359.04c0-.33,.45-.28,.45,.04s-.45,.28-.45-.04Z"/><path class="g" d="M195.27,338.16c0-.36,.49-.31,.49,.05s-.49,.31-.49-.05Z"/><path class="g" d="M212.79,338.13c0-.75,1.03-.65,1.03,.1s-1.03,.65-1.03-.1Z"/><path class="g" d="M218.11,325.29c0-.44,.6-.38,.6,.06s-.6,.38-.6-.06Z"/><path class="g" d="M224.05,344.49c0-.43,.59-.37,.59,.06s-.59,.38-.59-.06Z"/><path class="g" d="M210.68,363.32c0-.47,.64-.41,.64,.06s-.64,.4-.64-.06Z"/><path class="g" d="M140.86,370.56c0-.88,1.21-.76,1.21,.11s-1.21,.77-1.21-.11Z"/><path class="g" d="M145.92,395.39c-.19-.46,0-.78,.44-.54,.36,.64,.22,.82-.44,.54-.03-.08,.12,.27,0,0Z"/><path class="g" d="M152.08,393.52c0-.38,.52-.33,.52,.05s-.52,.33-.52-.05Z"/><path class="g" d="M140.88,416.33c-.51-.37,.24-1.51,.63-1.47,1.07,.1,.38,2.21-.63,1.47-.24-.17,.2,.15,0,0Z"/><path class="g" d="M156.48,408.43c0-.46,.62-.4,.62,.06s-.62,.39-.62-.06Z"/><path class="g" d="M168.74,425.66c-.28,.13,.66-1.35,.52-.21-.03,.2-.45,.8-.52,.21Z"/><path class="g" d="M190.27,414.77c0-.44,.6-.38,.6,.05s-.6,.38-.6-.05Z"/><path class="g" d="M209.18,404.51c0-.5,.68-.43,.68,.06s-.68,.43-.68-.06Z"/><path class="g" d="M181.46,438.96c-1.46-.38-.29-1.29,.1-1.39,.91-.23,1.04,1.69-.1,1.39-.38-.1,.22,.06,0,0Z"/><path class="g" d="M195.17,437.7c-.18-.17-.71-.89-.05-.94,1.17-.08,.65,1.49,.05,.94-.05-.05,.22,.21,0,0Z"/><path class="g" d="M174.07,452.03c.07-.91,1.38-1.21,1.3-.07-.05,.82-1.37,.99-1.3,.07,0-.14-.03,.4,0,0Z"/><path class="g" d="M157.2,437.13c0-.6,.82-.52,.82,.07s-.82,.52-.82-.07Z"/><path class="g" d="M151.37,447.66c-.46-.29-.14-1.1,.2-.63,.14,.19,.32,.96-.2,.63-.07-.04,.1,.06,0,0Z"/><path class="g" d="M159.78,456.6c-.2-.16,.15-.9,.45-.59,.26,.27-.3,.71-.45,.59-.16-.12,.14,.12,0,0Z"/><path class="g" d="M160.36,464.75c-1.01-.09-.59-1.64,.27-1.67,.98-.04,.59,1.75-.27,1.67-.36-.04,.24,.02,0,0Z"/><path class="g" d="M146.5,430.06c0-.36,.48-.31,.48,.05s-.48,.31-.48-.05Z"/><path class="g" d="M162.71,417.2c0-.26,.36-.23,.36,.03s-.36,.23-.36-.03Z"/><path class="g" d="M170.38,370.04c0-.37,.49-.32,.49,.05s-.49,.31-.49-.05Z"/><path class="g" d="M218.1,445.9c0-.47,.63-.4,.63,.06s-.63,.4-.63-.06Z"/><path class="g" d="M206.41,454.19c-.53-.25-.46-1.04,.03-1.23,1.23-.38,.89,1.65-.03,1.23-.47-.22,.11,.05,0,0Z"/><path class="g" d="M208,428.33c.05-.17,.17-.62,.38-.61,1.05,.1-.63,1.48-.38,.61,.02-.08-.06,.21,0,0Z"/><path class="g" d="M221.86,428.93c0-.51,.7-.44,.7,.06s-.7,.44-.7-.06Z"/><path class="g" d="M237.48,335.37c0-.31,.42-.27,.42,.04s-.42,.27-.42-.04Z"/><path class="g" d="M226.68,444.6c0-.44,.6-.38,.6,.05s-.6,.38-.6-.05Z"/><path class="g" d="M236.21,427.44c0-.48,.66-.41,.66,.06s-.66,.41-.66-.06Z"/><path class="g" d="M234.45,451.39c-.02-.22-.48-.92,.1-.94,1.01-.05,0,1.91-.1,.94,0-.08,.04,.36,0,0Z"/><path class="g" d="M238.25,405.82c0-.38,.53-.33,.53,.05s-.53,.33-.53-.05Z"/><path class="g" d="M177.25,368.59c-.63-.5,.7,.55,0,0-.15-.12,.13,.11,0,0Z"/><path class="g" d="M151.76,344.48c0-.79,2.02-.41,1.17,.66-.53,.43-.92,.21-1.17-.66,0-.27,0,.48,0,0Z"/><path class="g" d="M143.63,344.49c0-.45,.61-.38,.61,.06s-.61,.39-.61-.06Z"/><path class="g" d="M161.17,322.31c0-.35,.47-.3,.47,.04s-.47,.3-.47-.04Z"/><path class="g" d="M157.34,430.06c.08,.12-.06-1.62,.63-1.05,.99,.13,.04,2.01-.63,1.05-.18-.26,.3,.43,0,0Z"/><path class="g" d="M160.9,393.63c-1.23-.27-.13-1.87,.34-1.14,.37,.59,.26,.98-.34,1.14-.17-.04,.22,.05,0,0Z"/><path class="g" d="M175.48,419.99c0-.38,.52-.33,.52,.05s-.52,.33-.52-.05Z"/></g><g class="e"><path class="g" d="M176.75,479.45c1.07,0,1.07-1.88,0-1.88s-1.07,1.88,0,1.88Z"/><path class="g" d="M140.55,479.97c0-.36,.49-.31,.49,.04s-.49,.31-.49-.04Z"/><path class="g" d="M189.85,493.64c0-.44,.6-.38,.6,.06s-.6,.38-.6-.06Z"/><path class="g" d="M211.28,493.61c0-.93,1.26-.8,1.26,.12s-1.26,.8-1.26-.12Z"/><path class="g" d="M217.79,477.91c0-.54,.73-.47,.73,.07s-.73,.46-.73-.07Z"/><path class="g" d="M241.47,490.23c0-.38,.52-.33,.52,.05s-.52,.33-.52-.05Z"/><path class="g" d="M148.16,474.27c0-.42,.58-.36,.58,.05s-.58,.37-.58-.05Z"/></g></g></g><g><g><g><path class="g" d="M4.51,316.75c-.45-.48-.7-.13-.86,.08-1.95,.82,2.46,1.62,.86-.08-.21-.22,.34,.36,0,0Z"/><path class="g" d="M6.29,299.09c-.88,0-.76,1.21,.11,1.21s.77-1.21-.11-1.21Z"/><path class="g" d="M31.12,304.15c-.46-.19-.78,0-.54,.44,.64,.36,.82,.22,.54-.44-.08-.03,.27,.12,0,0Z"/><path class="g" d="M29.25,310.31c-.38,0-.33,.52,.05,.52s.33-.52-.05-.52Z"/><path class="g" d="M52.06,299.11c-.37-.51-1.51,.24-1.47,.63,.1,1.08,2.21,.38,1.47-.63-.17-.24,.15,.2,0,0Z"/><path class="g" d="M44.16,314.71c-.46,0-.4,.62,.06,.62s.39-.62-.06-.62Z"/><path class="g" d="M61.39,326.97c.13-.28-1.35,.66-.21,.52,.2-.03,.8-.45,.21-.52Z"/><path class="g" d="M50.5,348.5c-.44,0-.38,.59,.05,.59s.38-.59-.05-.59Z"/><path class="g" d="M40.24,367.41c-.5,0-.43,.68,.06,.68s.43-.68-.06-.68Z"/><path class="g" d="M74.7,339.69c-.38-1.47-1.29-.29-1.39,.1-.23,.9,1.69,1.04,1.39-.1-.1-.38,.06,.22,0,0Z"/><path class="g" d="M73.44,353.4c-.17-.19-.89-.71-.94-.05-.08,1.17,1.49,.65,.94,.05-.05-.05,.21,.22,0,0Z"/><path class="g" d="M87.76,332.3c-.91,.06-1.21,1.38-.07,1.3,.82-.05,.99-1.37,.07-1.3-.14,0,.4-.03,0,0Z"/><path class="g" d="M72.86,315.44c-.6,0-.52,.82,.07,.82s.52-.82-.07-.82Z"/><path class="g" d="M83.39,309.6c-.29-.46-1.1-.14-.63,.21,.19,.14,.96,.31,.63-.21-.04-.06,.06,.1,0,0Z"/><path class="g" d="M92.33,318.01c-.16-.2-.9,.15-.59,.45,.27,.26,.71-.3,.59-.45-.12-.16,.12,.15,0,0Z"/><path class="g" d="M100.49,318.59c-.09-1.01-1.64-.58-1.67,.27-.04,.98,1.75,.59,1.67-.27-.04-.36,.02,.24,0,0Z"/><path class="g" d="M65.79,304.73c-.36,0-.31,.48,.05,.48s.31-.48-.05-.48Z"/><path class="g" d="M52.94,320.94c-.26,0-.23,.36,.03,.36s.23-.36-.03-.36Z"/><path class="g" d="M5.77,328.61c-.37,0-.32,.5,.05,.5s.31-.5-.05-.5Z"/><path class="g" d="M81.63,376.33c-.47,0-.4,.63,.06,.63s.4-.63-.06-.63Z"/><path class="g" d="M89.92,364.64c-.25-.53-1.04-.46-1.23,.03-.38,1.23,1.65,.89,1.23-.03-.22-.47,.05,.11,0,0Z"/><path class="g" d="M64.06,366.23c-.17,.05-.62,.17-.61,.38,.1,1.05,1.48-.63,.61-.38-.08,.02,.21-.06,0,0Z"/><path class="g" d="M64.66,380.08c-.51,0-.44,.7,.06,.7s.44-.7-.06-.7Z"/><path class="g" d="M80.33,384.91c-.44,0-.38,.6,.05,.6s.38-.6-.05-.6Z"/><path class="g" d="M63.17,394.44c-.48,0-.41,.66,.06,.66s.41-.66-.06-.66Z"/><path class="g" d="M87.12,392.68c-.22-.02-.92-.48-.94,.1-.05,1.01,1.91,0,.94-.1-.08,0,.36,.04,0,0Z"/><path class="g" d="M41.56,396.48c-.38,0-.33,.53,.05,.53s.33-.53-.05-.53Z"/><path class="g" d="M4.32,335.48c-.5-.64,.55,.69,0,0-.12-.15,.11,.13,0,0Z"/><path class="g" d="M65.79,315.57c.12,.08-1.62-.06-1.05,.63,.13,.99,2.01,.04,1.05-.63-.26-.18,.43,.3,0,0Z"/><path class="g" d="M29.36,319.13c-.27-1.23-1.87-.13-1.14,.34,.59,.37,.98,.26,1.14-.34-.04-.17,.05,.22,0,0Z"/><path class="g" d="M55.72,333.71c-.38,0-.33,.52,.05,.52s.33-.52-.05-.52Z"/></g><g><path class="g" d="M115.19,334.98c0,1.07-1.88,1.07-1.88,0s1.88-1.07,1.88,0Z"/><path class="g" d="M115.71,298.78c-.36,0-.31,.49,.04,.49s.31-.49-.04-.49Z"/><path class="g" d="M136.67,305.99c-.41,0-.35,.56,.05,.56s.35-.56-.05-.56Z"/><path class="g" d="M138.02,335.41c-.71,0-.61,.96,.09,.96s.61-.96-.09-.96Z"/><path class="g" d="M154.9,329.37c-.4,0-.35,.55,.05,.55s.35-.55-.05-.55Z"/><path class="g" d="M129.37,348.08c-.44,0-.38,.6,.06,.6s.38-.6-.06-.6Z"/><path class="g" d="M129.34,369.51c-.93,0-.8,1.26,.12,1.26s.8-1.26-.12-1.26Z"/><path class="g" d="M113.64,376.02c-.54,0-.47,.73,.07,.73s.46-.73-.07-.73Z"/><path class="g" d="M137.12,383.27c-.53,0-.46,.72,.07,.72s.46-.72-.07-.72Z"/><path class="g" d="M160.13,366.93c-.57,0-.49,.78,.08,.78s.5-.78-.08-.78Z"/><path class="g" d="M125.96,399.7c-.38,0-.33,.52,.05,.52s.33-.52-.05-.52Z"/><path class="g" d="M110,306.39c-.42,0-.36,.58,.05,.58s.37-.58-.05-.58Z"/></g></g><g><g class="e"><path class="g" d="M156.13,285.68c0,.88,1.54,.88,1.54,0s-1.54-.88-1.54,0Z"/><path class="g" d="M128.47,246.98c.47,.32,.13,1.06-.27,.6-.15-.17-.28-.97,.27-.6,.07,.05-.3-.2,0,0Z"/><path class="g" d="M155.7,256.08c.29,0,.25,.4-.04,.4s-.25-.4,.04-.4Z"/><path class="g" d="M138.56,261.98c.33,0,.29,.46-.04,.46s-.29-.46,.04-.46Z"/><path class="g" d="M113.9,259.65c.45-.48,.7-.13,.86,.08,1.95,.82-2.46,1.62-.86-.08,.21-.21-.34,.36,0,0Z"/><path class="g" d="M137.45,286.03c.58,0,.5,.79-.07,.79s-.5-.79,.07-.79Z"/><path class="g" d="M123.64,281.09c.33,0,.28,.45-.04,.45s-.28-.45,.04-.45Z"/><path class="g" d="M144.52,296.4c.36,0,.31,.49-.05,.49s-.31-.49,.05-.49Z"/><path class="g" d="M144.55,313.92c.75,0,.65,1.03-.1,1.03s-.65-1.03,.1-1.03Z"/><path class="g" d="M157.39,319.25c.44,0,.38,.6-.06,.6s-.38-.6,.06-.6Z"/><path class="g" d="M138.19,325.18c.43,0,.37,.59-.06,.59s-.38-.59,.06-.59Z"/><path class="g" d="M119.36,311.81c.47,0,.41,.64-.06,.64s-.4-.64,.06-.64Z"/><path class="g" d="M112.12,241.99c.88,0,.76,1.21-.11,1.21s-.77-1.21,.11-1.21Z"/><path class="g" d="M87.29,247.05c.46-.19,.78,0,.54,.44-.64,.36-.82,.22-.54-.44,.08-.03-.27,.12,0,0Z"/><path class="g" d="M89.16,253.21c.38,0,.33,.52-.05,.52s-.33-.52,.05-.52Z"/><path class="g" d="M66.35,242.01c.37-.51,1.51,.24,1.47,.63-.1,1.07-2.21,.38-1.47-.63,.17-.24-.15,.2,0,0Z"/><path class="g" d="M74.25,257.61c.46,0,.4,.62-.06,.62s-.39-.62,.06-.62Z"/><path class="g" d="M57.02,269.87c-.13-.28,1.35,.66,.21,.52-.2-.03-.8-.45-.21-.52Z"/><path class="g" d="M67.91,291.4c.44,0,.38,.6-.05,.6s-.38-.6,.05-.6Z"/><path class="g" d="M78.17,310.31c.5,0,.43,.68-.06,.68s-.43-.68,.06-.68Z"/><path class="g" d="M43.72,282.59c.38-1.46,1.29-.29,1.39,.1,.23,.91-1.69,1.04-1.39-.1,.1-.38-.06,.22,0,0Z"/><path class="g" d="M44.98,296.3c.17-.18,.89-.71,.94-.05,.08,1.17-1.49,.65-.94,.05,.05-.05-.21,.22,0,0Z"/><path class="g" d="M30.65,275.2c.91,.07,1.21,1.38,.07,1.3-.82-.05-.99-1.37-.07-1.3,.14,0-.4-.03,0,0Z"/><path class="g" d="M45.55,258.34c.6,0,.52,.82-.07,.82s-.52-.82,.07-.82Z"/><path class="g" d="M35.02,252.5c.29-.46,1.1-.14,.63,.2-.19,.14-.96,.32-.63-.2,.04-.07-.06,.1,0,0Z"/><path class="g" d="M26.08,260.91c.16-.2,.9,.15,.59,.45-.27,.26-.71-.3-.59-.45,.12-.16-.12,.14,0,0Z"/><path class="g" d="M17.93,261.49c.09-1.01,1.64-.59,1.67,.27,.04,.98-1.75,.59-1.67-.27,.04-.36-.02,.24,0,0Z"/><path class="g" d="M52.62,247.63c.36,0,.31,.48-.05,.48s-.31-.48,.05-.48Z"/><path class="g" d="M65.48,263.84c.26,0,.23,.36-.03,.36s-.23-.36,.03-.36Z"/><path class="g" d="M112.64,271.51c.37,0,.32,.49-.05,.49s-.31-.49,.05-.49Z"/><path class="g" d="M36.78,319.23c.47,0,.4,.63-.06,.63s-.4-.63,.06-.63Z"/><path class="g" d="M28.49,307.54c.25-.53,1.04-.46,1.23,.03,.38,1.23-1.65,.89-1.23-.03,.22-.47-.05,.11,0,0Z"/><path class="g" d="M54.35,309.13c.17,.05,.62,.17,.61,.38-.1,1.05-1.48-.63-.61-.38,.08,.02-.21-.06,0,0Z"/><path class="g" d="M53.75,322.99c.51,0,.44,.7-.06,.7s-.44-.7,.06-.7Z"/><path class="g" d="M147.31,338.62c.31,0,.27,.42-.04,.42s-.27-.42,.04-.42Z"/><path class="g" d="M38.08,327.81c.44,0,.38,.6-.05,.6s-.38-.6,.05-.6Z"/><path class="g" d="M55.24,337.34c.48,0,.41,.66-.06,.66s-.41-.66,.06-.66Z"/><path class="g" d="M31.29,335.58c.22-.02,.92-.48,.94,.1,.05,1.01-1.91,0-.94-.1,.08,0-.36,.04,0,0Z"/><path class="g" d="M76.85,339.39c.38,0,.33,.53-.05,.53s-.33-.53,.05-.53Z"/><path class="g" d="M114.09,278.39c.5-.63-.55,.7,0,0,.12-.15-.11,.13,0,0Z"/><path class="g" d="M138.2,252.89c.79,0,.41,2.02-.66,1.17-.43-.53-.21-.92,.66-1.17,.27,0-.48,0,0,0Z"/><path class="g" d="M138.19,244.76c.45,0,.38,.61-.06,.61s-.39-.61,.06-.61Z"/><path class="g" d="M160.37,262.3c.35,0,.3,.47-.04,.47s-.3-.47,.04-.47Z"/><path class="g" d="M52.62,258.47c-.12,.08,1.62-.06,1.05,.63-.13,.99-2.01,.04-1.05-.63,.26-.18-.43,.3,0,0Z"/><path class="g" d="M89.05,262.03c.27-1.23,1.87-.13,1.14,.34-.59,.37-.98,.26-1.14-.34,.04-.17-.05,.22,0,0Z"/><path class="g" d="M62.69,276.61c.38,0,.33,.52-.05,.52s-.33-.52,.05-.52Z"/></g><g class="e"><path class="g" d="M3.23,277.88c0,1.07,1.88,1.07,1.88,0s-1.88-1.07-1.88,0Z"/><path class="g" d="M2.71,241.68c.36,0,.31,.49-.04,.49s-.31-.49,.04-.49Z"/><path class="g" d="M4.77,318.92c.54,0,.47,.73-.07,.73s-.46-.73,.07-.73Z"/><path class="g" d="M8.41,249.29c.42,0,.36,.58-.05,.58s-.37-.58,.05-.58Z"/></g></g><g><g><path class="g" d="M5.87,124.81c-.45-.48-.7-.13-.86,.08-1.95,.82,2.46,1.62,.86-.08-.21-.22,.34,.36,0,0Z"/><path class="g" d="M.41,176.97c-.47,0-.41,.64,.06,.64s.4-.64-.06-.64Z"/><path class="g" d="M7.65,107.15c-.88,0-.76,1.21,.11,1.21s.77-1.21-.11-1.21Z"/><path class="g" d="M32.49,112.21c-.46-.19-.78,0-.54,.44,.64,.36,.82,.22,.54-.44-.08-.03,.27,.12,0,0Z"/><path class="g" d="M30.61,118.37c-.38,0-.33,.52,.05,.52s.33-.52-.05-.52Z"/><path class="g" d="M53.42,107.17c-.37-.51-1.51,.24-1.47,.63,.1,1.08,2.21,.38,1.47-.63-.17-.24,.15,.2,0,0Z"/><path class="g" d="M45.52,122.77c-.46,0-.4,.62,.06,.62s.39-.62-.06-.62Z"/><path class="g" d="M62.75,135.02c.13-.28-1.35,.66-.21,.52,.2-.03,.8-.45,.21-.52Z"/><path class="g" d="M51.87,156.56c-.44,0-.38,.59,.05,.59s.38-.59-.05-.59Z"/><path class="g" d="M41.61,175.47c-.5,0-.43,.68,.06,.68s.43-.68-.06-.68Z"/><path class="g" d="M76.06,147.75c-.38-1.47-1.29-.29-1.39,.1-.23,.9,1.69,1.04,1.39-.1-.1-.38,.06,.22,0,0Z"/><path class="g" d="M74.8,161.46c-.17-.19-.89-.71-.94-.05-.08,1.17,1.49,.65,.94,.05-.05-.05,.21,.22,0,0Z"/><path class="g" d="M89.13,140.36c-.91,.06-1.21,1.38-.07,1.3,.82-.05,.99-1.37,.07-1.3-.14,0,.4-.03,0,0Z"/><path class="g" d="M74.22,123.49c-.6,0-.52,.82,.07,.82s.52-.82-.07-.82Z"/><path class="g" d="M84.75,117.66c-.29-.46-1.1-.14-.63,.21,.19,.14,.96,.31,.63-.21-.04-.06,.06,.1,0,0Z"/><path class="g" d="M93.69,126.07c-.16-.2-.9,.15-.59,.45,.27,.26,.71-.3,.59-.45-.12-.16,.12,.15,0,0Z"/><path class="g" d="M101.85,126.65c-.09-1.01-1.64-.58-1.67,.27-.04,.98,1.75,.59,1.67-.27-.04-.36,.02,.24,0,0Z"/><path class="g" d="M67.15,112.79c-.36,0-.31,.48,.05,.48s.31-.48-.05-.48Z"/><path class="g" d="M54.3,128.99c-.26,0-.23,.36,.03,.36s.23-.36-.03-.36Z"/><path class="g" d="M7.13,136.67c-.37,0-.32,.5,.05,.5s.31-.5-.05-.5Z"/><path class="g" d="M82.99,184.39c-.47,0-.4,.63,.06,.63s.4-.63-.06-.63Z"/><path class="g" d="M91.28,172.7c-.25-.53-1.04-.46-1.23,.03-.38,1.23,1.65,.89,1.23-.03-.22-.47,.05,.11,0,0Z"/><path class="g" d="M65.42,174.29c-.17,.05-.62,.17-.61,.38,.1,1.05,1.48-.63,.61-.38-.08,.02,.21-.06,0,0Z"/><path class="g" d="M66.03,188.14c-.51,0-.44,.7,.06,.7s.44-.7-.06-.7Z"/><path class="g" d="M81.69,192.97c-.44,0-.38,.6,.05,.6s.38-.6-.05-.6Z"/><path class="g" d="M64.54,202.5c-.48,0-.41,.66,.06,.66s.41-.66-.06-.66Z"/><path class="g" d="M88.48,200.74c-.22-.02-.92-.48-.94,.1-.05,1.01,1.91,0,.94-.1-.08,0,.36,.04,0,0Z"/><path class="g" d="M42.92,204.54c-.38,0-.33,.53,.05,.53s.33-.53-.05-.53Z"/><path class="g" d="M5.69,143.54c-.5-.64,.55,.69,0,0-.12-.15,.11,.13,0,0Z"/><path class="g" d="M67.15,123.63c.12,.08-1.62-.06-1.05,.63,.13,.99,2.01,.04,1.05-.63-.26-.18,.43,.3,0,0Z"/><path class="g" d="M30.73,127.19c-.27-1.23-1.87-.13-1.14,.34,.59,.37,.98,.26,1.14-.34-.04-.17,.05,.22,0,0Z"/><path class="g" d="M57.09,141.77c-.38,0-.33,.52,.05,.52s.33-.52-.05-.52Z"/></g><g><path class="g" d="M116.55,143.04c0,1.07-1.88,1.07-1.88,0s1.88-1.07,1.88,0Z"/><path class="g" d="M117.07,106.83c-.36,0-.31,.49,.04,.49s.31-.49-.04-.49Z"/><path class="g" d="M138.03,114.05c-.41,0-.35,.56,.05,.56s.35-.56-.05-.56Z"/><path class="g" d="M139.38,143.47c-.71,0-.61,.96,.09,.96s.61-.96-.09-.96Z"/><path class="g" d="M156.26,137.43c-.4,0-.35,.55,.05,.55s.35-.55-.05-.55Z"/><path class="g" d="M130.74,156.14c-.44,0-.38,.6,.06,.6s.38-.6-.06-.6Z"/><path class="g" d="M130.71,177.56c-.93,0-.8,1.26,.12,1.26s.8-1.26-.12-1.26Z"/><path class="g" d="M115,184.08c-.54,0-.47,.73,.07,.73s.46-.73-.07-.73Z"/><path class="g" d="M138.48,191.33c-.53,0-.46,.72,.07,.72s.46-.72-.07-.72Z"/><path class="g" d="M161.49,174.98c-.57,0-.49,.78,.08,.78s.5-.78-.08-.78Z"/><path class="g" d="M127.32,207.76c-.38,0-.33,.52,.05,.52s.33-.52-.05-.52Z"/><path class="g" d="M111.36,114.45c-.42,0-.36,.58,.05,.58s.37-.58-.05-.58Z"/></g></g><g><g class="e"><path class="g" d="M5.87,247.4c-.45,.48-.7,.13-.86-.08-1.95-.82,2.46-1.62,.86,.08-.21,.21,.34-.36,0,0Z"/><path class="g" d="M.41,195.24c-.47,0-.41-.64,.06-.64s.4,.64-.06,.64Z"/><path class="g" d="M7.65,265.05c-.88,0-.76-1.21,.11-1.21s.77,1.21-.11,1.21Z"/><path class="g" d="M32.49,259.99c-.46,.19-.78,0-.54-.44,.64-.36,.82-.22,.54,.44-.08,.03,.27-.12,0,0Z"/><path class="g" d="M30.61,253.83c-.38,0-.33-.52,.05-.52s.33,.52-.05,.52Z"/><path class="g" d="M53.42,265.03c-.37,.51-1.51-.24-1.47-.63,.1-1.07,2.21-.38,1.47,.63-.17,.24,.15-.2,0,0Z"/><path class="g" d="M45.52,249.44c-.46,0-.4-.62,.06-.62s.39,.62-.06,.62Z"/><path class="g" d="M62.75,237.18c.13,.28-1.35-.66-.21-.52,.2,.03,.8,.45,.21,.52Z"/><path class="g" d="M51.87,215.65c-.44,0-.38-.6,.05-.6s.38,.6-.05,.6Z"/><path class="g" d="M41.61,196.74c-.5,0-.43-.68,.06-.68s.43,.68-.06,.68Z"/><path class="g" d="M76.06,224.46c-.38,1.46-1.29,.29-1.39-.1-.23-.91,1.69-1.04,1.39,.1-.1,.38,.06-.22,0,0Z"/><path class="g" d="M74.8,210.74c-.17,.18-.89,.71-.94,.05-.08-1.17,1.49-.65,.94-.05-.05,.05,.21-.22,0,0Z"/><path class="g" d="M89.13,231.85c-.91-.07-1.21-1.38-.07-1.3,.82,.05,.99,1.37,.07,1.3-.14,0,.4,.03,0,0Z"/><path class="g" d="M74.22,248.71c-.6,0-.52-.82,.07-.82s.52,.82-.07,.82Z"/><path class="g" d="M84.75,254.55c-.29,.46-1.1,.14-.63-.2,.19-.14,.96-.32,.63,.2-.04,.07,.06-.1,0,0Z"/><path class="g" d="M93.69,246.14c-.16,.2-.9-.15-.59-.45,.27-.26,.71,.3,.59,.45-.12,.16,.12-.14,0,0Z"/><path class="g" d="M101.85,245.55c-.09,1.01-1.64,.59-1.67-.27-.04-.98,1.75-.59,1.67,.27-.04,.36,.02-.24,0,0Z"/><path class="g" d="M67.15,259.42c-.36,0-.31-.48,.05-.48s.31,.48-.05,.48Z"/><path class="g" d="M54.3,243.21c-.26,0-.23-.36,.03-.36s.23,.36-.03,.36Z"/><path class="g" d="M7.13,235.53c-.37,0-.32-.49,.05-.49s.31,.49-.05,.49Z"/><path class="g" d="M82.99,187.82c-.47,0-.4-.63,.06-.63s.4,.63-.06,.63Z"/><path class="g" d="M91.28,199.5c-.25,.53-1.04,.46-1.23-.03-.38-1.23,1.65-.89,1.23,.03-.22,.47,.05-.11,0,0Z"/><path class="g" d="M65.42,197.91c-.17-.05-.62-.17-.61-.38,.1-1.05,1.48,.63,.61,.38-.08-.02,.21,.06,0,0Z"/><path class="g" d="M66.03,184.06c-.51,0-.44-.7,.06-.7s.44,.7-.06,.7Z"/><path class="g" d="M81.69,179.24c-.44,0-.38-.6,.05-.6s.38,.6-.05,.6Z"/><path class="g" d="M64.54,169.7c-.48,0-.41-.66,.06-.66s.41,.66-.06,.66Z"/><path class="g" d="M88.48,171.47c-.22,.02-.92,.48-.94-.1-.05-1.01,1.91,0,.94,.1-.08,0,.36-.04,0,0Z"/><path class="g" d="M42.92,167.66c-.38,0-.33-.53,.05-.53s.33,.53-.05,.53Z"/><path class="g" d="M5.69,228.66c-.5,.63,.55-.7,0,0-.12,.15,.11-.13,0,0Z"/><path class="g" d="M67.15,248.57c.12-.08-1.62,.06-1.05-.63,.13-.99,2.01-.04,1.05,.63-.26,.18,.43-.3,0,0Z"/><path class="g" d="M30.73,245.01c-.27,1.23-1.87,.13-1.14-.34,.59-.37,.98-.26,1.14,.34-.04,.17,.05-.22,0,0Z"/><path class="g" d="M57.09,230.44c-.38,0-.33-.52,.05-.52s.33,.52-.05,.52Z"/></g><g class="e"><path class="g" d="M116.55,229.16c0-1.07-1.88-1.07-1.88,0s1.88,1.07,1.88,0Z"/><path class="g" d="M117.07,265.37c-.36,0-.31-.49,.04-.49s.31,.49-.04,.49Z"/><path class="g" d="M138.03,258.15c-.41,0-.35-.56,.05-.56s.35,.56-.05,.56Z"/><path class="g" d="M139.38,228.74c-.71,0-.61-.96,.09-.96s.61,.96-.09,.96Z"/><path class="g" d="M156.26,234.78c-.4,0-.35-.55,.05-.55s.35,.55-.05,.55Z"/><path class="g" d="M130.74,216.07c-.44,0-.38-.6,.06-.6s.38,.6-.06,.6Z"/><path class="g" d="M130.71,194.64c-.93,0-.8-1.26,.12-1.26s.8,1.26-.12,1.26Z"/><path class="g" d="M115,188.13c-.54,0-.47-.73,.07-.73s.46,.73-.07,.73Z"/><path class="g" d="M138.48,180.87c-.53,0-.46-.72,.07-.72s.46,.72-.07,.72Z"/><path class="g" d="M161.49,197.22c-.57,0-.49-.79,.08-.79s.5,.79-.08,.79Z"/><path class="g" d="M127.32,164.45c-.38,0-.33-.52,.05-.52s.33,.52-.05,.52Z"/><path class="g" d="M111.36,257.76c-.42,0-.36-.58,.05-.58s.37,.58-.05,.58Z"/></g></g><g><g><path class="g" d="M206.05,52.7c0-.88,1.54-.88,1.54,0s-1.54,.88-1.54,0Z"/><path class="g" d="M178.39,91.41c.47-.32,.13-1.06-.27-.6-.15,.17-.28,.97,.27,.6,.07-.05-.3,.2,0,0Z"/><path class="g" d="M205.63,82.31c.29,0,.25-.4-.04-.4s-.25,.4,.04,.4Z"/><path class="g" d="M188.48,76.41c.33,0,.29-.46-.04-.46s-.29,.46,.04,.46Z"/><path class="g" d="M163.83,78.73c.45,.48,.7,.13,.86-.08,1.95-.82-2.46-1.62-.86,.08,.21,.22-.34-.36,0,0Z"/><path class="g" d="M187.38,52.35c.58,0,.5-.78-.07-.78s-.5,.78,.07,.78Z"/><path class="g" d="M173.57,57.29c.33,0,.28-.45-.04-.45s-.28,.45,.04,.45Z"/><path class="g" d="M194.45,41.99c.36,0,.31-.49-.05-.49s-.31,.49,.05,.49Z"/><path class="g" d="M194.48,24.46c.75,0,.65-1.03-.1-1.03s-.65,1.03,.1,1.03Z"/><path class="g" d="M207.31,19.14c.44,0,.38-.6-.06-.6s-.38,.6,.06,.6Z"/><path class="g" d="M188.12,13.2c.43,0,.37-.59-.06-.59s-.38,.59,.06,.59Z"/><path class="g" d="M169.29,26.58c.47,0,.41-.64-.06-.64s-.4,.64,.06,.64Z"/><path class="g" d="M162.05,96.39c.88,0,.76-1.21-.11-1.21s-.77,1.21,.11,1.21Z"/><path class="g" d="M137.22,91.33c.46,.19,.78,0,.54-.44-.64-.36-.82-.22-.54,.44,.08,.03-.27-.12,0,0Z"/><path class="g" d="M139.09,85.17c.38,0,.33-.52-.05-.52s-.33,.52,.05,.52Z"/><path class="g" d="M116.28,96.37c.37,.51,1.51-.24,1.47-.63-.1-1.08-2.21-.38-1.47,.63,.17,.24-.15-.2,0,0Z"/><path class="g" d="M124.18,80.78c.46,0,.4-.62-.06-.62s-.39,.62,.06,.62Z"/><path class="g" d="M106.95,68.52c-.13,.28,1.35-.66,.21-.52-.2,.03-.8,.45-.21,.52Z"/><path class="g" d="M117.84,46.98c.44,0,.38-.59-.05-.59s-.38,.59,.05,.59Z"/><path class="g" d="M128.09,28.07c.5,0,.43-.68-.06-.68s-.43,.68,.06,.68Z"/><path class="g" d="M93.64,55.8c.38,1.47,1.29,.29,1.39-.1,.23-.9-1.69-1.04-1.39,.1,.1,.38-.06-.22,0,0Z"/><path class="g" d="M94.9,42.08c.17,.19,.89,.71,.94,.05,.08-1.17-1.49-.65-.94-.05,.05,.05-.21-.22,0,0Z"/><path class="g" d="M80.57,63.19c.91-.06,1.21-1.38,.07-1.3-.82,.05-.99,1.37-.07,1.3,.14,0-.4,.03,0,0Z"/><path class="g" d="M95.48,80.05c.6,0,.52-.82-.07-.82s-.52,.82,.07,.82Z"/><path class="g" d="M84.95,85.89c.29,.46,1.1,.14,.63-.21-.19-.14-.96-.31-.63,.21,.04,.06-.06-.1,0,0Z"/><path class="g" d="M76.01,77.48c.16,.2,.9-.15,.59-.45-.27-.26-.71,.3-.59,.45,.12,.16-.12-.15,0,0Z"/><path class="g" d="M67.85,76.89c.09,1.01,1.64,.58,1.67-.27,.04-.98-1.75-.59-1.67,.27,.04,.36-.02-.24,0,0Z"/><path class="g" d="M102.55,90.76c.36,0,.31-.48-.05-.48s-.31,.48,.05,.48Z"/><path class="g" d="M115.4,74.55c.26,0,.23-.36-.03-.36s-.23,.36,.03,.36Z"/><path class="g" d="M162.57,66.87c.37,0,.32-.5-.05-.5s-.31,.5,.05,.5Z"/><path class="g" d="M86.71,19.16c.47,0,.4-.63-.06-.63s-.4,.63,.06,.63Z"/><path class="g" d="M78.42,30.84c.25,.53,1.04,.46,1.23-.03,.38-1.23-1.65-.89-1.23,.03,.22,.47-.05-.11,0,0Z"/><path class="g" d="M104.28,29.25c.17-.05,.62-.17,.61-.38-.1-1.05-1.48,.63-.61,.38,.08-.02-.21,.06,0,0Z"/><path class="g" d="M103.67,15.4c.51,0,.44-.7-.06-.7s-.44,.7,.06,.7Z"/><path class="g" d="M88.01,10.57c.44,0,.38-.6-.05-.6s-.38,.6,.05,.6Z"/><path class="g" d="M105.16,1.05c.48,0,.41-.66-.06-.66s-.41,.66,.06,.66Z"/><path class="g" d="M81.22,2.81c.22,.02,.92,.48,.94-.1,.05-1.01-1.91,0-.94,.1,.08,0-.36-.04,0,0Z"/><path class="g" d="M164.01,60c.5,.64-.55-.69,0,0,.12,.15-.11-.13,0,0Z"/><path class="g" d="M188.13,85.5c.79,0,.41-2.02-.66-1.17-.43,.53-.21,.92,.66,1.17,.27,0-.48,0,0,0Z"/><path class="g" d="M188.12,93.63c.45,0,.38-.61-.06-.61s-.39,.61,.06,.61Z"/><path class="g" d="M210.29,76.09c.35,0,.3-.47-.04-.47s-.3,.47,.04,.47Z"/><path class="g" d="M102.55,79.91c-.12-.08,1.62,.06,1.05-.63-.13-.99-2.01-.04-1.05,.63,.26,.18-.43-.3,0,0Z"/><path class="g" d="M138.97,76.35c.27,1.23,1.87,.13,1.14-.34-.59-.37-.98-.26-1.14,.34,.04,.17-.05-.22,0,0Z"/><path class="g" d="M112.61,61.78c.38,0,.33-.52-.05-.52s-.33,.52,.05,.52Z"/></g><g><path class="g" d="M53.15,60.5c0-1.07,1.88-1.07,1.88,0s-1.88,1.07-1.88,0Z"/><path class="g" d="M52.63,96.71c.36,0,.31-.49-.04-.49s-.31,.49,.04,.49Z"/><path class="g" d="M31.67,89.49c.41,0,.35-.56-.05-.56s-.35,.56,.05,.56Z"/><path class="g" d="M30.32,60.08c.71,0,.61-.96-.09-.96s-.61,.96,.09,.96Z"/><path class="g" d="M13.44,66.12c.4,0,.35-.55-.05-.55s-.35,.55,.05,.55Z"/><path class="g" d="M38.96,47.41c.44,0,.38-.6-.06-.6s-.38,.6,.06,.6Z"/><path class="g" d="M38.99,25.98c.93,0,.8-1.26-.12-1.26s-.8,1.26,.12,1.26Z"/><path class="g" d="M54.7,19.47c.54,0,.47-.73-.07-.73s-.46,.73,.07,.73Z"/><path class="g" d="M31.22,12.21c.53,0,.46-.72-.07-.72s-.46,.72,.07,.72Z"/><path class="g" d="M8.21,28.56c.57,0,.49-.78-.08-.78s-.5,.78,.08,.78Z"/><path class="g" d="M58.34,89.1c.42,0,.36-.58-.05-.58s-.37,.58,.05,.58Z"/></g></g><g><g class="e"><path class="g" d="M6,20.72c0-.36,.49-.31,.49,.05s-.49,.31-.49-.05Z"/><path class="g" d="M23.52,20.69c0-.75,1.03-.65,1.03,.1s-1.03,.65-1.03-.1Z"/><path class="g" d="M28.84,7.86c0-.44,.6-.38,.6,.06s-.6,.38-.6-.06Z"/><path class="g" d="M34.78,27.05c0-.43,.59-.37,.59,.06s-.59,.38-.59-.06Z"/><path class="g" d="M21.41,45.88c0-.47,.64-.41,.64,.06s-.64,.4-.64-.06Z"/><path class="g" d="M1,97.34c0-.44,.6-.38,.6,.05s-.6,.38-.6-.05Z"/><path class="g" d="M19.91,87.08c0-.5,.68-.43,.68,.06s-.68,.43-.68-.06Z"/><path class="g" d="M5.9,120.27c-.18-.17-.71-.89-.05-.94,1.17-.08,.65,1.49,.05,.94-.05-.05,.22,.21,0,0Z"/><path class="g" d="M28.83,128.46c0-.47,.63-.4,.63,.06s-.63,.4-.63-.06Z"/><path class="g" d="M17.14,136.75c-.53-.25-.46-1.04,.03-1.23,1.23-.38,.89,1.65-.03,1.23-.47-.22,.11,.05,0,0Z"/><path class="g" d="M18.73,110.89c.05-.17,.17-.62,.38-.61,1.05,.1-.63,1.48-.38,.61,.02-.08-.06,.21,0,0Z"/><path class="g" d="M32.59,111.5c0-.51,.7-.44,.7,.06s-.7,.44-.7-.06Z"/><path class="g" d="M48.21,17.93c0-.31,.42-.27,.42,.04s-.42,.27-.42-.04Z"/><path class="g" d="M37.41,127.16c0-.44,.6-.38,.6,.05s-.6,.38-.6-.05Z"/><path class="g" d="M46.94,110.01c0-.48,.66-.41,.66,.06s-.66,.41-.66-.06Z"/><path class="g" d="M45.18,133.95c-.02-.22-.48-.92,.1-.94,1.01-.05,0,1.91-.1,.94,0-.08,.04,.36,0,0Z"/><path class="g" d="M48.98,88.39c0-.38,.53-.33,.53,.05s-.53,.33-.53-.05Z"/></g><g class="e"><path class="g" d="M.58,176.21c0-.44,.6-.38,.6,.06s-.6,.38-.6-.06Z"/><path class="g" d="M22.01,176.18c0-.93,1.26-.8,1.26,.12s-1.26,.8-1.26-.12Z"/><path class="g" d="M28.52,160.47c0-.54,.73-.47,.73,.07s-.73,.46-.73-.07Z"/><path class="g" d="M35.77,183.95c0-.53,.72-.46,.72,.07s-.72,.46-.72-.07Z"/><path class="g" d="M19.42,206.97c0-.57,.79-.49,.79,.08s-.79,.5-.79-.08Z"/><path class="g" d="M52.2,172.79c0-.38,.52-.33,.52,.05s-.52,.33-.52-.05Z"/></g></g><g><g><path class="g" d="M124.33,333.61c-.88,0-.88-1.54,0-1.54s.88,1.54,0,1.54Z"/><path class="g" d="M163.03,361.26c-.32-.47-1.06-.13-.6,.27,.17,.15,.97,.28,.6-.27-.05-.07,.2,.3,0,0Z"/><path class="g" d="M153.94,334.03c0-.29-.4-.25-.4,.04s.4,.25,.4-.04Z"/><path class="g" d="M148.04,351.17c0-.33-.46-.29-.46,.04s.46,.29,.46-.04Z"/><path class="g" d="M150.36,375.83c.48-.45,.13-.7-.08-.86-.82-1.95-1.62,2.46,.08,.86,.22-.21-.36,.34,0,0Z"/><path class="g" d="M123.98,352.28c0-.58-.78-.5-.78,.07s.78,.5,.78-.07Z"/><path class="g" d="M128.92,366.09c0-.33-.45-.28-.45,.04s.45,.28,.45-.04Z"/><path class="g" d="M113.61,345.21c0-.36-.49-.31-.49,.05s.49,.31,.49-.05Z"/><path class="g" d="M96.09,345.18c0-.75-1.03-.65-1.03,.1s1.03,.65,1.03-.1Z"/><path class="g" d="M90.77,332.34c0-.44-.6-.38-.6,.06s.6,.38,.6-.06Z"/><path class="g" d="M84.83,351.54c0-.43-.59-.37-.59,.06s.59,.38,.59-.06Z"/><path class="g" d="M98.2,370.37c0-.47-.64-.41-.64,.06s.64,.4,.64-.06Z"/><path class="g" d="M168.02,377.61c0-.88-1.21-.76-1.21,.11s1.21,.77,1.21-.11Z"/><path class="g" d="M162.96,402.44c.19-.46,0-.78-.44-.54-.36,.64-.22,.82,.44,.54,.03-.08-.12,.27,0,0Z"/><path class="g" d="M156.8,400.57c0-.38-.52-.33-.52,.05s.52,.33,.52-.05Z"/><path class="g" d="M168,423.38c.51-.37-.24-1.51-.63-1.47-1.08,.1-.38,2.21,.63,1.47,.24-.17-.2,.15,0,0Z"/><path class="g" d="M152.4,415.48c0-.46-.62-.4-.62,.06s.62,.39,.62-.06Z"/><path class="g" d="M140.15,432.71c.28,.13-.66-1.35-.52-.21,.03,.2,.45,.8,.52,.21Z"/><path class="g" d="M118.61,421.82c0-.44-.59-.38-.59,.05s.59,.38,.59-.05Z"/><path class="g" d="M99.7,411.56c0-.5-.68-.43-.68,.06s.68,.43,.68-.06Z"/><path class="g" d="M127.42,446.02c1.47-.38,.29-1.29-.1-1.39-.9-.23-1.04,1.69,.1,1.39,.38-.1-.22,.06,0,0Z"/><path class="g" d="M113.71,444.76c.19-.17,.71-.89,.05-.94-1.17-.08-.65,1.49-.05,.94,.05-.05-.22,.21,0,0Z"/><path class="g" d="M134.81,459.08c-.06-.91-1.38-1.21-1.3-.07,.05,.82,1.37,.99,1.3,.07,0-.14,.03,.4,0,0Z"/><path class="g" d="M151.68,444.18c0-.6-.82-.52-.82,.07s.82,.52,.82-.07Z"/><path class="g" d="M157.51,454.71c.46-.29,.14-1.1-.21-.63-.14,.19-.31,.96,.21,.63,.06-.04-.1,.06,0,0Z"/><path class="g" d="M149.1,463.65c.2-.16-.15-.9-.45-.59-.26,.27,.3,.71,.45,.59,.16-.12-.15,.12,0,0Z"/><path class="g" d="M148.52,471.8c1.01-.09,.58-1.64-.27-1.67-.98-.04-.59,1.75,.27,1.67,.36-.04-.24,.02,0,0Z"/><path class="g" d="M162.38,437.11c0-.36-.48-.31-.48,.05s.48,.31,.48-.05Z"/><path class="g" d="M146.17,424.26c0-.26-.36-.23-.36,.03s.36,.23,.36-.03Z"/><path class="g" d="M138.5,377.09c0-.37-.5-.32-.5,.05s.5,.31,.5-.05Z"/><path class="g" d="M90.78,452.95c0-.47-.63-.4-.63,.06s.63,.4,.63-.06Z"/><path class="g" d="M102.47,461.24c.53-.25,.46-1.04-.03-1.23-1.23-.38-.89,1.65,.03,1.23,.47-.22-.11,.05,0,0Z"/><path class="g" d="M100.88,435.38c-.05-.17-.17-.62-.38-.61-1.05,.1,.63,1.48,.38,.61-.02-.08,.06,.21,0,0Z"/><path class="g" d="M87.03,435.98c0-.51-.7-.44-.7,.06s.7,.44,.7-.06Z"/><path class="g" d="M71.4,342.42c0-.31-.42-.27-.42,.04s.42,.27,.42-.04Z"/><path class="g" d="M82.2,451.65c0-.44-.6-.38-.6,.05s.6,.38,.6-.05Z"/><path class="g" d="M72.67,434.49c0-.48-.66-.41-.66,.06s.66,.41,.66-.06Z"/><path class="g" d="M74.43,458.44c.02-.22,.48-.92-.1-.94-1.01-.05,0,1.91,.1,.94,0-.08-.04,.36,0,0Z"/><path class="g" d="M70.63,412.88c0-.38-.53-.33-.53,.05s.53,.33,.53-.05Z"/><path class="g" d="M131.63,375.64c.64-.5-.69,.55,0,0,.15-.12-.13,.11,0,0Z"/><path class="g" d="M157.12,351.53c0-.79-2.02-.41-1.17,.66,.53,.43,.92,.21,1.17-.66,0-.27,0,.48,0,0Z"/><path class="g" d="M165.25,351.54c0-.45-.61-.38-.61,.06s.61,.39,.61-.06Z"/><path class="g" d="M147.71,329.36c0-.35-.47-.3-.47,.04s.47,.3,.47-.04Z"/><path class="g" d="M151.54,437.11c-.08,.12,.06-1.62-.63-1.05-.99,.13-.04,2.01,.63,1.05,.18-.26-.3,.43,0,0Z"/><path class="g" d="M147.98,400.68c1.23-.27,.13-1.87-.34-1.14-.37,.59-.26,.98,.34,1.14,.17-.04-.22,.05,0,0Z"/><path class="g" d="M133.4,427.04c0-.38-.52-.33-.52,.05s.52,.33,.52-.05Z"/></g><g><path class="g" d="M132.13,486.51c-1.07,0-1.07-1.88,0-1.88s1.07,1.88,0,1.88Z"/><path class="g" d="M168.33,487.02c0-.36-.49-.31-.49,.04s.49,.31,.49-.04Z"/><path class="g" d="M91.09,484.96c0-.54-.73-.47-.73,.07s.73,.46,.73-.07Z"/><path class="g" d="M67.41,497.28c0-.38-.52-.33-.52,.05s.52,.33,.52-.05Z"/><path class="g" d="M160.72,481.32c0-.42-.58-.36-.58,.05s.58,.37,.58-.05Z"/></g></g><g><g class="e"><path class="g" d="M4.47,345.21c0-.36,.49-.31,.49,.05s-.49,.31-.49-.05Z"/><path class="g" d="M22,345.18c0-.75,1.03-.65,1.03,.1s-1.03,.65-1.03-.1Z"/><path class="g" d="M27.32,332.34c0-.44,.6-.38,.6,.06s-.6,.38-.6-.06Z"/><path class="g" d="M33.26,351.54c0-.43,.59-.37,.59,.06s-.59,.38-.59-.06Z"/><path class="g" d="M19.88,370.37c0-.47,.64-.41,.64,.06s-.64,.4-.64-.06Z"/><path class="g" d="M-.53,421.82c0-.44,.6-.38,.6,.05s-.6,.38-.6-.05Z"/><path class="g" d="M18.39,411.56c0-.5,.68-.43,.68,.06s-.68,.43-.68-.06Z"/><path class="g" d="M4.38,444.76c-.18-.17-.71-.89-.05-.94,1.17-.08,.65,1.49,.05,.94-.05-.05,.22,.21,0,0Z"/><path class="g" d="M27.31,452.95c0-.47,.63-.4,.63,.06s-.63,.4-.63-.06Z"/><path class="g" d="M15.62,461.24c-.53-.25-.46-1.04,.03-1.23,1.23-.38,.89,1.65-.03,1.23-.47-.22,.11,.05,0,0Z"/><path class="g" d="M17.21,435.38c.05-.17,.17-.62,.38-.61,1.05,.1-.63,1.48-.38,.61,.02-.08-.06,.21,0,0Z"/><path class="g" d="M31.06,435.98c0-.51,.7-.44,.7,.06s-.7,.44-.7-.06Z"/><path class="g" d="M46.69,342.42c0-.31,.42-.27,.42,.04s-.42,.27-.42-.04Z"/><path class="g" d="M35.89,451.65c0-.44,.6-.38,.6,.05s-.6,.38-.6-.05Z"/><path class="g" d="M45.42,434.49c0-.48,.66-.41,.66,.06s-.66,.41-.66-.06Z"/><path class="g" d="M43.65,458.44c-.02-.22-.48-.92,.1-.94,1.01-.05,0,1.91-.1,.94,0-.08,.04,.36,0,0Z"/><path class="g" d="M47.46,412.88c0-.38,.53-.33,.53,.05s-.53,.33-.53-.05Z"/></g><g class="e"><path class="g" d="M26.99,484.96c0-.54,.73-.47,.73,.07s-.73,.46-.73-.07Z"/><path class="g" d="M50.67,497.28c0-.38,.52-.33,.52,.05s-.52,.33-.52-.05Z"/></g></g></g><g><g><path class="g" d="M352.6,322.77c0,.88-1.54,.88-1.54,0s1.54-.88,1.54,0Z"/><path class="g" d="M380.26,284.06c-.47,.32-.13,1.06,.27,.6,.15-.17,.28-.97-.27-.6-.07,.05,.29-.2,0,0Z"/><path class="g" d="M353.02,293.16c-.29,0-.25,.4,.04,.4s.25-.4-.04-.4Z"/><path class="g" d="M370.17,299.06c-.33,0-.29,.46,.04,.46s.29-.46-.04-.46Z"/><path class="g" d="M394.83,296.73c-.45-.48-.7-.13-.86,.08-1.95,.82,2.46,1.62,.86-.08-.21-.22,.34,.36,0,0Z"/><path class="g" d="M371.27,323.12c-.58,0-.5,.78,.07,.78s.5-.78-.07-.78Z"/><path class="g" d="M385.08,318.18c-.33,0-.28,.45,.04,.45s.28-.45-.04-.45Z"/><path class="g" d="M364.2,333.48c-.36,0-.31,.49,.05,.49s.31-.49-.05-.49Z"/><path class="g" d="M364.17,351c-.75,0-.65,1.03,.1,1.03s.65-1.03-.1-1.03Z"/><path class="g" d="M351.34,356.33c-.44,0-.38,.6,.06,.6s.38-.6-.06-.6Z"/><path class="g" d="M370.53,362.27c-.43,0-.37,.59,.06,.59s.38-.59-.06-.59Z"/><path class="g" d="M389.36,348.89c-.47,0-.41,.64,.06,.64s.4-.64-.06-.64Z"/><path class="g" d="M396.6,279.08c-.88,0-.76,1.21,.11,1.21s.77-1.21-.11-1.21Z"/><path class="g" d="M421.44,284.14c-.46-.19-.78,0-.54,.44,.64,.36,.82,.22,.54-.44-.08-.03,.27,.12,0,0Z"/><path class="g" d="M419.56,290.3c-.38,0-.33,.52,.05,.52s.33-.52-.05-.52Z"/><path class="g" d="M442.37,279.1c-.37-.51-1.51,.24-1.47,.63,.1,1.08,2.21,.38,1.47-.63-.17-.24,.15,.2,0,0Z"/><path class="g" d="M434.47,294.69c-.46,0-.4,.62,.06,.62s.39-.62-.06-.62Z"/><path class="g" d="M451.7,306.95c.13-.28-1.35,.66-.21,.52,.2-.03,.8-.45,.21-.52Z"/><path class="g" d="M440.82,328.48c-.44,0-.38,.59,.05,.59s.38-.59-.05-.59Z"/><path class="g" d="M430.56,347.39c-.5,0-.43,.68,.06,.68s.43-.68-.06-.68Z"/><path class="g" d="M465.01,319.67c-.38-1.47-1.29-.29-1.39,.1-.23,.9,1.69,1.04,1.39-.1-.1-.38,.06,.22,0,0Z"/><path class="g" d="M463.75,333.39c-.17-.19-.89-.71-.94-.05-.08,1.17,1.49,.65,.94,.05-.05-.05,.21,.22,0,0Z"/><path class="g" d="M478.08,312.28c-.91,.06-1.21,1.38-.07,1.3,.82-.05,.99-1.37,.07-1.3-.14,0,.4-.03,0,0Z"/><path class="g" d="M463.17,295.42c-.6,0-.52,.82,.07,.82s.52-.82-.07-.82Z"/><path class="g" d="M473.7,289.58c-.29-.46-1.1-.14-.63,.21,.19,.14,.96,.31,.63-.21-.04-.06,.06,.1,0,0Z"/><path class="g" d="M482.64,297.99c-.16-.2-.9,.15-.59,.45,.27,.26,.71-.3,.59-.45-.12-.16,.12,.15,0,0Z"/><path class="g" d="M490.8,298.57c-.09-1.01-1.64-.58-1.67,.27-.04,.98,1.75,.59,1.67-.27-.04-.36,.02,.24,0,0Z"/><path class="g" d="M456.1,284.71c-.36,0-.31,.48,.05,.48s.31-.48-.05-.48Z"/><path class="g" d="M443.25,300.92c-.26,0-.23,.36,.03,.36s.23-.36-.03-.36Z"/><path class="g" d="M396.08,308.6c-.37,0-.32,.5,.05,.5s.31-.5-.05-.5Z"/><path class="g" d="M471.94,356.31c-.47,0-.4,.63,.06,.63s.4-.63-.06-.63Z"/><path class="g" d="M480.23,344.63c-.25-.53-1.04-.46-1.23,.03-.38,1.23,1.65,.89,1.23-.03-.22-.47,.05,.11,0,0Z"/><path class="g" d="M454.37,346.22c-.17,.05-.62,.17-.61,.38,.1,1.05,1.48-.63,.61-.38-.08,.02,.21-.06,0,0Z"/><path class="g" d="M454.98,360.07c-.51,0-.44,.7,.06,.7s.44-.7-.06-.7Z"/><path class="g" d="M361.41,375.7c-.31,0-.27,.42,.04,.42s.27-.42-.04-.42Z"/><path class="g" d="M470.64,364.89c-.44,0-.38,.6,.05,.6s.38-.6-.05-.6Z"/><path class="g" d="M453.49,374.42c-.48,0-.41,.66,.06,.66s.41-.66-.06-.66Z"/><path class="g" d="M477.43,372.66c-.22-.02-.92-.48-.94,.1-.05,1.01,1.91,0,.94-.1-.08,0,.36,.04,0,0Z"/><path class="g" d="M431.87,376.47c-.38,0-.33,.53,.05,.53s.33-.53-.05-.53Z"/><path class="g" d="M394.64,315.47c-.5-.64,.55,.69,0,0-.12-.15,.11,.13,0,0Z"/><path class="g" d="M370.53,289.97c-.79,0-.41,2.02,.66,1.17,.43-.53,.21-.92-.66-1.17-.27,0,.48,0,0,0Z"/><path class="g" d="M370.53,281.84c-.45,0-.38,.61,.06,.61s.39-.61-.06-.61Z"/><path class="g" d="M348.36,299.38c-.35,0-.3,.47,.04,.47s.3-.47-.04-.47Z"/><path class="g" d="M456.1,295.56c.12,.08-1.62-.06-1.05,.63,.13,.99,2.01,.04,1.05-.63-.26-.18,.43,.3,0,0Z"/><path class="g" d="M419.68,299.12c-.27-1.23-1.87-.13-1.14,.34,.59,.37,.98,.26,1.14-.34-.04-.17,.05,.22,0,0Z"/><path class="g" d="M446.04,313.69c-.38,0-.33,.52,.05,.52s.33-.52-.05-.52Z"/></g><g><g class="e"><path class="g" d="M477.6,227.04c.46-.19,.78,0,.54,.44-.64,.36-.82,.22-.54-.44,.08-.03-.27,.12,0,0Z"/><path class="g" d="M479.47,233.2c.38,0,.33,.52-.05,.52s-.33-.52,.05-.52Z"/><path class="g" d="M456.67,222c.37-.51,1.51,.24,1.47,.63-.1,1.07-2.21,.38-1.47-.63,.17-.24-.15,.2,0,0Z"/><path class="g" d="M464.56,237.59c.46,0,.4,.62-.06,.62s-.39-.62,.06-.62Z"/><path class="g" d="M447.33,249.85c-.13-.28,1.35,.66,.21,.52-.2-.03-.8-.45-.21-.52Z"/><path class="g" d="M458.22,271.39c.44,0,.38,.6-.05,.6s-.38-.6,.05-.6Z"/><path class="g" d="M468.48,290.3c.5,0,.43,.68-.06,.68s-.43-.68,.06-.68Z"/><path class="g" d="M434.03,262.57c.38-1.46,1.29-.29,1.39,.1,.23,.91-1.69,1.04-1.39-.1,.1-.38-.06,.22,0,0Z"/><path class="g" d="M435.29,276.29c.17-.18,.89-.71,.94-.05,.08,1.17-1.49,.65-.94,.05,.05-.05-.21,.22,0,0Z"/><path class="g" d="M420.96,255.18c.91,.07,1.21,1.38,.07,1.3-.82-.05-.99-1.37-.07-1.3,.14,0-.4-.03,0,0Z"/><path class="g" d="M435.86,238.32c.6,0,.52,.82-.07,.82s-.52-.82,.07-.82Z"/><path class="g" d="M425.33,232.48c.29-.46,1.1-.14,.63,.2-.19,.14-.96,.32-.63-.2,.04-.07-.06,.1,0,0Z"/><path class="g" d="M416.39,240.89c.16-.2,.9,.15,.59,.45-.27,.26-.71-.3-.59-.45,.12-.16-.12,.14,0,0Z"/><path class="g" d="M408.24,241.48c.09-1.01,1.64-.59,1.67,.27,.04,.98-1.75,.59-1.67-.27,.04-.36-.02,.24,0,0Z"/><path class="g" d="M442.93,227.61c.36,0,.31,.48-.05,.48s-.31-.48,.05-.48Z"/><path class="g" d="M455.79,243.82c.26,0,.23,.36-.03,.36s-.23-.36,.03-.36Z"/><path class="g" d="M427.09,299.22c.47,0,.4,.63-.06,.63s-.4-.63,.06-.63Z"/><path class="g" d="M418.81,287.53c.25-.53,1.04-.46,1.23,.03,.38,1.23-1.65,.89-1.23-.03,.22-.47-.05,.11,0,0Z"/><path class="g" d="M444.67,289.12c.17,.05,.62,.17,.61,.38-.1,1.05-1.48-.63-.61-.38,.08,.02-.21-.06,0,0Z"/><path class="g" d="M444.06,302.97c.51,0,.44,.7-.06,.7s-.44-.7,.06-.7Z"/><path class="g" d="M428.4,307.8c.44,0,.38,.6-.05,.6s-.38-.6,.05-.6Z"/><path class="g" d="M445.55,317.33c.48,0,.41,.66-.06,.66s-.41-.66,.06-.66Z"/><path class="g" d="M421.6,315.56c.22-.02,.92-.48,.94,.1,.05,1.01-1.91,0-.94-.1,.08,0-.36,.04,0,0Z"/><path class="g" d="M467.17,319.37c.38,0,.33,.53-.05,.53s-.33-.53,.05-.53Z"/><path class="g" d="M442.93,238.46c-.12,.08,1.62-.06,1.05,.63-.13,.99-2.01,.04-1.05-.63,.26-.18-.43,.3,0,0Z"/><path class="g" d="M479.36,242.02c.27-1.23,1.87-.13,1.14,.34-.59,.37-.98,.26-1.14-.34,.04-.17-.05,.22,0,0Z"/><path class="g" d="M453,256.59c.38,0,.33,.52-.05,.52s-.33-.52,.05-.52Z"/></g><g class="e"><path class="g" d="M393.54,257.87c0,1.07,1.88,1.07,1.88,0s-1.88-1.07-1.88,0Z"/><path class="g" d="M393.02,221.66c.36,0,.31,.49-.04,.49s-.31-.49,.04-.49Z"/><path class="g" d="M372.05,228.88c.41,0,.35,.56-.05,.56s-.35-.56,.05-.56Z"/><path class="g" d="M370.7,258.29c.71,0,.61,.96-.09,.96s-.61-.96,.09-.96Z"/><path class="g" d="M353.82,252.25c.4,0,.35,.55-.05,.55s-.35-.55,.05-.55Z"/><path class="g" d="M379.35,270.97c.44,0,.38,.6-.06,.6s-.38-.6,.06-.6Z"/><path class="g" d="M379.38,292.39c.93,0,.8,1.26-.12,1.26s-.8-1.26,.12-1.26Z"/><path class="g" d="M395.08,298.9c.54,0,.47,.73-.07,.73s-.46-.73,.07-.73Z"/><path class="g" d="M371.61,306.16c.53,0,.46,.72-.07,.72s-.46-.72,.07-.72Z"/><path class="g" d="M348.59,289.81c.57,0,.49,.79-.08,.79s-.5-.79,.08-.79Z"/><path class="g" d="M382.76,322.58c.38,0,.33,.52-.05,.52s-.33-.52,.05-.52Z"/><path class="g" d="M398.72,229.27c.42,0,.36,.58-.05,.58s-.37-.58,.05-.58Z"/></g></g><g><path class="g" d="M353.96,130.82c0,.88-1.54,.88-1.54,0s1.54-.88,1.54,0Z"/><path class="g" d="M381.62,92.12c-.47,.32-.13,1.06,.27,.6,.15-.17,.28-.97-.27-.6-.07,.05,.3-.2,0,0Z"/><path class="g" d="M354.38,101.22c-.29,0-.25,.4,.04,.4s.25-.4-.04-.4Z"/><path class="g" d="M371.53,107.12c-.33,0-.29,.46,.04,.46s.29-.46-.04-.46Z"/><path class="g" d="M396.19,104.79c-.45-.48-.7-.13-.86,.08-1.95,.82,2.46,1.62,.86-.08-.21-.22,.34,.36,0,0Z"/><path class="g" d="M372.64,131.18c-.58,0-.5,.78,.07,.78s.5-.78-.07-.78Z"/><path class="g" d="M386.44,126.23c-.33,0-.28,.45,.04,.45s.28-.45-.04-.45Z"/><path class="g" d="M365.56,141.54c-.36,0-.31,.49,.05,.49s.31-.49-.05-.49Z"/><path class="g" d="M365.53,159.06c-.75,0-.65,1.03,.1,1.03s.65-1.03-.1-1.03Z"/><path class="g" d="M352.7,164.39c-.44,0-.38,.6,.06,.6s.38-.6-.06-.6Z"/><path class="g" d="M371.89,170.32c-.43,0-.37,.59,.06,.59s.38-.59-.06-.59Z"/><path class="g" d="M390.72,156.95c-.47,0-.41,.64,.06,.64s.4-.64-.06-.64Z"/><path class="g" d="M397.97,87.13c-.88,0-.76,1.21,.11,1.21s.77-1.21-.11-1.21Z"/><path class="g" d="M422.8,92.19c-.46-.19-.78,0-.54,.44,.64,.36,.82,.22,.54-.44-.08-.03,.27,.12,0,0Z"/><path class="g" d="M420.93,98.35c-.38,0-.33,.52,.05,.52s.33-.52-.05-.52Z"/><path class="g" d="M443.73,87.15c-.37-.51-1.51,.24-1.47,.63,.1,1.08,2.21,.38,1.47-.63-.17-.24,.15,.2,0,0Z"/><path class="g" d="M435.84,102.75c-.46,0-.4,.62,.06,.62s.39-.62-.06-.62Z"/><path class="g" d="M453.06,115.01c.13-.28-1.35,.66-.21,.52,.2-.03,.8-.45,.21-.52Z"/><path class="g" d="M442.18,136.54c-.44,0-.38,.59,.05,.59s.38-.59-.05-.59Z"/><path class="g" d="M431.92,155.45c-.5,0-.43,.68,.06,.68s.43-.68-.06-.68Z"/><path class="g" d="M466.37,127.73c-.38-1.47-1.29-.29-1.39,.1-.23,.9,1.69,1.04,1.39-.1-.1-.38,.06,.22,0,0Z"/><path class="g" d="M465.11,141.45c-.17-.19-.89-.71-.94-.05-.08,1.17,1.49,.65,.94,.05-.05-.05,.21,.22,0,0Z"/><path class="g" d="M479.44,120.34c-.91,.06-1.21,1.38-.07,1.3,.82-.05,.99-1.37,.07-1.3-.14,0,.4-.03,0,0Z"/><path class="g" d="M464.54,103.48c-.6,0-.52,.82,.07,.82s.52-.82-.07-.82Z"/><path class="g" d="M475.06,97.64c-.29-.46-1.1-.14-.63,.21,.19,.14,.96,.31,.63-.21-.04-.06,.06,.1,0,0Z"/><path class="g" d="M484.01,106.05c-.16-.2-.9,.15-.59,.45,.27,.26,.71-.3,.59-.45-.12-.16,.12,.15,0,0Z"/><path class="g" d="M492.16,106.63c-.09-1.01-1.64-.58-1.67,.27-.04,.98,1.75,.59,1.67-.27-.04-.36,.02,.24,0,0Z"/><path class="g" d="M457.46,92.77c-.36,0-.31,.48,.05,.48s.31-.48-.05-.48Z"/><path class="g" d="M444.61,108.98c-.26,0-.23,.36,.03,.36s.23-.36-.03-.36Z"/><path class="g" d="M397.44,116.65c-.37,0-.32,.5,.05,.5s.31-.5-.05-.5Z"/><path class="g" d="M473.3,164.37c-.47,0-.4,.63,.06,.63s.4-.63-.06-.63Z"/><path class="g" d="M481.59,152.69c-.25-.53-1.04-.46-1.23,.03-.38,1.23,1.65,.89,1.23-.03-.22-.47,.05,.11,0,0Z"/><path class="g" d="M455.73,154.28c-.17,.05-.62,.17-.61,.38,.1,1.05,1.48-.63,.61-.38-.08,.02,.21-.06,0,0Z"/><path class="g" d="M456.34,168.13c-.51,0-.44,.7,.06,.7s.44-.7-.06-.7Z"/><path class="g" d="M362.77,183.76c-.31,0-.27,.42,.04,.42s.27-.42-.04-.42Z"/><path class="g" d="M472,172.95c-.44,0-.38,.6,.05,.6s.38-.6-.05-.6Z"/><path class="g" d="M454.85,182.48c-.48,0-.41,.66,.06,.66s.41-.66-.06-.66Z"/><path class="g" d="M478.8,180.72c-.22-.02-.92-.48-.94,.1-.05,1.01,1.91,0,.94-.1-.08,0,.36,.04,0,0Z"/><path class="g" d="M433.23,184.53c-.38,0-.33,.53,.05,.53s.33-.53-.05-.53Z"/><path class="g" d="M396,123.53c-.5-.64,.55,.69,0,0-.12-.15,.11,.13,0,0Z"/><path class="g" d="M371.89,98.03c-.79,0-.41,2.02,.66,1.17,.43-.53,.21-.92-.66-1.17-.27,0,.48,0,0,0Z"/><path class="g" d="M371.89,89.9c-.45,0-.38,.61,.06,.61s.39-.61-.06-.61Z"/><path class="g" d="M349.72,107.44c-.35,0-.3,.47,.04,.47s.3-.47-.04-.47Z"/><path class="g" d="M457.46,103.61c.12,.08-1.62-.06-1.05,.63,.13,.99,2.01,.04,1.05-.63-.26-.18,.43,.3,0,0Z"/><path class="g" d="M421.04,107.18c-.27-1.23-1.87-.13-1.14,.34,.59,.37,.98,.26,1.14-.34-.04-.17,.05,.22,0,0Z"/><path class="g" d="M447.4,121.75c-.38,0-.33,.52,.05,.52s.33-.52-.05-.52Z"/></g><g class="e"><path class="g" d="M353.96,201.35c0-.88-1.54-.88-1.54,0s1.54,.88,1.54,0Z"/><path class="g" d="M381.62,240.05c-.47-.32-.13-1.06,.27-.6,.15,.17,.28,.97-.27,.6-.07-.05,.3,.2,0,0Z"/><path class="g" d="M354.38,230.96c-.29,0-.25-.4,.04-.4s.25,.4-.04,.4Z"/><path class="g" d="M371.53,225.06c-.33,0-.29-.46,.04-.46s.29,.46-.04,.46Z"/><path class="g" d="M396.19,227.38c-.45,.48-.7,.13-.86-.08-1.95-.82,2.46-1.62,.86,.08-.21,.21,.34-.36,0,0Z"/><path class="g" d="M372.64,201c-.58,0-.5-.79,.07-.79s.5,.79-.07,.79Z"/><path class="g" d="M386.44,205.94c-.33,0-.28-.45,.04-.45s.28,.45-.04,.45Z"/><path class="g" d="M365.56,190.63c-.36,0-.31-.49,.05-.49s.31,.49-.05,.49Z"/><path class="g" d="M365.53,173.11c-.75,0-.65-1.03,.1-1.03s.65,1.03-.1,1.03Z"/><path class="g" d="M352.7,167.79c-.44,0-.38-.6,.06-.6s.38,.6-.06,.6Z"/><path class="g" d="M371.89,161.85c-.43,0-.37-.59,.06-.59s.38,.59-.06,.59Z"/><path class="g" d="M390.72,175.22c-.47,0-.41-.64,.06-.64s.4,.64-.06,.64Z"/><path class="g" d="M397.97,245.04c-.88,0-.76-1.21,.11-1.21s.77,1.21-.11,1.21Z"/><path class="g" d="M422.8,239.98c-.46,.19-.78,0-.54-.44,.64-.36,.82-.22,.54,.44-.08,.03,.27-.12,0,0Z"/><path class="g" d="M420.93,233.82c-.38,0-.33-.52,.05-.52s.33,.52-.05,.52Z"/><path class="g" d="M443.73,245.02c-.37,.51-1.51-.24-1.47-.63,.1-1.07,2.21-.38,1.47,.63-.17,.24,.15-.2,0,0Z"/><path class="g" d="M435.84,229.42c-.46,0-.4-.62,.06-.62s.39,.62-.06,.62Z"/><path class="g" d="M453.06,217.16c.13,.28-1.35-.66-.21-.52,.2,.03,.8,.45,.21,.52Z"/><path class="g" d="M442.18,195.63c-.44,0-.38-.6,.05-.6s.38,.6-.05,.6Z"/><path class="g" d="M431.92,176.72c-.5,0-.43-.68,.06-.68s.43,.68-.06,.68Z"/><path class="g" d="M466.37,204.44c-.38,1.46-1.29,.29-1.39-.1-.23-.91,1.69-1.04,1.39,.1-.1,.38,.06-.22,0,0Z"/><path class="g" d="M465.11,190.73c-.17,.18-.89,.71-.94,.05-.08-1.17,1.49-.65,.94-.05-.05,.05,.21-.22,0,0Z"/><path class="g" d="M479.44,211.83c-.91-.07-1.21-1.38-.07-1.3,.82,.05,.99,1.37,.07,1.3-.14,0,.4,.03,0,0Z"/><path class="g" d="M464.54,228.69c-.6,0-.52-.82,.07-.82s.52,.82-.07,.82Z"/><path class="g" d="M475.06,234.53c-.29,.46-1.1,.14-.63-.2,.19-.14,.96-.32,.63,.2-.04,.07,.06-.1,0,0Z"/><path class="g" d="M484.01,226.12c-.16,.2-.9-.15-.59-.45,.27-.26,.71,.3,.59,.45-.12,.16,.12-.14,0,0Z"/><path class="g" d="M492.16,225.54c-.09,1.01-1.64,.59-1.67-.27-.04-.98,1.75-.59,1.67,.27-.04,.36,.02-.24,0,0Z"/><path class="g" d="M457.46,239.4c-.36,0-.31-.48,.05-.48s.31,.48-.05,.48Z"/><path class="g" d="M444.61,223.19c-.26,0-.23-.36,.03-.36s.23,.36-.03,.36Z"/><path class="g" d="M397.44,215.52c-.37,0-.32-.49,.05-.49s.31,.49-.05,.49Z"/><path class="g" d="M473.3,167.8c-.47,0-.4-.63,.06-.63s.4,.63-.06,.63Z"/><path class="g" d="M481.59,179.49c-.25,.53-1.04,.46-1.23-.03-.38-1.23,1.65-.89,1.23,.03-.22,.47,.05-.11,0,0Z"/><path class="g" d="M455.73,177.9c-.17-.05-.62-.17-.61-.38,.1-1.05,1.48,.63,.61,.38-.08-.02,.21,.06,0,0Z"/><path class="g" d="M456.34,164.04c-.51,0-.44-.7,.06-.7s.44,.7-.06,.7Z"/><path class="g" d="M362.77,148.42c-.31,0-.27-.42,.04-.42s.27,.42-.04,.42Z"/><path class="g" d="M472,159.22c-.44,0-.38-.6,.05-.6s.38,.6-.05,.6Z"/><path class="g" d="M454.85,149.69c-.48,0-.41-.66,.06-.66s.41,.66-.06,.66Z"/><path class="g" d="M478.8,151.45c-.22,.02-.92,.48-.94-.1-.05-1.01,1.91,0,.94,.1-.08,0,.36-.04,0,0Z"/><path class="g" d="M433.23,147.64c-.38,0-.33-.53,.05-.53s.33,.53-.05,.53Z"/><path class="g" d="M396,208.65c-.5,.63,.55-.7,0,0-.12,.15,.11-.13,0,0Z"/><path class="g" d="M371.89,234.14c-.79,0-.41-2.02,.66-1.17,.43,.53,.21,.92-.66,1.17-.27,0,.48,0,0,0Z"/><path class="g" d="M371.89,242.27c-.45,0-.38-.61,.06-.61s.39,.61-.06,.61Z"/><path class="g" d="M349.72,224.73c-.35,0-.3-.47,.04-.47s.3,.47-.04,.47Z"/><path class="g" d="M457.46,228.56c.12-.08-1.62,.06-1.05-.63,.13-.99,2.01-.04,1.05,.63-.26,.18,.43-.3,0,0Z"/><path class="g" d="M421.04,225c-.27,1.23-1.87,.13-1.14-.34,.59-.37,.98-.26,1.14,.34-.04,.17,.05-.22,0,0Z"/><path class="g" d="M447.4,210.42c-.38,0-.33-.52,.05-.52s.33,.52-.05,.52Z"/></g><g><g><path class="g" d="M497.26,48.5c-.13,.28,1.35-.66,.21-.52-.2,.03-.8,.45-.21,.52Z"/><path class="g" d="M483.95,35.78c.38,1.47,1.29,.29,1.39-.1,.23-.9-1.69-1.04-1.39,.1,.1,.38-.06-.22,0,0Z"/><path class="g" d="M485.21,22.07c.17,.19,.89,.71,.94,.05,.08-1.17-1.49-.65-.94-.05,.05,.05-.21-.22,0,0Z"/><path class="g" d="M470.89,43.17c.91-.06,1.21-1.38,.07-1.3-.82,.05-.99,1.37-.07,1.3,.14,0-.4,.03,0,0Z"/><path class="g" d="M485.79,60.03c.6,0,.52-.82-.07-.82s-.52,.82,.07,.82Z"/><path class="g" d="M475.26,65.87c.29,.46,1.1,.14,.63-.21-.19-.14-.96-.31-.63,.21,.04,.06-.06-.1,0,0Z"/><path class="g" d="M466.32,57.46c.16,.2,.9-.15,.59-.45-.27-.26-.71,.3-.59,.45,.12,.16-.12-.15,0,0Z"/><path class="g" d="M458.16,56.88c.09,1.01,1.64,.58,1.67-.27,.04-.98-1.75-.59-1.67,.27,.04,.36-.02-.24,0,0Z"/><path class="g" d="M492.86,70.74c.36,0,.31-.48-.05-.48s-.31,.48,.05,.48Z"/><path class="g" d="M468.73,10.82c.25,.53,1.04,.46,1.23-.03,.38-1.23-1.65-.89-1.23,.03,.22,.47-.05-.11,0,0Z"/><path class="g" d="M494.59,9.24c.17-.05,.62-.17,.61-.38-.1-1.05-1.48,.63-.61,.38,.08-.02-.21,.06,0,0Z"/><path class="g" d="M492.86,59.9c-.12-.08,1.62,.06,1.05-.63-.13-.99-2.01-.04-1.05,.63,.26,.18-.43-.3,0,0Z"/></g><g><path class="g" d="M443.46,40.49c0-1.07,1.88-1.07,1.88,0s-1.88,1.07-1.88,0Z"/><path class="g" d="M442.95,76.69c.36,0,.31-.49-.04-.49s-.31,.49,.04,.49Z"/><path class="g" d="M421.98,69.47c.41,0,.35-.56-.05-.56s-.35,.56,.05,.56Z"/><path class="g" d="M420.63,40.06c.71,0,.61-.96-.09-.96s-.61,.96,.09,.96Z"/><path class="g" d="M403.75,46.1c.4,0,.35-.55-.05-.55s-.35,.55,.05,.55Z"/><path class="g" d="M429.28,27.39c.44,0,.38-.6-.06-.6s-.38,.6,.06,.6Z"/><path class="g" d="M429.31,5.96c.93,0,.8-1.26-.12-1.26s-.8,1.26,.12,1.26Z"/><path class="g" d="M398.52,8.54c.57,0,.49-.78-.08-.78s-.5,.78,.08,.78Z"/><path class="g" d="M448.65,69.08c.42,0,.36-.58-.05-.58s-.37,.58,.05,.58Z"/></g></g><g><g class="e"><path class="g" d="M346.89,16.76c.32-.47,1.06-.13,.6,.27-.17,.15-.97,.28-.6-.27,.05-.07-.2,.3,0,0Z"/><path class="g" d="M361.89,6.67c0-.33,.46-.29,.46,.04s-.46,.29-.46-.04Z"/><path class="g" d="M359.56,31.33c-.48-.45-.13-.7,.08-.86,.82-1.95,1.62,2.46-.08,.86-.21-.21,.36,.34,0,0Z"/><path class="g" d="M385.94,7.78c0-.58,.79-.5,.79,.07s-.79,.5-.79-.07Z"/><path class="g" d="M381,21.58c0-.33,.45-.28,.45,.04s-.45,.28-.45-.04Z"/><path class="g" d="M396.31,.71c0-.36,.49-.31,.49,.05s-.49,.31-.49-.05Z"/><path class="g" d="M413.83,.68c0-.75,1.03-.65,1.03,.1s-1.03,.65-1.03-.1Z"/><path class="g" d="M425.09,7.04c0-.43,.59-.37,.59,.06s-.59,.38-.59-.06Z"/><path class="g" d="M411.72,25.87c0-.47,.64-.41,.64,.06s-.64,.4-.64-.06Z"/><path class="g" d="M341.9,33.11c0-.88,1.21-.76,1.21,.11s-1.21,.77-1.21-.11Z"/><path class="g" d="M346.96,57.94c-.19-.46,0-.78,.44-.54,.36,.64,.22,.82-.44,.54-.03-.08,.12,.27,0,0Z"/><path class="g" d="M353.12,56.07c0-.38,.52-.33,.52,.05s-.52,.33-.52-.05Z"/><path class="g" d="M341.92,78.87c-.51-.37,.24-1.51,.63-1.47,1.07,.1,.38,2.21-.63,1.47-.24-.17,.2,.15,0,0Z"/><path class="g" d="M357.52,70.98c0-.46,.62-.4,.62,.06s-.62,.39-.62-.06Z"/><path class="g" d="M369.78,88.21c-.28,.13,.66-1.35,.52-.21-.03,.2-.45,.8-.52,.21Z"/><path class="g" d="M391.31,77.32c0-.44,.6-.38,.6,.05s-.6,.38-.6-.05Z"/><path class="g" d="M410.22,67.06c0-.5,.68-.43,.68,.06s-.68,.43-.68-.06Z"/><path class="g" d="M382.5,101.51c-1.46-.38-.29-1.29,.1-1.39,.91-.23,1.04,1.69-.1,1.39-.38-.1,.22,.06,0,0Z"/><path class="g" d="M396.21,100.25c-.18-.17-.71-.89-.05-.94,1.17-.08,.65,1.49,.05,.94-.05-.05,.22,.21,0,0Z"/><path class="g" d="M375.11,114.58c.07-.91,1.38-1.21,1.3-.07-.05,.82-1.37,.99-1.3,.07,0-.14-.03,.4,0,0Z"/><path class="g" d="M358.25,99.68c0-.6,.82-.52,.82,.07s-.82,.52-.82-.07Z"/><path class="g" d="M352.41,110.21c-.46-.29-.14-1.1,.2-.63,.14,.19,.32,.96-.2,.63-.07-.04,.1,.06,0,0Z"/><path class="g" d="M360.82,119.15c-.2-.16,.15-.9,.45-.59,.26,.27-.3,.71-.45,.59-.16-.12,.14,.12,0,0Z"/><path class="g" d="M361.4,127.3c-1.01-.09-.59-1.64,.27-1.67,.98-.04,.59,1.75-.27,1.67-.36-.04,.24,.02,0,0Z"/><path class="g" d="M347.54,92.61c0-.36,.48-.31,.48,.05s-.48,.31-.48-.05Z"/><path class="g" d="M363.75,79.75c0-.26,.36-.23,.36,.03s-.36,.23-.36-.03Z"/><path class="g" d="M371.42,32.58c0-.37,.49-.32,.49,.05s-.49,.31-.49-.05Z"/><path class="g" d="M419.14,108.45c0-.47,.63-.4,.63,.06s-.63,.4-.63-.06Z"/><path class="g" d="M407.45,116.73c-.53-.25-.46-1.04,.03-1.23,1.23-.38,.89,1.65-.03,1.23-.47-.22,.11,.05,0,0Z"/><path class="g" d="M409.04,90.87c.05-.17,.17-.62,.38-.61,1.05,.1-.63,1.48-.38,.61,.02-.08-.06,.21,0,0Z"/><path class="g" d="M422.9,91.48c0-.51,.7-.44,.7,.06s-.7,.44-.7-.06Z"/><path class="g" d="M427.72,107.14c0-.44,.6-.38,.6,.05s-.6,.38-.6-.05Z"/><path class="g" d="M437.25,89.99c0-.48,.66-.41,.66,.06s-.66,.41-.66-.06Z"/><path class="g" d="M435.49,113.94c-.02-.22-.48-.92,.1-.94,1.01-.05,0,1.91-.1,.94,0-.08,.04,.36,0,0Z"/><path class="g" d="M439.3,68.37c0-.38,.53-.33,.53,.05s-.53,.33-.53-.05Z"/><path class="g" d="M378.3,31.14c-.63-.5,.7,.55,0,0-.15-.12,.13,.11,0,0Z"/><path class="g" d="M352.8,7.03c0-.79,2.02-.41,1.17,.66-.53,.43-.92,.21-1.17-.66,0-.27,0,.48,0,0Z"/><path class="g" d="M344.67,7.04c0-.45,.61-.38,.61,.06s-.61,.39-.61-.06Z"/><path class="g" d="M358.38,92.61c.08,.12-.06-1.62,.63-1.05,.99,.13,.04,2.01-.63,1.05-.18-.26,.3,.43,0,0Z"/><path class="g" d="M361.94,56.18c-1.23-.27-.13-1.87,.34-1.14,.37,.59,.26,.98-.34,1.14-.17-.04,.22,.05,0,0Z"/><path class="g" d="M376.52,82.54c0-.38,.52-.33,.52,.05s-.52,.33-.52-.05Z"/></g><g class="e"><path class="g" d="M377.79,142c1.07,0,1.07-1.88,0-1.88s-1.07,1.88,0,1.88Z"/><path class="g" d="M341.59,142.52c0-.36,.49-.31,.49,.04s-.49,.31-.49-.04Z"/><path class="g" d="M348.81,163.49c0-.41,.56-.35,.56,.05s-.56,.35-.56-.05Z"/><path class="g" d="M378.22,164.83c0-.71,.96-.61,.96,.09s-.96,.61-.96-.09Z"/><path class="g" d="M372.18,181.72c0-.4,.55-.35,.55,.05s-.55,.35-.55-.05Z"/><path class="g" d="M390.89,156.19c0-.44,.6-.38,.6,.06s-.6,.38-.6-.06Z"/><path class="g" d="M412.32,156.16c0-.93,1.26-.8,1.26,.12s-1.26,.8-1.26-.12Z"/><path class="g" d="M418.83,140.46c0-.54,.73-.47,.73,.07s-.73,.46-.73-.07Z"/><path class="g" d="M426.09,163.93c0-.53,.72-.46,.72,.07s-.72,.46-.72-.07Z"/><path class="g" d="M409.74,186.95c0-.57,.79-.49,.79,.08s-.79,.5-.79-.08Z"/><path class="g" d="M442.51,152.78c0-.38,.52-.33,.52,.05s-.52,.33-.52-.05Z"/><path class="g" d="M349.2,136.82c0-.42,.58-.36,.58,.05s-.58,.37-.58-.05Z"/></g></g><g><g><path class="g" d="M486.4,325.16c0-.75-1.03-.65-1.03,.1s1.03,.65,1.03-.1Z"/><path class="g" d="M481.08,312.33c0-.44-.6-.38-.6,.06s.6,.38,.6-.06Z"/><path class="g" d="M475.14,331.52c0-.43-.59-.37-.59,.06s.59,.38,.59-.06Z"/><path class="g" d="M488.51,350.35c0-.47-.64-.41-.64,.06s.64,.4,.64-.06Z"/><path class="g" d="M490.01,391.55c0-.5-.68-.43-.68,.06s.68,.43,.68-.06Z"/><path class="g" d="M481.09,432.93c0-.47-.63-.4-.63,.06s.63,.4,.63-.06Z"/><path class="g" d="M492.78,441.22c.53-.25,.46-1.04-.03-1.23-1.23-.38-.89,1.65,.03,1.23,.47-.22-.11,.05,0,0Z"/><path class="g" d="M491.19,415.36c-.05-.17-.17-.62-.38-.61-1.05,.1,.63,1.48,.38,.61-.02-.08,.06,.21,0,0Z"/><path class="g" d="M477.34,415.97c0-.51-.7-.44-.7,.06s.7,.44,.7-.06Z"/><path class="g" d="M461.71,322.4c0-.31-.42-.27-.42,.04s.42,.27,.42-.04Z"/><path class="g" d="M472.51,431.63c0-.44-.6-.38-.6,.05s.6,.38,.6-.05Z"/><path class="g" d="M462.98,414.48c0-.48-.66-.41-.66,.06s.66,.41,.66-.06Z"/><path class="g" d="M464.74,438.43c.02-.22,.48-.92-.1-.94-1.01-.05,0,1.91,.1,.94,0-.08-.04,.36,0,0Z"/><path class="g" d="M460.94,392.86c0-.38-.53-.33-.53,.05s.53,.33,.53-.05Z"/></g><g><path class="g" d="M487.92,480.65c0-.93-1.26-.8-1.26,.12s1.26,.8,1.26-.12Z"/><path class="g" d="M481.41,464.95c0-.54-.73-.47-.73,.07s.73,.46,.73-.07Z"/><path class="g" d="M474.15,488.42c0-.53-.72-.46-.72,.07s.72,.46,.72-.07Z"/><path class="g" d="M457.73,477.26c0-.38-.52-.33-.52,.05s.52,.33,.52-.05Z"/></g></g><g><g class="e"><path class="g" d="M384.07,313.59c.88,0,.88-1.54,0-1.54s-.88,1.54,0,1.54Z"/><path class="g" d="M345.36,341.25c.32-.47,1.06-.13,.6,.27-.17,.15-.97,.28-.6-.27,.05-.07-.2,.3,0,0Z"/><path class="g" d="M354.46,314.01c0-.29,.4-.25,.4,.04s-.4,.25-.4-.04Z"/><path class="g" d="M360.36,331.16c0-.33,.46-.29,.46,.04s-.46,.29-.46-.04Z"/><path class="g" d="M358.04,355.82c-.48-.45-.13-.7,.08-.86,.82-1.95,1.62,2.46-.08,.86-.21-.21,.36,.34,0,0Z"/><path class="g" d="M384.42,332.26c0-.58,.79-.5,.79,.07s-.79,.5-.79-.07Z"/><path class="g" d="M379.48,346.07c0-.33,.45-.28,.45,.04s-.45,.28-.45-.04Z"/><path class="g" d="M394.79,325.19c0-.36,.49-.31,.49,.05s-.49,.31-.49-.05Z"/><path class="g" d="M412.31,325.16c0-.75,1.03-.65,1.03,.1s-1.03,.65-1.03-.1Z"/><path class="g" d="M417.63,312.33c0-.44,.6-.38,.6,.06s-.6,.38-.6-.06Z"/><path class="g" d="M423.57,331.52c0-.43,.59-.37,.59,.06s-.59,.38-.59-.06Z"/><path class="g" d="M410.2,350.35c0-.47,.64-.41,.64,.06s-.64,.4-.64-.06Z"/><path class="g" d="M340.38,357.6c0-.88,1.21-.76,1.21,.11s-1.21,.77-1.21-.11Z"/><path class="g" d="M345.44,382.43c-.19-.46,0-.78,.44-.54,.36,.64,.22,.82-.44,.54-.03-.08,.12,.27,0,0Z"/><path class="g" d="M351.6,380.56c0-.38,.52-.33,.52,.05s-.52,.33-.52-.05Z"/><path class="g" d="M340.4,403.36c-.51-.37,.24-1.51,.63-1.47,1.07,.1,.38,2.21-.63,1.47-.24-.17,.2,.15,0,0Z"/><path class="g" d="M356,395.46c0-.46,.62-.4,.62,.06s-.62,.39-.62-.06Z"/><path class="g" d="M368.25,412.69c-.28,.13,.66-1.35,.52-.21-.03,.2-.45,.8-.52,.21Z"/><path class="g" d="M389.79,401.81c0-.44,.6-.38,.6,.05s-.6,.38-.6-.05Z"/><path class="g" d="M408.7,391.55c0-.5,.68-.43,.68,.06s-.68,.43-.68-.06Z"/><path class="g" d="M380.97,426c-1.46-.38-.29-1.29,.1-1.39,.91-.23,1.04,1.69-.1,1.39-.38-.1,.22,.06,0,0Z"/><path class="g" d="M394.69,424.74c-.18-.17-.71-.89-.05-.94,1.17-.08,.65,1.49,.05,.94-.05-.05,.22,.21,0,0Z"/><path class="g" d="M373.58,439.07c.07-.91,1.38-1.21,1.3-.07-.05,.82-1.37,.99-1.3,.07,0-.14-.03,.4,0,0Z"/><path class="g" d="M356.72,424.17c0-.6,.82-.52,.82,.07s-.82,.52-.82-.07Z"/><path class="g" d="M350.89,434.69c-.46-.29-.14-1.1,.2-.63,.14,.19,.32,.96-.2,.63-.07-.04,.1,.06,0,0Z"/><path class="g" d="M359.3,443.63c-.2-.16,.15-.9,.45-.59,.26,.27-.3,.71-.45,.59-.16-.12,.14,.12,0,0Z"/><path class="g" d="M359.88,451.79c-1.01-.09-.59-1.64,.27-1.67,.98-.04,.59,1.75-.27,1.67-.36-.04,.24,.02,0,0Z"/><path class="g" d="M346.01,417.09c0-.36,.48-.31,.48,.05s-.48,.31-.48-.05Z"/><path class="g" d="M362.22,404.24c0-.26,.36-.23,.36,.03s-.36,.23-.36-.03Z"/><path class="g" d="M369.9,357.07c0-.37,.49-.32,.49,.05s-.49,.31-.49-.05Z"/><path class="g" d="M417.62,432.93c0-.47,.63-.4,.63,.06s-.63,.4-.63-.06Z"/><path class="g" d="M405.93,441.22c-.53-.25-.46-1.04,.03-1.23,1.23-.38,.89,1.65-.03,1.23-.47-.22,.11,.05,0,0Z"/><path class="g" d="M407.52,415.36c.05-.17,.17-.62,.38-.61,1.05,.1-.63,1.48-.38,.61,.02-.08-.06,.21,0,0Z"/><path class="g" d="M421.37,415.97c0-.51,.7-.44,.7,.06s-.7,.44-.7-.06Z"/><path class="g" d="M437,322.4c0-.31,.42-.27,.42,.04s-.42,.27-.42-.04Z"/><path class="g" d="M426.2,431.63c0-.44,.6-.38,.6,.05s-.6,.38-.6-.05Z"/><path class="g" d="M435.73,414.48c0-.48,.66-.41,.66,.06s-.66,.41-.66-.06Z"/><path class="g" d="M433.97,438.43c-.02-.22-.48-.92,.1-.94,1.01-.05,0,1.91-.1,.94,0-.08,.04,.36,0,0Z"/><path class="g" d="M437.77,392.86c0-.38,.53-.33,.53,.05s-.53,.33-.53-.05Z"/><path class="g" d="M376.77,355.63c-.63-.5,.7,.55,0,0-.15-.12,.13,.11,0,0Z"/><path class="g" d="M351.28,331.52c0-.79,2.02-.41,1.17,.66-.53,.43-.92,.21-1.17-.66,0-.27,0,.48,0,0Z"/><path class="g" d="M343.15,331.52c0-.45,.61-.38,.61,.06s-.61,.39-.61-.06Z"/><path class="g" d="M360.69,309.35c0-.35,.47-.3,.47,.04s-.47,.3-.47-.04Z"/><path class="g" d="M356.86,417.09c.08,.12-.06-1.62,.63-1.05,.99,.13,.04,2.01-.63,1.05-.18-.26,.3,.43,0,0Z"/><path class="g" d="M360.42,380.67c-1.23-.27-.13-1.87,.34-1.14,.37,.59,.26,.98-.34,1.14-.17-.04,.22,.05,0,0Z"/><path class="g" d="M375,407.03c0-.38,.52-.33,.52,.05s-.52,.33-.52-.05Z"/></g><g class="e"><path class="g" d="M376.27,466.49c1.07,0,1.07-1.88,0-1.88s-1.07,1.88,0,1.88Z"/><path class="g" d="M340.06,467.01c0-.36,.49-.31,.49,.04s-.49,.31-.49-.04Z"/><path class="g" d="M347.28,487.97c0-.41,.56-.35,.56,.05s-.56,.35-.56-.05Z"/><path class="g" d="M376.7,489.32c0-.71,.96-.61,.96,.09s-.96,.61-.96-.09Z"/><path class="g" d="M389.37,480.68c0-.44,.6-.38,.6,.06s-.6,.38-.6-.06Z"/><path class="g" d="M410.79,480.65c0-.93,1.26-.8,1.26,.12s-1.26,.8-1.26-.12Z"/><path class="g" d="M417.3,464.95c0-.54,.73-.47,.73,.07s-.73,.46-.73-.07Z"/><path class="g" d="M424.56,488.42c0-.53,.72-.46,.72,.07s-.72,.46-.72-.07Z"/><path class="g" d="M440.99,477.26c0-.38,.52-.33,.52,.05s-.52,.33-.52-.05Z"/><path class="g" d="M347.67,461.3c0-.42,.58-.36,.58,.05s-.58,.37-.58-.05Z"/></g></g></g></g></g></g></svg>