<?xml version="1.0" encoding="UTF-8"?><svg xmlns="http://www.w3.org/2000/svg" xmlns:xlink="http://www.w3.org/1999/xlink" viewBox="0 0 203.15 294.2"><defs><style>.e{isolation:isolate;}.f{clip-path:url(#b);}.g,.h{mix-blend-mode:screen;}.i{clip-path:url(#d);}.j{fill:none;}.h{fill:url(#c);}.k{fill:#f4f2d2;}</style><clipPath id="b"><rect class="j" x="-229.22" y="332.82" width="203.15" height="294.2"/></clipPath><radialGradient id="c" cx="-124.47" cy="423.35" fx="-124.47" fy="423.35" r="227.98" gradientTransform="matrix(1, 0, 0, 1, 0, 0)" gradientUnits="userSpaceOnUse"><stop offset=".33" stop-color="#fff"/><stop offset=".34" stop-color="#fff" stop-opacity=".8"/><stop offset=".36" stop-color="#fff" stop-opacity=".61"/><stop offset=".37" stop-color="#fff" stop-opacity=".45"/><stop offset=".39" stop-color="#fff" stop-opacity=".31"/><stop offset=".4" stop-color="#fff" stop-opacity=".2"/><stop offset=".42" stop-color="#fff" stop-opacity=".11"/><stop offset=".44" stop-color="#fff" stop-opacity=".05"/><stop offset=".46" stop-color="#fff" stop-opacity=".01"/><stop offset=".49" stop-color="#fff" stop-opacity="0"/></radialGradient><clipPath id="d"><rect class="j" x="0" width="203.15" height="294.2"/></clipPath></defs><g class="e"><g id="a"><g class="f"><circle class="h" cx="-124.47" cy="423.35" r="144.15"/></g><g class="i"><g><g><g><path class="k" d="M4.65,236.77c0,.88-1.54,.88-1.54,0s1.54-.88,1.54,0Z"/><path class="k" d="M32.31,198.07c-.47,.32-.13,1.06,.27,.6,.15-.17,.28-.97-.27-.6-.07,.05,.29-.2,0,0Z"/><path class="k" d="M5.08,207.16c-.29,0-.25,.4,.04,.4s.25-.4-.04-.4Z"/><path class="k" d="M22.22,213.06c-.33,0-.29,.46,.04,.46s.29-.46-.04-.46Z"/><path class="k" d="M46.88,210.74c-.45-.48-.7-.13-.86,.08-1.95,.82,2.46,1.62,.86-.08-.21-.22,.34,.36,0,0Z"/><path class="k" d="M23.33,237.12c-.58,0-.5,.78,.07,.78s.5-.78-.07-.78Z"/><path class="k" d="M37.14,232.18c-.33,0-.28,.45,.04,.45s.28-.45-.04-.45Z"/><path class="k" d="M16.26,247.49c-.36,0-.31,.49,.05,.49s.31-.49-.05-.49Z"/><path class="k" d="M16.23,265.01c-.75,0-.65,1.03,.1,1.03s.65-1.03-.1-1.03Z"/><path class="k" d="M3.39,270.33c-.44,0-.38,.6,.06,.6s.38-.6-.06-.6Z"/><path class="k" d="M22.59,276.27c-.43,0-.37,.59,.06,.59s.38-.59-.06-.59Z"/><path class="k" d="M41.42,262.9c-.47,0-.41,.64,.06,.64s.4-.64-.06-.64Z"/><path class="k" d="M48.66,193.08c-.88,0-.76,1.21,.11,1.21s.77-1.21-.11-1.21Z"/><path class="k" d="M73.49,198.14c-.46-.19-.78,0-.54,.44,.64,.36,.82,.22,.54-.44-.08-.03,.27,.12,0,0Z"/><path class="k" d="M71.62,204.3c-.38,0-.33,.52,.05,.52s.33-.52-.05-.52Z"/><path class="k" d="M94.43,193.1c-.37-.51-1.51,.24-1.47,.63,.1,1.08,2.21,.38,1.47-.63-.17-.24,.15,.2,0,0Z"/><path class="k" d="M86.53,208.7c-.46,0-.4,.62,.06,.62s.39-.62-.06-.62Z"/><path class="k" d="M103.76,220.96c.13-.28-1.35,.66-.21,.52,.2-.03,.8-.45,.21-.52Z"/><path class="k" d="M92.87,242.49c-.44,0-.38,.59,.05,.59s.38-.59-.05-.59Z"/><path class="k" d="M82.61,261.4c-.5,0-.43,.68,.06,.68s.43-.68-.06-.68Z"/><path class="k" d="M117.06,233.68c-.38-1.47-1.29-.29-1.39,.1-.23,.9,1.69,1.04,1.39-.1-.1-.38,.06,.22,0,0Z"/><path class="k" d="M115.8,247.39c-.17-.19-.89-.71-.94-.05-.08,1.17,1.49,.65,.94,.05-.05-.05,.21,.22,0,0Z"/><path class="k" d="M130.13,226.29c-.91,.06-1.21,1.38-.07,1.3,.82-.05,.99-1.37,.07-1.3-.14,0,.4-.03,0,0Z"/><path class="k" d="M115.23,209.43c-.6,0-.52,.82,.07,.82s.52-.82-.07-.82Z"/><path class="k" d="M125.76,203.59c-.29-.46-1.1-.14-.63,.21,.19,.14,.96,.31,.63-.21-.04-.06,.06,.1,0,0Z"/><path class="k" d="M134.7,212c-.16-.2-.9,.15-.59,.45,.27,.26,.71-.3,.59-.45-.12-.16,.12,.15,0,0Z"/><path class="k" d="M142.85,212.58c-.09-1.01-1.64-.58-1.67,.27-.04,.98,1.75,.59,1.67-.27-.04-.36,.02,.24,0,0Z"/><path class="k" d="M108.16,198.72c-.36,0-.31,.48,.05,.48s.31-.48-.05-.48Z"/><path class="k" d="M95.3,214.93c-.26,0-.23,.36,.03,.36s.23-.36-.03-.36Z"/><path class="k" d="M48.14,222.6c-.37,0-.32,.5,.05,.5s.31-.5-.05-.5Z"/><path class="k" d="M124,270.32c-.47,0-.4,.63,.06,.63s.4-.63-.06-.63Z"/><path class="k" d="M132.28,258.63c-.25-.53-1.04-.46-1.23,.03-.38,1.23,1.65,.89,1.23-.03-.22-.47,.05,.11,0,0Z"/><path class="k" d="M106.43,260.22c-.17,.05-.62,.17-.61,.38,.1,1.05,1.48-.63,.61-.38-.08,.02,.21-.06,0,0Z"/><path class="k" d="M107.03,274.08c-.51,0-.44,.7,.06,.7s.44-.7-.06-.7Z"/><path class="k" d="M13.47,289.7c-.31,0-.27,.42,.04,.42s.27-.42-.04-.42Z"/><path class="k" d="M122.7,278.9c-.44,0-.38,.6,.05,.6s.38-.6-.05-.6Z"/><path class="k" d="M105.54,288.43c-.48,0-.41,.66,.06,.66s.41-.66-.06-.66Z"/><path class="k" d="M129.49,286.67c-.22-.02-.92-.48-.94,.1-.05,1.01,1.91,0,.94-.1-.08,0,.36,.04,0,0Z"/><path class="k" d="M83.92,290.47c-.38,0-.33,.53,.05,.53s.33-.53-.05-.53Z"/><path class="k" d="M46.69,229.47c-.5-.64,.55,.69,0,0-.12-.15,.11,.13,0,0Z"/><path class="k" d="M22.58,203.98c-.79,0-.41,2.02,.66,1.17,.43-.53,.21-.92-.66-1.17-.27,0,.48,0,0,0Z"/><path class="k" d="M22.59,195.85c-.45,0-.38,.61,.06,.61s.39-.61-.06-.61Z"/><path class="k" d="M.41,213.39c-.35,0-.3,.47,.04,.47s.3-.47-.04-.47Z"/><path class="k" d="M108.16,209.56c.12,.08-1.62-.06-1.05,.63,.13,.99,2.01,.04,1.05-.63-.26-.18,.43,.3,0,0Z"/><path class="k" d="M71.73,213.12c-.27-1.23-1.87-.13-1.14,.34,.59,.37,.98,.26,1.14-.34-.04-.17,.05,.22,0,0Z"/><path class="k" d="M98.09,227.7c-.38,0-.33,.52,.05,.52s.33-.52-.05-.52Z"/></g><g><path class="k" d="M157.55,228.97c0,1.07-1.88,1.07-1.88,0s1.88-1.07,1.88,0Z"/><path class="k" d="M158.07,192.77c-.36,0-.31,.49,.04,.49s.31-.49-.04-.49Z"/><path class="k" d="M179.04,199.99c-.41,0-.35,.56,.05,.56s.35-.56-.05-.56Z"/><path class="k" d="M180.39,229.4c-.71,0-.61,.96,.09,.96s.61-.96-.09-.96Z"/><path class="k" d="M197.27,223.36c-.4,0-.35,.55,.05,.55s.35-.55-.05-.55Z"/><path class="k" d="M171.74,242.07c-.44,0-.38,.6,.06,.6s.38-.6-.06-.6Z"/><path class="k" d="M171.71,263.5c-.93,0-.8,1.26,.12,1.26s.8-1.26-.12-1.26Z"/><path class="k" d="M156.01,270.01c-.54,0-.47,.73,.07,.73s.46-.73-.07-.73Z"/><path class="k" d="M179.48,277.26c-.53,0-.46,.72,.07,.72s.46-.72-.07-.72Z"/><path class="k" d="M202.5,260.92c-.57,0-.49,.78,.08,.78s.5-.78-.08-.78Z"/><path class="k" d="M168.33,293.69c-.38,0-.33,.52,.05,.52s.33-.52-.05-.52Z"/><path class="k" d="M152.37,200.38c-.42,0-.36,.58,.05,.58s.37-.58-.05-.58Z"/></g></g><g><g class="g"><path class="k" d="M198.49,179.67c0,.88,1.54,.88,1.54,0s-1.54-.88-1.54,0Z"/><path class="k" d="M170.83,140.97c.47,.32,.13,1.06-.27,.6-.15-.17-.28-.97,.27-.6,.07,.05-.29-.2,0,0Z"/><path class="k" d="M198.07,150.07c.29,0,.25,.4-.04,.4s-.25-.4,.04-.4Z"/><path class="k" d="M180.92,155.97c.33,0,.29,.46-.04,.46s-.29-.46,.04-.46Z"/><path class="k" d="M156.27,153.64c.45-.48,.7-.13,.86,.08,1.95,.82-2.46,1.62-.86-.08,.21-.21-.34,.36,0,0Z"/><path class="k" d="M179.82,180.02c.58,0,.5,.79-.07,.79s-.5-.79,.07-.79Z"/><path class="k" d="M166.01,175.08c.33,0,.28,.45-.04,.45s-.28-.45,.04-.45Z"/><path class="k" d="M186.89,190.39c.36,0,.31,.49-.05,.49s-.31-.49,.05-.49Z"/><path class="k" d="M186.92,207.91c.75,0,.65,1.03-.1,1.03s-.65-1.03,.1-1.03Z"/><path class="k" d="M199.76,213.24c.44,0,.38,.6-.06,.6s-.38-.6,.06-.6Z"/><path class="k" d="M180.56,219.17c.43,0,.37,.59-.06,.59s-.38-.59,.06-.59Z"/><path class="k" d="M161.73,205.8c.47,0,.41,.64-.06,.64s-.4-.64,.06-.64Z"/><path class="k" d="M154.49,135.98c.88,0,.76,1.21-.11,1.21s-.77-1.21,.11-1.21Z"/><path class="k" d="M129.66,141.04c.46-.19,.78,0,.54,.44-.64,.36-.82,.22-.54-.44,.08-.03-.27,.12,0,0Z"/><path class="k" d="M131.53,147.2c.38,0,.33,.52-.05,.52s-.33-.52,.05-.52Z"/><path class="k" d="M108.72,136c.37-.51,1.51,.24,1.47,.63-.1,1.07-2.21,.38-1.47-.63,.17-.24-.15,.2,0,0Z"/><path class="k" d="M116.62,151.6c.46,0,.4,.62-.06,.62s-.39-.62,.06-.62Z"/><path class="k" d="M99.39,163.86c-.13-.28,1.35,.66,.21,.52-.2-.03-.8-.45-.21-.52Z"/><path class="k" d="M110.28,185.39c.44,0,.38,.6-.05,.6s-.38-.6,.05-.6Z"/><path class="k" d="M120.53,204.3c.5,0,.43,.68-.06,.68s-.43-.68,.06-.68Z"/><path class="k" d="M86.08,176.58c.38-1.46,1.29-.29,1.39,.1,.23,.91-1.69,1.04-1.39-.1,.1-.38-.06,.22,0,0Z"/><path class="k" d="M87.34,190.29c.17-.18,.89-.71,.94-.05,.08,1.17-1.49,.65-.94,.05,.05-.05-.21,.22,0,0Z"/><path class="k" d="M73.02,169.19c.91,.07,1.21,1.38,.07,1.3-.82-.05-.99-1.37-.07-1.3,.14,0-.4-.03,0,0Z"/><path class="k" d="M87.92,152.33c.6,0,.52,.82-.07,.82s-.52-.82,.07-.82Z"/><path class="k" d="M77.39,146.49c.29-.46,1.1-.14,.63,.2-.19,.14-.96,.32-.63-.2,.04-.07-.06,.1,0,0Z"/><path class="k" d="M68.45,154.9c.16-.2,.9,.15,.59,.45-.27,.26-.71-.3-.59-.45,.12-.16-.12,.14,0,0Z"/><path class="k" d="M60.29,155.48c.09-1.01,1.64-.59,1.67,.27,.04,.98-1.75,.59-1.67-.27,.04-.36-.02,.24,0,0Z"/><path class="k" d="M94.99,141.62c.36,0,.31,.48-.05,.48s-.31-.48,.05-.48Z"/><path class="k" d="M107.84,157.83c.26,0,.23,.36-.03,.36s-.23-.36,.03-.36Z"/><path class="k" d="M155.01,165.5c.37,0,.32,.49-.05,.49s-.31-.49,.05-.49Z"/><path class="k" d="M79.15,213.22c.47,0,.4,.63-.06,.63s-.4-.63,.06-.63Z"/><path class="k" d="M70.86,201.54c.25-.53,1.04-.46,1.23,.03,.38,1.23-1.65,.89-1.23-.03,.22-.47-.05,.11,0,0Z"/><path class="k" d="M96.72,203.12c.17,.05,.62,.17,.61,.38-.1,1.05-1.48-.63-.61-.38,.08,.02-.21-.06,0,0Z"/><path class="k" d="M96.11,216.98c.51,0,.44,.7-.06,.7s-.44-.7,.06-.7Z"/><path class="k" d="M189.68,232.61c.31,0,.27,.42-.04,.42s-.27-.42,.04-.42Z"/><path class="k" d="M80.45,221.8c.44,0,.38,.6-.05,.6s-.38-.6,.05-.6Z"/><path class="k" d="M97.6,231.33c.48,0,.41,.66-.06,.66s-.41-.66,.06-.66Z"/><path class="k" d="M73.66,229.57c.22-.02,.92-.48,.94,.1,.05,1.01-1.91,0-.94-.1,.08,0-.36,.04,0,0Z"/><path class="k" d="M119.22,233.38c.38,0,.33,.53-.05,.53s-.33-.53,.05-.53Z"/><path class="k" d="M156.45,172.38c.5-.63-.55,.7,0,0,.12-.15-.11,.13,0,0Z"/><path class="k" d="M180.57,146.88c.79,0,.41,2.02-.66,1.17-.43-.53-.21-.92,.66-1.17,.27,0-.48,0,0,0Z"/><path class="k" d="M180.56,138.75c.45,0,.38,.61-.06,.61s-.39-.61,.06-.61Z"/><path class="k" d="M202.73,156.29c.35,0,.3,.47-.04,.47s-.3-.47,.04-.47Z"/><path class="k" d="M94.99,152.46c-.12,.08,1.62-.06,1.05,.63-.13,.99-2.01,.04-1.05-.63,.26-.18-.43,.3,0,0Z"/><path class="k" d="M131.42,156.02c.27-1.23,1.87-.13,1.14,.34-.59,.37-.98,.26-1.14-.34,.04-.17-.05,.22,0,0Z"/><path class="k" d="M105.05,170.6c.38,0,.33,.52-.05,.52s-.33-.52,.05-.52Z"/></g><g class="g"><path class="k" d="M45.59,171.87c0,1.07,1.88,1.07,1.88,0s-1.88-1.07-1.88,0Z"/><path class="k" d="M45.07,135.67c.36,0,.31,.49-.04,.49s-.31-.49,.04-.49Z"/><path class="k" d="M24.11,142.89c.41,0,.35,.56-.05,.56s-.35-.56,.05-.56Z"/><path class="k" d="M22.76,172.3c.71,0,.61,.96-.09,.96s-.61-.96,.09-.96Z"/><path class="k" d="M5.88,166.26c.4,0,.35,.55-.05,.55s-.35-.55,.05-.55Z"/><path class="k" d="M31.4,184.97c.44,0,.38,.6-.06,.6s-.38-.6,.06-.6Z"/><path class="k" d="M31.44,206.4c.93,0,.8,1.26-.12,1.26s-.8-1.26,.12-1.26Z"/><path class="k" d="M47.14,212.91c.54,0,.47,.73-.07,.73s-.46-.73,.07-.73Z"/><path class="k" d="M23.66,220.17c.53,0,.46,.72-.07,.72s-.46-.72,.07-.72Z"/><path class="k" d="M.65,203.82c.57,0,.49,.79-.08,.79s-.5-.79,.08-.79Z"/><path class="k" d="M34.82,236.59c.38,0,.33,.52-.05,.52s-.33-.52,.05-.52Z"/><path class="k" d="M50.78,143.28c.42,0,.36,.58-.05,.58s-.37-.58,.05-.58Z"/></g></g><g><g><path class="k" d="M6.02,44.83c0,.88-1.54,.88-1.54,0s1.54-.88,1.54,0Z"/><path class="k" d="M33.67,6.13c-.47,.32-.13,1.06,.27,.6,.15-.17,.28-.97-.27-.6-.07,.05,.3-.2,0,0Z"/><path class="k" d="M6.44,15.22c-.29,0-.25,.4,.04,.4s.25-.4-.04-.4Z"/><path class="k" d="M23.58,21.12c-.34,0-.29,.46,.04,.46s.29-.46-.04-.46Z"/><path class="k" d="M48.24,18.8c-.45-.48-.7-.13-.86,.08-1.95,.82,2.46,1.62,.86-.08-.21-.22,.34,.36,0,0Z"/><path class="k" d="M24.69,45.18c-.58,0-.5,.78,.07,.78s.5-.78-.07-.78Z"/><path class="k" d="M38.5,40.24c-.33,0-.28,.45,.04,.45s.28-.45-.04-.45Z"/><path class="k" d="M17.62,55.55c-.36,0-.31,.49,.05,.49s.31-.49-.05-.49Z"/><path class="k" d="M17.59,73.07c-.75,0-.65,1.03,.1,1.03s.65-1.03-.1-1.03Z"/><path class="k" d="M4.75,78.39c-.44,0-.38,.6,.06,.6s.38-.6-.06-.6Z"/><path class="k" d="M23.95,84.33c-.43,0-.37,.59,.06,.59s.38-.59-.06-.59Z"/><path class="k" d="M42.78,70.96c-.47,0-.41,.64,.06,.64s.4-.64-.06-.64Z"/><path class="k" d="M50.02,1.14c-.88,0-.76,1.21,.11,1.21s.77-1.21-.11-1.21Z"/><path class="k" d="M74.85,6.2c-.46-.19-.78,0-.54,.44,.64,.36,.82,.22,.54-.44-.08-.03,.27,.12,0,0Z"/><path class="k" d="M72.98,12.36c-.38,0-.33,.52,.05,.52s.33-.52-.05-.52Z"/><path class="k" d="M95.79,1.16c-.37-.51-1.51,.24-1.47,.63,.1,1.08,2.21,.38,1.47-.63-.17-.24,.15,.2,0,0Z"/><path class="k" d="M87.89,16.76c-.46,0-.4,.62,.06,.62s.39-.62-.06-.62Z"/><path class="k" d="M105.12,29.01c.13-.28-1.35,.66-.21,.52,.2-.03,.8-.45,.21-.52Z"/><path class="k" d="M94.23,50.55c-.44,0-.38,.59,.05,.59s.38-.59-.05-.59Z"/><path class="k" d="M83.97,69.46c-.5,0-.43,.68,.06,.68s.43-.68-.06-.68Z"/><path class="k" d="M118.43,41.74c-.38-1.47-1.29-.29-1.39,.1-.23,.9,1.69,1.04,1.39-.1-.1-.38,.06,.22,0,0Z"/><path class="k" d="M117.17,55.45c-.17-.19-.89-.71-.94-.05-.08,1.17,1.49,.65,.94,.05-.05-.05,.21,.22,0,0Z"/><path class="k" d="M131.49,34.35c-.91,.06-1.21,1.38-.07,1.3,.82-.05,.99-1.37,.07-1.3-.14,0,.4-.03,0,0Z"/><path class="k" d="M116.59,17.48c-.6,0-.52,.82,.07,.82s.52-.82-.07-.82Z"/><path class="k" d="M127.12,11.65c-.29-.46-1.1-.14-.63,.21,.19,.14,.96,.31,.63-.21-.04-.06,.06,.1,0,0Z"/><path class="k" d="M136.06,20.06c-.16-.2-.9,.15-.59,.45,.27,.26,.71-.3,.59-.45-.12-.16,.12,.15,0,0Z"/><path class="k" d="M144.21,20.64c-.09-1.01-1.64-.58-1.67,.27-.04,.98,1.75,.59,1.67-.27-.04-.36,.02,.24,0,0Z"/><path class="k" d="M109.52,6.78c-.36,0-.31,.48,.05,.48s.31-.48-.05-.48Z"/><path class="k" d="M96.67,22.99c-.26,0-.23,.36,.03,.36s.23-.36-.03-.36Z"/><path class="k" d="M49.5,30.66c-.37,0-.32,.5,.05,.5s.31-.5-.05-.5Z"/><path class="k" d="M125.36,78.38c-.47,0-.4,.63,.06,.63s.4-.63-.06-.63Z"/><path class="k" d="M133.65,66.69c-.25-.53-1.04-.46-1.23,.03-.38,1.23,1.65,.89,1.23-.03-.22-.47,.05,.11,0,0Z"/><path class="k" d="M107.79,68.28c-.17,.05-.62,.17-.61,.38,.1,1.05,1.48-.63,.61-.38-.08,.02,.21-.06,0,0Z"/><path class="k" d="M108.39,82.13c-.51,0-.44,.7,.06,.7s.44-.7-.06-.7Z"/><path class="k" d="M14.83,97.76c-.31,0-.27,.42,.04,.42s.27-.42-.04-.42Z"/><path class="k" d="M124.06,86.96c-.44,0-.38,.6,.05,.6s.38-.6-.05-.6Z"/><path class="k" d="M106.9,96.49c-.48,0-.41,.66,.06,.66s.41-.66-.06-.66Z"/><path class="k" d="M130.85,94.73c-.22-.02-.92-.48-.94,.1-.05,1.01,1.91,0,.94-.1-.08,0,.36,.04,0,0Z"/><path class="k" d="M85.29,98.53c-.38,0-.33,.53,.05,.53s.33-.53-.05-.53Z"/><path class="k" d="M48.05,37.53c-.5-.64,.55,.69,0,0-.12-.15,.11,.13,0,0Z"/><path class="k" d="M23.94,12.04c-.79,0-.41,2.02,.66,1.17,.43-.53,.21-.92-.66-1.17-.27,0,.48,0,0,0Z"/><path class="k" d="M23.95,3.91c-.45,0-.38,.61,.06,.61s.39-.61-.06-.61Z"/><path class="k" d="M1.77,21.45c-.35,0-.3,.47,.04,.47s.3-.47-.04-.47Z"/><path class="k" d="M109.52,17.62c.12,.08-1.62-.06-1.05,.63,.13,.99,2.01,.04,1.05-.63-.26-.18,.43,.3,0,0Z"/><path class="k" d="M73.09,21.18c-.27-1.23-1.87-.13-1.14,.34,.59,.37,.98,.26,1.14-.34-.04-.17,.05,.22,0,0Z"/><path class="k" d="M99.45,35.76c-.38,0-.33,.52,.05,.52s.33-.52-.05-.52Z"/></g><g><path class="k" d="M158.92,37.03c0,1.07-1.88,1.07-1.88,0s1.88-1.07,1.88,0Z"/><path class="k" d="M159.43,.83c-.36,0-.31,.49,.04,.49s.31-.49-.04-.49Z"/><path class="k" d="M180.4,8.04c-.41,0-.35,.56,.05,.56s.35-.56-.05-.56Z"/><path class="k" d="M181.75,37.46c-.71,0-.61,.96,.09,.96s.61-.96-.09-.96Z"/><path class="k" d="M198.63,31.42c-.4,0-.35,.55,.05,.55s.35-.55-.05-.55Z"/><path class="k" d="M173.1,50.13c-.44,0-.38,.6,.06,.6s.38-.6-.06-.6Z"/><path class="k" d="M173.07,71.55c-.93,0-.8,1.26,.12,1.26s.8-1.26-.12-1.26Z"/><path class="k" d="M157.37,78.07c-.54,0-.47,.73,.07,.73s.46-.73-.07-.73Z"/><path class="k" d="M180.85,85.32c-.53,0-.46,.72,.07,.72s.46-.72-.07-.72Z"/><path class="k" d="M169.69,101.75c-.38,0-.33,.52,.05,.52s.33-.52-.05-.52Z"/><path class="k" d="M153.73,8.44c-.42,0-.36,.58,.05,.58s.37-.58-.05-.58Z"/></g></g><g><g class="g"><path class="k" d="M6.02,115.35c0-.88-1.54-.88-1.54,0s1.54,.88,1.54,0Z"/><path class="k" d="M33.67,154.06c-.47-.32-.13-1.06,.27-.6,.15,.17,.28,.97-.27,.6-.07-.05,.3,.2,0,0Z"/><path class="k" d="M6.44,144.96c-.29,0-.25-.4,.04-.4s.25,.4-.04,.4Z"/><path class="k" d="M23.58,139.06c-.34,0-.29-.46,.04-.46s.29,.46-.04,.46Z"/><path class="k" d="M48.24,141.39c-.45,.48-.7,.13-.86-.08-1.95-.82,2.46-1.62,.86,.08-.21,.21,.34-.36,0,0Z"/><path class="k" d="M24.69,115c-.58,0-.5-.79,.07-.79s.5,.79-.07,.79Z"/><path class="k" d="M38.5,119.94c-.33,0-.28-.45,.04-.45s.28,.45-.04,.45Z"/><path class="k" d="M17.62,104.64c-.36,0-.31-.49,.05-.49s.31,.49-.05,.49Z"/><path class="k" d="M17.59,87.12c-.75,0-.65-1.03,.1-1.03s.65,1.03-.1,1.03Z"/><path class="k" d="M4.75,81.79c-.44,0-.38-.6,.06-.6s.38,.6-.06,.6Z"/><path class="k" d="M23.95,75.85c-.43,0-.37-.59,.06-.59s.38,.59-.06,.59Z"/><path class="k" d="M42.78,89.23c-.47,0-.41-.64,.06-.64s.4,.64-.06,.64Z"/><path class="k" d="M50.02,159.05c-.88,0-.76-1.21,.11-1.21s.77,1.21-.11,1.21Z"/><path class="k" d="M74.85,153.98c-.46,.19-.78,0-.54-.44,.64-.36,.82-.22,.54,.44-.08,.03,.27-.12,0,0Z"/><path class="k" d="M72.98,147.82c-.38,0-.33-.52,.05-.52s.33,.52-.05,.52Z"/><path class="k" d="M95.79,159.03c-.37,.51-1.51-.24-1.47-.63,.1-1.07,2.21-.38,1.47,.63-.17,.24,.15-.2,0,0Z"/><path class="k" d="M87.89,143.43c-.46,0-.4-.62,.06-.62s.39,.62-.06,.62Z"/><path class="k" d="M105.12,131.17c.13,.28-1.35-.66-.21-.52,.2,.03,.8,.45,.21,.52Z"/><path class="k" d="M94.23,109.64c-.44,0-.38-.6,.05-.6s.38,.6-.05,.6Z"/><path class="k" d="M83.97,90.73c-.5,0-.43-.68,.06-.68s.43,.68-.06,.68Z"/><path class="k" d="M118.43,118.45c-.38,1.46-1.29,.29-1.39-.1-.23-.91,1.69-1.04,1.39,.1-.1,.38,.06-.22,0,0Z"/><path class="k" d="M117.17,104.73c-.17,.18-.89,.71-.94,.05-.08-1.17,1.49-.65,.94-.05-.05,.05,.21-.22,0,0Z"/><path class="k" d="M131.49,125.84c-.91-.07-1.21-1.38-.07-1.3,.82,.05,.99,1.37,.07,1.3-.14,0,.4,.03,0,0Z"/><path class="k" d="M116.59,142.7c-.6,0-.52-.82,.07-.82s.52,.82-.07,.82Z"/><path class="k" d="M127.12,148.54c-.29,.46-1.1,.14-.63-.2,.19-.14,.96-.32,.63,.2-.04,.07,.06-.1,0,0Z"/><path class="k" d="M136.06,140.13c-.16,.2-.9-.15-.59-.45,.27-.26,.71,.3,.59,.45-.12,.16,.12-.14,0,0Z"/><path class="k" d="M144.21,139.55c-.09,1.01-1.64,.59-1.67-.27-.04-.98,1.75-.59,1.67,.27-.04,.36,.02-.24,0,0Z"/><path class="k" d="M109.52,153.41c-.36,0-.31-.48,.05-.48s.31,.48-.05,.48Z"/><path class="k" d="M96.67,137.2c-.26,0-.23-.36,.03-.36s.23,.36-.03,.36Z"/><path class="k" d="M49.5,129.52c-.37,0-.32-.49,.05-.49s.31,.49-.05,.49Z"/><path class="k" d="M125.36,81.81c-.47,0-.4-.63,.06-.63s.4,.63-.06,.63Z"/><path class="k" d="M133.65,93.49c-.25,.53-1.04,.46-1.23-.03-.38-1.23,1.65-.89,1.23,.03-.22,.47,.05-.11,0,0Z"/><path class="k" d="M107.79,91.9c-.17-.05-.62-.17-.61-.38,.1-1.05,1.48,.63,.61,.38-.08-.02,.21,.06,0,0Z"/><path class="k" d="M108.39,78.05c-.51,0-.44-.7,.06-.7s.44,.7-.06,.7Z"/><path class="k" d="M14.83,62.42c-.31,0-.27-.42,.04-.42s.27,.42-.04,.42Z"/><path class="k" d="M124.06,73.23c-.44,0-.38-.6,.05-.6s.38,.6-.05,.6Z"/><path class="k" d="M106.9,63.7c-.48,0-.41-.66,.06-.66s.41,.66-.06,.66Z"/><path class="k" d="M130.85,65.46c-.22,.02-.92,.48-.94-.1-.05-1.01,1.91,0,.94,.1-.08,0,.36-.04,0,0Z"/><path class="k" d="M85.29,61.65c-.38,0-.33-.53,.05-.53s.33,.53-.05,.53Z"/><path class="k" d="M48.05,122.65c-.5,.63,.55-.7,0,0-.12,.15,.11-.13,0,0Z"/><path class="k" d="M23.94,148.15c-.79,0-.41-2.02,.66-1.17,.43,.53,.21,.92-.66,1.17-.27,0,.48,0,0,0Z"/><path class="k" d="M23.95,156.28c-.45,0-.38-.61,.06-.61s.39,.61-.06,.61Z"/><path class="k" d="M1.77,138.74c-.35,0-.3-.47,.04-.47s.3,.47-.04,.47Z"/><path class="k" d="M109.52,142.56c.12-.08-1.62,.06-1.05-.63,.13-.99,2.01-.04,1.05,.63-.26,.18,.43-.3,0,0Z"/><path class="k" d="M73.09,139c-.27,1.23-1.87,.13-1.14-.34,.59-.37,.98-.26,1.14,.34-.04,.17,.05-.22,0,0Z"/><path class="k" d="M99.45,124.43c-.38,0-.33-.52,.05-.52s.33,.52-.05,.52Z"/></g><g class="g"><path class="k" d="M158.92,123.15c0-1.07-1.88-1.07-1.88,0s1.88,1.07,1.88,0Z"/><path class="k" d="M159.43,159.36c-.36,0-.31-.49,.04-.49s.31,.49-.04,.49Z"/><path class="k" d="M180.4,152.14c-.41,0-.35-.56,.05-.56s.35,.56-.05,.56Z"/><path class="k" d="M181.75,122.73c-.71,0-.61-.96,.09-.96s.61,.96-.09,.96Z"/><path class="k" d="M198.63,128.77c-.4,0-.35-.55,.05-.55s.35,.55-.05,.55Z"/><path class="k" d="M173.1,110.06c-.44,0-.38-.6,.06-.6s.38,.6-.06,.6Z"/><path class="k" d="M173.07,88.63c-.93,0-.8-1.26,.12-1.26s.8,1.26-.12,1.26Z"/><path class="k" d="M157.37,82.12c-.54,0-.47-.73,.07-.73s.46,.73-.07,.73Z"/><path class="k" d="M180.85,74.86c-.53,0-.46-.72,.07-.72s.46,.72-.07,.72Z"/><path class="k" d="M169.69,58.44c-.38,0-.33-.52,.05-.52s.33,.52-.05,.52Z"/><path class="k" d="M153.73,151.75c-.42,0-.36-.58,.05-.58s.37,.58-.05,.58Z"/></g></g></g></g></g></g></svg>