<?xml version="1.0" encoding="UTF-8"?><svg id="a" xmlns="http://www.w3.org/2000/svg" xmlns:xlink="http://www.w3.org/1999/xlink" viewBox="0 0 203.15 294.2"><defs><style>.c{opacity:.5;}.d{clip-path:url(#b);}.e{fill:none;}</style><clipPath id="b"><rect class="e" x="0" width="203.15" height="294.2"/></clipPath></defs><g class="d"><g class="c"><path d="M205.48,234.21v-5.12c-2.24,.2-4.49,.38-6.73,.57-3.55,.29-7.11,.56-10.64,.93-.31,.03-.62,.07-.93,.11,.05,0,.09,0,.14,0-.92,.11-1.81,.25-2.69,.41,.04-.01,.09-.03,.13-.04-.54,.1-1.08,.21-1.61,.33-.24,.05-.49,.12-.73,.18-.54,.13-1.09,.27-1.62,.43-.23,.06-.45,.13-.68,.2-.71,.22-1.43,.45-2.15,.71-3.12,1.12-6.09,2.42-9.23,3.51-3.27,1.13-6.52,1.89-10.19,2.23-1.05,.1-2.12,.18-3.18,.25-.46,.03-.92,.07-1.38,.1-.44,.03-.89,.07-1.33,.1-.59,.05-1.18,.1-1.77,.16-.31,.03-.61,.06-.92,.09-.88,.1-1.75,.21-2.6,.36-3.33,.58-6.47,1.51-9.59,2.47-2.84,.87-5.71,1.78-8.74,2.35-.72,.14-1.44,.24-2.17,.33-.16,.02-.33,.04-.49,.06-.66,.07-1.31,.13-1.97,.17-.23,.01-.46,.03-.7,.04-1.53,.07-3.07,.07-4.63,0-.73-.03-1.46-.09-2.19-.14-.35-.03-.7-.06-1.05-.09-.55-.05-1.09-.11-1.63-.17-.32-.04-.63-.07-.95-.11-.6-.08-1.21-.17-1.8-.27-.25-.04-.5-.08-.75-.12-.85-.15-1.69-.31-2.52-.5-3.36-.75-6.54-1.69-10.03-2.17-.38-.05-.75-.1-1.13-.14,.04,0,.07,.02,.11,.03-2.98-.36-5.99-.53-9.01-.64-1.03-.04-2.05-.06-3.07-.1h0c-.58-.02-1.16-.05-1.74-.08h0c-.55-.03-1.1-.07-1.64-.13-.09,0-.17-.02-.26-.03-.43-.04-.86-.1-1.29-.16-.14-.02-.28-.04-.42-.06-.51-.08-1.03-.17-1.54-.29-.78-.18-1.55-.39-2.32-.61-.05-.01-.1-.03-.15-.05-.74-.22-1.48-.46-2.21-.7-3.55-1.18-7.07-2.53-10.93-2.95h-.03s-.06,0-.1-.01c-.76-.08-1.54-.13-2.33-.12-3.57,0-7.11,.82-10.69,.61-3.38-.2-6.65-1.32-9.66-2.29-6.82-2.21-13.31-4.95-20.53-6.57-.45-.1-.9-.19-1.34-.26-.11-.02-.23-.03-.34-.05-.33-.05-.67-.1-1-.13-.15-.02-.3-.03-.45-.04-.29-.03-.58-.05-.88-.07-.18,0-.35-.01-.53-.02-.26,0-.52-.02-.79-.02-.2,0-.4,0-.6,0-.24,0-.47,0-.71,.02-.22,0-.43,.02-.65,.04-.21,.01-.42,.03-.63,.05-.24,.02-.47,.04-.71,.07-.18,.02-.37,.04-.55,.07-.26,.03-.52,.07-.78,.11-.07,.01-.13,.02-.2,.03h0c-.07,.01-.14,.03-.22,.04-.33,.05-.66,.11-.99,.18-.15,.03-.29,.06-.44,.09-.3,.06-.6,.13-.9,.2-.16,.04-.33,.08-.49,.12-.28,.07-.55,.14-.83,.22-.18,.05-.35,.1-.53,.15-.26,.08-.51,.16-.77,.24-.18,.06-.37,.12-.55,.18-.24,.08-.48,.16-.72,.25-.19,.07-.38,.13-.58,.2-.23,.08-.45,.17-.68,.26-.19,.07-.39,.15-.58,.22-.23,.09-.46,.19-.69,.29-.17,.07-.35,.15-.53,.22-.4,.17-.79,.35-1.18,.53-.33,.15-.65,.31-.98,.46v67.34H70.98c.3-.14,.6-.28,.91-.41,.17,0,.36-.02,.55-.05l71.61,.17c-1.47,.17-3,.15-4.4,.37-2.1,.33-4.18,.52-6.28,.76-.17,.03,.15,.49,.32,.47,.62-.07,1.24-.14,1.85-.21,.59-.03,1.18,0,1.6,.15-.71,.35-1.36,.09-2.1,.2-.05,0-.11,.02-.16,.02h71.96v-66c-.46,.15-.91,.34-1.36,.51Zm-196.42-7.18h0Z"/><path d="M201.24,221.7c.38,.33,.77,.59,1.19,.77,1.26,.55,2.56,1.13,3.79,.09,.07-.06-1.72-2.61-2.52-4.21,.69,.07,1.39-.05,2.09-.4,.17-.08-2.58-4.58-3.74-6.66,.38,.37,1.83,1.59,2.25,1.72,.21,.06-2.27-4.08-2.81-5.25,.79,.6,1.65,.72,2.48,.45,.18-.06-2.55-5.54-3.71-7.96,.7,.34,1.42,.41,2.11,.12,.19-.08-1.33-1.94-1.82-2.71,.84,.53,1.7,.65,2.57,.15,.16-.1-1.88-3.31-3.27-5.91,.5-.02,1.04-.18,1.43-.71,0,0,.03-.05,.02-.07-1.58-1.44-3.13-3.19-4.15-5.71,1,1.79,2.38,2.33,3.49,1.78,.01,0,.01-.02,.02-.03-.09-.1-.17-.2-.25-.3-.68-.84-2.96-4.51-3.47-5.49,.32,.27,.66,.43,1.01,.47-.4-.62-.77-1.32-1.08-2.12-.33-.58-.65-1.24-.93-1.99-.33-.86-.86-2.55-1.06-2.96,.68,1.36,1.43,2.69,2.3,2.67h.01c-.96-1.33-1.8-3.09-2.54-5.06-.02-.04-.03-.09-.05-.14-.17-.45-.33-.9-.48-1.36-.06-.16-.11-.33-.16-.5-.11-.34-.23-.69-.33-1.04-.11-.37-.22-.74-.33-1.11-.04-.15-.09-.3-.13-.46-.15-.52-.29-1.05-.43-1.58h0s-.02-.08-.03-.12c-.56,1.96-1.23,3.78-1.87,5.56-.79,2.18-1.65,4.31-2.72,5.79,.01,0,.03,.01,.05,.01,.04,0,.07-.01,.11-.02h-.01s.08,0,.12-.02c.05-.01,.1-.02,.15-.04,.05-.02,.1-.05,.15-.08,.05-.03,.1-.06,.16-.1,.05-.04,.09-.08,.14-.12,.05-.05,.11-.09,.16-.15,.05-.05,.09-.11,.14-.16,.05-.06,.1-.11,.15-.18,.05-.07,.1-.15,.16-.22,.04-.06,.08-.11,.12-.17,.07-.11,.13-.22,.2-.33,.02-.04,.04-.07,.06-.11,.18-.31,.35-.65,.52-.98-.2,.41-.74,2.1-1.06,2.96-.57,1.48-2.17,4.13-2.07,4.12,.01,0,.03,0,.05,0h0c.35-.05,.68-.2,1.01-.47-1.1,2.09-3.86,5.75-3.71,5.83,.04,.02,.08,.02,.11,.04h-.02c.05,.03,.11,.04,.17,.06,.08,.03,.15,.05,.23,.07,.07,.01,.14,.02,.21,.02,.08,0,.17,.02,.25,.01,.07,0,.14-.02,.21-.03,.08-.01,.17-.02,.25-.04,.07-.02,.15-.06,.22-.08,.08-.03,.16-.06,.24-.1,.08-.04,.16-.1,.23-.15,.08-.05,.15-.09,.22-.15,.09-.07,.17-.15,.25-.23,.06-.06,.13-.12,.19-.19,.09-.1,.18-.23,.27-.35,.05-.06,.1-.12,.15-.19,.14-.2,.27-.42,.39-.66-.06,.15-.13,.28-.18,.41-.18,.43-.35,.87-.53,1.3-.16,.38-.33,.76-.5,1.13-.06,.12-.12,.23-.17,.35-.15,.31-.3,.62-.46,.91-.78,1.4-1.76,2.55-2.86,3.07,0,0-.04,.06-.03,.07,.45,.33,.93,.41,1.41,.35-1.33,2.38-2.9,4.91-2.76,4.99,0,0,.01,0,.02,.01h0c.21,.12,.41,.2,.62,.25h.01c.09,.02,.18,.04,.27,.04,.02,0,.04,0,.06,0,.07,0,.13,0,.2,0,.04,0,.08,0,.12,0,.04,0,.07-.01,.11-.02,.39-.05,.78-.2,1.16-.44-.41,.64-1.52,2.02-1.78,2.51-.11-.32-.22-.65-.32-.97h0s-.01-.04-.02-.06c-.34,1-.75,1.95-1.14,2.86-.48,1.12-1.01,2.22-1.67,2.98,0,0,.02,0,.03,0,.02,0,.05,0,.07-.01h0s.05,0,.08-.01c.03,0,.05,0,.08-.02,.04-.01,.08-.03,.12-.05,.02-.01,.05-.02,.07-.04,.04-.02,.08-.05,.12-.08,.02-.02,.04-.03,.07-.05,.04-.04,.08-.07,.12-.12,.02-.02,.04-.04,.06-.06,.04-.05,.09-.1,.13-.15,.01-.02,.03-.03,.04-.05,.05-.07,.1-.14,.15-.21v-.02c.12-.16,.23-.33,.33-.51-.13,.21-.45,1.08-.65,1.52-.35,.76-1.33,2.13-1.26,2.12,0,0,.02,0,.03,0h0c.22-.03,.42-.1,.62-.24-.67,1.08-2.36,2.96-2.27,3,.02,0,.05,.01,.07,.02h0s.06,.02,.09,.03c.05,.01,.1,.03,.15,.04,.04,0,.08,0,.12,.01,.05,0,.1,0,.16,0,.04,0,.08,0,.12-.01,.05,0,.11-.01,.16-.02,.04,0,.08-.02,.12-.04,.06-.02,.11-.03,.17-.06,.04-.02,.07-.04,.11-.06,.06-.03,.11-.06,.17-.1,.04-.03,.07-.06,.11-.09,.05-.04,.11-.08,.16-.13,.04-.04,.09-.09,.13-.14,.04-.05,.09-.09,.13-.14,.08-.1,.16-.21,.24-.34-.04,.08-.08,.15-.11,.21-.11,.22-.21,.45-.32,.67-.16,.33-.34,.64-.52,.95-.06,.1-.11,.2-.17,.29-.48,.72-1.08,1.31-1.75,1.58,0,0-.03,.03-.01,.04,.27,.17,.57,.21,.86,.18-.13,.2-.27,.41-.41,.61-.08-.12-.16-.23-.23-.36-.03-.05-.05-.1-.08-.15-.07-.13-.14-.25-.21-.39-.04-.07-.07-.14-.1-.22-.06-.12-.11-.23-.17-.36-.04-.09-.08-.19-.12-.28-.05-.11-.09-.21-.14-.32-.04-.1-.08-.21-.12-.31-.04-.11-.08-.21-.12-.32-.04-.1-.07-.2-.1-.3-.04-.12-.08-.23-.12-.35-.02-.07-.05-.14-.07-.21-.05-.15-.1-.3-.15-.45-.27,.79-.59,1.52-.89,2.23-.38,.87-.79,1.73-1.3,2.32,0,0,.01,0,.02,0,.02,0,.04-.02,.06-.02l-.02,.02c.06,0,.11-.04,.17-.06,.03-.01,.07-.02,.1-.04,.06-.04,.12-.1,.19-.16,.03-.03,.06-.05,.09-.08,.07-.07,.13-.16,.19-.25,.02-.03,.05-.06,.07-.09,.08-.12,.17-.26,.25-.39-.1,.16-.35,.84-.51,1.19-.19,.42-.62,1.06-.84,1.41-.79-1.65-1.72-3.54-2.29-4.72,.7,.35,1.42,.41,2.11,.12,.19-.08-1.33-1.94-1.83-2.71,.84,.53,1.7,.66,2.57,.15,.16-.09-1.88-3.31-3.27-5.91,.5-.02,1.04-.17,1.43-.71,0,0,.03-.05,.02-.07-1.58-1.44-3.13-3.19-4.15-5.71,1,1.79,2.38,2.33,3.49,1.77,.01,0,.02-.02,.02-.03-.09-.1-.17-.2-.25-.31-.68-.84-2.96-4.51-3.47-5.49,.33,.27,.66,.43,1.01,.47-.4-.62-.77-1.32-1.08-2.12-.33-.58-.65-1.24-.94-1.99-.33-.86-.86-2.55-1.06-2.96,.68,1.37,1.43,2.68,2.31,2.68h.01c-.24-.33-.47-.69-.7-1.07-.05-.09-.11-.2-.16-.3-.17-.3-.33-.59-.49-.91-.08-.16-.15-.33-.23-.49-.13-.28-.26-.54-.38-.83-.09-.21-.18-.44-.27-.67-.1-.25-.21-.5-.3-.76-.09-.25-.18-.51-.27-.76-.09-.25-.18-.49-.26-.74-.08-.25-.16-.51-.24-.76-.09-.27-.17-.53-.26-.81-.06-.21-.12-.42-.19-.64-.1-.32-.19-.65-.28-.97-.04-.13-.07-.26-.1-.38-.12-.42-.23-.84-.34-1.26-.56,1.96-1.23,3.79-1.87,5.56-.79,2.18-1.65,4.31-2.72,5.79,.01,0,.03,.02,.05,.02,.04,0,.07-.01,.11-.02h0s.07,0,.11-.02c.05-.01,.11-.02,.16-.04,.05-.02,.1-.05,.15-.08,.05-.03,.11-.06,.16-.1,.05-.04,.09-.08,.14-.12,.05-.05,.1-.09,.15-.14,.05-.05,.09-.11,.14-.16,.05-.06,.1-.11,.15-.18,.05-.07,.1-.14,.15-.21,.04-.06,.09-.12,.13-.19,.06-.09,.12-.19,.18-.29,.03-.05,.06-.1,.09-.15,.08-.14,.15-.27,.23-.42,0-.02,.02-.04,.03-.06,.09-.17,.17-.33,.26-.5-.2,.41-.74,2.1-1.06,2.96-.56,1.48-2.17,4.13-2.07,4.12,.02,0,.03,0,.05,0h0c.35-.05,.68-.2,1.01-.47-1.1,2.09-3.86,5.75-3.71,5.83,.04,.02,.08,.03,.11,.04h-.02c.05,.03,.11,.04,.17,.06,.08,.03,.15,.05,.23,.07,.07,.01,.14,.02,.21,.02,.08,0,.17,.02,.25,.01,.07,0,.14-.02,.21-.03,.08-.01,.17-.02,.25-.04,.07-.02,.15-.06,.22-.08,.08-.03,.16-.06,.24-.1,.08-.04,.16-.1,.23-.15,.08-.05,.15-.09,.22-.15,.08-.07,.17-.15,.25-.23,.06-.06,.13-.12,.19-.19,.09-.1,.18-.23,.27-.35,.05-.06,.1-.12,.15-.19,.14-.2,.27-.42,.39-.66-.06,.15-.12,.29-.18,.41-.18,.43-.35,.87-.53,1.3-.16,.39-.33,.77-.5,1.14-.06,.12-.12,.24-.17,.36-.15,.31-.3,.61-.46,.9-.78,1.4-1.76,2.55-2.86,3.07,0,0-.04,.06-.03,.07,.45,.33,.93,.41,1.41,.35-1.33,2.38-2.91,4.91-2.76,4.99,0,0,.01,0,.02,.01h0c.08,.05,.17,.09,.25,.12,.02,0,.04,.02,.06,.03,.07,.03,.13,.04,.2,.06,.04,.01,.09,.03,.13,.04,.04,0,.08,.01,.12,.02,.07,.01,.14,.02,.21,.03,.01,0,.03,0,.04,0,.52,.02,1.04-.15,1.55-.46-.49,.77-2.01,2.62-1.82,2.71,.69,.29,1.41,.23,2.11-.12-.57,1.2-1.53,3.14-2.33,4.81v-.02c-.05-.1-.1-.2-.14-.31-.04-.09-.07-.19-.11-.29-.04-.11-.09-.23-.13-.34-.05-.14-.1-.28-.15-.42-.02-.07-.05-.14-.07-.21-.07-.21-.14-.42-.2-.63h0s-.01-.03-.02-.05c-.26,.79-.59,1.52-.89,2.23-.38,.88-.79,1.73-1.3,2.32,0,0,.01,0,.02,0,.02,0,.04-.02,.06-.02v.02s.08-.04,.13-.06c.04-.02,.08-.02,.12-.05,.06-.04,.11-.09,.17-.14,.04-.04,.08-.06,.11-.1,.06-.07,.12-.15,.17-.22,.03-.04,.06-.07,.09-.12,.08-.12,.17-.26,.25-.39-.1,.16-.35,.84-.51,1.19-.17,.37-.53,.92-.77,1.29-.78-.66-1.52-1.45-2.03-2.52,.61,.92,1.45,1.2,2.14,.91,0,0,.01,0,.01-.02-.05-.05-.1-.1-.16-.16-.42-.44-1.81-2.32-2.13-2.83,.2,.14,.4,.22,.62,.24-.24-.32-.47-.68-.66-1.09-.2-.3-.4-.64-.57-1.03-.2-.44-.53-1.31-.65-1.52,.42,.7,.88,1.38,1.41,1.38h0c-.14-.17-.29-.36-.42-.55-.06-.09-.12-.19-.18-.28-.07-.11-.15-.22-.22-.34-.08-.13-.15-.28-.23-.41-.05-.09-.1-.17-.15-.27-.08-.16-.16-.32-.23-.48-.04-.08-.08-.16-.12-.25-.07-.16-.14-.32-.2-.48-.04-.1-.08-.19-.12-.29-.06-.14-.11-.29-.17-.44-.05-.12-.09-.24-.14-.37-.04-.12-.09-.24-.13-.37-.05-.15-.11-.31-.16-.46-.03-.08-.05-.17-.08-.25-.07-.2-.13-.4-.19-.6-.34,1-.75,1.95-1.14,2.86-.48,1.12-1.01,2.22-1.67,2.97,0,0,.02,0,.03,0,.02,0,.05,0,.07-.01h0s.05,0,.08,0c.03,0,.05-.01,.08-.02,.04-.01,.07-.03,.11-.05,.03-.01,.05-.03,.08-.04,.03-.02,.06-.04,.09-.07,.03-.02,.06-.05,.09-.07,.02-.02,.04-.04,.07-.06,.04-.04,.08-.07,.11-.12l.03-.04c.21-.25,.42-.57,.61-.89-.12,.21-.45,1.08-.65,1.52-.35,.76-1.33,2.13-1.26,2.12,0,0,.02,0,.03,0h0c.21-.03,.42-.1,.62-.24-.33,.53-.92,1.27-1.41,1.87-.46-.79-1-1.71-1.45-2.56,.38-.01,.79-.13,1.08-.53,0,0,.02-.04,.01-.05-1.19-1.09-2.37-2.41-3.14-4.32,.76,1.35,1.79,1.77,2.64,1.34,0,0,.01-.01,.02-.02-.06-.07-.13-.15-.19-.23-.52-.64-2.24-3.41-2.63-4.16,.25,.21,.5,.32,.77,.36-.3-.47-.58-1-.82-1.61-.25-.44-.49-.94-.71-1.51-.25-.65-.65-1.93-.8-2.24,.51,1.03,1.08,2.03,1.74,2.03h0c-.73-1.01-1.36-2.34-1.92-3.83,0-.01-.01-.03-.02-.05-.13-.35-.26-.71-.39-1.08-.05-.15-.1-.31-.15-.46-.08-.23-.15-.46-.23-.7-.1-.32-.19-.64-.28-.96-.02-.07-.04-.14-.06-.22-.11-.4-.22-.8-.33-1.2h0s-.02-.06-.02-.09c-.42,1.48-.93,2.86-1.41,4.21-.6,1.65-1.25,3.26-2.06,4.38,0,0,.02,.01,.04,.01,.03,0,.06-.01,.08-.01h0s.06,0,.08-.01c.04,0,.08-.02,.12-.03,.04-.02,.07-.04,.11-.06,.04-.02,.08-.05,.12-.08,.03-.02,.06-.05,.1-.08,.04-.04,.08-.07,.13-.12,.03-.03,.06-.07,.09-.1,.04-.05,.09-.1,.13-.15,.03-.04,.06-.08,.09-.12,.04-.06,.08-.12,.12-.18,.03-.05,.06-.1,.09-.15,.04-.06,.07-.12,.11-.18,.04-.06,.07-.13,.11-.2,.03-.05,.06-.1,.09-.16,.06-.12,.13-.25,.19-.37-.15,.31-.56,1.59-.8,2.24-.43,1.12-1.64,3.13-1.56,3.12,.01,0,.03,0,.04,0h0c.27-.04,.52-.15,.76-.36-.83,1.58-2.92,4.35-2.81,4.41,.03,.01,.06,.02,.09,.03h-.01s.1,.03,.15,.05c.05,.02,.1,.04,.15,.05,.07,.01,.14,.02,.21,.02,.05,0,.09,0,.14,0,.08,0,.15-.02,.23-.03,.04,0,.08-.01,.12-.02,.08-.02,.16-.06,.24-.09,.04-.02,.07-.03,.11-.05,.09-.04,.17-.1,.25-.16,.03-.02,.06-.04,.09-.06,.09-.07,.18-.16,.26-.25,.02-.03,.05-.04,.08-.07,.09-.1,.18-.22,.27-.34,.02-.02,.03-.04,.05-.07,.1-.15,.2-.32,.3-.5-.05,.11-.1,.22-.14,.31-.13,.33-.26,.66-.4,.98-.2,.48-.42,.95-.64,1.4-.07,.14-.14,.29-.21,.42-.59,1.06-1.33,1.93-2.16,2.32,0,0-.03,.04-.02,.05,.34,.25,.7,.31,1.07,.26-1.01,1.8-2.2,3.71-2.09,3.78h.01c.1,.07,.21,.09,.31,.13,.06,.02,.11,.05,.17,.07,.11,.03,.22,.02,.33,.02,.05,0,.1,.01,.15,.01,.09,0,.18-.04,.26-.06,.07-.02,.15-.02,.22-.05,.16-.06,.32-.14,.47-.24-.37,.58-1.53,1.99-1.38,2.05,.52,.22,1.07,.17,1.6-.09-.28,.59-.69,1.41-1.1,2.26h0c-.88,1.81-1.81,3.74-1.71,3.77,.63,.21,1.27,.12,1.87-.34-.41,.89-2.2,3.62-2.05,3.58,.32-.1,1.33-.63,1.62-.91-.87,1.58-2.95,4.98-2.83,5.04,.06,.03,.12,.04,.18,.07,0,0-.01,0-.02,.01,.12,.05,.23,.08,.35,.11,.06,.02,.12,.04,.18,.06,.15,.03,.3,.05,.46,.06,.06,0,.12,.02,.17,.02,.15,0,.3-.02,.45-.05,.06,0,.11,0,.17-.02,.2-.05,.41-.12,.61-.2-.05,.06-.09,.12-.13,.17-.11,.14-.23,.3-.37,.46-.05,.06-.11,.12-.16,.18-.09,.1-.18,.2-.28,.31-.07,.08-.14,.15-.21,.23-.08,.09-.17,.18-.25,.27-.4,.42-.8,.83-1.13,1.17-.02,.02-.03,.04-.05,.05-.11,.11-.21,.22-.3,.31-.03,.03-.06,.07-.09,.1-.02,.03-.05,.06-.08,.08h0c-.14,.16-.24,.29-.22,.31,.95,1.27,2.63,.43,3.64-.03,.04-.02,.07-.04,.1-.05-.68,1.2-2.48,3.56-2.35,3.59,.06,.01,.13,.01,.19,.02h-.01s.06,0,.09,0c.11,.01,.22,.02,.34,.02,.06,0,.12,0,.18,0,.1,0,.2-.01,.3-.03,.07-.01,.14-.03,.21-.04,.09-.02,.18-.04,.28-.06,.08-.02,.16-.05,.23-.08,.09-.03,.17-.06,.26-.09,.08-.04,.17-.08,.25-.12,.08-.04,.16-.08,.24-.12,.09-.05,.17-.1,.26-.16,.08-.05,.15-.09,.23-.14,.09-.06,.19-.14,.28-.21,.07-.05,.13-.1,.2-.15,.16-.13,.32-.27,.48-.42-.01,.03-.03,.05-.04,.08-.03,.07-1.24,1.71-1.11,1.75,.53,.17,2.12-1,2.68-1.42-.18,.36-.84,1.83-.66,1.78,.72-.18,1.52-.7,2.29-1.55-.14,.36-.38,1.39-.31,1.38,.66-.13,1.31-.89,1.93-1.55l-.44,2.36h0l-.41,2.2h3.54l-.92-4.93c.1-.18,.2-.36,.3-.56,.42,1.2,.94,2.26,1.58,2.86,.09,.08,.16-1.71,.13-2.35,.67,1.73,1.62,2.84,2.67,2.32,.08-.04-.31-1.86-.5-2.55,.19,.3,.38,.6,.58,.88,1.06,.77,2.15,1.11,3.22,.92,.09-.02-.73-1.12-1.49-2.23,.46-.18,.96-.49,1.44-.93-.11,.25-.31,.94-.25,.93,.53-.09,1.06-.6,1.56-1.06l-.69,3.1h2.86l-.75-3.36c.08-.12,.17-.24,.24-.37,.08,.2,.17,.39,.26,.57-.2,.24-.33,.42-.3,.42,.05,0,.11,0,.16,0-.02,0-.03,0-.05,.01,.1,.01,.21,0,.31,0,.04,0,.08,0,.12,0,.23,.38,.49,.71,.78,.94,.05,.04,.1-.62,.11-1.15,.06-.02,.12-.06,.19-.09,.07,.12,.14,.24,.21,.35-.02,.03-.03,.06-.01,.06,.01,0,.04,0,.05,0,.49,.7,1.08,1.07,1.72,.8,.03-.01-.03-.35-.13-.73,.16-.06,.32-.15,.48-.25,.13,.07,.26,.14,.39,.2,0,.05-.01,.08,0,.08,.04,0,.08-.03,.12-.04,.29,.11,.58,.19,.88,.23l-.05,.24h0l-.26,1.16h2.24l-.45-2.02s.03,0,.04-.01c.08-.03,.17-.06,.25-.09,.04-.02,.09-.04,.13-.05,.19,.32,.4,.6,.64,.79,.05,.04,.09-.79,.09-1.17l.03-.02c.12,.25,.25,.46,.39,.65-.15,.25-.25,.44-.2,.45,.14,.04,.34,0,.58-.07,.27,.2,.57,.27,.89,.14,.02-.01-.02-.23-.08-.5,.14-.08,.27-.15,.41-.24,.35,.18,.71,.3,1.06,.34-.18,.46-.3,.84-.2,.82,.95-.23,2.01-.93,3.03-2.05-.18,.48-.5,1.84-.41,1.82,.87-.18,1.73-1.17,2.55-2.06l-1.12,6.02h4.68l-1.22-6.52c.14-.24,.27-.48,.4-.74,.55,1.59,1.24,2.98,2.09,3.78,.12,.11,.21-2.26,.18-3.11,.89,2.29,2.15,3.75,3.53,3.06,.11-.05-.41-2.45-.66-3.38,.25,.39,.5,.79,.76,1.16,1.4,1.02,2.84,1.47,4.26,1.21,.14-.03-1.38-2.03-2.47-3.7,.38-.13,.79-.38,1.19-.74-.09,.19-.24,.74-.2,.73,.34-.06,.69-.34,1.02-.64,.05,0,.11,0,.16,0l-.49,2.23h2.24l-.56-2.5c.09-.05,.18-.12,.27-.18,.25,.54,.54,1.01,.9,1.29,.06,.04,.1-.91,.08-1.25,.42,.92,1.03,1.51,1.69,1.23,.05-.02-.2-.99-.32-1.36,.12,.16,.24,.32,.36,.47,.67,.41,1.36,.59,2.03,.49,.08-.02-1.09-1.28-1.52-1.96-.08-.12-.15-.24-.23-.36,.18,.13,.37,.23,.57,.31,.42,.15,.84,.31,1.26,.25l-.14,.64h2.86l-.75-3.36c.08-.12,.17-.24,.25-.37,.34,.82,.76,1.54,1.28,1.95,.07,.05,.13-1.17,.11-1.6,.54,1.18,1.31,1.93,2.16,1.58,.06-.03-.25-1.26-.41-1.74,.15,.21,.31,.41,.46,.6,.86,.53,1.74,.76,2.6,.62,.11-.02-1.39-1.64-1.95-2.51-.09-.14-.17-.27-.26-.41l.03-.02c.21,.15,.43,.27,.67,.36,.77,.29,1.57,.58,2.32,.04,.02-.01-.2-.29-.49-.67,.54-.41,1.06-1,1.57-1.55l-1.12,6.02h4.68l-1.22-6.52c.14-.24,.27-.48,.4-.74,.55,1.59,1.24,2.98,2.09,3.78,.12,.11,.21-2.26,.18-3.11,.89,2.29,2.14,3.75,3.53,3.06,.11-.05-.41-2.45-.66-3.38,.25,.4,.5,.8,.76,1.17,1.4,1.02,2.84,1.47,4.25,1.21,.18-.04-2.27-3.19-3.19-4.87-.16-.3-.32-.6-.48-.9Zm-59.06-4.11c.05-.04,.11-.08,.16-.12,.04-.03,.08-.06,.11-.09,.06-.05,.11-.12,.17-.18,.03-.03,.06-.06,.09-.1,.08-.1,.16-.21,.24-.34-.04,.07-.08,.15-.11,.21-.11,.22-.21,.45-.32,.67-.05,.11-.11,.2-.17,.3-.06-.11-.12-.21-.19-.34h.02Zm8.48,1.99s-.01-.01-.02-.01c.01,0,.03-.01,.04-.02,0,.01-.02,.03-.03,.04Zm22.81-3.81c.09-.03,.18-.08,.27-.14-.06,.09-.12,.19-.2,.29-.02-.05-.05-.1-.07-.15Zm3.36-2.79c.17,.28,.34,.55,.53,.75-.04,.06-.09,.12-.13,.19-.15-.36-.32-.81-.4-.94Zm-26.2,8.12h0Zm22.25-2.39s-.05,.09-.07,.13c-.05,.07-.1,.13-.15,.2-.14-.26-.26-.49-.34-.66,.18,.14,.37,.24,.56,.33Zm-18.23-.33c-.03,.05-.06,.12-.09,.19-.02-.03-.04-.07-.05-.1,.05-.03,.1-.05,.15-.09Zm-13.73,2.28c-.06,.09-.12,.18-.19,.28-.05-.1-.09-.19-.14-.29,.11,.01,.22,.02,.32,0Zm44.14-20.42c-.3,.62-.7,1.44-1.12,2.31-.31-.68-.6-1.41-.86-2.16,.65,.23,1.32,.17,1.98-.16Zm-34.81,19.92c-.04,.06-.08,.11-.13,.17-.03-.05-.07-.1-.1-.15,.07,0,.15,0,.22-.02Zm-8.37-1.4s-.04,.07-.06,.1c-.13,.2-.27,.38-.42,.56-.27-.37-.56-.75-.72-.99,.39,.25,.79,.36,1.2,.33Zm.36,19.62c-.08-.12-.15-.23-.22-.35,.25-.14,.46-.28,.6-.36-.07,.12-.24,.43-.38,.71Zm7.91-.81s.07-.04,.1-.06c.01,.02,.03,.04,.05,.06-.03,.05-.06,.12-.1,.18-.02-.06-.03-.12-.05-.18Zm7.65-.49c.31-.22,.58-.42,.77-.56-.09,.18-.26,.56-.44,.96-.1-.12-.21-.26-.33-.4Zm15.3-2.94c-.07-.1-.13-.21-.19-.31,.21-.12,.4-.24,.52-.31-.06,.1-.22,.39-.32,.62Zm8.13-3.37c.16-.09,.31-.21,.46-.33,.12-.03,.24-.05,.36-.1,.01,0-.02-.07-.07-.15,.09-.08,.18-.16,.26-.24l-.38,1.71c-.2-.27-.44-.59-.64-.88Zm8.43-4.34c.08-.08,.15-.14,.23-.22-.04,.1-.08,.23-.12,.38-.04-.05-.07-.1-.11-.16Z"/><path d="M101.19,237.49s-1.26-1.6-1.84-2.58c.5,.05,1.01-.03,1.53-.25,.12-.05-1.89-2.81-2.73-4.09,.28,.23,1.34,.98,1.64,1.06,.15,.04-1.66-2.51-2.06-3.22,.58,.37,1.21,.44,1.81,.27,.13-.04-1.86-3.4-2.71-4.89,.51,.21,1.04,.25,1.54,.07,.14-.05-.97-1.19-1.33-1.66,.61,.32,1.24,.4,1.87,.1,.12-.06-1.37-2.04-2.39-3.63,.37,0,.76-.1,1.05-.43,0,0,.02-.03,.01-.04-1.16-.88-2.29-1.96-3.04-3.51,.73,1.1,1.73,1.43,2.55,1.09,0,0,.01-.01,.02-.02-.06-.06-.12-.12-.18-.19-.5-.52-2.17-2.77-2.54-3.38,.24,.17,.48,.26,.74,.29-.29-.38-.56-.81-.79-1.3-.24-.36-.47-.76-.68-1.22-.24-.53-.63-1.57-.78-1.82,.5,.84,1.05,1.65,1.69,1.64h0c-.17-.2-.34-.42-.5-.65-.14-.19-.27-.4-.4-.62-.03-.04-.05-.08-.08-.12-.13-.22-.26-.46-.38-.7-.02-.04-.04-.08-.06-.12-.12-.22-.22-.46-.33-.7-.03-.06-.06-.12-.09-.18-.1-.23-.2-.47-.3-.71-.03-.07-.06-.14-.09-.21-.1-.25-.2-.51-.29-.77-.02-.06-.05-.12-.07-.19-.23-.64-.45-1.3-.65-1.95h0l-.02-.07c-.41,1.2-.9,2.32-1.37,3.41-.57,1.34-1.21,2.65-1.99,3.55,0,0,.02,0,.04,0,.03,0,.05,0,.08-.01h0s.06,0,.1-.01c.03,0,.06-.01,.1-.02,.04-.01,.09-.04,.13-.06,.03-.02,.07-.03,.1-.05,.04-.03,.08-.06,.12-.09,.03-.02,.06-.05,.09-.07,.04-.04,.08-.08,.12-.12,.03-.03,.06-.06,.09-.09,.04-.05,.08-.1,.13-.15,.03-.03,.05-.06,.08-.09,.05-.06,.1-.13,.14-.2,.02-.03,.04-.05,.05-.07,.06-.09,.12-.18,.18-.27v-.02c.08-.1,.14-.21,.2-.31-.15,.25-.54,1.29-.78,1.82-.41,.91-1.59,2.54-1.51,2.53,.01,0,.02,0,.04,0h0c.26-.03,.5-.12,.74-.29-.8,1.28-2.82,3.53-2.71,3.58,.03,.01,.06,.02,.09,.03h-.01s.1,.03,.14,.04c.05,.01,.09,.03,.14,.04,.07,.01,.13,.01,.2,.02,.05,0,.09,0,.14,0,.07,0,.14-.01,.21-.02,.05,0,.09,0,.14-.02,.07-.02,.14-.04,.21-.07,.04-.02,.09-.03,.13-.05,.07-.03,.14-.07,.21-.11,.04-.02,.09-.04,.13-.07,.07-.05,.14-.11,.21-.16,.04-.03,.08-.06,.12-.1,.07-.07,.14-.15,.21-.22,.03-.04,.07-.07,.1-.11,.1-.12,.2-.26,.29-.4-.04,.09-.09,.17-.13,.25-.13,.27-.25,.54-.38,.8-.19,.39-.4,.76-.61,1.11-.07,.12-.14,.25-.22,.36-.41,.62-.9,1.15-1.44,1.52-.43-.77-1.27-2.16-1.92-3.37,.34,0,.7-.12,.96-.47,0,0,.02-.04,0-.04-1.06-.97-2.1-2.14-2.79-3.84,.67,1.2,1.59,1.57,2.35,1.19,0,0,.01-.01,.01-.02-.06-.07-.11-.13-.17-.21-.46-.57-1.99-3.03-2.33-3.69,.22,.18,.44,.29,.68,.32-.27-.42-.52-.89-.73-1.43-.22-.39-.43-.83-.63-1.34-.22-.58-.58-1.71-.71-1.99,.46,.92,.96,1.8,1.55,1.8h0c-.65-.89-1.21-2.08-1.71-3.4-.01-.03-.02-.07-.03-.1-.11-.3-.22-.6-.32-.91-.02-.07-.05-.15-.07-.22-.09-.27-.18-.54-.26-.82-.04-.12-.07-.25-.11-.37-.07-.23-.14-.46-.2-.69-.05-.17-.09-.34-.14-.51-.05-.2-.11-.4-.16-.6-.38,1.31-.83,2.54-1.26,3.73-.53,1.46-1.11,2.89-1.83,3.88,0,0,.02,0,.03,0,.02,0,.05,0,.07-.01h0s.05,0,.07-.01c.04,0,.07-.02,.11-.03,.03-.01,.07-.03,.1-.05,.04-.02,.07-.04,.11-.07,.03-.03,.07-.06,.1-.09s.07-.06,.1-.09c.04-.04,.07-.08,.11-.12,.03-.03,.06-.07,.08-.1,.04-.05,.08-.11,.12-.17,.02-.03,.05-.06,.07-.1,.04-.07,.08-.14,.13-.21,.02-.03,.04-.06,.05-.09,.05-.08,.09-.17,.14-.25,.01-.03,.03-.05,.04-.07,.06-.11,.11-.22,.17-.33-.13,.27-.49,1.41-.71,1.99-.38,.99-1.46,2.78-1.39,2.77,.01,0,.02,0,.03,0h0c.24-.04,.46-.13,.68-.32-.74,1.4-2.59,3.86-2.49,3.91,.02,.01,.05,.02,.08,.03h0s.07,.02,.1,.03c.06,.02,.11,.04,.17,.05,.05,0,.09,0,.14,.01,.06,0,.11,.01,.17,.01,.05,0,.1-.01,.15-.02,.05,0,.1-.01,.16-.03,.06-.02,.11-.04,.17-.06,.05-.02,.1-.04,.14-.06,.06-.03,.12-.07,.18-.12,.04-.03,.09-.05,.13-.09,.06-.05,.13-.11,.19-.17,.04-.04,.08-.07,.11-.11,.07-.08,.13-.16,.2-.25,.03-.04,.06-.07,.08-.11,.09-.13,.18-.28,.26-.44-.04,.1-.09,.19-.12,.28-.12,.29-.23,.59-.35,.88-.18,.42-.36,.83-.56,1.22-.07,.13-.13,.26-.2,.39-.53,.94-1.18,1.71-1.92,2.06,0,0-.03,.04-.02,.05,.3,.22,.62,.27,.95,.23-.89,1.6-1.95,3.29-1.85,3.35h.01c.13,.08,.25,.12,.38,.16,.02,0,.03,.01,.05,.02,.14,.03,.27,.04,.41,.03,0,0,.01,0,.02,0,.14-.01,.27-.04,.41-.09,0,0,.01,0,.02,0,.14-.05,.28-.12,.42-.21-.33,.51-1.35,1.76-1.22,1.81,.46,.19,.95,.15,1.42-.08-.78,1.63-2.62,5.31-2.49,5.35,.56,.18,1.13,.1,1.66-.3-.18,.39-.67,1.2-1.09,1.9-.52-.93-1.24-2.15-1.65-2.87,.43,.18,.87,.21,1.29,.06,.12-.04-.82-.99-1.12-1.39,.51,.27,1.04,.34,1.57,.08,.1-.05-1.15-1.71-2-3.04,.31,0,.64-.09,.88-.36,0,0,.02-.03,.01-.04-.97-.74-1.92-1.64-2.54-2.94,.61,.92,1.45,1.2,2.14,.91,0,0,0,0,.01-.01-.05-.05-.1-.1-.15-.16-.42-.44-1.81-2.32-2.13-2.83,.2,.14,.4,.22,.62,.24-.24-.32-.47-.68-.66-1.09-.2-.3-.4-.64-.57-1.03-.2-.44-.53-1.31-.65-1.52,.42,.7,.88,1.38,1.41,1.38h0c-.15-.17-.29-.36-.43-.55-.02-.03-.04-.06-.05-.08-.12-.17-.23-.35-.35-.54-.04-.06-.07-.13-.11-.2-.09-.16-.18-.32-.27-.48-.05-.11-.1-.22-.16-.33-.06-.14-.13-.27-.19-.41-.06-.14-.12-.29-.18-.43-.05-.11-.1-.22-.14-.34-.07-.18-.14-.36-.21-.55-.03-.08-.06-.17-.09-.25-.08-.22-.15-.44-.23-.66-.02-.05-.04-.11-.05-.16-.09-.27-.18-.54-.26-.81l-.02-.07c-.34,1.01-.75,1.95-1.14,2.86-.48,1.12-1.01,2.21-1.66,2.97,0,0,.02,0,.03,0,.02,0,.04,0,.07,0h0s.05,0,.08,0c.03,0,.06-.01,.09-.02,.03-.01,.07-.03,.1-.05,.03-.01,.06-.03,.09-.04,.03-.02,.06-.04,.09-.07,.03-.02,.06-.04,.09-.07,.03-.03,.06-.06,.09-.09,.03-.03,.06-.05,.08-.08,.03-.03,.06-.07,.09-.11,.03-.03,.05-.06,.08-.1,.03-.04,.06-.09,.1-.13,.02-.03,.05-.06,.07-.09,.04-.06,.09-.13,.13-.19,.01-.02,.02-.03,.03-.05,.05-.08,.1-.17,.16-.26-.12,.21-.45,1.08-.65,1.52-.35,.76-1.33,2.13-1.26,2.12,0,0,.02,0,.03,0h0c.21-.03,.42-.1,.62-.24-.67,1.07-2.36,2.96-2.27,3,.02,.01,.05,.01,.07,.02h-.01s.09,.03,.14,.04c.03,0,.07,.02,.1,.02,.05,0,.11,.01,.16,.01,.04,0,.08,0,.12,0,.05,0,.1,0,.14-.02,.05,0,.1,0,.14-.02,.04,0,.08-.03,.13-.04,.05-.02,.11-.03,.16-.06,.04-.02,.07-.04,.11-.06,.06-.03,.12-.06,.17-.1,.03-.02,.07-.05,.1-.08,.06-.04,.12-.09,.17-.14,.03-.03,.06-.07,.1-.1,.05-.06,.11-.11,.16-.17,.08-.1,.16-.21,.24-.34-.04,.07-.08,.15-.11,.21-.11,.22-.21,.45-.32,.67-.16,.33-.33,.64-.52,.94-.06,.1-.11,.2-.18,.29-.48,.72-1.08,1.31-1.75,1.58,0,0-.02,.03-.02,.04,.27,.17,.57,.21,.86,.18-.81,1.22-1.78,2.52-1.69,2.57,.13,.07,.27,.11,.4,.13,.04,0,.08,0,.12,0,.09,0,.18,.02,.28,.02,.02,0,.03,0,.05,0,.25-.03,.49-.1,.73-.23-.3,.39-1.24,1.35-1.12,1.39,.42,.15,.86,.12,1.29-.06-.23,.4-.55,.96-.89,1.54h0c-.45,.78-.92,1.59-1.18,2.08-.39-.58-.82-1.23-.98-1.52,.49,.31,1.01,.37,1.52,.23,.11-.03-1.56-2.85-2.27-4.1,.43,.18,.87,.21,1.29,.06,.12-.04-.82-1-1.12-1.39,.51,.27,1.04,.34,1.57,.08,.1-.05-1.15-1.7-2-3.04,.31,0,.64-.09,.88-.36,0,0,.02-.03,.01-.03-.97-.74-1.92-1.64-2.54-2.94,.61,.92,1.45,1.2,2.14,.91v-.02c-.04-.05-.09-.1-.14-.16-.42-.44-1.81-2.32-2.13-2.83,.2,.14,.4,.22,.62,.24-.24-.32-.47-.68-.66-1.09-.2-.3-.4-.64-.57-1.03-.2-.44-.53-1.31-.65-1.52,.42,.7,.88,1.38,1.41,1.38h0c-1.17-1.36-2.04-3.59-2.73-5.79h0s-.01-.04-.02-.06c-.34,1-.75,1.95-1.14,2.86-.33,.76-.68,1.51-1.08,2.16-.3-.44-.6-.88-.87-1.31,.37,0,.76-.1,1.04-.43,0,0,.03-.03,.01-.04-1.15-.88-2.29-1.96-3.04-3.51,.73,1.1,1.74,1.43,2.55,1.09,0,0,.01-.01,.02-.02-.06-.06-.12-.12-.18-.19-.5-.52-2.16-2.77-2.54-3.38,.24,.17,.48,.26,.74,.29-.29-.38-.57-.81-.79-1.3-.25-.36-.47-.76-.68-1.22-.24-.53-.63-1.57-.78-1.81,.5,.84,1.05,1.65,1.69,1.64h0c-.18-.21-.35-.42-.51-.66-.04-.06-.08-.13-.12-.19-.12-.18-.24-.36-.36-.56-.04-.07-.07-.14-.11-.21-.11-.2-.23-.4-.34-.61-.04-.08-.07-.16-.11-.23-.1-.21-.21-.42-.31-.64-.05-.1-.09-.21-.13-.31-.09-.2-.17-.4-.26-.61-.06-.15-.11-.3-.17-.45-.06-.17-.13-.33-.19-.5-.09-.24-.17-.49-.26-.73-.03-.08-.05-.15-.08-.23-.11-.32-.21-.65-.31-.97h0s-.02-.04-.02-.07c-.41,1.2-.9,2.32-1.37,3.41-.57,1.34-1.21,2.65-1.99,3.55,0,0,.02,0,.03,0,.03,0,.06,0,.08-.01h0s.07,0,.1-.01c.03,0,.06-.01,.09-.02,.05-.02,.09-.04,.14-.06,.03-.01,.05-.03,.08-.04,.05-.03,.1-.07,.14-.1,.02-.02,.05-.04,.07-.06,.05-.04,.1-.09,.15-.15,.02-.02,.04-.04,.06-.06,.05-.06,.11-.13,.16-.19,.01-.02,.03-.03,.04-.05,.06-.08,.12-.16,.18-.25l.02-.02c.13-.19,.26-.4,.38-.61-.15,.25-.54,1.29-.78,1.81-.41,.91-1.59,2.54-1.51,2.53,.01,0,.02,0,.03,0h0c.26-.03,.5-.12,.74-.29-.8,1.28-2.82,3.54-2.71,3.58,.03,.01,.06,.02,.09,.03h-.01s.09,.03,.14,.04c.05,.01,.1,.03,.15,.04,.06,0,.12,.01,.17,.02,.05,0,.11,0,.16,0,.06,0,.12-.01,.17-.02,.06,0,.11-.01,.17-.02,.06-.01,.12-.04,.18-.06,.06-.02,.11-.03,.17-.06,.06-.03,.12-.06,.17-.09,.05-.03,.11-.06,.16-.09,.06-.04,.12-.09,.17-.14,.05-.04,.1-.08,.15-.12,.06-.06,.12-.13,.18-.19,.04-.05,.09-.09,.13-.14,.1-.12,.19-.26,.28-.4-.04,.09-.09,.17-.13,.25-.13,.27-.25,.54-.39,.8-.2,.4-.41,.78-.63,1.14-.07,.11-.13,.22-.2,.33-.57,.86-1.29,1.57-2.09,1.88,0,0-.03,.04-.02,.04,.33,.2,.68,.25,1.03,.21-.97,1.46-2.12,3.01-2.02,3.06,0,0,.01,0,.02,0h0c.06,.03,.12,.04,.18,.06,.1,.04,.2,.08,.29,.1,.01,0,.02,0,.03,0,.46,.08,.91-.02,1.36-.26-.36,.47-1.47,1.61-1.33,1.66,.5,.18,1.03,.14,1.54-.07-.23,.41-.56,.97-.9,1.55-.05,.09-.11,.19-.16,.28h0c-.22,.39-.45,.78-.66,1.16-.87-1.17-2.43-3.13-3.24-4.24,.39,.29,1.89,1.24,2.32,1.35,.21,.05-2.34-3.18-2.91-4.1,.82,.47,1.7,.56,2.56,.35,.18-.05-2.64-4.32-3.84-6.21,.72,.27,1.47,.32,2.18,.09,.2-.06-1.37-1.51-1.88-2.11,.86,.41,1.76,.51,2.65,.12,.17-.07-1.94-2.58-3.37-4.61,.52-.01,1.08-.13,1.48-.55,0,0,.03-.04,.02-.05-1.63-1.12-3.24-2.49-4.29-4.46,1.03,1.4,2.45,1.82,3.61,1.38,0,0,.01-.02,.02-.02-.09-.08-.17-.16-.26-.24-.71-.66-3.06-3.52-3.59-4.29,.33,.21,.68,.33,1.05,.37-.41-.48-.8-1.03-1.12-1.66-.35-.45-.67-.97-.97-1.55-.34-.67-.89-1.99-1.1-2.31,.7,1.06,1.48,2.1,2.38,2.09h0c-.25-.26-.49-.54-.72-.83-.13-.16-.25-.35-.37-.52-.1-.14-.2-.27-.3-.42-.17-.26-.33-.53-.49-.8-.04-.08-.09-.15-.14-.23-.19-.33-.37-.67-.54-1.02-.02-.03-.03-.06-.05-.09-.19-.37-.37-.75-.54-1.14v-.02c-.18-.38-.34-.76-.5-1.15,0-.02-.02-.05-.03-.07-.13-.33-.26-.67-.39-1-.03-.08-.07-.17-.1-.25-.09-.23-.17-.46-.25-.7-.07-.21-.15-.42-.22-.63-.58,1.53-1.27,2.95-1.93,4.34-.81,1.7-1.71,3.37-2.81,4.52,.01,0,.03,.01,.05,.01,.04,0,.08-.01,.11-.01h-.01s.08,0,.12-.01c.05,0,.1-.02,.15-.03,.06-.02,.11-.04,.17-.07,.05-.02,.1-.04,.15-.07,.06-.03,.11-.07,.16-.11,.05-.03,.09-.06,.14-.1,.06-.04,.11-.1,.17-.15,.04-.04,.09-.08,.13-.12,.06-.06,.12-.12,.17-.19,.04-.04,.08-.08,.11-.12,.06-.07,.12-.15,.18-.23,.03-.04,.06-.08,.09-.12,.07-.09,.14-.19,.21-.28,.02-.03,.04-.06,.06-.09,.09-.13,.18-.26,.26-.39-.21,.32-.76,1.64-1.1,2.31-.59,1.16-2.25,3.22-2.13,3.22,.02,0,.03,0,.05,0h0c.36-.04,.71-.16,1.04-.37-.54,.77-1.46,1.82-2.26,2.71-.55-.94-1.16-2-1.68-2.97,.49-.02,1.01-.17,1.39-.68,0,0,.03-.05,.02-.06-1.53-1.4-3.04-3.1-4.04-5.55,.97,1.74,2.31,2.27,3.39,1.72,.01,0,.01-.02,.02-.03-.08-.09-.17-.19-.25-.3-.66-.82-2.88-4.38-3.38-5.34,.32,.27,.64,.42,.99,.46-.39-.6-.75-1.28-1.05-2.06-.33-.56-.63-1.21-.91-1.94-.32-.83-.83-2.48-1.03-2.87,.66,1.33,1.39,2.61,2.24,2.6h0c-.23-.32-.46-.67-.68-1.04-.01-.02-.03-.05-.04-.08-.2-.35-.4-.72-.6-1.11-.02-.04-.04-.09-.06-.13-.18-.38-.36-.76-.53-1.16-.03-.07-.06-.14-.09-.21-.16-.38-.32-.77-.47-1.18-.03-.09-.06-.18-.1-.27-.14-.39-.29-.79-.42-1.19-.03-.1-.07-.21-.1-.31-.13-.4-.26-.8-.39-1.21-.03-.09-.05-.18-.08-.28-.13-.43-.25-.85-.38-1.28-.02-.07-.04-.13-.05-.2-.13-.46-.25-.92-.38-1.39-.54,1.9-1.2,3.68-1.82,5.4-.77,2.12-1.6,4.19-2.64,5.62,.01,0,.03,.02,.04,.02,.04,0,.07-.01,.11-.02h0s.07,0,.11-.02c.05-.01,.11-.02,.16-.04,.05-.02,.09-.05,.14-.07,.05-.03,.11-.06,.16-.1,.04-.03,.09-.08,.13-.11,.05-.05,.1-.09,.15-.14,.04-.05,.09-.1,.13-.15,.05-.06,.1-.11,.14-.17,.05-.06,.09-.13,.14-.2,.04-.06,.08-.12,.12-.18,.06-.09,.12-.19,.17-.29,.03-.05,.06-.09,.09-.14,.08-.14,.16-.28,.23-.43l.02-.03c.08-.16,.17-.33,.25-.49-.2,.39-.71,2.04-1.03,2.87-.55,1.44-2.11,4.02-2.01,4.01,.01,0,.03,0,.05,0h0c.34-.05,.67-.19,.98-.46-1.07,2.03-3.75,5.59-3.6,5.66,.04,.02,.08,.02,.11,.04,0,0-.01,0-.02,0,.06,.03,.12,.04,.18,.06,.07,.02,.13,.05,.2,.06,.08,.02,.16,.02,.23,.02,.07,0,.14,.02,.21,.01,.08,0,.16-.02,.24-.03,.07-.01,.14-.02,.22-.04,.08-.02,.16-.06,.24-.09,.07-.03,.14-.05,.21-.09,.09-.05,.17-.11,.26-.17,.06-.04,.12-.08,.18-.12,.1-.08,.19-.17,.29-.27,.05-.05,.1-.09,.15-.14,.11-.12,.22-.27,.32-.41,.03-.04,.06-.07,.09-.11,.13-.2,.26-.41,.38-.64-.06,.14-.12,.28-.17,.4-.17,.42-.34,.85-.51,1.27-.15,.37-.31,.73-.47,1.08-.07,.14-.14,.28-.21,.42-.14,.28-.27,.56-.42,.83-.76,1.36-1.71,2.48-2.78,2.98,0,0-.04,.06-.03,.07,.43,.32,.9,.4,1.37,.33-1.29,2.32-2.82,4.77-2.68,4.85,0,0,.01,0,.02,.01h0s.02,0,.03,.01c.19,.11,.39,.18,.58,.23,.01,0,.03,0,.04,0,.19,.04,.39,.05,.58,.04,.01,0,.02,0,.04,0,.2-.02,.39-.06,.58-.13h.02c.2-.08,.4-.18,.6-.31-.48,.74-1.96,2.55-1.77,2.63,.67,.28,1.37,.22,2.05-.12-.09,.19-.19,.39-.29,.61,0,.02-.02,.04-.03,.05-.08,.16-.16,.32-.24,.49-1.27,2.6-3.2,6.54-3.05,6.59,.8,.27,1.63,.15,2.41-.43-.53,1.14-2.83,4.66-2.63,4.6,.4-.12,1.71-.81,2.08-1.17-1.12,2.03-3.79,6.4-3.63,6.48,.08,.04,.15,.05,.23,.08,0,0-.02,0-.02,.01,.13,.06,.27,.08,.4,.13,.1,.03,.19,.07,.29,.09,.18,.04,.35,.05,.53,.07,.09,0,.18,.02,.28,.02,.18,0,.36-.03,.53-.06,.09-.01,.17-.01,.26-.04,.26-.06,.52-.15,.78-.26-.06,.07-.12,.15-.17,.23-.11,.15-.24,.31-.37,.47-.02,.03-.04,.05-.06,.08-.96,1.13-2.4,2.52-3.13,3.31-.03,.03-.06,.07-.09,.1-.03,.03-.07,.08-.1,.11h0c-.19,.22-.3,.37-.27,.4,1.22,1.64,3.37,.55,4.68-.03,.05-.02,.09-.04,.13-.06-.87,1.54-3.19,4.57-3.02,4.61,.09,.02,.17,.02,.26,.03,0,0-.02,0-.02,0,.06,0,.12,0,.18,0,.11,0,.23,.02,.34,.02,.11,0,.22,0,.33-.02,.1,0,.2-.01,.3-.03,.12-.02,.25-.04,.37-.07,.09-.02,.17-.04,.26-.06,.14-.04,.27-.09,.41-.14,.07-.03,.15-.05,.22-.08,.15-.06,.29-.13,.44-.21,.06-.03,.13-.06,.19-.09,.16-.09,.32-.19,.47-.29,.05-.03,.11-.06,.16-.1,.17-.12,.34-.25,.51-.38,.04-.03,.08-.06,.12-.09,.21-.17,.42-.35,.62-.55-.02,.03-.03,.06-.05,.1-.04,.09-1.59,2.2-1.42,2.25,.68,.21,2.72-1.29,3.44-1.83-.23,.46-1.08,2.35-.85,2.29,.92-.23,1.95-.9,2.94-1.99-.17,.47-.49,1.78-.4,1.77,.84-.17,1.69-1.14,2.48-2l-.57,3.04h0l-.53,2.82h4.55l-.59-3.16h0l-.49-2.62c.27,.08,.55,.12,.84,.12,.31,.69,.65,1.29,1.04,1.78-.6,.65-1.05,1.14-.97,1.16,.09,.01,.19,.01,.28,.02-.01,0-.02,0-.03,0,.08,0,.16,0,.23,0,.11,0,.22,.01,.33,.01,.11,0,.21,0,.32-.01,.12,0,.25-.01,.37-.03,.09,0,.19-.03,.28-.04,.13-.02,.27-.04,.4-.07,.08-.02,.17-.04,.25-.06,.14-.04,.28-.07,.43-.12,.08-.03,.16-.06,.24-.09,.14-.05,.29-.1,.43-.16,.08-.04,.17-.08,.25-.12,.01,0,.03-.01,.04-.02,.23,.09,.46,.14,.7,.11-.36,.4-.66,.77-.58,.79,.72,.17,2.89-1.03,3.65-1.47-.24,.37-1.15,1.89-.91,1.84,.98-.18,2.08-.72,3.13-1.6-.18,.38-.52,1.43-.43,1.42,.84-.13,1.68-.83,2.48-1.48l-.45,2.43h0l-.56,3h4.83l-1.14-6.1c.1-.14,.2-.28,.29-.42,.57,1.24,1.28,2.33,2.16,2.95,.12,.09,.21-1.77,.18-2.43,.92,1.79,2.22,2.93,3.65,2.39,.11-.04-.42-1.92-.68-2.64,.26,.31,.52,.62,.78,.91,1.44,.79,2.92,1.14,4.37,.95-.02,.02-.03,.03-.04,.04-.03,.03-.07,.07-.11,.1-.11,.1-.22,.21-.34,.31-.05,.04-.09,.09-.14,.13-.11,.1-.21,.19-.32,.29-.06,.05-.13,.11-.19,.17-.02,.01-.03,.03-.05,.04-.46,.4-.9,.77-1.19,1.03l-.04,.03s-.06,.06-.09,.08h0c-.14,.13-.23,.23-.21,.25,.92,1.04,2.54,.35,3.52-.02,.03-.01,.07-.03,.1-.04-.66,.97-2.4,2.89-2.27,2.91,.07,.01,.13,.01,.2,.02,0,0-.02,0-.02,0,.06,0,.12,0,.19,0,.06,0,.13,0,.19,0,.1,0,.2,0,.3-.01,.06,0,.12,0,.18-.01,.1-.01,.2-.03,.31-.05,.06-.01,.12-.02,.17-.03,.1-.03,.21-.06,.31-.09,.06-.02,.11-.03,.17-.05,.11-.04,.21-.08,.32-.13,.05-.02,.11-.04,.16-.07,.11-.05,.21-.11,.32-.16,.05-.03,.1-.05,.16-.08,.11-.06,.23-.14,.34-.21,.05-.03,.09-.05,.13-.08,.16-.11,.31-.22,.47-.34-.01,.02-.03,.04-.04,.06-.04,.06-1.2,1.39-1.07,1.42,.51,.13,2.05-.81,2.58-1.16-.17,.29-.81,1.48-.64,1.45,.69-.14,1.47-.57,2.21-1.26-.13,.29-.37,1.13-.3,1.12,.63-.11,1.27-.72,1.86-1.26l-.82,3.7h1.88c-.25,.22-.47,.41-.64,.55l-.02,.02s-.06,.05-.08,.07h0c-.11,.11-.19,.19-.17,.21,.77,.87,2.12,.29,2.95-.02,.03,0,.06-.02,.08-.03-.55,.81-2.01,2.42-1.9,2.44,.07,.01,.13,0,.2,0-.02,0-.04,0-.05,.01,.12,.01,.24,0,.37,0,.12,0,.24,0,.36,0,.16-.02,.32-.07,.48-.11,.11-.03,.21-.04,.32-.08,.18-.06,.36-.15,.54-.24,.09-.04,.17-.07,.26-.12,.26-.15,.53-.33,.78-.54-.01,.02-.02,.04-.03,.05-.03,.05-1,1.16-.9,1.19,.42,.11,1.71-.68,2.17-.97-.15,.24-.68,1.24-.54,1.21,.58-.12,1.23-.48,1.85-1.05-.11,.25-.31,.94-.25,.93,.53-.09,1.06-.6,1.56-1.06l-.69,3.1h2.86l-.75-3.36c.08-.12,.17-.24,.24-.37,.34,.82,.76,1.53,1.28,1.94,.07,.06,.13-1.16,.11-1.6,.54,1.18,1.31,1.93,2.16,1.58,.04-.02-.07-.52-.2-1.01,.34,.28,.76,.35,1.2,.31,.38,.13,.77,.21,1.15,.21-.64,.8-1.46,1.72-1.38,1.74,.07,.01,.14,0,.21,0-.02,0-.04,.01-.06,.01,.13,.01,.26,0,.4,0,.11,0,.22,0,.33,0,.16-.02,.32-.07,.48-.11,.11-.03,.22-.04,.32-.08,.17-.06,.33-.14,.5-.23,.1-.05,.2-.08,.3-.14,.26-.15,.52-.33,.78-.53l-.03,.05s-1,1.16-.89,1.19c.42,.11,1.71-.68,2.16-.97-.14,.24-.68,1.24-.54,1.21,.58-.12,1.23-.48,1.86-1.05-.11,.25-.31,.94-.25,.93,.53-.09,1.06-.6,1.56-1.06l-.69,3.09h2.86l-.75-3.36c.08-.12,.17-.24,.25-.37,.34,.82,.76,1.53,1.28,1.95,.07,.06,.13-1.16,.11-1.6,.54,1.18,1.31,1.93,2.16,1.58,.07-.03-.25-1.26-.4-1.74,.15,.2,.3,.41,.46,.6,.18,.11,.35,.19,.53,.28-.22,.32-.36,.54-.32,.55,.06,.01,.12,.01,.18,.02h-.02s.09,0,.14,.01c.07,0,.15,.01,.22,.01,.08,0,.16,0,.23-.01,.07,0,.13,0,.2-.02,.09-.01,.17-.03,.26-.05,.06-.01,.12-.02,.18-.04,.09-.03,.18-.06,.27-.09h.03c.23,0,.47,0,.7-.03,.02,0-.04-.09-.14-.23h.02c.1-.07,.21-.13,.31-.2,.04-.03,.08-.05,.13-.08,.11-.08,.23-.17,.34-.25,.03-.02,.06-.04,.09-.07,.14-.12,.29-.24,.43-.38-.01,.02-.02,.05-.04,.07-.03,.06-1.1,1.52-.98,1.55,.47,.15,1.88-.89,2.37-1.26-.16,.32-.75,1.62-.59,1.58,.64-.16,1.35-.62,2.03-1.37-.12,.32-.34,1.23-.28,1.22,.58-.12,1.16-.79,1.71-1.38l-.75,4.04h3.14l-.82-4.38c.09-.16,.18-.32,.27-.5,.37,1.07,.83,2,1.4,2.54,.07,.06,.12-1.11,.12-1.8,.05,.02,.1,.04,.15,.06,.35,.79,.76,1.4,1.23,1.67-.35,.43-.6,.74-.55,.75,.06,0,.13,.01,.19,.02h-.02s.1,0,.14,.01c.08,0,.17,.01,.25,.01s.17,0,.25,0c.07,0,.14,0,.22-.02,.09-.01,.19-.03,.28-.05,.06-.01,.13-.02,.19-.04,.1-.02,.2-.05,.3-.08,.06-.02,.12-.03,.18-.05,.1-.04,.2-.08,.31-.12,.06-.02,.12-.05,.17-.07,.1-.05,.2-.1,.3-.16,.06-.03,.12-.06,.17-.09,.1-.06,.2-.12,.3-.19,.06-.04,.11-.07,.17-.11,.16-.11,.31-.22,.46-.34-.01,.02-.02,.04-.04,.06-.04,.06-1.19,1.39-1.07,1.42,.51,.13,2.05-.81,2.58-1.16-.17,.29-.82,1.48-.64,1.45,.69-.14,1.47-.57,2.22-1.25-.13,.29-.37,1.13-.31,1.11,.63-.11,1.27-.72,1.86-1.26l-.82,3.7h3.42l-.44-1.99h0l-.45-2.01c.1-.15,.2-.29,.29-.45,.4,.98,.9,1.83,1.53,2.32,.09,.07,.15-1.39,.13-1.91,.65,1.41,1.57,2.3,2.58,1.88,.08-.03-.3-1.51-.48-2.07,.18,.24,.37,.49,.55,.71,1.02,.63,2.08,.9,3.11,.74,.13-.02-1.66-1.96-2.33-2.99-.12-.19-.23-.37-.35-.55,.28,.2,.56,.36,.87,.47,.92,.34,1.87,.69,2.77,.05Zm-50.74-26.94s.01-.02,.02-.03c.1-.15,.2-.31,.29-.47-.09,.15-.29,.67-.47,1.1-.05-.07-.1-.14-.14-.21h0c.1-.12,.2-.25,.3-.4Zm8.75,20.22c.11-.06,.21-.12,.27-.17-.05,.08-.12,.18-.19,.28-.03-.04-.05-.08-.08-.11Zm26.31-8.57c-.16,.21-.48,.56-.76,.88-.1-.21-.2-.41-.3-.61,.36,0,.71-.09,1.06-.28Zm-27.16,12.74c-.1,.09-.19,.17-.29,.26-.15-.2-.29-.38-.39-.54-.1-.15-.2-.31-.29-.46,.23,.17,.47,.3,.73,.4,.15,.06,.3,.11,.46,.16-.04,.03-.07,.07-.11,.1-.03,.03-.07,.06-.1,.09Zm26.15-9.05h0Zm.88-1.51c-.07-.15-.14-.3-.21-.45,.19-.03,.37-.07,.56-.15-.1,.18-.22,.38-.34,.6Zm-39.66,8.34s-.03,.03-.05,.05l-.08-.33h.04c.17-.04,.33-.08,.5-.14-.04,.04-.07,.08-.11,.12-.09,.1-.19,.21-.3,.32Zm-.39-3.26c.08,.18,.16,.36,.24,.53-.13,.19-.26,.37-.39,.56l-.14-.64c.1-.15,.2-.3,.29-.45Zm40.2-10.23s.09,0,.13,0c-.27,.41-.56,.83-.83,1.22-.3-.42-.77-1.02-.97-1.34,.54,.34,1.11,.43,1.67,.12Zm-1.11,1.81c-.14,.21-.27,.4-.39,.56-.14-.28-.26-.54-.37-.76,.25,.12,.5,.19,.75,.2Zm-12.17,7.22c-.07,.12-.15,.26-.23,.41-.03-.05-.06-.11-.09-.17,.14-.09,.25-.17,.32-.24Zm-1.38,.64c-.06,.11-.08,.17-.06,.16,.05-.02,.13-.05,.22-.09,.25,.09,.5,.12,.75,.1-.14,.25-.3,.51-.45,.78-.29-.44-.57-.85-.69-1.07,.08,.05,.15,.08,.23,.12Zm-11.05-.12c-.11,.2-.34,.53-.59,.88-.04-.09-.17-.3-.36-.59,.32,0,.64-.1,.95-.29Zm-.62,.92c-.12,.17-.25,.35-.38,.52-.36-.51-.71-1.02-.95-1.39,.22,.18,1.03,.75,1.33,.87Zm-23.4-11.03c-.2,.38-.32,.62-.28,.63,.61,.17,1.23,.09,1.81-.28-.17,.31-.58,.88-.98,1.44-.49-.59-1.03-1.25-1.38-1.78,.28,.02,.55,.01,.83-.01Zm-17.61-24.91c.1-.08,.2-.18,.29-.28,.05-.05,.1-.09,.14-.14,.14-.16,.28-.33,.4-.51-.06,.11-.13,.22-.18,.32-.18,.34-.36,.68-.55,1.02-.08,.14-.17,.27-.25,.41-.08-.15-.18-.32-.28-.51,.08-.05,.17-.12,.25-.18,.06-.04,.12-.08,.17-.12Zm-.77,1.84s-.01,.02-.02,.03c-.09,.13-.17,.27-.27,.4-.1,.14-.22,.26-.33,.39-.35-.48-.72-.97-.93-1.28,.5,.32,1.02,.48,1.54,.45Zm-4.95,27.02c.06-.02,.13-.03,.19-.05,.12,.28,.25,.54,.38,.79-.2,.22-.41,.45-.61,.67,.02-.47,.04-.98,.04-1.41Zm3.86,1.62s-.21,.23-.45,.49c0-.06-.02-.14-.03-.21,.18-.11,.36-.23,.54-.36-.02,.03-.04,.05-.05,.08Zm16.09-2.94c.39,.25,.8,.46,1.23,.6,.8,.27,1.62,.54,2.43,.52-.43,.61-.89,1.27-1.25,1.8-.69-.75-1.48-1.61-1.91-2.22-.17-.23-.33-.47-.49-.7Zm3.58,4.2s.03,0,.04,0c.2-.04,.4-.09,.59-.17-.04,.05-.09,.1-.13,.14-.09,.1-.19,.21-.3,.31-.01-.04-.09-.14-.21-.28Zm20.54,10.44c.09,.12,.18,.23,.27,.34l-.04,.04h0s-.07,.06-.09,.09c-.05-.18-.1-.35-.14-.47Zm2.69,.7c.11-.04,.22-.08,.31-.12,.03-.01,.06-.02,.08-.03-.07,.1-.15,.22-.24,.34-.05-.06-.1-.12-.15-.19Zm11.62-.1c.16-.04,.33-.08,.48-.14,.22,.08,.44,.16,.66,.21-.16,.25-.33,.5-.51,.76-.24-.3-.46-.59-.63-.83Zm12.68,1.44s.1-.03,.15-.04c.08,.13,.16,.26,.25,.38,.03,.02,.06,.03,.09,.05-.1,.13-.2,.25-.31,.38-.05-.26-.12-.53-.17-.77Z"/></g></g></svg>