<?xml version="1.0" encoding="UTF-8"?><svg id="a" xmlns="http://www.w3.org/2000/svg" viewBox="0 0 741.54 179.8"><path d="M361.6,.2c-9.48,.8-20.74,3.75-28.96,7.58-9.52,4.4-16.2,10.76-20.86,19.89-1.98,3.9-3.12,7.35-4.05,12.43-.41,2.27-.85,4.21-.97,4.32-.12,.11-2.27,.83-4.82,1.63-13.41,4.09-26.98,12.81-34.23,22.05-5.35,6.82-8.14,14.78-8.22,23.42l-.04,4.05-4.54,.23c-11.42,.64-22.2,3.56-30.99,8.45-3.97,2.16-8.71,6.18-10.57,8.87-.89,1.29-1.58,1.89-2.19,1.89-.44,0-1.99,.23-3.36,.49l-2.51,.49-2.15-1.63c-7.53-5.83-17.7-10.46-26.98-12.24-8.99-1.71-21.75-1.71-29.97-.04-12.19,2.5-25.07,9.51-31.43,17.13-3.65,4.36-5.27,8.18-5.75,13.68l-.28,2.88-4.29,.26c-19.81,1.1-22.6,1.33-25.6,2.31-2.51,.8-4.17,1.02-10.09,1.29-3.89,.19-9.92,.38-13.37,.38-8.99,0-18.19,.61-29.57,1.89-17.9,2.08-20.29,2.65-23.21,5.68-4.29,4.47-3.16,9.93,2.63,12.62,2.71,1.29,5.27,1.44,12.6,.65l4.74-.49,1.13,.95c2.02,1.78,3.69,2.27,8.59,2.65,2.55,.19,20.41,.49,39.69,.68,19.28,.19,37.14,.53,39.7,.72,17.09,1.33,31.11,1.67,58.93,1.44,33.7-.3,39.13-.57,51.65-2.8,7.41-1.33,10.37-1.25,23.09,.61,16.85,2.42,20.82,2.77,33.01,2.8,10.65,.04,11.02,0,14.99-.98,2.23-.57,5.71-1.78,7.7-2.73,2.02-.95,3.89-1.7,4.21-1.7,.28,0,3.32,.83,6.68,1.86,11.22,3.41,19.77,4.7,31.03,4.7s16.32-1.36,21.75-5.95c1.34-1.17,2.84-2.12,3.24-2.12s3.77,1.02,7.41,2.31c20.66,7.09,52.98,14.47,71.98,16.41,14.99,1.55,31.88,.08,39.98-3.49,5.39-2.39,13.24-9.06,17.54-14.93l1.94-2.62,4.86,.27c2.67,.19,9.52,.3,15.19,.27,12.03-.04,17.46-.57,26.53-2.69,6.04-1.4,6.12-1.4,14.38-1.36,4.58,0,11.79,.3,16,.64,14.95,1.21,24.75,1.52,33.34,1.02,9.15-.49,19.04-1.59,23.86-2.65,5.06-1.14,19.04-1.55,58.25-1.86l34.84-.23,1.9-.91c3.52-1.63,5.59-4.58,5.59-7.99s-2.11-6.52-5.67-8.11c-1.01-.42-2.35-1.18-3.04-1.59-3.56-2.39-1.82-2.2-27.95-2.46-48.65-.53-57.8-.72-59.14-1.44-.65-.38-3.2-2.16-5.67-4.02-8.3-6.25-14.74-9.7-23.13-12.43-7.98-2.61-17.26-3.94-24.34-3.48-8.59,.49-14.34,2.2-26.9,7.8-4.29,1.93-8.91,3.71-10.73,4.13-4.01,.99-10.17,1.33-16.85,.95l-5.19-.27-1.05-1.97c-4.09-7.65-17.13-18.3-27.22-22.2-11.18-4.4-24.51-5.08-39.57-2.12-1.58,.3-2.96,.45-3.08,.3-.12-.15-.81-1.86-1.54-3.83-4.05-10.99-9.72-17.5-19.89-22.77-1.46-.76-2.59-1.59-2.51-1.86,.04-.23,.24-3.41,.45-7.01,.61-10.76-.28-17.24-3.16-23.57-5.1-11.25-13.77-20.12-26.45-27.2-6.72-3.71-16.81-6.97-26.53-8.53-5.75-.91-15.23-1.25-20.78-.8h0Z"/></svg>