<?xml version="1.0" encoding="UTF-8"?><svg id="a" xmlns="http://www.w3.org/2000/svg" viewBox="0 0 432.44 124.33"><path d="M254.34,.2c-9.84,.57-21.39,3.64-31.39,8.33-10.98,5.11-18.43,11.59-25.27,22.05-.37,.57-1.14,1.25-1.62,1.48-.85,.34-1.26,.15-3.73-1.78-7.37-5.83-16.65-10-26.45-11.82-4.21-.8-14.42-.87-18.07-.15-6.48,1.25-12.23,3.71-16.85,7.16-3.16,2.35-5.35,4.77-7.94,8.79-2.23,3.52-2.55,4.32-2.55,6.59,0,1.1-.08,2.08-.2,2.16-.08,.11-4.62-.19-10.01-.64-13.77-1.21-23.33-1.67-34.15-1.67-11.22,.04-16.49,.45-19.24,1.55-1.94,.76-2.27,.8-7.17,.38-2.88-.23-6.72-.49-8.63-.64-5.59-.34-13.49-1.25-20.66-2.31-3.69-.53-7.7-.99-8.91-1.02-7.21-.11-12.15,6.36-9.32,12.2l.77,1.59-1.05-.23c-1.38-.34-2.35,.72-1.7,1.82,.36,.61,.69,.68,2.11,.49,1.38-.19,2.19-.04,4.33,.91,1.78,.8,4.41,1.44,8.3,2.08,5.67,.91,33.46,7.39,39.7,9.21,4.66,1.36,7.41,2.8,17.17,8.79,17.7,10.87,23.74,12.84,40.95,13.18l9.07,.23,5.51,4.92c4.38,3.98,5.67,5.42,6.56,7.2,2.51,5,6.24,8.9,11.18,11.59,10.9,5.95,23.86,7.99,36.21,5.72l4.7-.87,4.82,1.93c6.4,2.58,8.99,3.41,12.88,4.05,7.57,1.21,15.64,1.14,32.2-.42,7.94-.72,12.39-1.4,18.11-2.8,5.95-1.44,9.52-2.8,16.04-6.14l5.35-2.69,7.9-.3c4.33-.15,20.29-.19,35.44-.07,36.46,.26,39.53,.04,43.1-3.34,4.74-4.43,3.36-11.56-2.84-14.55-1.5-.76-4.13-1.21-9.07-1.7-2.23-.19-7.86-.79-12.56-1.33-8.67-.95-23.05-1.78-43.34-2.46-12.39-.42-25.52-1.02-28.88-1.36-2.07-.19-2.11-.23-1.5-1.02,1.42-1.89,6.44-6.29,8.26-7.24,1.09-.53,3.77-1.59,5.95-2.35l4.01-1.36,6.48,.23c3.56,.11,10.86,.68,16.2,1.25,8.75,.91,11.14,1.02,24.1,1.06,19.52,0,69.1-.87,73.11-1.33,1.78-.19,7.45-.53,12.64-.72,10.69-.46,12.68-.91,15.19-3.33,2.06-2.05,2.83-3.67,2.83-6.14,.04-3.75-2.11-6.9-5.79-8.33-2.51-1.02-5.59-1.55-19.4-3.22-15.07-1.86-21.31-2.35-44.35-3.45-11.14-.53-21.51-1.1-23.05-1.25l-2.79-.27-.97-2.65c-4.98-13.79-18.8-27.28-36.86-35.92-11.54-5.53-24.55-9.36-33.74-9.93-1.9-.11-4.17-.26-5.06-.34-.89-.04-3.65,.04-6.08,.19h0Z"/></svg>