<?xml version="1.0" encoding="UTF-8"?><svg id="a" xmlns="http://www.w3.org/2000/svg" viewBox="0 0 904.06 214.37"><path d="M378.71,.36c-25.07,2.2-46.34,10.72-62.95,25.2-12.11,10.57-20.25,23.79-23.53,38.23-1.09,4.81-1.54,16.79-.85,22.35,.24,2.05,.41,3.75,.32,3.83-.08,.08-2.23-.27-4.78-.8-12.64-2.5-23.33-2.16-33.58,.98-17.17,5.34-28.6,15.76-31.35,28.57-.93,4.28-.65,4.02-3.36,3.33-1.38-.3-4.86-.61-8.38-.68l-5.99-.15-6.16-2.01c-6.08-1.97-6.16-1.97-10.98-1.97-4.46,.04-5.27,.15-9.72,1.44-5.67,1.67-8.91,3.03-16.61,6.97l-5.67,2.92-7.7,.23c-5.63,.19-8.63,.45-11.18,1.02-7.53,1.7-13,4.39-17.46,8.56l-2.55,2.39-3.65-.49c-7.53-1.02-18.39-.49-28.15,1.36-5.87,1.14-5.91,1.14-13.89,.76-7.9-.34-14.87-.08-18.63,.76-.93,.19-5.43,.38-10.01,.38-14.82,.08-28.72,.64-31.8,1.29-5.63,1.25-8.99,3.9-9.88,7.84-1.13,4.96,2.15,9.66,7.98,11.33,3.65,1.06,10.25,2.12,16.4,2.69,9.28,.8,40.26,.19,61.65-1.25,10.13-.68,16.16-.61,28.35,.38,10.21,.83,12.96,1.1,20.66,2.01,4.62,.53,5.27,.8,9.52,3.41,4.66,2.92,5.95,3.98,5.47,4.43-.2,.23-3.48,1.1-7.29,1.97l-6.89,1.63-8.46-.23c-10.61-.27-19.24,.19-26.21,1.44-7.09,1.25-9.32,1.82-11.46,2.99-3.93,2.16-4.17,6.89-.49,9.51,1.94,1.4,5.63,1.97,15.23,2.46,7.9,.42,15.88,1.18,25.72,2.46,2.47,.3,8.67,.68,13.77,.8l9.32,.23,8.3,2.58c8.18,2.58,13.93,3.86,23.09,5.19,3.61,.53,6.93,.68,14.58,.64,24.83-.04,37.63-3.6,51.2-14.32l1.86-1.44,3.04,.42c4.29,.61,12.44,.53,16.49-.15,4.05-.64,12.56-3.33,18.35-5.8,2.23-.91,4.78-1.78,5.67-1.86,2.47-.27,25.88,1.82,26.49,2.35,.08,.11-.49,.83-1.3,1.67-4.42,4.58-4.98,10.23-1.5,14.78,1.82,2.31,4.33,3.64,10.69,5.53,11.79,3.56,17.58,4.17,36.9,3.79,16.61-.3,20.7-.27,27.67,.19,10.57,.72,19.6,.42,33.7-1.17,8.95-1.02,16.2-.83,29.45,.76,19.93,2.42,27.95,2.8,35.56,1.7,2.23-.3,5.96-.83,8.3-1.17,3.24-.46,7.61-.64,18.23-.68,16.04-.04,17.01-.19,20.05-2.99,1.74-1.67,2.88-4.36,2.55-6.03-.12-.64,0-.91,.41-.87,.93,.08,1.09-.95,.16-1.18-.44-.07-1.42-.87-2.15-1.7-2.92-3.45-9.48-4.7-22.16-4.36-7.29,.23-8.55,.15-11.54-.49-1.82-.42-5.22-.95-7.57-1.21l-4.25-.42,3.24-.68c1.78-.38,6.24-1.63,9.92-2.8l6.68-2.16,8.99-.42c8.79-.42,9.24-.38,17.22,.61,11.18,1.36,14.1,1.55,18.35,1.06,5.06-.57,7.61-1.25,14.5-3.83,6.24-2.39,6.89-2.46,10.21-1.78l1.98,.46-2.75,1.51c-8.51,4.66-10.53,13.3-4.54,19.44,5.02,5.11,13.04,6.52,24.47,4.21,4.09-.83,4.29-.83,7.7-.19,2.39,.42,5.63,.61,10,.61,8.95,0,27.26-.68,31.19-1.17,1.78-.23,11.34-.53,21.26-.72,27.71-.49,39.86-1.52,61.97-5.34,10.65-1.86,14.22-2.16,28.15-2.46,9.56-.19,11.99-.11,19.24,.61,12.96,1.29,19.81,1.4,25.92,.42,8.06-1.29,25.76-5.42,39.82-9.28,4.62-1.29,6.76-1.7,7.66-1.55,.93,.19,1.18,.15,1.05-.23-.28-.76-4.7-2.2-10.45-3.37-2.79-.61-6.89-1.52-9.11-2.05-10.98-2.58-19.16-3.41-24.79-2.43l-2.59,.46-1.5-1.36c-.81-.76-2.11-1.67-2.88-2.01-3.81-1.78-14.74-2.42-27.79-1.59-7.25,.49-9.44,.49-11.83,.11-1.62-.27-3.04-.57-3.16-.68-.16-.11,1.9-.68,4.54-1.25,2.63-.57,5.71-1.33,6.8-1.71,2.19-.72,6.64-.91,35.65-1.52l14.18-.26,3.89-1.36c5.91-2.05,13.16-3.22,22.56-3.67,8.59-.38,11.99-.87,24.38-3.6,9.52-2.12,14.7-2.84,22.2-3.14l5.95-.27-.04-1.55c-.04-1.97-1.38-4.05-3.4-5.3q-2.31-1.44-35.85-3.18c-6.08-.3-7.78-.57-14.38-2.08-9.8-2.27-14.7-2.54-28.03-1.36-10.86,.95-15.63,.98-24.63,.23-7.37-.61-8.87-.91-12.19-2.46-2.71-1.29-5.23-3.14-11.26-8.22-7.94-6.71-11.71-7.88-26.49-8.33-5.06-.15-8.1-.38-8.3-.65-.12-.23-.73-2.2-1.34-4.4-2.55-9.28-6.64-15-13.53-19.13-8.22-4.93-19.56-6.14-32.89-3.56-4.66,.91-14.3,3.9-21.14,6.59l-4.62,1.82-5.18-.45c-2.79-.27-6.4-.34-7.94-.23-2.67,.27-2.8,.23-3.24-.61-1.82-3.71-10.9-13.11-16.2-16.86-7.7-5.42-18.27-8.87-27.3-8.87h-2.67l-1.5-3.33c-2.96-6.71-7.41-12.35-14.02-17.81-7.01-5.8-14.83-10.15-22.56-12.58-13.16-4.09-35.81-3.94-52.58,.42-4.82,1.21-9.44,3.14-13.49,5.61-1.38,.87-2.59,1.55-2.67,1.55s-1.42-1.67-3-3.71c-7.53-9.85-18.31-20.04-29.49-27.77-18.11-12.58-40.51-20.61-63.11-22.66-5.06-.49-16.97-.45-22.32,0h0Z"/></svg>