<?xml version="1.0" encoding="UTF-8"?><svg id="a" xmlns="http://www.w3.org/2000/svg" viewBox="0 0 1338.87 379.01"><path d="M698.72,.2c-30.91,2.16-66.15,13.72-100.45,33-35.56,19.93-60.39,41.72-81.21,71.12-6.6,9.36-9.36,13.6-13.29,20.65-6.04,10.84-11.71,24.97-14.54,36.3-.73,2.96-1.42,5.34-1.54,5.27-.12-.08-2.31-1.06-4.86-2.27-11.58-5.3-31.96-10-48.97-11.25-20.94-1.52-31.51,1.67-36.37,10.87l-1.54,2.92v5.68c0,5.3,.12,6.06,1.38,10.46,.77,2.61,1.46,5.19,1.54,5.72l.2,.98-2.27-.3c-3.16-.49-10-2.16-19.48-4.81-22.2-6.21-34.79-8.45-48-8.49-24.71-.08-39.41,9.32-36.29,23.15,1.34,5.99,6.16,12.77,15.88,22.51,10.05,9.96,12.92,13.49,11.99,14.36-.28,.27-1.25-.11-3.24-1.36-6.4-3.94-26.37-10.23-38.56-12.12-7.61-1.17-12.11-1.48-21.27-1.52-16,0-25.88,1.71-33.94,5.76-6.04,3.07-9.84,6.59-12.76,11.86-1.46,2.58-1.82,2.96-4.7,4.62-4.58,2.65-9.07,4.74-11.3,5.19-1.09,.23-6.28,.57-11.54,.76-11.75,.45-14.91,.95-26.01,4.05-4.78,1.33-10.9,2.84-13.57,3.33-6.6,1.21-22.84,3.03-35.65,3.94-15.67,1.14-22.76,2.08-25.84,3.41-2.23,.95-3.12,1.1-7.98,1.33-14.42,.61-37.75,3.45-47.51,5.76-4.82,1.14-12.27,3.6-18.88,6.25-7.9,3.22-8.14,3.33-8.14,4.36,0,2.2,4.9,2.61,14.79,1.25,9.88-1.4,33.82-1.4,59.34,0,4.38,.23,5.79,.46,7.17,1.1,2.06,.98,3.2,1.06,3.73,.19,.65-1.14,5.75-.11,17.3,3.45,16.32,4.96,21.51,5.68,41.68,5.68,13.81,0,17.42-.15,44.35-2.05,29.41-2.08,25.76-2.05,34.71-.34,4.29,.83,11.38,2.31,15.8,3.33,10.61,2.46,11.14,2.58,23.61,3.64,13.49,1.17,16.81,1.17,26.21-.04,16.89-2.12,23.37-2.43,35.36-1.67,16.48,1.06,27.1,2.95,44.39,7.96,15.8,4.55,25.24,6.74,44.27,10.27,5.75,1.06,8.39,1.7,7.86,1.89-.45,.15-2.92,.49-5.51,.76-3.77,.38-8.46,.38-23.05,0-10.09-.27-22.89-.42-28.48-.38-7.53,.04-11.38-.08-14.99-.53-19.12-2.46-37.1-2.69-71.09-1.02-3.89,.19-14.74,.61-24.1,.95-22.36,.8-25.03,.99-27.58,2.2-1.78,.83-2.63,.95-8.87,1.14-8.34,.27-10.49,.76-12.92,3.03-5.02,4.74-2.76,12.35,4.21,14.13,1.21,.3,3.04,.95,4.05,1.48,2.51,1.21,5.1,1.55,19.64,2.46,33.9,2.12,41.07,2.69,43.62,3.41,1.42,.38,5.91,1.63,10.05,2.8,13.41,3.71,16,4.66,30.58,10.95,9.52,4.09,14.82,5.46,38.07,9.89,18.07,3.41,24.59,4.32,49.62,6.74,6.6,.64,34.71,.64,40.14,0,3.69-.42,4.13-.38,8.91,.57,4.54,.95,5.79,1.06,13.12,1.02,7.45,0,8.87-.11,17.62-1.48,8.75-1.36,10.17-1.48,17.62-1.48,7.74-.04,8.75,.08,22.28,1.93,24.87,3.49,33.74,4.09,58.53,4.09,14.95-.04,20.29-.15,25.92-.68,15.47-1.48,27.3-3.49,46.78-7.96l12.15-2.8,8.51-.27c9.32-.26,16.77-.91,25.03-2.16,5.14-.79,5.75-.79,16.28-.38,11.62,.49,21.83,.19,35.04-.95,7.49-.64,9.68-.91,17.13-2.27l5.18-.99,10.41,.99c20.78,1.93,33.34,2.42,46.38,1.78,16.53-.8,24.55-2.42,28.92-5.87,.65-.49,1.7-1.82,2.35-2.95,.97-1.67,1.18-2.46,1.18-4.7,.04-1.67,.24-2.92,.57-3.3,.69-.76,.32-1.4-.81-1.4-.49,0-1.46-.64-2.23-1.52-1.54-1.67-5.18-3.49-8.79-4.36-1.34-.3-5.51-1.02-9.32-1.55-6.28-.91-7.05-1.1-8.26-2.08-2.8-2.31-4.21-2.69-11.02-3.03-3.44-.15-12.27-.3-19.65-.34-16.45-.04-20.74-.3-34.06-2.24-15.11-2.2-18.63-2.58-33.98-3.64-14.99-1.06-18.75-1.4-25.52-2.31-8.79-1.17-22.2-3.98-22.72-4.74-.32-.49,1.46-1.14,17.26-6.4,7.7-2.54,14.46-4.89,15.07-5.15,1.98-.95,15.35-.61,46.7,1.17,41.48,2.39,61.41,2.96,89.52,2.65,21.39-.27,29.24-.64,40.51-1.93,7.74-.91,10.53-1.02,30.99-1.29,24.18-.34,28.19-.61,35.08-2.5,4.78-1.29,8.99-3.18,15.15-6.78,10.57-6.21,15.68-7.69,30.78-8.94,3.16-.23,29.45-.53,69.47-.72,38.32-.19,68.5-.49,74.53-.76,7.9-.34,15.76-.34,35.65,.04,26.94,.49,45.2,.23,67.24-.98,5.59-.3,24.55-1.33,42.13-2.27,22.72-1.21,32.61-1.89,34.15-2.31,4.21-1.14,7.13-4.66,7.13-8.68,0-3.71-2.03-6.48-6.04-8.22-1.9-.83-2.59-.87-11.95-.98-5.47-.08-15.11,.04-21.47,.27-6.36,.23-15.84,.53-21.1,.64l-9.56,.27-1.3-1.74c-1.38-1.89-3.73-3.37-6.32-4.02-.89-.23-8.83-.65-17.62-.99-28.15-1.02-34.43-1.48-56.1-4.02-18.19-2.08-24.55-3.3-37.39-7.01-15.59-4.55-21.95-7.43-47.07-21.37-18.83-10.46-26.13-12.69-42.73-13.15-11.34-.3-15.55,.23-35.65,4.74-14.54,3.26-16.57,3.64-21.06,3.64-3.73,.04-4.25-.04-6.68-1.14-1.46-.64-4.74-2.61-7.29-4.32-9.23-6.29-10.94-7.16-16.61-8.56-2.96-.76-8.83-.76-12.27,0-3.12,.68-9.96,3.22-14.82,5.49l-3.24,1.55-.24-1.44c-1.09-6.29-2.55-10.61-5.39-15.76-5.59-10.19-16.45-19.4-30.26-25.61-16.77-7.54-35.85-11.03-51.93-9.51-1.62,.15-2.96,.11-2.96-.04,0-.19,.73-1.67,1.58-3.26,.89-1.63,2.51-5,3.61-7.5,11.14-24.78,12.72-47.13,4.86-68.54-9.03-24.74-28.72-47.06-53.87-61.04-21.55-11.97-49.58-19.85-79.59-22.32-6.12-.49-24.18-.68-29.69-.3h0ZM296.3,245.45c.12,.19-.12,.38-.57,.38-.49,0-.85-.19-.85-.38,0-.23,.24-.38,.57-.38s.73,.15,.85,.38h0Z"/></svg>