<?xml version="1.0" encoding="UTF-8"?><svg id="a" xmlns="http://www.w3.org/2000/svg" viewBox="0 0 865.48 218.95"><path d="M472.47,.56c-13.16,1.67-24.59,4.89-36.17,10.19-11.22,5.11-19,10.23-26.86,17.58-12.35,11.63-18.31,22.43-20.82,37.74-.32,2.08-.81,7.88-1.05,12.88-.28,5-.53,9.17-.61,9.21-.04,.08-2.27-.38-4.9-1.02-9.56-2.31-17.09-3.03-23.94-2.31-15.35,1.59-25.27,8.83-27.79,20.23l-.49,2.31-1.82-.08c-.97-.08-6.08-.15-11.3-.19-7.74-.08-10.29,.04-13.57,.61-10.49,1.78-19.28,5.8-24.79,11.37-3.12,3.11-5.71,7.88-7.21,13.3-1.94,6.9-.69,10.68,5.35,16.29,1.94,1.78,3.4,3.34,3.28,3.45-.12,.11-3.69-.15-7.86-.57-20.17-2.08-36.78-2.12-47.35-.19-9.84,1.82-17.13,5.3-24.39,11.63-12.8,11.14-17.74,13.11-43.26,17.09-12.31,1.93-16.85,2.42-29.97,3.26-6.44,.42-16.2,1.1-21.67,1.52-5.47,.42-14.3,.98-19.65,1.33-15.15,.95-43.1,3.64-54.89,5.34-15.35,2.2-22.89,3.56-24.99,4.55-7.05,3.18-7.78,11.29-1.42,15.46,1.42,.95,2.23,1.17,4.54,1.29,1.54,.08,3.4-.04,4.13-.27,1.42-.45,17.54-3.03,24.83-3.98,7.41-.95,38.72-4.02,40.91-4.02,.49,0,2.88,1.14,5.31,2.5,6.44,3.67,9.6,4.92,16.49,6.59,9.72,2.31,14.1,2.77,23.37,2.54,5.95-.19,9.28-.46,13.57-1.21,22.44-3.83,30.18-4.74,40.47-4.74,9.19,0,13.53,.57,28.31,3.83,18.43,4.02,25.44,4.89,39.57,4.89,8.83,0,13.73-.42,31.67-2.61,19.85-2.46,32.61-3.45,44.27-3.45,7.25,0,25.07,.91,38.07,1.97,7.25,.57,13.29,.8,21.27,.8,13.04,.04,15.8-.27,36.05-3.52,29.37-4.74,38.32-5.19,66.02-3.22,12.27,.87,16.32,.98,23.9,.83,10.65-.23,14.7-.76,32.04-4.09l11.91-2.31,17.42-.34c17.82-.38,26.21-.19,42.73,.95,21.18,1.51,55.53,2.23,75.54,1.59,20.94-.61,50.51-.53,65.42,.27,25.07,1.29,29.2,1.44,47.59,1.67,18.87,.23,27.22-.04,39.9-1.25,7.74-.72,14.86-1.89,17.58-2.84,8.3-2.88,10.86-11.14,5.27-16.97-2.27-2.35-5.47-3.86-10.78-5.15-4.7-1.1-16.57-2.96-24.22-3.83-6.44-.68-20.21-.8-28.35-.15-6.89,.53-14.3,.53-18.15,0-1.62-.19-7.01-.57-11.95-.76-11.26-.49-19.04-.95-30.66-1.93-9.11-.76-33.42-3.26-34.27-3.52-.28-.11-.53-1.78-.69-4.28-.37-7.46-3-12.81-9.15-18.79-5.47-5.3-10.45-8.22-18.47-10.87-1.98-.64-6.84-2.65-10.73-4.51-23.29-10.91-47.19-12.31-70.2-4.09-2.63,.91-4.74,1.63-4.74,1.59s.85-1.78,1.86-3.83c7.33-14.66,10.21-26.67,9.76-40.43-.32-10.46-2.47-18.64-7.21-27.77-5.87-11.25-16.97-24.02-28.31-32.43-17.66-13.18-42.41-22.39-67.64-25.12-6.28-.72-20.58-.68-26.13,.04h0Z"/></svg>