<?xml version="1.0" encoding="UTF-8"?><svg id="a" xmlns="http://www.w3.org/2000/svg" viewBox="0 0 1447.24 270.19"><path d="M642.5,.22c-12.39,.68-25.68,3.9-40.59,9.81-21.27,8.37-44.88,24.48-60.07,40.88-9.4,10.19-19.44,24.32-25.64,36.11-1.09,2.05-2.11,3.71-2.23,3.71-.16,0-2.43-1.21-5.06-2.73-9.6-5.42-18.39-8.41-30.34-10.34-17.86-2.88-44.52,.3-59.99,7.16-5.87,2.61-10.49,5.61-14.78,9.66-4.5,4.21-6.64,7.39-8.42,12.35-3.97,11.22-2.03,21.41,6.4,33.3,1.62,2.23,2.88,4.21,2.8,4.36-.08,.15-3.69-.19-8.02-.76-10.9-1.44-15.64-1.67-19.56-.95-5.87,1.1-10.9,4.13-14.1,8.56-.77,1.02-1.74,1.97-2.19,2.08-1.26,.26-11.02,.87-18.02,1.14-12.31,.42-21.71,.98-23.9,1.36-4.54,.83-8.02,3.37-9.84,7.12-.77,1.52-.89,2.69-1.09,8.64l-.2,6.9-1.42,1.36c-4.45,4.28-16.61,9.66-31.43,13.87l-5.63,1.59-16.2-.08c-22.72-.11-34.59-.57-36.33-1.4-.73-.34-3.24-2.39-5.59-4.51-2.67-2.39-6.08-5-9.11-6.9-16.81-10.5-29.29-15.08-43.34-16.03-12.76-.83-22.28,2.08-33.38,10.15-2.96,2.16-4.13,2.73-8.71,4.28-2.92,.95-8.22,3.03-11.79,4.58-5.75,2.54-9.52,3.9-12.76,4.62-2.67,.61-12.15,.91-21.67,.64-15.11-.42-49.26,.64-60.23,1.86-6.48,.72-10.05,3.98-10.05,9.17,0,3.98,2.27,6.93,6.56,8.56,1.58,.57,3.32,.65,17.05,.53,12.47-.08,15.72,.04,17.42,.49,1.18,.3,4.01,.72,6.36,.95,2.35,.23,8.18,.91,12.96,1.51,8.87,1.1,12.76,1.48,44.56,4.17,24.47,2.05,31.31,2.54,43.14,3.07,12.88,.57,32.36,.23,46.38-.76,6.64-.49,14.5-.8,20.66-.8,9.68,0,10.25,.04,22.48,1.7,21.99,3.03,26.94,3.07,45.57,.53,7.74-1.06,9.8-1.21,18.43-1.25,8.71-.04,10.45,.07,16.81,.98,20.05,2.92,36.46,4.09,48,3.37,8.14-.53,12.07-1.14,22.68-3.56q8.51-1.97,15.19-1.97c8.26,0,9.92,.23,40.71,4.89,10.25,1.55,23.21,3.45,28.76,4.17,14.54,1.93,13.85,1.67,7.7,2.88-10.57,2.08-14.82,4.32-17.5,9.21-.89,1.59-1.09,2.5-1.09,4.62,0,3.26,1.22,5.68,3.93,8.03,3,2.58,4.7,3.22,16.93,6.52,24.67,6.63,44.31,8.6,94.74,9.47,56.55,1.02,88.71,1.25,117.91,.83,16.12-.23,44.84-.61,63.76-.79,42.9-.49,49.9-.76,59.79-2.31l7.45-1.17,18.83,.15,18.84,.11,2.03-.87c2.43-1.06,3.69-2.08,4.66-3.86,2.88-5.23-.32-11.22-6.68-12.66-.65-.19-8.14-.46-16.61-.61-15.19-.3-15.51-.34-23.69-1.7-7.86-1.29-8.99-1.4-21.06-1.71-18.31-.46-36.21-1.48-37.27-2.08-.16-.11-.93-1.17-1.62-2.35-1.66-2.77-5.59-6.44-8.55-7.99-6.72-3.56-19.89-6.02-37.51-6.97-4.74-.27-8.55-.49-8.51-.53,.04-.08,3.44-.38,7.57-.72,9.76-.83,15.31-1.74,21.27-3.49l4.86-1.44h66.02l7.49,1.02c4.13,.57,12.88,1.55,19.44,2.2,6.56,.64,17.42,1.74,24.1,2.46,43.67,4.66,78.86,7.05,95.39,6.44,18.07-.61,27.06-2.05,38.08-6.14l4.66-1.71,6.48,.19c3.57,.15,12.43,.83,19.69,1.55,26.81,2.73,42.29,3.71,67.4,4.4,25.24,.68,51.04,.34,64.2-.8,4.98-.42,9.52-1.59,12.07-3.15,1.62-.99,4.46-3.68,6.52-6.21,2.31-2.77,5.63-3.9,15.84-5.34,15.8-2.23,29.41-2.16,63.59,.34,15.47,1.14,21.18,1.44,42.77,2.46,6.68,.34,15.72,.83,20.05,1.14,26.57,1.93,44.96,.61,51.97-3.79l2.06-1.33h9.84c8.75,0,10.86-.11,18.43-1.14,8.06-1.06,11.34-1.44,29.65-3.41,8.75-.99,15.47-2.12,16.73-2.88,1.25-.76,1.13-1.89-.24-2.58-1.66-.8-8.75-1.97-18.51-3.07-14.87-1.67-24.55-2.88-29.77-3.67-4.86-.8-6.8-.83-46.78-1.06-37.06-.23-84.21-1.06-94.38-1.7-4.05-.23-13.65-1.29-34.83-3.83-24.99-2.95-28.76-3.3-36.25-3.3-10.65-.04-18.67,1.29-31.8,5.15-3.12,.91-7.13,1.97-8.91,2.35-1.78,.38-5.06,1.1-7.29,1.59-3.4,.8-5.43,.95-12.64,1.14-9.72,.27-23.74-.42-25.03-1.21-.45-.26-2.15-2.84-3.77-5.72-3.97-7.01-6.77-10.87-10.61-14.66-7.25-7.2-18.59-12.73-30.58-15-9.44-1.78-14.99-1.86-22.93-.38-5.87,1.1-11.58,3.07-18.79,6.55-3.56,1.71-7.9,3.68-9.68,4.4-1.74,.68-4.74,2.12-6.64,3.15-2.27,1.21-3.73,1.78-4.29,1.63-2.11-.49-16.61-8.34-23.94-12.92-12.72-7.99-15.88-9.05-28.72-9.66-7.21-.34-20.78-.04-29.08,.61-1.74,.15-3.16,.11-3.16,0,0-.15,.57-1.02,1.26-1.97,1.95-2.65,5.43-9.43,6.97-13.6,2.43-6.56,2.92-9.4,2.88-17.05,0-6.18-.12-7.2-1.09-10.61-2.75-9.7-9.48-18.22-18.15-23.04-6.03-3.33-12.19-4.81-19.97-4.81h-4.9l-2.84-2.77c-9.72-9.4-23.94-16.44-39.13-19.28-3.81-.68-5.95-.83-12.11-.87-8.67,0-12.88,.57-20.25,2.84-7.25,2.2-12.03,4.62-17.94,9.09-1.74,1.29-3.2,2.31-3.28,2.24-.08-.08-1.38-1.93-2.88-4.13-9.48-13.79-21.91-26.9-34.51-36.41-11.42-8.6-27.3-17.2-43.26-23.38-18.67-7.24-36.86-10.23-56.02-9.13h0Z"/></svg>