<?xml version="1.0" encoding="UTF-8"?><svg id="a" xmlns="http://www.w3.org/2000/svg" viewBox="0 0 1243 329.71"><path d="M740.57,.19c-14.14,1.06-31.88,4.93-43.91,9.59-1.58,.61-4.33,1.36-6.2,1.71-9.8,1.82-19.65,6.4-28.92,13.49-4.7,3.6-13.37,12.85-17.58,18.83-6.16,8.68-8.55,14.06-12.52,28.3-.45,1.48-.57,1.55-7.09,4.7l-6.64,3.18-2.8-2.35c-7.45-6.4-18.07-11.14-32.73-14.62-13.69-3.26-25.15-4.58-36.05-4.24-14.95,.49-28.88,3.56-41.03,8.98-19.12,8.6-33.82,23.6-40.34,41.18-3.04,8.22-4.62,18.6-3.89,25.27,.73,6.74,1.99,10.69,6.36,19.85,1.58,3.3,1.78,4.02,1.42,4.81-.65,1.33-3.73,2.84-6.28,3.11-1.82,.19-2.19,.3-2.03,.87,.16,.49-.49,.87-3,1.7-7.74,2.54-15.19,6.82-21.06,12.09-4.82,4.28-7.37,7.39-9.68,11.78-2.47,4.77-3.16,7.43-3.16,12.69s.69,7.88,3.4,13.64c.89,1.93,1.62,3.68,1.62,3.79,0,.15-1.13,.42-2.51,.53-4.37,.45-12.07,2.12-17.05,3.67l-4.78,1.52-1.9-1.59c-4.37-3.6-13.08-7.92-19.32-9.62-11.87-3.22-32.16-4.55-46.38-3.03-23.62,2.54-45.85,10.57-63.51,23-8.63,6.1-15.96,14.4-19.52,22.2l-.93,2.01-2.47-.3c-14.26-1.71-34.51,5.38-42.09,14.74-2.43,3.03-3.52,5.8-3.81,9.47-.28,3.45,.69,2.99-8.63,3.9-11.34,1.1-23.66,1.48-32.32,.98-10.29-.53-16.57-1.4-31.47-4.4-15.03-2.99-19.4-3.6-25.76-3.6-14.7,0-26.9,4.32-30.42,10.76-.45,.83-.93,2.61-1.05,3.9q-.2,2.39-1.46,2.39c-.69,0-4.7-.45-8.95-1.02-7.61-1.02-7.94-1.02-27.34-.98-22.84,.08-29,.38-31.47,1.55-4.66,2.23-6.6,7.31-4.41,11.63,1.78,3.56,4.21,4.93,11.18,6.25,10.29,1.93,10.09,1.93,51.04,2.27,21.27,.15,39.33,.42,40.1,.53,.77,.11,11.99,.49,24.91,.83,19.2,.45,27.46,.49,45.16,.19,11.91-.23,27.5-.42,34.63-.45,11.62-.04,13.37,.04,16.81,.72,2.11,.42,6.24,1.14,9.11,1.59,2.92,.45,9.2,1.63,13.97,2.65,9.64,2.08,17.3,3.3,29.16,4.7,11.22,1.33,17.86,1.74,28.76,1.74,21.55,0,34.07-1.36,63.39-6.9,19.4-3.64,20.01-3.68,28.35-1.63,19.36,4.74,23.45,5.53,32.61,6.29,8.99,.76,17.3-.15,26.37-2.92,6.12-1.86,8.91-3.83,10.09-7.16l.45-1.25,10.61-.23c23.29-.49,126.34-.64,134.88-.19l8.47,.42,2.55,1.67c3.56,2.35,12.43,6.25,18.35,8.11,6.04,1.86,15.88,4.17,23.01,5.38,4.7,.76,6.4,.87,16.77,.83,8.59,0,12.84-.15,16.61-.64,15.51-2.01,25.11-4.85,43.26-12.96l6.6-2.92,8.79,.61c4.82,.3,12.64,.87,17.3,1.21,11.18,.87,17.38,.45,30.18-1.93,9.11-1.71,24.34-3.75,31.6-4.21,2.63-.15,5.75-.04,9.92,.42,7.05,.76,12.44,.61,21.02-.57,8.38-1.14,3.44-1.44,68.49,3.83,11.83,.95,18.31,1.63,39.29,4.13,21.06,2.5,26.98,3.33,44.76,6.29,24.71,4.09,25.92,4.28,32.57,5.08,21.99,2.62,39.86,1.14,51.04-4.28,5.19-2.5,8.87-6.06,13.77-13.41,2.07-3.14,2.71-3.75,5.63-5.61,1.82-1.18,4.05-2.61,4.94-3.26,2.27-1.55,7.66-2.2,20.46-2.5,13.12-.3,25.4,.19,73.92,2.92,10.49,.61,13.04,.53,15.39-.53,5.18-2.24,7.25-7.35,4.82-11.86-1.9-3.64-4.01-5-10.73-7.12-4.98-1.59-8.87-2.39-23.05-4.81-11.1-1.86-11.83-1.93-19.04-1.97l-7.53-.04-1.74-1.4c-2.71-2.16-4.58-2.58-12.6-2.96-3.89-.19-9.92-.57-13.37-.91-3.44-.3-9.72-.76-13.97-.98-22.16-1.18-30.62-2.31-44.44-6.1-14.46-3.98-20.9-5-30.91-5s-15.84,1.02-22.48,3.71c-2.92,1.21-3.2,1.25-6.93,1.06-8.55-.45-15.27,1.4-23.74,6.55-4.86,2.92-5.63,3.26-8.35,3.3-2.43,.08-2.47,.08-3.65-1.52l-1.21-1.59,1.13-4.28c3.28-12.16,.49-30.27-6.36-41.45-5.83-9.55-15.03-18.34-27.3-26.14-12.43-7.92-24.87-10.12-39.65-7.12-2.67,.53-5.35,1.06-5.95,1.18-.97,.19-1.18,0-2.39-2.2-6.85-12.73-17.86-24.63-29.85-32.24l-2.92-1.86,.28-2.54c.2-1.4,.28-4.85,.28-7.65-.12-11.33-3.32-21.25-9.36-29.1l-2.43-3.15,.93-3.86c3.24-13.22,3.73-26.9,1.38-38.23-2.88-13.94-11.54-27.81-23.74-38.04-23.09-19.32-52.82-30.39-87.86-32.74-5.18-.34-20.01-.42-23.9-.11h0Z"/></svg>