<?xml version="1.0" encoding="UTF-8"?><svg id="a" xmlns="http://www.w3.org/2000/svg" viewBox="0 0 884.28 315.52"><path d="M603.86,.62c-5.59,.8-12.8,2.58-16.89,4.17-7.33,2.8-15.59,8.03-22.36,14.02l-4.37,3.9-4.33-1.33c-7.01-2.05-12.15-2.84-19.89-3.07-14.01-.42-26,1.97-37.47,7.5-6.44,3.11-11.38,6.52-16.53,11.48-9.11,8.83-15.35,20.16-17.5,31.86-.45,2.43-.81,5.19-.81,6.06,0,1.44-.28,1.97-2.11,4.02-5.71,6.29-7.53,8.52-11.06,13.41-3.52,4.93-8.47,13.3-10.09,17.16-.49,1.25-.81,1.59-1.38,1.44-3.93-1.14-13.89-2.5-18.27-2.5-6.84,0-13.41,1.89-20.54,5.91-11.91,6.67-17.78,12.65-22.85,23.38-2.51,5.27-3.73,9.02-4.25,12.92l-.32,2.2-1.26-.23c-.69-.15-3.24-.53-5.71-.87-5.79-.76-19.81-.53-24.91,.45-11.5,2.12-20.25,5.84-25.56,10.76-4.94,4.66-7.25,9.93-7.53,17.28-.24,5.49,.61,9.81,3.36,17.58,.97,2.77,1.78,5.19,1.78,5.34s-4.7,.38-10.41,.49c-26.77,.61-100.9,4.81-126.34,7.16-3.81,.34-6.72,.34-12.76,0-11.75-.68-18.02-1.48-20.21-2.58-6.64-3.33-8.67-3.9-14.99-4.21-7.33-.34-16.53,.91-23.98,3.26-7.65,2.42-16.44,7.5-25.72,14.89l-1.78,1.44h-7.37c-5.19,0-11.1,.34-19.73,1.14-13.81,1.25-28.07,2.39-38.07,3.03-7.82,.53-9.48,.83-10.78,2.16-1.74,1.78-.81,4.93,1.74,5.83,.53,.19,6.56,.76,13.41,1.29,13.08,.99,34.63,2.96,39.78,3.64,1.9,.23,29,.53,73.11,.72,78.26,.38,102.52,.76,109.37,1.7,4.17,.57,8.87,1.63,22.08,4.96,4.98,1.29,5.95,1.4,10.94,1.4,4.9,.04,5.83-.08,8.91-1.02,4.74-1.48,6.08-2.16,10.61-5.38,2.15-1.55,4.17-2.8,4.46-2.8s2.55,1.14,4.98,2.5c8.46,4.77,13.73,6.78,20.62,7.92,4.62,.72,11.91,.76,14.95,0,4.29-1.02,9.07-3.79,15.07-8.68l2.27-1.89,10.25,2.42,10.25,2.39,3.81,2.8c11.99,8.87,24.43,15,35.89,17.73,7.17,1.67,20.01,2.27,28.27,1.33,1.94-.23,3.65-.34,3.73-.23,.12,.08-.04,.53-.28,.99-.57,.99-3.69,2.35-10.17,4.47-5.91,1.93-10,2.73-13.89,2.73-8.79,0-79.35-8.15-80.61-9.28-.93-.87-11.22,.49-17.05,2.27-1.54,.49-4.37,1.14-6.28,1.48-4.86,.87-9.03,2.88-11.02,5.34-1.34,1.67-1.74,1.93-3.44,2.16-1.09,.15-10.49,.19-20.98,.11q-19.04-.15-24.3-1.21c-4.98-.98-5.83-1.06-15.8-1.06-11.62,0-15.68,.46-20.7,2.35-5.39,2.01-8.55,6.29-8.18,11.03,.44,5.57,4.9,9.28,13.08,10.91,2.63,.53,6.52,.68,20.25,.91l17.01,.27,7.09,1.36c10.57,2.01,14.22,2.31,23.7,1.93,10.9-.45,28.92-.38,36.86,.19,6.16,.42,19.52,1.63,32,2.88,6.32,.61,17.09,.72,21.47,.19,1.58-.19,6.93-.61,11.95-.91,12.8-.8,20.9-1.78,30.95-3.86,4.58-.95,7.66-1.1,14.54-.64l3.97,.23,3.73,2.61c4.9,3.41,12.31,6.86,17.5,8.11,3.24,.8,5.35,1.02,10.53,1.17,7.17,.23,11.83-.11,24.71-1.78,12.72-1.63,17.7-1.89,37.87-1.89l18.47-.04,3.44,1.52c9.32,4.09,26.98,5.27,42.49,2.84,11.99-1.89,19.64-5.72,29.41-14.74,2.71-2.5,5.87-5.27,6.97-6.18,2.88-2.24,4.09-4.74,4.42-8.87l.24-3.26,3.08-.42c10.53-1.48,17.94-2.05,25.76-2.01,15.96,.15,53.55-.98,73.11-2.2,6.56-.42,18.15-1.1,25.72-1.52,21.75-1.21,55.78-4.24,78.86-7.01,7.37-.91,9.8-2.01,11.95-5.42,.93-1.48,1.13-2.24,1.13-4.43s-.2-2.95-1.13-4.47c-3.12-4.96-7.61-5.95-28.23-6.18-11.67-.15-12.92-.23-14.66-.91-2.55-1.02-3.89-1.17-14.3-1.44l-8.91-.27-2.71-3.41c-1.54-1.89-3.32-3.86-3.97-4.43-.69-.57-1.21-1.14-1.21-1.21,0-.15,3.16-1.33,8.83-3.26,4.78-1.63,7.57-4.32,8.1-7.84l.28-1.82,3.04-.08c12.6-.38,21.71-1.48,31.27-3.71,8.55-2.05,9.6-2.16,20.17-2.46,10.09-.27,10.45-.3,14.54-1.48,5.67-1.63,7.25-2.42,7.98-4.02,.85-1.89-.12-3.79-3.28-6.55-3.16-2.77-6.16-4.4-9.56-5.23-3.24-.8-13.77-.91-21.02-.23-5.39,.53-84.57,1.29-85.18,.83-.16-.11-.49-2.05-.69-4.24-.53-5.23-1.9-9.62-4.82-15.27-3.65-7.16-7.25-11.71-13.77-17.43-7.09-6.21-16.16-10.69-25.44-12.47-3.56-.72-13.53-1.51-15.31-1.25l-1.3,.19-.24-5.15c-.28-5.99-1.17-9.55-3.4-13.34-6.4-10.95-17.82-16.75-32.97-16.75h-5.1l-.45-1.78c-.45-1.74-.41-1.74,1.94-5.15,8.63-12.5,14.26-27.36,14.86-39.18,.49-9.66-3.24-24.36-8.99-35.46-7.57-14.66-20.62-25.73-35.65-30.31-7.86-2.39-20.46-3.14-29.77-1.86h0Z"/></svg>