<?xml version="1.0" encoding="UTF-8"?><svg id="a" xmlns="http://www.w3.org/2000/svg" viewBox="0 0 697.66 128.29"><path d="M276.81,.74c-12.23,2.43-22.8,8.64-33.05,19.44-4.82,5.11-7.33,8.56-10.49,14.4l-2.63,4.93-6.08,2.88c-6.85,3.26-10.33,5.3-16.2,9.47-7.98,5.68-12.6,10.91-14.38,16.22-1.13,3.45-1.78,12.46-1.21,16.82,.24,1.93,.53,3.64,.65,3.79,.08,.15,.04,.38-.16,.49-1.01,.57-30.06,3.3-48.49,4.55-18.47,1.25-56.63,1.74-61.16,.76-11.22-2.35-13.98-2.69-26.25-3.22-15.59-.64-32.61,.34-42.81,2.46-5.95,1.29-8.55,2.27-10.85,4.2C.92,100.23-.21,102.77,.03,106.07c.61,7.5,7.05,11.03,25.44,13.79,19.2,2.92,23.94,3.26,44.8,3.26,10.29,0,17.46,.15,19.48,.45,3.81,.53,17.01,.61,24.02,.15,4.25-.26,6.72-.15,15.59,.68,27.06,2.5,32.24,2.35,53.99-1.67,8.75-1.63,11.38-1.97,17.82-2.27,4.17-.23,9.96-.57,12.84-.8,2.92-.23,7.53-.3,10.33-.19,2.8,.15,12.92,.49,22.48,.8,12.35,.42,18.03,.72,19.44,1.1,1.13,.3,3.77,1.06,5.91,1.67,4.98,1.48,15.27,3.68,20.21,4.4,6.24,.91,11.83,1.06,20.82,.61,12.8-.61,17.21-1.29,31.59-4.89,13.69-3.45,17.78-3.45,42.77-.27,21.59,2.77,24.91,2.99,40.91,3.03,11.06,0,15.19-.15,22.48-.83,16.36-1.52,19.32-1.63,42.94-1.97,22.4-.3,28.84-.61,44.56-2.05,4.7-.42,6.56-.42,10.73,0,14.74,1.4,23.01,1.55,32.4,.53,3.85-.38,5.06-.34,20.25,.8,6.97,.53,19.81,.23,25.92-.57,2.35-.3,8.99-1.25,14.78-2.12,10.86-1.55,16-1.93,35.64-2.61,5.87-.23,10.33-.53,11.26-.83,2.27-.72,4.94-3.07,6.64-5.95,1.38-2.27,1.54-2.8,1.54-5.19-.04-4.13-2.23-7.01-6.44-8.49-4.01-1.4-23.9-2.92-45.12-3.45-8.47-.23-20.05-.76-26.01-1.21-8.38-.68-13.69-.87-24.3-.87-13.12,.04-13.93,.08-23.9,1.29-20.13,2.5-30.5,1.59-46.34-4.17-2.43-.87-10.41-4.36-17.74-7.77-18.11-8.41-22.76-10.23-36.05-13.83-31.88-8.6-53.35-7.77-73.64,2.92l-3.28,1.74-3.56-3.22c-6.93-6.14-14.58-11.48-23.86-16.63-3.04-1.71-5.91-3.3-6.4-3.56-.49-.27-1.82-2.23-3-4.4-7.41-13.56-14.26-20.57-30.54-31.18-8.91-5.8-19.6-9.66-32.4-11.74-5.02-.8-13.61-.72-18.27,.19h0Zm213.87,91.69c.12,.19,.08,.38-.16,.38-.2,0-.53-.19-.65-.38-.12-.23-.08-.38,.16-.38,.2,0,.53,.15,.65,.38h0Z"/></svg>