<?xml version="1.0" encoding="UTF-8"?><svg id="a" xmlns="http://www.w3.org/2000/svg" viewBox="0 0 720.84 170.9"><path d="M518.52,.21c-5.27,.57-11.3,1.86-16.32,3.49-15.92,5.11-25.52,13.22-28.92,24.44-1.13,3.79-1.22,11.33-.16,15.65,.37,1.55,.77,3.33,.89,3.98l.24,1.14h-8.67c-8.87,0-10.9,.23-16.12,1.78-7.09,2.12-12.11,5.76-14.95,10.87l-1.62,2.95-3.97-.79c-5.47-1.06-21.43-1.14-27.14-.11-11.54,2.05-20.82,5.91-26.04,10.84-4.78,4.51-6.52,8.83-6.44,15.95,.04,3.49-.08,4.36-.49,4.28-.32-.04-3.93-.61-8.06-1.21-27.14-4.21-48.97-4.4-63.19-.53-7.01,1.89-12.92,5.72-16.53,10.76-.97,1.33-3.52,5.72-5.75,9.81-2.19,4.05-4.54,7.92-5.23,8.53-.65,.64-2.15,1.44-3.36,1.82-4.82,1.4-16.89,2.88-38.2,4.62-14.95,1.21-45.32,4.05-59.06,5.49-35.28,3.71-62.09,5.84-87.77,7.01-13.73,.64-19.32,1.21-24.26,2.46-1.62,.42-5.59,1.02-8.87,1.33-17.34,1.63-22,2.16-24.39,2.84-1.46,.42-5.47,.98-8.95,1.33-7.29,.68-9.32,1.21-11.67,3.11-5.71,4.55-4.29,12.47,2.75,15.42,3.32,1.4,6.12,1.63,27.38,2.2,24.67,.68,32.89,.57,38.08-.38,2.23-.42,8.71-1.59,14.38-2.58l10.33-1.78,10.33,.46c33.34,1.44,46.66,1.48,86.68,.38,31.55-.87,66.51-.83,113.21,.11,12.92,.26,30.34,.49,38.68,.49,17.05,0,17.82-.08,32.2-3.26,6.6-1.44,7.78-1.59,12.35-1.59,7.7,.04,14.87,.99,28.15,3.75,19.48,4.05,35.28,5.61,57.11,5.65,13.53,0,21.14-.49,36.25-2.31,7.41-.91,29-4.58,38.07-6.48l8.3-1.74,18.83-.3c10.37-.15,21.23-.49,24.1-.72,2.92-.26,14.3-.57,25.32-.68l20.05-.27,5.67-2.58,44.96-.08,2.02-.87c2.51-1.06,4.33-2.69,5.27-4.66l.73-1.48h4.09c2.27,0,5.35-.19,6.84-.38,1.58-.23,3.04-.23,3.44-.04,.36,.15,.93,.23,1.22,.15,.73-.26,.61-1.63-.2-1.89-.4-.15-1.5-.8-2.39-1.48-3.81-2.69-13.08-5.23-31.76-8.68-8.06-1.52-10.65-1.82-17.01-2.12-4.13-.15-9.6-.68-12.15-1.1-13.24-2.2-16.57-2.69-21.87-3.18-3.16-.34-5.83-.64-5.95-.72-.08-.08,.53-1.1,1.3-2.2,2.63-3.67,6.93-12.24,8.83-17.62,2.59-7.31,3.52-11.82,3.81-18.34,.44-10.42-1.46-18.04-7.05-28.61-8.43-15.8-23.61-30.54-43.26-41.98-18.06-10.49-36.9-17.5-53.06-19.78-5.31-.72-16.53-1.02-21.06-.57h0Z"/></svg>