<?xml version="1.0" encoding="UTF-8"?><svg id="a" xmlns="http://www.w3.org/2000/svg" viewBox="0 0 999.35 255.11"><path d="M587.83,.23c-10.94,1.29-22.6,5.15-30.86,10.15-14.18,8.64-25.88,23.79-30.3,39.22-1.13,4.09-2.23,10.31-2.23,12.96,0,.99-.16,1.86-.36,2.01-.24,.11-1.86,.38-3.69,.61-6.56,.76-11.71,2.88-14.78,6.1-1.86,1.89-3.69,5.49-4.33,8.41l-.45,2.24-2.31-.23c-1.3-.15-7.21-1.25-13.21-2.5-17.21-3.56-41.36-7.77-55.65-9.66-22.28-2.95-45.49-3.3-70.07-.95-18.75,1.74-26.49,3.87-31.03,8.37-2.71,2.69-3.93,5.49-3.93,8.83,.04,5.34,2.23,8.79,10.73,16.9,5.87,5.57,8.3,8.33,7.86,8.98-.12,.23-1.94,.99-3.97,1.78-2.07,.76-6.04,2.5-8.83,3.86-2.79,1.4-5.55,2.73-6.16,3.03-1.34,.64-3.2,.15-14.5-3.67-12.07-4.13-19.97-6.06-30.38-7.43-7.41-.99-27.54-.99-33.82-.04-14.54,2.27-26.53,6.78-32.41,12.2-3.93,3.67-5.83,8.26-5.31,12.88,.24,2.2,.2,2.35-.93,3.37-.61,.57-1.66,1.93-2.23,3.07l-1.09,2.01-2.71,.45c-5.71,.91-11.5,1.48-19.52,1.86-4.58,.23-9.56,.53-11.14,.64-1.54,.11-18.43,.34-37.47,.53-19.04,.15-37.1,.49-40.1,.72-9.84,.76-17.09,1.59-24.3,2.8-4.82,.8-8.26,1.17-10.73,1.14-14.91-.15-19.04-.08-23.69,.46-2.8,.34-8.99,.76-13.77,.95-11.14,.46-13.97,1.06-16.93,3.83-5.55,5.12-3.69,13.18,3.85,16.9,2.84,1.4,6.16,2.12,13.69,2.99,4.13,.45,6.4,.91,8.3,1.67,3.89,1.55,6,2.12,11.95,3.22,.73,.15,.85,.45,.85,2.16,.08,3.41,2.55,6.71,6.04,8.11,2.67,1.06,14.26,1.33,44.76,1.1,71.98-.53,112.36-.99,120.91-1.33,17.34-.72,33.01-2.05,46.78-3.98,5.02-.72,11.3-1.55,13.97-1.89,6.08-.76,18.07-1.14,20.25-.64,.89,.19,4.54,1.06,8.1,1.89,26.57,6.37,38.6,7.46,56.18,5.15,12.03-1.55,20.25-3.64,32.81-8.26,4.86-1.78,9.64-3.45,10.65-3.67,2.51-.61,28.11-.19,37.67,.57,32.2,2.62,43.79,4.09,59.06,7.5l5.18,1.14,1.01,1.93c.61,1.1,1.34,2.27,1.66,2.61,.57,.61,.53,.68-.32,1.02-.53,.23-2.43,.72-4.21,1.14-7.29,1.67-8.83,1.74-29.08,1.63-27.5-.15-27.71-.15-50.91,7.12-21.39,6.71-23.41,7.12-36.78,7.96-9.92,.61-18.88,.45-32.08-.57-15.55-1.21-29.85-1.71-48.65-1.71h-14.79l-3.24-1.1c-4.7-1.63-8.87-2.08-16.53-1.82-6.81,.23-12.52,1.02-19.28,2.73-2.11,.53-5.47,1.29-7.45,1.7-4.62,.99-5.55,1.48-8.75,4.36-5.35,4.81-11.67,8.68-17.3,10.53-5.1,1.71-14.7,2.69-30.1,3.11-18.75,.49-31.96,.99-35.85,1.36-6.12,.57-10.82,1.55-23.37,4.89-17.42,4.62-16.85,4.43-17.17,5.38-.45,1.33,.65,1.67,7.01,2.12,5.99,.46,10.57,1.06,20.78,2.88,5.1,.87,10.53,1.44,19.16,1.93,1.99,.11,3.89,.34,4.25,.53,1.38,.68,9.36,2.31,13.45,2.73,7.45,.8,50.55,0,87.09-1.55,32.24-1.4,46.74-2.24,80.4-4.74,38.16-2.84,36.29-2.77,60.35-1.71,11.3,.49,28.27,.45,41.23-.08,14.5-.57,19.85-.61,30.05,0,4.7,.26,12.03,.64,16.32,.87,4.29,.19,13.77,1.02,21.06,1.86,21.91,2.42,22.44,2.46,36.94,2.46,18.31-.04,30.42-1.06,46.18-3.86,14.95-2.65,13.21-2.5,18.92-1.4,2.75,.53,7.98,1.78,11.59,2.8,23.41,6.59,41.52,9.17,64.69,9.24,17.01,.04,27.5-1.52,47.71-7.12,4.58-1.25,5.43-1.36,9.92-1.36,2.71,0,8.95,.27,13.85,.57,29.57,1.78,90.65,2.12,109.36,.57,7.21-.57,16.24-1.82,19.28-2.58,5.18-1.36,8.18-3.83,9.28-7.65,1.09-3.86-1.3-8.37-5.55-10.38-3.04-1.44-16.04-2.16-36.17-2.08-13.57,.08-15.72,0-26.13-.98-10.65-.98-12.88-1.1-37.27-1.33l-25.92-.23-7.41-2.16c-4.09-1.17-8.46-2.31-9.72-2.54-2.19-.34-12.48-1.14-15.39-1.14-1.74,0-1.38-.53,1.26-1.78,1.17-.53,3.85-1.97,5.99-3.18l3.93-2.24,5.79,.91c6.48,1.02,14.7,1.86,24.47,2.54,12.11,.8,31.03-.46,43.75-2.96,11.46-2.23,30.46-9.36,42.17-15.87,15.59-8.6,21.79-9.25,81.78-8.34,23.45,.38,27.46,.19,35.36-1.67,5.75-1.36,10.65-3.56,13.61-6.1,7.53-6.44,6.2-16.06-2.88-20.54-3.52-1.71-8.26-3.03-15.11-4.21-13.61-2.31-23.41-2.39-47.59-.23-8.14,.68-43.3,1.63-48,1.25-1.01-.08-4.46-.42-7.66-.72-5.43-.53-5.99-.68-7.37-1.71-3.04-2.23-3.73-2.35-15.15-2.65-7.61-.19-11.91-.49-15.59-1.06-15.8-2.46-38.16-3.3-48.16-1.82-2.51,.38-4.66,.61-4.74,.53-.08-.08-.32-1.29-.57-2.77-.2-1.44-.69-3.45-1.01-4.47-.32-1.02-.61-2.73-.61-3.79,0-10.27-4.09-19.7-11.42-26.22-3.08-2.77-8.42-6.1-12.6-7.88-10.17-4.36-24.67-6.82-38.56-6.63l-6.48,.11-.73-2.08c-.4-1.14-.93-3.71-1.13-5.76-.77-7.5-5.91-19.28-13.25-30.35-7.09-10.76-19.36-23-31.88-31.9-11.38-8.11-28.6-17.05-39.49-20.54C614.48,1.4,605.12-.07,595.2,0c-3.4,.04-6.68,.15-7.37,.23h0Z"/></svg>