<?xml version="1.0" encoding="UTF-8"?><svg id="a" xmlns="http://www.w3.org/2000/svg" viewBox="0 0 608.76 107.57"><path d="M203.77,.39c-13.16,1.44-21.59,6.4-24.67,14.59-1.17,3.18-1.42,8.75-.61,13.79,.41,2.2,.77,4.77,.93,5.72l.2,1.78-3.16,.95c-10.98,3.37-24.59,5.49-47.76,7.46-14.18,1.21-23.45,2.5-39.09,5.38l-8.3,1.51-17.82-.23c-10.17-.11-20.74-.08-24.59,.15-8.99,.49-28.76,2.54-31.39,3.22-8.95,2.39-10.25,13-2.07,16.9,.85,.42,2.67,.95,4.05,1.25,1.42,.27,3.24,.95,4.13,1.48,2.27,1.48,4.13,1.82,11.58,2.16,3.69,.19,11.99,.76,18.43,1.29,17.7,1.44,25.28,1.78,47.39,2.12,13.65,.23,21.71,.53,24.71,.91,3.28,.38,10.61,.61,27.62,.76l23.13,.23,11.1,3.37c17.34,5.3,27.54,7.73,41.44,9.89,10.45,1.63,17.7,2.27,28.76,2.54,20.49,.46,40.14-1.67,61.49-6.74l3.2-.76,12.19,2.65c17.46,3.75,31.47,6.33,50.11,9.13,4.33,.64,11.62,2.01,16.2,3.03,10.57,2.39,12.48,2.65,18.51,2.65,7.74,0,11.34-.91,20.66-5.23,3.16-1.48,6.8-2.88,8.1-3.14,2.88-.57,10.09-.11,25.07,1.55,20.74,2.31,29.73,2.84,59.3,3.45,32.53,.68,52.45,.19,70.07-1.78,7.41-.8,10.17-1.7,12.84-4.13,3.81-3.45,4.29-8.26,1.17-12.05-2.71-3.33-5.18-3.94-25.44-6.14-12.35-1.33-36.17-4.74-47.72-6.82-9.32-1.67-22.12-3.71-31.84-5.11-5.27-.76-12.88-1.29-26.29-1.89-4.66-.19-8.87-.46-9.32-.61-.53-.11-1.42-1.44-2.59-3.67-3.4-6.67-9.64-11.14-18.67-13.3-2.11-.49-4.54-1.02-5.35-1.14-1.82-.3-4.13-1.93-12.88-8.94-26-20.95-33.78-25.8-49.29-30.84-25.4-8.18-51.24-8.22-68.54-.04-7.53,3.56-12.19,8.83-13.49,15.34-.28,1.25-.57,2.24-.69,2.2-.12-.08-6.72-3.15-14.62-6.82-23.45-10.95-34.83-14.89-49.42-17.13C221.79,0,211.1-.37,203.77,.39h0Z"/></svg>