<?xml version="1.0" encoding="UTF-8"?><svg id="a" xmlns="http://www.w3.org/2000/svg" viewBox="0 0 1146.96 232.31"><path d="M678.73,.43c-37.14,3.98-69.51,21.86-88.79,49.1-6.08,8.52-9.72,15.53-13.08,25.16-2.88,8.11-4.42,14.97-5.27,23.6q-.28,2.8-1.38,2.54c-2.23-.49-18.07-.68-21.71-.23-11.42,1.4-24.51,6.03-32.08,11.37-5.67,3.98-10.77,9.74-14.05,15.84-.93,1.78-1.34,2.08-4.29,3.49-7.01,3.3-13.53,8.41-17.62,13.87-1.05,1.44-2.11,2.8-2.27,2.99-.16,.19-1.66-.76-3.28-2.12-6.76-5.57-11.34-8.56-19.56-12.73-9.96-5.11-19.56-8.64-27.95-10.31-10.9-2.16-27.34-.99-40.22,2.88-4.7,1.4-12.44,5.15-16.32,7.88-6.6,4.66-12.92,11.59-17.34,19.02-1.82,3.03-2.11,3.3-6.44,6.1-2.47,1.63-5.55,3.64-6.8,4.47l-2.27,1.52-11.62,.08c-10.65,.04-12.03,.11-17.05,1.02-29.89,5.42-37.63,5.3-62.58-.91-25.56-6.33-43.58-6.52-56.75-.57-6.36,2.88-9.68,6.48-10.94,11.82-.49,2.12-.49,3.26-.12,6.55,.69,5.76,.24,6.44-5.71,8.37-2.31,.72-3.85,.87-12.76,1.14-6.28,.15-11.5,.53-13.77,.91-2.75,.45-6.76,.64-16.2,.72-18.75,.19-31.07,1.36-38.44,3.68-4.9,1.52-8.1,3.18-10.69,5.49l-2.15,1.93-6.56,.23c-6.56,.23-17.74,1.18-47.67,4.05-19.85,1.89-22.2,2.2-23.57,2.95-2.02,1.1-1.82,3.68,.41,4.58,1.54,.68,12.19,1.63,58,5.19,6.36,.49,14.86,.64,43.75,.72,20.13,.04,39.65,.27,44.56,.49,4.78,.27,15.55,.64,23.9,.83,8.34,.23,19.4,.64,24.51,.98,5.14,.3,16.32,.64,24.91,.8,22.85,.34,34.07-.34,55.09-3.3l8.3-1.18,28.96-.23c32.73-.23,28.27-.49,52.25,3.11,15.55,2.35,18.88,2.58,35.44,2.35,13.81-.19,18.51-.49,28.96-1.97,2.11-.26,8.3-.61,13.77-.72,19.16-.34,24.67-1.44,51.32-10.12,8.51-2.73,13.37-4.13,14.5-4.13,.97,0,6.36-.45,11.99-.98,12.52-1.21,19.93-1.1,30.54,.42,8.55,1.21,18.75,1.63,25.52,.98,6.28-.61,11.5-1.55,21.39-3.86,14.34-3.33,15.51-3.49,31.88-3.6,7.9-.04,17.13-.19,20.46-.34,3.6-.11,7.98-.08,10.73,.19,2.55,.23,8.38,.64,12.96,.95,10.05,.61,12.23,1.1,23.25,5.08,15.15,5.53,32,11.37,36.86,12.73,11.02,3.11,27.91,6.74,39.57,8.49,14.95,2.27,17.9,2.5,34.59,2.5s18.75-.19,33.42-1.89c30.54-3.64,46.46-7.05,59.87-12.88,4.25-1.86,5.1-2.08,7.41-2.08,2.84,0,9.07-.8,13.53-1.7,4.82-1.02,9.48-2.42,16.04-4.96,13.29-5.04,20.29-5.95,52.01-6.59,24.55-.49,36.25-1.29,68.66-4.7,11.1-1.17,16.73-1.93,18.23-2.42,1.3-.46,3.81-.83,5.91-.95,3.12-.19,4.94-.61,11.3-2.54,8.1-2.5,8.18-2.54,21.47-3.37,3.73-.23,6.24-.61,8.51-1.29,1.78-.49,4.54-1.21,6.08-1.55,4.62-1.02,11.91-3.3,13.29-4.17,1.98-1.25,1.98-2.77,0-4.43-1.99-1.7-12.23-6.93-15.03-7.69-5.67-1.52-21.79-1.7-33.9-.38-4.54,.49-7.05,.53-12.76,.3-3.89-.19-10.73-.34-15.19-.34-4.45-.04-9.64-.23-11.54-.49-2.92-.38-4.82-.34-12.35,.3-13.65,1.14-12.31,1.33-17.09-2.39-7.66-5.99-15.76-10.61-24.02-13.68-7.98-2.95-11.5-3.67-18.43-3.9-6.52-.23-9.32,.11-17.38,2.01-2.19,.53-4.21,.87-4.5,.8-.24-.11-.69-.95-.97-1.82-.85-2.77-4.09-8.11-6.8-11.33-10.09-11.93-28.44-16.29-46.1-10.95-4.37,1.36-12.48,4.96-16.28,7.24-1.5,.95-3.89,2.69-5.31,3.9-1.38,1.21-2.59,2.12-2.67,2.05-.04-.07-.69-1.17-1.42-2.42-2.51-4.28-6.85-9.17-11.34-12.85l-1.78-1.48,.44-2.31c1.01-5.19,1.34-10.91,.89-16.06-.81-9.36-2.55-15.5-6.24-21.79-6.64-11.37-20.37-22.35-30.42-24.32-4.17-.8-21.22-.8-25.11,.04-5.55,1.21-5.02,1.36-7.21-2.31-1.09-1.78-3.44-5.15-5.23-7.5-20.21-26.41-51.77-43.91-87.82-48.61-6.56-.83-24.51-1.06-31.19-.34h0Zm327.08,172.96c.12,.19-.04,.38-.41,.38s-.53-.19-.41-.38c.12-.23,.32-.38,.41-.38s.28,.15,.41,.38h0Z"/></svg>