<?xml version="1.0" encoding="UTF-8"?><svg id="a" xmlns="http://www.w3.org/2000/svg" viewBox="0 0 1451.8 292.06"><path d="M674.29,.37c-26.25,1.59-49.46,8.41-71.09,20.88-12.96,7.46-24.87,16.97-31.31,25.05-5.71,7.16-8.59,13.49-10.45,23.22-1.3,6.48-1.3,21.44,0,33.46,.49,4.66,.81,8.53,.77,8.6-.08,.04-3.52-.91-7.61-2.16-13.33-4.02-22.48-6.14-34.02-7.81-6.68-.98-23.45-.98-28.31,0-13.25,2.69-21.43,7.69-26.37,16.14-1.01,1.71-2.02,3.37-2.27,3.68-.36,.53-1.09,.38-6.32-1.29-10.65-3.45-21.63-5.72-34.55-7.12-8.59-.95-26.9-.99-33.46-.04-13.57,1.9-24.71,5.8-30.14,10.53-3.73,3.26-5.55,6.78-5.79,11.1-.28,5.3,.93,8.71,6.2,17.05,1.21,1.97,2.92,4.89,3.73,6.48,1.34,2.65,1.42,3.07,1.09,4.62-.24,1.17-.69,1.97-1.38,2.42-1.21,.83-6.6,1.86-17.5,3.37-16.93,2.35-23.33,4.02-28.88,7.54-2.23,1.4-5.91,5.11-9.15,9.17-3.6,4.55-5.35,5.68-9.97,6.59-5.67,1.1-19.73,2.16-34.55,2.65-8.87,.3-17.94,1.06-27.3,2.31-7.45,1.02-10.53,1.78-13.41,3.33-1.62,.91-4.94,3.94-5.75,5.27-.37,.64-1.54,.72-15.96,1.06-8.55,.19-22.28,.61-30.54,.91-8.22,.3-22.64,.57-32,.57-18.79,0-47.63,.83-59.54,1.71-16.32,1.17-19,1.33-30.38,1.7-17.62,.57-38.16,1.82-40.55,2.46C3.04,215.04,0,218.57,0,222.66c-.04,5.46,4.01,9.05,11.1,9.93,4.25,.53,17.34,.45,34.75-.15,8.34-.3,19.48-.68,24.71-.8,10.17-.27,39.01,.3,48.4,.95,12.39,.83,37.18,1.55,51.44,1.48,11.5-.08,18.31,.08,29.37,.72,7.9,.45,21.59,1.1,30.38,1.4,8.79,.34,22.85,.91,31.19,1.33,21.67,1.06,23.37,1.1,39.09,1.52,7.82,.23,22.28,.72,32.2,1.14,30.87,1.25,40.51,1.48,75.14,1.78,53.87,.46,103.09,.38,120.91-.23,12.72-.38,18.92-.42,30.18-.08,23.05,.72,26.78,1.1,40.79,4.43,9.16,2.12,11.38,3.18,11.75,5.46l.12,.95h-7.9c-4.33,0-14.62-.23-22.89-.53-15.84-.57-39.29-.42-47.19,.34-11.1,1.02-18.67,2.46-22.93,4.43-4.13,1.89-7.05,5.91-7.05,9.77v1.59l-2.75,.27c-3.36,.3-4.58,.87-4.98,2.2-.32,1.21,.24,1.82,.65,.68,.28-.87,.69-.91,4.94-.34,3.12,.42,3.2,.49,5.1,2.46,3.36,3.49,8.18,5.11,20.94,7.12,11.26,1.74,20.94,2.46,42.73,3.26,6.03,.23,16.04,.68,22.28,.99,6.24,.34,21.55,.76,34.02,.91,16.32,.27,23.94,.49,27.14,.91,7.33,.95,25.28,1.1,50.43,.45,25.32-.68,49.09-1.18,84.25-1.74,12.8-.23,27.95-.64,33.62-.95,64.57-3.41,136.14-5.3,153.31-4.02,3.36,.26,15.92,.61,27.95,.79,22.72,.38,24.83,.49,42.94,2.61,14.46,1.71,56.59,5.95,71.49,7.2,14.26,1.21,26.25,1.48,38.08,.8,13.69-.8,21.87-2.12,39.9-6.52l11.34-2.77,6.89,.04c6.48,0,7.41,.11,15.19,1.59,9.24,1.74,14.78,2.54,20.86,2.92,6.52,.42,11.87-.38,36.66-5.49,13-2.65,13.41-2.69,34.23-1.7,14.5,.64,45.45,1.33,62.38,1.33,15.64,0,23.94,.49,32.89,1.93,9.48,1.52,18.07,1.86,22.64,.91,8.67-1.78,13.12-5.65,13.12-11.37-.04-5.64-4.38-9.24-12.76-10.57-15.72-2.5-33.46-3.98-52.86-4.36l-14.78-.34-4.45-1.33c-2.43-.72-5.83-1.52-7.49-1.74-7.94-1.1-25.88-1.86-51.93-2.2-10.45-.11-18.96-.27-18.96-.3,0,0,.81-.87,1.82-1.86,.97-.98,2.23-2.65,2.79-3.71,.57-1.02,1.82-2.54,2.84-3.37,5.59-4.59,4.66-12.28-1.9-15.38-1.13-.53-3.77-1.29-5.91-1.67-3.61-.68-4.33-.98-10.57-4.51-12.11-6.82-17.86-8.75-26.13-8.75-5.55,0-9.76,.61-21.75,3.22-5.18,1.14-10.53,2.24-11.83,2.46-2.88,.49-14.58,.08-37.31-1.29-26.21-1.63-33.66-2.01-44.76-2.46-5.91-.19-13.33-.49-16.49-.61l-5.79-.23-1.3-2.27c-3.4-5.99-12.15-10.87-23.82-13.34-7.05-1.52-23.9-2.8-30.3-2.39-3.4,.23-3.44,.19-3.93-3.33-.36-2.99-1.94-7.99-3.65-11.71-3.85-8.26-13.29-18.15-24.75-25.8-15.51-10.46-38.28-17.54-58.29-18.26-25.48-.87-46.38,8.45-67.44,30.01-2.75,2.8-5.27,5.19-5.63,5.27-1.01,.3-11.87,1.74-13.08,1.74-.93,0-1.18-.27-1.78-2.01-2.51-7.24-9.76-16.1-16.36-20.04-9.44-5.64-24.22-9.4-37.06-9.4-1.9,0-3.44-.11-3.44-.23s.61-1.55,1.38-3.18c8.43-17.85,8.83-38,1.17-58.84-4.17-11.44-9.92-21.1-18.63-31.33-6.56-7.69-19.77-19.29-27.99-24.55C752.51,7.11,712.17-1.98,674.29,.37h0Z"/></svg>