<?xml version="1.0" encoding="UTF-8"?><svg id="a" xmlns="http://www.w3.org/2000/svg" viewBox="0 0 672.4 106.7"><path d="M455.22,.44c-6.68,1.17-11.59,3.49-15.35,7.28-3.04,3.03-4.98,6.33-7.13,12.01-.93,2.5-1.86,4.62-2.11,4.7-.24,.08-4.25-.15-8.91-.45-11.26-.8-13.21-.76-20.01,.34-5.63,.91-6.28,.91-24.02,.83-19.08-.08-21.47,.08-28.35,1.67-5.39,1.29-8.87,3.07-12.35,6.37-3.52,3.33-5.06,5.83-7.94,13.07q-2.19,5.53-7.41,6.37c-3.52,.57-6.52,.27-24.55-2.31-20.09-2.92-23.45-3.22-36.86-3.22-12.8-.04-16.32,.34-22.97,2.27-5.43,1.59-8.63,3.37-12.31,6.78-3,2.77-3.52,3.52-6.28,8.72-3.57,6.71-4.13,7.2-11.14,9.4-9.84,3.03-13.41,3.26-52.41,3.33l-32.61,.04-4.94-.98c-9.96-2.01-19.56-2.23-26.08-.64-5.59,1.33-23.25,8.49-26.41,10.65-1.5,1.02-3.61,3.45-4.01,4.62-.08,.23-4.74,.76-11.46,1.29-21.95,1.74-39.74,3.15-43.71,3.41-3.48,.23-4.17,.38-4.98,1.14-1.18,1.1-1.22,2.8-.12,3.75,.89,.76-.61,.64,24.3,2.08,7.25,.42,23.37,1.36,35.85,2.12,12.48,.72,25.32,1.44,28.56,1.59,7.53,.34,146.55-.95,151-1.36,4.17-.42,6.56-1.71,8.38-4.4,1.05-1.59,1.22-2.24,1.22-4.36-.04-2.88-.77-4.51-2.96-6.36-.81-.68-1.38-1.33-1.25-1.4,.36-.38,7.01-1.02,12.31-1.25,7.66-.3,27.54,.64,53.87,2.54,17.54,1.25,22.76,1.55,35.04,1.89,12.68,.38,17.38,.91,36.25,4.17,11.1,1.93,17.34,2.65,26.53,3.03,21.1,.95,24.67,1.17,34.63,2.35,9.8,1.14,11.42,1.21,23.29,1.21,13.16,.04,16.81-.19,29.97-1.86,16.32-2.05,29.61-2.2,40.55-.42,9.92,1.59,15.39,1.82,32.2,1.29,11.87-.34,17.66-.34,27.14,.04,24.47,.95,30.91,.95,46.74,.08,16.69-.95,19.6-1.25,22.24-2.35,2.39-.98,3.52-2.01,4.74-4.21,2.51-4.62,.12-10.15-5.35-12.28-.85-.34-2.07-.95-2.67-1.33-2.31-1.55-4.17-1.82-16.65-2.43-17.13-.83-37.51-2.01-41.6-2.46-6.36-.68-6.56-.8-11.95-5.68-5.91-5.38-8.87-7.65-12.88-10-6.89-4.02-14.58-5.99-26.41-6.67-3.77-.23-7.09-.49-7.33-.57s-1.66-2.27-3.12-4.89c-5.63-9.96-10.81-16.97-17.29-23.45-12.27-12.2-28.84-21.1-45.12-24.36-4.21-.83-6.16-1.02-13.81-1.14-6.6-.08-9.72,0-11.99,.42h0Z"/></svg>