<?xml version="1.0" encoding="UTF-8"?><svg id="a" xmlns="http://www.w3.org/2000/svg" viewBox="0 0 426.04 103.14"><path d="M192.61,.56c-10.82,1.55-23.41,6.18-32.49,11.94-13.29,8.37-21.14,18.79-22.64,30.01-.24,1.67-.36,1.82-1.13,1.63-3.32-.83-10.61-2.24-14.14-2.69-16.85-2.24-28.15,2.23-30.74,12.16-.24,1.02-.57,1.97-.73,2.08-.32,.34-12.31-.27-22.93-1.18-4.9-.45-13.73-.95-19.65-1.14-5.91-.19-16.16-.57-22.8-.83-12.64-.49-17.09-.27-19.65,.98-4.58,2.23-6.72,6.78-5.27,11.29,.65,2.08,3.2,4.62,5.75,5.76,3.57,1.59,14.5,3.26,28.8,4.43,2.92,.23,6.44,.72,7.9,1.1,1.82,.49,5.23,.83,11.14,1.14,4.7,.23,12.15,.64,16.61,.95,4.45,.3,12.39,.72,17.62,.95,5.23,.19,13.73,.64,18.84,.95,26.57,1.63,40.3,2.46,45.77,2.69,5.83,.23,6.16,.3,7.78,1.36,2.19,1.4,3.28,1.74,13.89,4.51,4.78,1.25,12.8,3.52,17.82,5.08,16.28,4.96,29.21,7.96,38.89,8.94,5.99,.65,26.57,.61,33.01,0,12.52-1.21,20.94-3.71,29.2-8.68,6.76-4.05,7.21-4.13,32.77-4.43,28.92-.34,40.79-1.02,46.66-2.65,1.46-.42,5.67-.57,17.34-.72,22.89-.27,28.8-.95,32.36-3.67,2.92-2.27,4.13-6.25,3.04-9.97-.61-2.08-3.73-4.89-6.28-5.68-3.2-.99-13.04-1.36-29.12-1.14-14.26,.23-14.7,.23-21.06-.72-12.88-1.93-29.85-3.3-41.32-3.3-6.64,0-6.72,0-8.83-1.1-2.39-1.25-5.06-1.78-11.18-2.16-4.74-.3-4.21,0-10.37-5.45-8.39-7.43-16.69-10.61-29.24-11.25l-4.54-.23-.65-2.88c-4.21-17.92-20.29-31.33-44.31-36.94-2.15-.53-5.18-1.1-6.8-1.33-3.97-.57-14.91-.45-19.32,.19h0Z"/></svg>