<?xml version="1.0" encoding="UTF-8"?><svg id="a" xmlns="http://www.w3.org/2000/svg" viewBox="0 0 897.69 278.98"><path d="M551.41,.09c-17.62,1.25-33.74,4.09-50.79,8.94-31.03,8.79-58.77,23.45-78.95,41.79-23.41,21.22-37.06,43.27-42.57,68.69-2.19,10.12-2.67,14.97-2.67,27.85,0,6.4-.04,11.63-.04,11.63-.04,0-3.04-1.25-6.68-2.8-15.43-6.48-26.9-9.59-40.02-10.87-6.44-.61-18.11-.23-23.17,.76-11.46,2.31-19.77,6.4-24.34,12.05-3,3.71-3.73,5.91-3.73,11.1,0,4.58,.49,6.78,2.47,10.99l.97,2.05-1.82,1.44c-1.01,.8-2.43,2.31-3.12,3.33l-1.3,1.9h-3.61c-1.94,0-8.99-.53-15.64-1.17-19.56-1.86-35.48-2.05-48.08-.53-16.32,1.97-23.61,6.37-27.83,16.75-1.09,2.69-1.42,3.14-2.19,3.14-.53,0-5.75-.57-11.59-1.29-5.87-.72-13-1.52-15.92-1.78-7.01-.64-22.24-.68-25.92-.04-8.51,1.48-15.23,4.13-19.4,7.69-3.04,2.61-4.58,4.93-6.12,9.4-.61,1.74-1.46,3.49-1.86,3.86-.41,.38-1.94,1.06-3.48,1.52-3.28,.98-11.87,1.4-31.92,1.44-13.33,.04-16.36,.26-34.75,2.65-4.7,.64-10.33,1.33-12.44,1.55-10.78,1.17-14.38,2.84-14.87,7.01-.57,4.55,3.36,7.77,11.79,9.7,2.47,.57,5.83,.83,13.81,1.14,5.79,.19,13.81,.64,17.82,.95,4.01,.3,12.84,.72,19.65,.91,6.8,.23,14.38,.57,16.81,.79,7.37,.65,34.51,1.1,42.21,.72,8.3-.42,11.46-.76,24.02-2.54l9.52-1.36,17.62,.08,17.62,.11,8.3,1.25c11.75,1.82,23.78,3.37,38.08,4.89,8.1,.87,15.35,1.93,21.06,3.03,14.54,2.77,17.7,3.07,42.13,4.02,9.44,.34,24.18,1.48,46.18,3.56,16.16,1.52,22.4,1.89,31.59,1.89,11.1,0,18.35-.87,34.43-4.17,8.95-1.82,13.89-2.46,26.73-3.37,4.58-.34,10.77-.95,13.77-1.44,4.46-.64,7.17-.8,14.79-.83h9.32l8.91,2.77c44.11,13.68,80.28,18.94,121.03,17.54,25.6-.87,37.99-2.2,53.59-5.72,13.24-2.99,21.67-6.14,35.6-13.22,4.46-2.27,9.6-4.81,11.42-5.64l3.32-1.52,8.83-.23c4.86-.15,16.4-.49,25.64-.8,9.23-.3,25.11-.76,35.24-.95,17.05-.38,30.95-1.1,47.19-2.46,10.77-.91,28.68-1.63,45.57-1.89,17.74-.27,18.63-.38,21.14-2.65,2.11-1.93,2.92-3.75,2.92-6.52-.04-2.96-1.5-5.42-4.33-7.2-2.51-1.55-4.5-1.89-14.46-2.42-4.58-.23-8.95-.61-9.72-.83-.93-.27-9.36-.49-24.3-.64l-22.89-.23-9.11-2.5c-10.29-2.88-15.07-4.36-22.08-6.93-8.43-3.07-16-4.36-25.6-4.36-6.36,0-8.43-.38-17.62-3.03-13.61-3.94-20.25-5.08-30.1-5.04-4.78,.04-7.74,.23-11.34,.87-2.67,.45-5.47,.91-6.16,1.02l-1.34,.23v-2.35c0-10.08-6.93-21.37-17.01-27.66-5.27-3.3-13.16-6.06-19-6.71-1.38-.11-2.47-.34-2.47-.42s.93-1.63,2.02-3.41c9.76-15.42,15.64-33.83,17.86-56,.61-6.14,.24-21.03-.61-26.11-3.65-20.84-11.75-36.49-26.13-50.35-5.96-5.76-10.09-8.98-16.28-12.88-16.4-10.19-38.68-17.31-61.33-19.59-4.25-.42-20.82-.8-24.3-.53h0Z"/></svg>