<?xml version="1.0" encoding="UTF-8"?><svg id="a" xmlns="http://www.w3.org/2000/svg" viewBox="0 0 891.13 228.83"><path d="M474.32,.06c-10.61,1.14-17.26,2.5-24.1,4.89-15.84,5.57-29.41,16.25-35.93,28.38-2.43,4.51-3.24,7.88-3.28,13.3,0,5.38,.49,7.5,3.77,17.5,4.05,12.28,4.86,17.69,2.92,19.51-1.3,1.21-4.58,1.82-12.44,2.2-15.15,.8-18.63,1.1-21.67,1.89-3.36,.87-6.6,2.42-9.19,4.39-.93,.72-1.86,1.29-2.15,1.29-.24,0-3.32-.76-6.81-1.71-7.98-2.16-13-3.07-19.93-3.64-9.52-.76-20.41,.19-28.96,2.5-16.2,4.39-21.79,11.63-17.98,23.15,.44,1.36,.73,2.77,.57,3.07-.36,.98-12.6,.42-23.7-1.06-7.78-1.02-10.33-1.21-17.21-1.25-9.15,0-10.94,.34-14.83,3.03-4.25,2.92-6.12,6.86-6.24,13.34-.08,2.35-.2,4.36-.32,4.47-.16,.15-6.93-1.02-16.08-2.84-4.94-.98-15.68-1.93-24.91-2.2-8.47-.27-23.94,.42-27.75,1.21-1.46,.3-5.1,1.67-8.1,3.03-8.47,3.83-15.27,4.93-34.23,5.49-16,.49-38.6,1.44-44.84,1.89-2.84,.19-9.64,.99-15.19,1.78l-10.05,1.4-21.67,.04c-13.98,.04-22.48,.23-23.98,.49-3.32,.61-5.02,1.44-7.7,3.9-2.07,1.9-2.35,2.35-2.35,3.64,0,1.21,.28,1.71,1.54,2.8,2.15,1.93,4.13,3.18,5.75,3.71,1.01,.3,5.55,.45,15.15,.42,9.48,0,13.85,.11,14.26,.42,.28,.23,1.58,.64,2.88,.91,1.3,.27,4.45,1.1,7.01,1.82,8.26,2.39,10.25,2.58,22.68,2.46,6.12-.04,11.38,.04,11.62,.19,.28,.15,1.9,.57,3.65,.87,4.82,.87,14.54,.72,24.83-.38,4.78-.53,11.46-1.18,14.78-1.44,7.7-.61,38.88-.61,59.34,.04,18.55,.57,46.74,1.17,73.52,1.55,11.38,.15,22.04,.49,23.7,.72,1.66,.23,9.07,.91,16.4,1.55,19.12,1.67,44.72,5.19,43.67,6.06-.49,.42-6.72,1.21-50.35,6.44-8.59,1.02-17.42,2.12-19.65,2.42-7.17,1.02-36.21,4.32-44.76,5.11-4.58,.42-15.03,1.14-23.29,1.55-8.22,.42-15.68,.95-16.53,1.17-3.08,.76-5.96,4.21-5.96,7.16s2.88,6.4,6.16,7.24c1.86,.45,15.23,0,26.25-.87,10.33-.83,29.77-.57,52.9,.76,12.96,.76,24.63,1.21,30.3,1.21h9.15l6.2,1.86c3.36,1.02,7.25,2.05,8.59,2.27,3.89,.64,44.52,5.27,49.82,5.68,2.67,.23,8.71,.49,13.37,.61,10.98,.3,13.85,.68,17.3,2.31,14.3,6.75,32.97,9.85,52.98,8.83,12.52-.64,21.39-2.31,31.47-6.02,4.9-1.78,20.09-8.15,21.87-9.17,1.54-.83,.16-.95,23.01,1.44,15.84,1.67,25.92,1.93,43.74,1.29,10.41-.38,15.31-.38,22.08-.04,4.78,.23,13.53,.68,19.44,.98,17.99,.91,32.85,1.52,35.73,1.48,2.27-.04,3.08-.23,4.66-1.14,3.44-2.01,4.7-5.95,3-9.47-1.54-3.18-3.81-4.05-13.41-5.08-6.68-.72-30.87-4.17-34.88-4.96-1.54-.3-2.07-.64-2.92-1.89l-1.05-1.52,1.7-.72c.93-.38,4.17-1.78,7.17-3.07l5.47-2.39,14.18-.26c7.82-.15,16.57-.49,19.48-.72,4.98-.42,5.83-.38,15.8,.72,37.47,4.13,41.52,4.43,51.48,3.83,3.61-.23,8.99-.76,11.95-1.17,12.35-1.74,14.3-1.67,29.89,.76,5.27,.83,12.35,1.71,15.8,1.97,16.73,1.17,34.39-1.82,49.22-8.3,5.83-2.58,7.25-2.92,12.56-3.3,5.99-.42,22.8-2.46,26.94-3.3,2.19-.45,6.48-.91,9.92-1.06,6.72-.3,8.39-.72,10.69-2.77,3.77-3.33,3.85-8.83,.24-12.24-3.2-2.99-.32-2.8-49.01-3.07l-43.34-.23-1.82-.83c-1.01-.49-4.94-2.01-8.71-3.41-3.77-1.36-6.93-2.54-6.97-2.61-.08-.08,.04-1.55,.24-3.3,.73-5.95-.61-11.52-4.09-17.32-2.43-4.05-8.67-9.89-13.08-12.2-9.84-5.19-24.3-7.01-34.88-4.43l-3.69,.87-1.9-4.17c-7.58-16.75-25.28-32.96-45.16-41.37-15.03-6.33-34.1-10.5-52.09-11.33-12.07-.53-30.09,1.67-43.38,5.3-2.63,.72-4.9,1.21-5.02,1.02-.16-.15-.61-1.71-.97-3.49-2.23-10.15-8.1-21.52-15.47-29.97-5.14-5.87-12.15-11.71-19.61-16.22-5.35-3.26-18.27-9.17-24.06-11.03C504.13,1.16,498.22,.21,485.46,.06c-5.35-.08-10.37-.08-11.14,0h0Z"/></svg>