<?xml version="1.0" encoding="UTF-8"?><svg id="a" xmlns="http://www.w3.org/2000/svg" viewBox="0 0 1130.12 289.65"><path d="M412.63,.4c-6.85,1.17-12.03,2.8-18.27,5.76-5.02,2.43-10.13,5.49-13.45,8.18-2.23,1.78-2.55,1.93-5.35,2.23-7.21,.76-12.39,2.08-18.23,4.7-7.17,3.26-14.05,8.34-18.27,13.56-2.67,3.3-5.31,8.6-6.36,12.73l-.89,3.52-3.73,2.8c-11.46,8.71-17.78,18.6-19.08,29.93-.24,1.86-.28,8.18-.2,14.06,.2,9.47,.16,10.8-.41,11.63-1.46,2.05-2.67,6.48-3.12,11.4-.28,2.69-.57,5.08-.69,5.27-.32,.49-3.97,0-10.25-1.48-12.27-2.8-20.33-3.79-29.29-3.49-10.37,.3-16.73,2.24-21.71,6.55-3,2.58-4.62,5.04-7.33,10.99-1.13,2.46-2.63,5.3-3.32,6.33-3.2,4.66-7.29,5.46-29.89,5.91-16.89,.38-18.92,.64-24.02,3.14-4.37,2.2-6.81,4.85-10.01,11.06-3.2,6.21-3.12,6.14-10.09,7.99-8.43,2.2-31.68,6.74-44.8,8.71-3.56,.57-11.67,1.82-18.03,2.84-25.92,4.2-26.13,4.2-51.04,4.55-19.36,.27-22.76,.38-27.5,1.1-8.46,1.21-11.54,2.24-14.18,4.66-2.47,2.27-3.73,6.06-2.92,8.9,.73,2.46,2.83,5.04,5.1,6.21,5.71,2.99,10.17,3.26,62.78,3.75,38.36,.34,44.96,.34,53.63-.19,9.4-.57,11.83-.53,48,.38,75.87,1.9,89.84,2.12,132.41,2.43l43.26,.3,1.9,1.74c2.27,2.05,3.69,2.73,13.37,6.33,6.04,2.23,8.02,3.18,10.77,5.08,1.86,1.25,3.73,2.5,4.13,2.73,.57,.3-.73,.45-5.51,.64-7.09,.3-10.49,.91-13.77,2.58-3.65,1.86-10.45,4.13-14.74,4.93-5.35,.98-7.61,1.1-30.82,1.48-14.22,.23-21.1,.49-24.3,.95-5.02,.64-8.67,.45-15.84-.99-5.79-1.14-12.52-1.33-19.6-.57-10.98,1.21-25.15,4.02-28.68,5.68-3.69,1.74-5.87,4.93-5.87,8.56,0,5.08,3.77,8.6,10.13,9.43,1.5,.19,5.95,.45,9.84,.61,14.79,.45,28.68,1.78,45.77,4.36,13.49,2.01,15.76,2.27,23.7,2.54,7.94,.23,15.51-.19,30.91-1.78,5.99-.64,13.24-1.29,16.12-1.48l5.22-.34,4.66,2.35c4.09,2.08,16.12,7.43,20.33,9.06,2.19,.87,11.54,3.45,17.13,4.77,12.23,2.84,20.66,3.83,36.05,4.09,28.11,.53,52.74-3.22,84.17-12.77l6.36-1.93,11.87,1.33c15.76,1.78,21.18,2.12,33.7,2.12,11.58,0,19.73-.42,30.7-1.52,15.96-1.63,21.95-1.44,43.83,1.48,19.93,2.69,21.75,2.84,31.8,2.84h9.11l37.27-5.15,9.11,.19c7.25,.15,11.42,.49,20.46,1.59,15.92,1.93,24.02,2.12,40.91,.8,6.93-.53,14.66-1.06,17.21-1.21,6.2-.3,32.81,.76,48.2,1.97,10.73,.87,13.73,.95,23.09,.76,12.23-.23,25.96-.79,34.23-1.4,3.12-.23,9.32-.53,13.77-.68,7.13-.27,8.34-.42,10.25-1.17,3.73-1.52,5.75-4.4,5.75-8.22,0-2.77-.97-4.81-3.16-6.63-2.75-2.31-4.41-2.77-20.33-5.42-10.61-1.78-11.67-2.12-15.88-5.53-6.08-4.93-9.11-5.53-20.45-4.02-7.41,.98-7.7,.98-13.73-.45-7.53-1.78-10.61-2.08-35.61-3.07-38.89-1.59-53.63-2.88-71.77-6.25-11.02-2.08-19.56-4.09-27.26-6.48-6.77-2.08-6.72-2.16,1.74-2.58,4.9-.27,4.98-.27,10.61,1.25,7.78,2.08,12.35,2.99,18.15,3.6,18.31,2.01,41.36,.34,60.56-4.32l6.2-1.52,14.87-.15c23.9-.23,32.85-1.55,46.05-6.74l4.86-1.93,13.16-.3c7.25-.19,18.63-.68,25.32-1.1,6.68-.45,20.54-.95,30.78-1.18,25.32-.49,29.16-.72,31.68-1.97,5.63-2.8,5.1-2.69,11.46-2.65,3.24,0,8.59,.19,11.87,.38,10.49,.72,16.36-.19,22.16-3.45,1.98-1.14,4.05-1.93,5.99-2.35,3.44-.72,6.44-.49,17.34,1.36,11.91,2.01,19.44,2.27,38.68,1.36,9.4-.45,11.02-.64,12.8-1.36,7.94-3.18,7.9-13.07-.04-16.33-1.9-.8-2.55-.83-7.53-.68-3,.08-12.56,.11-21.27,.08-15.59-.08-15.88-.08-23.01-1.21-6.97-1.14-17.09-1.89-25.03-1.93q-3.52,0-5.47-1.55c-3.4-2.65-10.65-5.46-18.02-6.97-4.66-.95-13.41-1.14-19.36-.42-2.75,.34-5.06,.57-5.1,.53-.08-.08-.89-2.01-1.78-4.28-3.32-8.3-9.52-18.98-14.02-24.25-.85-1.02-1.82-3.11-3-6.44-2.92-8.56-7.7-15.61-14.95-22.24-4.98-4.51-8.79-7.01-15.68-10.12-8.71-3.98-14.99-5.61-23.09-5.99-9.03-.42-17.82,1.14-25.07,4.36-5.47,2.46-10.37,5.49-14.14,8.79-3.69,3.22-5.51,5.46-7.74,9.55l-1.66,3.07-3.44,.65c-1.9,.38-4.7,1.14-6.28,1.7-1.54,.57-3.36,1.06-4.05,1.1-.65,.04-1.5,.23-1.82,.42-.32,.19-2.59,.3-5.06,.27-8.59-.23-16.2,2.65-22.64,8.56-3.93,3.6-6.48,7.73-7.57,12.31-.4,1.7-.65,2.16-1.13,2.05-.36-.11-2.84-1.06-5.51-2.08-8.3-3.18-14.58-4.4-22.48-4.36-6.2,.04-10.86,1.06-16.81,3.71-2.23,.98-4.54,1.93-5.14,2.08l-1.09,.3,.24-5.53c.2-4.89,.12-5.99-.65-8.98-1.58-6.21-6.16-13.87-11.14-18.72-4.66-4.51-9.4-7.39-16.65-10.16-2.43-.95-5.1-2.04-5.91-2.42-4.58-2.16-13.16-3.3-19.89-2.65-2.47,.27-4.66,.49-4.9,.53-.2,.04-.81-1.14-1.3-2.61-1.05-3.26-4.09-8.68-6.4-11.48-6.2-7.54-18.23-17.05-30.05-23.72-19-10.68-39.29-17.24-59.3-19.13-5.59-.49-9.11-.45-14.22,.19-5.96,.72-10.73,2.12-16.45,4.74-9.72,4.43-15.31,9.51-22.24,20.23-.24,.38-1.9,.98-4.29,1.52-4.41,1.02-8.38,2.77-11.95,5.3-4.33,3.03-7.21,7.08-9.28,13.11-.61,1.78-1.38,3.52-1.74,3.86-.32,.38-2.35,1.55-4.5,2.61-2.15,1.1-4.78,2.54-5.83,3.26-1.09,.72-2.03,1.25-2.07,1.18-.04-.08-.32-1.59-.57-3.41-1.5-9.96-6.36-19.1-13.69-25.69-6.48-5.84-14.58-10.08-23.05-12.12-2.76-.64-2.84-.72-2.71-1.74,.08-.61,.16-3.83,.16-7.16,.04-5.64-.04-6.29-1.09-9.47-.61-1.9-1.34-4.85-1.62-6.63-.61-3.67-1.13-5.19-3.16-8.9-4.42-8.18-14.78-18.45-24.22-24.02-3.81-2.2-12.11-5.84-16.04-7.01-6.4-1.86-11.22-2.58-18.35-2.73-4.41-.08-7.7,.04-9.72,.38h0Z"/></svg>