<?xml version="1.0" encoding="UTF-8"?><svg id="a" xmlns="http://www.w3.org/2000/svg" viewBox="0 0 680.64 102.19"><path d="M428.08,.16c-6.36,1.17-11.67,4.28-16.04,9.43-.85,1.02-1.7,2.01-1.9,2.12-.16,.11-1.94-.11-4.01-.49-7.58-1.4-12.8-1.89-23.01-2.08-9.48-.19-10.65-.11-14.58,.64-9.72,1.86-15.35,5.38-21.18,13.15-1.42,1.93-2.31,2.77-2.88,2.77-.49,0-3.57-.34-6.93-.8-7.7-.98-23.86-1.4-29.12-.76-6.36,.8-10.98,2.8-18.19,7.96-4.66,3.3-8.18,4.7-17.98,7.2-12.07,3.07-15.84,4.55-23.49,9.17-6.56,4.02-9.36,5.27-16,7.35-13.61,4.24-33.26,8.03-48.12,9.28-6,.49-27.54,1.4-45.16,1.89-32.4,.91-49.78,1.86-70.48,3.79-17.78,1.63-17.54,1.63-23.01,1.14-3.97-.38-5.51-.38-7.09,0-3.28,.72-5.43,2.2-6.76,4.7l-1.21,2.2-1.82-.23c-1.01-.11-6.12-.34-11.34-.45-9.28-.27-9.56-.23-11.62,.61-5.31,2.12-7.58,7.2-5.19,11.59,1.54,2.8,4.29,4.36,8.71,4.89,4.33,.49,38.32,2.31,56.71,3.03,3.24,.11,11.26,.57,17.82,.98,21.91,1.33,36.49,1.86,52.45,1.86,18.71,0,25.84-.38,38.89-1.97,8.34-1.02,10.98-1.21,18.83-1.21,8.43-.04,9.68,.08,16.81,1.17,22.4,3.56,35.04,3.86,57.8,1.44,15.31-1.59,26.57-3.64,42.33-7.58,5.43-1.36,10.45-2.46,11.18-2.46,.77,0,3.24,.23,5.59,.53,8.06,1.06,14.42,1.44,26.69,1.55,9.03,.08,14.38,.34,19.85,.91,17.46,1.82,31.03,2.46,51.04,2.5,20.29,0,22.04-.15,45.61-4.02l5.31-.87,18.39,.64c10.13,.38,23.49,.83,29.69,1.06,6.28,.19,13.97,.68,17.22,1.1,3.24,.38,9.4,1.14,13.65,1.67,29.45,3.64,58.33,5.99,79.96,6.55,10.53,.27,13.08-.04,24.51-2.73,3.81-.87,7.82-1.71,8.99-1.82,1.13-.11,2.8-.57,3.69-.99,1.86-.87,5.99-4.96,6.76-6.63,.93-2.12,1.38-3.67,1.17-4.17-.24-.64-2.35-1.74-3.28-1.74-.45,0-1.18-.49-1.66-1.1-.49-.61-1.86-1.55-3.12-2.12-1.86-.87-2.92-1.06-5.99-1.17-28.6-1.02-31.39-1.21-40.18-2.84-6.36-1.17-9.84-1.44-31.59-2.2-9.03-.34-10.53-.49-13.77-1.36-7.7-2.12-10.45-3.49-17.74-9.05-10.09-7.69-17.09-12.24-23.17-15.12-8.75-4.09-21.18-7.01-35.04-8.22-2.79-.23-5.43-.49-5.87-.57-.45-.08-2.55-2.16-4.66-4.62-9.52-11.03-23.57-22.16-35.65-28.26-4.58-2.27-11.67-4.96-16.28-6.18-3.69-.95-11.83-1.52-14.5-1.06h0Z"/></svg>